<?xml version="1.0" standalone="no"?>
<!DOCTYPE svg PUBLIC "-//W3C//DTD SVG 1.1//EN" "http://www.w3.org/Graphics/SVG/1.1/DTD/svg11.dtd" >
<!--
2013-9-30: Created.
-->
<svg>
<metadata>
Created by iconfont
</metadata>
<defs>

<font id="iconfont" horiz-adv-x="1024" >
  <font-face
    font-family="iconfont"
    font-weight="500"
    font-stretch="normal"
    units-per-em="1024"
    ascent="896"
    descent="-128"
  />
    <missing-glyph />
    
    <glyph glyph-name="cl-icon-loading" unicode="&#58966;" d="M992.70495868 421.11022354V356.38318354H733.79793646v64.72704h258.90702222z m-711.99630221 0V356.38318354H21.80277201v64.72704h258.90702223z m194.18111999-258.90816H539.61681646v-258.90702222h-64.72704V162.20206354000004z m0 711.99630221H539.61681646v-258.90702222h-64.72704V874.19722799z m388.36110223-796.14065776l-45.30858668-45.30858668-181.23548444 181.23434667 45.30972445 45.30972445 181.23434667-181.23662222zM377.79978534 563.5088013100001l-45.30858665-45.30858665-181.23662223 181.23662221 45.30972446 45.30744889 181.23548442-181.23548445z m-45.30858665-304.21560888l45.30858665-45.30972445-181.23662221-181.23434667-45.30744889 45.30858668 181.23548445 181.23548444z m485.45109332 485.45109333l45.30858667-45.30858668-181.23434667-181.23548442-45.30972444 45.30858665 181.23662222 181.23662223z"  horiz-adv-x="1024" />

    
    <glyph glyph-name="cl-icon-set" unicode="&#58968;" d="M903.24992 348.00981333000004c1.14688 11.90570667 1.85685333 23.86602667 1.85685333 35.99018667s-0.70997333 24.08448-1.85685333 35.99018667l91.25888 72.14421333c19.77002667 16.16554667 24.84906667 44.01834667 12.17877333 66.02752l-97.32096 170.28437333c-12.34261333 21.62688-38.77546667 32.00341333-63.78837333 22.39146667L738.64533333 707.36554667c-19.60618667 14.09024-40.1408 26.15978667-61.27616 36.0448L661.14901333 858.97216C657.32608 883.98506667 635.37152 902.82666667 610.14016 902.82666667h-194.69653333c-25.55904 0-47.02208-18.40469333-51.06346667-44.2368l-16.16554667-115.17952c-21.18997333-9.93962667-41.72458667-22.00917333-61.33077333-36.0448L179.67786667 751.0016c-23.10144 8.95658667-51.06346667-0.92842667-63.40608-22.55530667L18.95082667 558.21653333c-12.67029333-22.17301333-7.59125333-50.02581333 12.50645333-66.3552l90.87658667-71.87114666c-1.14688-11.85109333-1.85685333-23.86602667-1.85685334-35.99018667s0.70997333-24.13909333 1.85685334-35.99018667L30.96576 275.8656c-19.60618667-16.22016-24.68522667-44.01834667-12.01493333-65.97290667l97.37557333-170.3936c12.39722667-21.57226667 39.43082667-31.9488 63.73376-22.28224l106.93290667 43.47221334c19.6608-14.09024 40.19541333-26.15978667 61.27616-35.99018667l16.22016-115.72565333C368.47616-116.42197333000001 389.9392-134.8266666699999 415.44362667-134.8266666699999h194.64192c25.23136 0 47.13130667 18.8416 51.11808 44.2368l16.16554666 115.23413334a387.81269333 387.81269333 0 0 1 61.27616 36.0448l107.20597334-43.69066667c6.00746667-2.34837333 12.288-3.49525333 18.73237333-3.49525333 18.35008 0 35.49866667 9.93962667 44.78293333 26.05056l97.15712 170.17514666c12.72490667 21.95456 7.80970667 49.80736-12.45184 66.57365334l-90.82197333 71.70730666z m-37.13706667-280.27562666L744.92586667 117.05002666999997c-9.06581333 3.76832-19.33312 2.29376-27.0336-3.71370667-23.92064-18.56853333-49.47968-33.5872-76.02176-44.61909333-8.90197333-3.71370667-15.18250667-11.90570667-16.54784-21.46304l-17.85856-127.52213334-189.01674667-2.78528-18.24085333 130.30741334c-1.31072 9.55733333-7.64586667 17.69472-16.54784 21.46304-26.32362667 10.92266667-51.93728 25.99594667-76.02176 44.61909333a27.57404445 27.57404445 0 0 1-16.71168 5.67978667c-3.44064 0-6.93589333-0.65536-10.26730667-2.02069334l-116.92714667-50.40810666-98.35861333 166.78912 102.78229333 81.15541333c7.53664 5.95285333 11.35957333 15.45557333 10.15808 24.95829333-1.96608 14.63637333-3.22218667 29.43658667-3.22218666 44.50986667s1.25610667 29.87349333 3.16757333 44.40064c1.25610667 9.55733333-2.56682667 19.00544-10.15808 24.95829333l-101.74464 77.71477334 93.11573333 169.19210666 121.07776-49.26122666a27.24067555 27.24067555 0 0 1 27.0336 3.65909333c23.97525333 18.56853333 49.64352 33.64181333 76.1856 44.78293333 8.90197333 3.71370667 15.12789333 11.85109333 16.49322667 21.40842667L415.44362667 848.21333333l191.6928 2.78528 18.24085333-130.2528c1.31072-9.55733333 7.64586667-17.69472 16.54784-21.40842666 26.43285333-11.03189333 52.04650667-26.05056 76.07637333-44.67370667 7.75509333-5.95285333 18.0224-7.3728 27.0336-3.71370667l116.92714667 50.35349334 98.41322667-166.67989334-102.83690667-81.26464c-7.53664-5.95285333-11.41418667-15.40096-10.21269333-24.90368 1.85685333-14.63637333 3.22218667-29.43658667 3.22218666-44.50986666s-1.31072-29.87349333-3.22218666-44.50986667c-1.20149333-9.50272 2.67605333-18.95082667 10.21269333-24.90368l101.69002667-77.60554667-93.11573334-169.19210666zM512.87381333 589.89226667c-112.61269333 0-204.19925333-92.35114667-204.19925333-205.89226667 0-113.48650667 91.58656-205.89226667 204.19925333-205.89226667 112.61269333 0 204.14464 92.35114667 204.14464 205.89226667s-91.58656 205.89226667-204.14464 205.89226667z m0-357.1712c-82.46613333 0-149.58592 67.82976-149.58592 151.27893333s67.11978667 151.27893333 149.58592 151.27893333c82.46613333 0 149.53130667-67.88437333 149.53130667-151.27893333S595.28533333 232.72106667000003 512.87381333 232.72106667000003z"  horiz-adv-x="1024" />

    
    <glyph glyph-name="cl-icon-warning-solid" unicode="&#58973;" d="M512 893.72444445C230.55928887 893.72444445 2.27555555 665.44071113 2.27555555 384c0-281.51352889 228.28373334-509.72444445 509.72444445-509.72444445 281.58634668 0 509.72444445 228.21091555 509.72444445 509.72444445 0 281.44071113-228.13809779 509.72444445-509.72444445 509.72444445z m0-800.99555556c-30.07374223 0-54.61333333 24.46677333-54.61333333 54.61333333s24.53959113 54.61333333 54.61333333 54.61333333c30.29219555 0 54.61333333-24.46677333 54.61333333-54.61333333s-24.32113778-54.61333333-54.61333333-54.61333333z m54.61333333 273.06666666c0-30.21937779-24.32113778-54.61333333-54.61333333-54.61333333-30.07374223 0-54.61333333 24.39395556-54.61333333 54.61333333V620.6577777800001c0 30.21937779 24.53959113 54.61333333 54.61333333 54.61333333 30.29219555 0 54.61333333-24.39395556 54.61333333-54.61333333v-254.86222223z"  horiz-adv-x="1024" />

    
    <glyph glyph-name="cl-icon-warning" unicode="&#58974;" d="M566.61333333 365.79555555c0-30.14656-24.32113778-54.61333333-54.61333333-54.61333333-30.07374223 0-54.61333333 24.46677333-54.61333333 54.61333333V620.6577777800001c0 30.21937779 24.53959113 54.61333333 54.61333333 54.61333333 30.29219555 0 54.61333333-24.39395556 54.61333333-54.61333333v-254.86222223z m0-218.45333333c0 30.14656-24.32113778 54.61333333-54.61333333 54.61333333-30.07374223 0-54.61333333-24.46677333-54.61333333-54.61333333s24.53959113-54.61333333 54.61333333-54.61333333c30.29219555 0 54.61333333 24.46677333 54.61333333 54.61333333zM512 893.72444445C230.55928887 893.72444445 2.27555555 665.44071113 2.27555555 384c0-281.51352889 228.28373334-509.72444445 509.72444445-509.72444445 281.58634668 0 509.72444445 228.21091555 509.72444445 509.72444445 0 281.44071113-228.13809779 509.72444445-509.72444445 509.72444445z m0-947.50492445c-241.75502222 0-437.78048 195.95264001-437.78048 437.78048S270.24497778 821.78048 512 821.78048 949.63484445 625.75502222 949.63484445 384 753.75502222-53.78048000000001 512-53.78048000000001z"  horiz-adv-x="1024" />

    
    <glyph glyph-name="cl-icon-user" unicode="&#58975;" d="M511.78382222 337.47512888999995c-74.33671111 0-144.22471111 28.94734222-196.78890667 81.5104-52.56419556 52.56533333-81.51153778 122.45105778-81.51153777 196.78890665s28.94734222 144.22471111 81.51153777 196.78890668C367.55911111 865.1264 437.44711111 894.07488001 511.78382222 894.07488001c74.33671111 0 144.22357333-28.94734222 196.78890667-81.51153779 52.56305778-52.56533333 81.51267555-122.45105778 81.51267556-196.79004444S761.13692445 471.552 708.57272889 418.98666667c-52.56533333-52.56305778-122.45219555-81.5104-196.79004444-81.51039999z m0 482.08554666c-112.36693333 0-203.78624-91.41816887-203.78624-203.78510222S399.41688889 411.98933333 511.78382222 411.98933333c112.36807111 0 203.78510221 91.41816887 203.78510223 203.78624S624.15075555 819.56067555 511.78382222 819.56067555zM870.68330667-125.33646222000004H152.8832c-47.18136887 0-90.70364445 21.47783111-119.40522667 58.92778667-28.54798221 37.24970667-38.02453334 84.55509332-26.05511112 129.89326222l62.86336001 274.27384888 0.18204445 0.67811556c19.05095111 70.76522668 82.88483555 120.49408 155.90968888 121.89923555l112.70371556 18.24312889 11.90684444-73.55733332-118.42901333-19.17041778h-2.99576889c-40.50716445 0-76.17877333-27.17240889-86.97173333-66.16291555l-62.83946667-274.17372445-0.18318222-0.67697777c-6.18951113-22.99448889-1.43246222-47.02094222 13.05144889-65.9205689 14.4839111-18.89848889 36.4498489-29.73923555 60.26126222-29.73923556h717.79896889c23.81255111 0 45.77621333 10.84074667 60.26126222 29.73923556 14.48504889 18.89848889 19.24209778 42.92721778 13.05144889 65.9205689l-0.33792 1.36078219-62.68472889 273.48764446c-10.79409778 38.99164445-46.46456889 66.16632889-86.97287111 66.1663289h-2.99349333l-118.51093333 19.17041777 11.89887999 73.55847111 112.79018667-18.24312889c73.02599111-1.40629332 136.86101333-51.13287111 155.91196445-121.89923554l0.33792-1.36078223 62.70862222-273.59232c11.97056-45.34044445 2.49400889-92.64241778-26.05511111-129.89212445-28.70044444-37.45223111-72.22158223-58.93006222-119.40408889-58.93006222z"  horiz-adv-x="1024" />

    
    <glyph glyph-name="cl-icon-user-solid" unicode="&#58976;" d="M512 338.05653331999997c-74.33671111 0-144.22471111 28.94848-196.78776889 81.51153779-52.56533333 52.56533333-81.51267555 122.45105778-81.51267556 196.78776889s28.94848 144.22471111 81.51267556 196.79004445C367.77528889 865.70780445 437.66328889 894.65742223 512 894.65742223s144.22357333-28.94734222 196.79004445-81.51267556c52.56192-52.56419556 81.5104-122.45105778 81.5104-196.78890667s-28.94734222-144.22357333-81.5104-196.78776889c-52.56647111-52.56305778-122.45447111-81.5104-196.79004445-81.5104zM1016.14364445 63.48458667L953.43502223 337.07804445l-0.33792001 1.36078223c-19.05095111 70.76636445-82.88597333 120.49408-155.91196444 121.89923554l-9.74848 1.57696c-14.05041778-25.08231111-31.63363555-48.38741333-52.51868444-69.2736-59.60135111-59.60021333-138.84529778-92.42396445-223.13301334-92.42396444-84.28999111 0-163.5328 32.82375111-223.13301333 92.42396444-20.88618667 20.88618667-38.47054221 44.19128889-52.51982222 69.27473778l-9.75189334-1.57923555c-73.02599111-1.40629332-136.85873778-51.13400889-155.90968889-121.89923556l-0.18204444-0.67811556-62.86336-274.27271111c-11.97169778-45.33816889-2.49400889-92.64355555 26.05511111-129.89326222 28.70044444-37.44995555 72.22158223-58.92778667 119.40408889-58.92778667H870.68444445c47.18136887 0 90.70364445 21.47783111 119.40522665 58.92778667 28.54684445 37.24856889 38.02567111 84.55054222 26.05511112 129.89212445z"  horiz-adv-x="1024" />

    
    <glyph glyph-name="cl-icon-info-solid" unicode="&#58977;" d="M512 891.46709333C232.16128 891.46709333 4.53290667 663.83872 4.53290667 384S232.16128-123.46709333000001 512-123.46709333000001 1019.46709333 104.16128000000003 1019.46709333 384 791.83872 891.46709333 512 891.46709333zM548.40888889 129.13777777999996c0-20.13411555-16.27477333-36.40888889-36.40888889-36.40888889s-36.40888889 16.27477333-36.40888889 36.40888889V456.81777778c0 20.13411555 16.27477333 36.40888889 36.40888889 36.40888889s36.40888889-16.27477333 36.40888889-36.40888889v-327.68z m-36.40888889 436.90666667c-30.14656 0-54.61333333 24.50318222-54.61333333 54.61333333 0 30.18296889 24.46677333 54.61333333 54.61333333 54.61333333s54.61333333-24.43036445 54.61333333-54.61333333c0-30.11015111-24.46677333-54.61333333-54.61333333-54.61333333z"  horiz-adv-x="1024" />

    
    <glyph glyph-name="cl-icon-info" unicode="&#58978;" d="M512-123.46709333000001C232.19768889-123.46709333000001 4.53290667 104.16128000000003 4.53290667 384 4.53290667 663.80231111 232.19768889 891.46709333 512 891.46709333c279.83872 0 507.46709333-227.62837333 507.46709333-507.46709333 0-279.83872-227.62837333-507.46709333-507.46709333-507.46709333z m0 942.11640888c-239.67971555 0-434.64931555-194.9696-434.64931555-434.64931555 0-239.64330667 194.9696-434.64931555 434.64931555-434.64931555 239.64330667 0 434.64931555 194.9696 434.64931555 434.64931555S751.64330667 818.64931555 512 818.64931555zM457.38666667 620.6577777800001a1.70666668 1.70666668 0 1 1 109.22666666 0 1.70666668 1.70666668 0 1 1-109.22666666 0zM512 92.72888889000001c-20.09770667 0-36.40888889 16.27477333-36.40888889 36.40888889V456.81777778c0 20.09770667 16.31118222 36.40888889 36.40888889 36.40888889s36.40888889-16.31118222 36.40888889-36.40888889v-327.68c0-20.13411555-16.31118222-36.40888889-36.40888889-36.40888889z"  horiz-adv-x="1024" />

    
    <glyph glyph-name="cl-icon-question-solid" unicode="&#58979;" d="M512 893.72444445C230.92337778 893.72444445 2.27555555 665.07662222 2.27555555 384s228.64782222-509.72444445 509.72444445-509.72444445 509.72444445 228.64782222 509.72444445 509.72444445S793.07662222 893.72444445 512 893.72444445z m0-874.21383112c-30.14656 0-54.61333333 24.46677333-54.61333333 54.61333334s24.46677333 54.61333333 54.61333333 54.61333333 54.61333333-24.46677333 54.61333333-54.61333333-24.46677333-54.61333333-54.61333333-54.61333334z m100.77980445 372.24448C581.10407113 360.11576889 548.40888889 327.42058666 548.40888889 298.03861333v-61.56743111c0-20.09770667-16.31118222-36.40888889-36.40888889-36.40888889s-36.40888889 16.31118222-36.40888889 36.40888889v61.56743111c0 59.56494222 45.51111113 105.07605334 85.70652445 145.23505778C590.75242667 472.72846222 621.22666667 503.16629333 621.22666667 527.45102222c0 60.69361778-49.00636446 110.06407111-109.22666667 110.06407111-61.23975113 0-109.22666667-47.25873779-109.22666667-107.58826666 0-20.09770667-16.31118222-36.40888889-36.40888888-36.40888889s-36.40888889 16.31118222-36.4088889 36.40888889c0 99.46908445 81.66513778 180.40604445 182.04444445 180.40604444S694.04444445 628.30364446 694.04444445 527.45102222c0-54.46769778-41.32408889-95.75537779-81.26464-135.69592889z"  horiz-adv-x="1024" />

    
    <glyph glyph-name="cl-icon-question" unicode="&#58980;" d="M457.38666667 74.12394667000001c0-30.16248889 24.45084445-54.61333333 54.61333333-54.61333334s54.61333333 24.45084445 54.61333333 54.61333334-24.45084445 54.61333333-54.61333333 54.61333333-54.61333333-24.45084445-54.61333333-54.61333333zM512-125.72444444999996C230.92337778-125.72444444999996 2.27555555 102.92337778000001 2.27555555 384S230.92337778 893.72444445 512 893.72444445s509.72444445-228.64782222 509.72444445-509.72444445-228.64782222-509.72444445-509.72444445-509.72444445z m0 946.3045689c-240.73557333 0-436.58012445-195.84455111-436.58012445-436.58012445 0-240.69916445 195.84455111-436.58012445 436.58012445-436.58012445 240.69916445 0 436.58012445 195.87982222 436.58012445 436.58012445 0 240.73557333-195.88096 436.58012445-436.58012445 436.58012445z m0-620.55310223c-20.09884445 0-36.40888889 16.31118222-36.40888889 36.40775111v61.56743112c0 59.56608 45.50997333 105.07605333 85.70538667 145.23505777 29.45365333 29.4912 59.92903111 59.92903111 59.92903111 84.21376 0 60.69361778-49.00636445 110.06407111-109.22552889 110.06407111-61.23861333 0-109.22666667-47.25873778-109.22666667-107.58826666 0-20.09770667-16.31004445-36.40775111-36.40888888-36.40775112s-36.40888889 16.31118222-36.4088889 36.4088889c0 99.46794667 81.66286222 180.40490667 182.04444445 180.40490666S694.04444445 628.30364445 694.04444445 527.45102222c0-54.50410667-41.32408889-95.79064889-81.26464-135.73233777-31.67573333-31.60291555-64.36977778-64.29809778-64.36977778-93.67893334v-61.56743111c0-20.09884445-16.31118222-36.44529778-36.41002667-36.44529778z"  horiz-adv-x="1024" />

    
    <glyph glyph-name="cl-icon-remove" unicode="&#58981;" d="M731.66696297 422.83614815H292.33303703c-21.35988148 0-38.83614815-14.56355555-38.83614814-38.83614815s18.20444445-38.83614815 38.83614814-38.83614815h439.33392594c21.35988148 0 38.83614815 17.47626667 38.83614814 38.83614815s-17.47626667 38.83614815-38.83614814 38.83614815zM512 820.90666667c116.75117037 0 226.46328889-45.38974815 308.9901037-127.91656297S948.90666667 500.75117037 948.90666667 384s-45.38974815-226.46328889-127.91656297-308.9901037S628.75117037-52.90666667000005 512-52.90666667000005c-116.75117037 0-226.46328889 45.38974815-308.9901037 127.91656297S75.09333333 267.24882963000005 75.09333333 384s45.38974815 226.46328889 127.91656297 308.9901037S395.24882963 820.90666667 512 820.90666667m0 67.96325925C233.10791111 888.86992592 7.13007408 662.89208889 7.13007408 384s225.97783703-504.86992592 504.86992592-504.86992592 504.86992592 225.97783703 504.86992592 504.86992592S790.89208889 888.86992592 512 888.86992592z"  horiz-adv-x="1024" />

    
    <glyph glyph-name="cl-icon-remove-solid" unicode="&#58982;" d="M512 888.86992592C233.10791111 888.86992592 7.13007408 662.89208889 7.13007408 384s225.97783703-504.86992592 504.86992592-504.86992592 504.86992592 225.97783703 504.86992592 504.86992592S790.89208889 888.86992592 512 888.86992592z m219.66696297-543.70607407H292.33303703c-20.6317037 0-38.83614815 14.56355555-38.83614814 38.83614815s17.47626667 38.83614815 38.83614814 38.83614815h439.33392594c21.35988148 0 38.83614815-17.47626667 38.83614814-38.83614815s-17.47626667-38.83614815-38.83614814-38.83614815z"  horiz-adv-x="1024" />

    
    <glyph glyph-name="cl-icon-check" unicode="&#58988;" d="M998.62211445 724.76192616c-16.65294032 15.61730971-42.91653278 14.87165566-58.53384248-1.8227099L387.64147547 134.74245086999997l-301.78276187 297.35026284c-16.32153853 16.07298718-42.54370576 15.90728628-58.61669294-0.41425225-16.07298718-16.2801133-15.86586107-42.54370576 0.45567747-58.57526771l332.02317591-327.09357417c0.12427568-0.12427568 0.28997657-0.1657009 0.41425224-0.28997657s0.1657009-0.28997657 0.28997657-0.41425225c2.60978915-2.48551348 5.75810623-3.89397111 8.78214764-5.5509801 1.49130809-0.86992972 2.77549005-2.15411168 4.34964859-2.77549005 4.88817651-1.90556034 10.0663296-2.89976573 15.20305745-2.89976574 5.42670444 0 10.85340887 1.07705584 15.9072863 3.23116752 1.69843422 0.70422882 3.02404141 2.15411168 4.59819993 3.06546663 3.10689185 1.82270989 6.33805938 3.3554432 8.98927377 6.04808281 0.12427568 0.12427568 0.1657009 0.33140179 0.28997657 0.45567747 0.08285045 0.12427568 0.24855135 0.1657009 0.37282702 0.28997658L1000.40339911 666.2280836699999c15.74158539 16.6115151 14.87165566 42.83368233-1.78128466 58.53384249z"  horiz-adv-x="1024" />

    
    <glyph glyph-name="cl-icon-cloud-upload" unicode="&#58995;" d="M801.152 523.58400001C751.616 646.2719999999999 631.48800001 732.8 491.19999999 732.8c-178.176 0-323.584-139.20000001-333.82399998-314.752C68.864 408.00000001 0 332.928 0 241.66399998999998 0 143.55199999 79.55199999 64 177.664 64h261.18400001V210.30399999999997H292.54399999L512 502.84800001l219.45600001-292.54400001H585.15200001V64h209.02399998C921.15200001 64 1024 166.97599999 1024 293.88800000000003c0 124.60800001-99.13600001 225.98400001-222.848 229.69600001z"  horiz-adv-x="1024" />

    
    <glyph glyph-name="cl-icon-download" unicode="&#58996;" d="M864.37633066 413.27964161a40.23144319 40.23144319 0 0 1-56.06930133-0.18133334L550.5919776 162.48511894V844.48152641A39.1391776 39.1391776 0 0 1 510.90773439 883.19617068a39.1391776 39.1391776 0 0 1-39.62451093-38.59411094v-680.23640852L215.63323733 413.15910827a40.29224319 40.29224319 0 0 1-56.13010132-0.1216 37.86557867 37.86557867 0 0 1 0.05973333-54.6133024l321.42914879-312.62915305a39.2607776 39.2607776 0 0 1 13.7749248-8.61759468 40.05010988 40.05010988 0 0 1 16.14079148-3.4581312c1.39519893 0 2.6090656 0.60693333 4.00533011 0.78933227a40.05010988 40.05010988 0 0 1 28.45865067 11.34612694l321.1251488 312.87341972a37.80477867 37.80477867 0 0 1-0.12053333 54.6133024zM997.45038719-66.46621545999994c0-21.78452053-18.08318932-39.44211093-40.47464319-39.44211092H67.024256a39.98930988 39.98930988 0 0 0-40.47464319 39.44211092c0 21.78452053 18.14398932 39.4431776 40.47464319 39.44317761h889.951488c22.39145387 0 40.47464322-17.65865598 40.47464319-39.44317761z"  horiz-adv-x="1024" />

    
    <glyph glyph-name="cl-icon-upload" unicode="&#58997;" d="M864.37546667 350.45333332999996a40.23146667 40.23146667 0 0 0-56.06933334 0.18133333L550.59306667 601.2479999899999v-682.05653333a39.1392 39.1392 0 0 0-39.68533334-38.65386666 39.1392 39.1392 0 0 0-39.62453334 38.59306666V599.36746666L215.63306668 350.57493333a40.29226667 40.29226667 0 0 0-56.13013335 0.12053333 37.8656 37.8656 0 0 0 0.0608 54.61333333l321.42826667 312.62933334a39.2608 39.2608 0 0 0 13.77493332 8.61760001 40.05013333 40.05013333 0 0 0 16.14080001 3.51999999c1.39520001 0 2.60906667-0.60800001 4.00533334-0.78933333a40.05013333 40.05013333 0 0 0 28.45866666-11.34720002L864.49706667 405.06666666a37.8048 37.8048 0 0 0-0.1216-54.61333333zM997.45066666 830.19946666a39.92853333 39.92853333 0 0 1-40.47359999 39.44213333H67.024a39.98933333 39.98933333 0 0 1-40.4736-39.44213333c0-21.78453333 18.144-39.4432 40.4736-39.4432h889.952a39.92853333 39.92853333 0 0 1 40.4736 39.4432z"  horiz-adv-x="1024" />

    
    <glyph glyph-name="cl-icon-plus" unicode="&#58999;" d="M957.15946667 424.8992l-401.3472-0.1216V828.91733333a40.53546667 40.53546667 0 1 1-80.94933334 0v-403.83466666l-407.71839999 0.18133333h-0.12160001a40.53546667 40.53546667 0 0 1-0.18133333-81.19146667l408.02133333-0.24213333v-404.74666667a40.53546667 40.53546667 0 1 1 80.94933334 0V343.64799999l400.98346667 0.12160002h0.18133333a40.53546667 40.53546667 0 0 1 0.18133333 81.13066666z"  horiz-adv-x="1024" />

    
    <glyph glyph-name="cl-icon-minus" unicode="&#59000;" d="M1003.52 402.2048c0-24.27306666-18.2048-48.54506667-48.54506667-48.54506666H69.02399999c-24.272 0-48.54506667 18.20373333-48.54506666 48.54399999s18.2048 48.54613333 48.54506666 48.54613334h892.01813334c24.272 0 42.4768-18.2048 42.4768-48.54506667z"  horiz-adv-x="1024" />

    
    <glyph glyph-name="cl-icon-edit" unicode="&#59001;" d="M311.75146667 371.86346667c0 6.06933332 0 6.06933332 0 0l485.45066666 485.45173333c12.1376 12.13653333 36.4096 24.27306666 54.61333334 24.27306667 24.27306666 0 48.54613333-12.13653333 66.75093334-30.34133333l42.47679999-42.47680001c18.20373333-18.20373333 30.34026668-42.4768 30.34026667-66.74986665 0-18.20373333-6.06826667-42.4768-24.272-54.61333334l-479.38453333-485.45066667h-6.0672l-182.04480001-48.54613334H293.54666667c-6.06826667 0-18.2048 6.06933332-24.27306666 6.06933334-6.0672 6.0672-12.13546667 18.20373333-6.0672 30.34026667l48.54399999 182.04373333z m533.9968 430.8384l-436.90666667-436.90666667 66.74986667-66.74879999 442.97493332 442.97386667-72.81813332 60.68266665zM329.9552 220.15999999999997l84.95466667 24.27306666-60.68266667 66.74880001-24.272-91.02186667zM1009.58826667 468.95360001V7.7760000099999615c0-66.74986667-54.61333333-115.29493333-115.29493334-115.29493334H129.70666667c-60.6816 0-115.29493333 54.61333333-115.29493334 115.29493334V760.22399999c0 66.74986667 54.61333333 121.3632 115.29493334 121.36320001h491.52c24.27306666 0 42.4768-18.2048 42.4768-48.54506667 0-24.27306666-18.20373333-48.54506667-42.4768-48.54506666H135.77493333c-18.2048 0-30.34133333-12.13653333-30.34133334-30.34133334V7.7760000099999615c0-18.2048 12.13653333-30.34133333 30.34133334-30.34133334H888.22399999c18.2048 0 30.34133333 12.13653333 30.34133334 30.34133334V468.95360001c0 24.27306666 18.20373333 48.54613333 48.544 48.54613333 24.27306666-6.06933332 42.47786667-24.27306666 42.47786667-48.54613333z"  horiz-adv-x="1024" />

    
    <glyph glyph-name="cl-icon-close" unicode="&#59002;" d="M595.1792621 376.48197911l418.80902163 416.63419733c19.80125741 19.67698173 19.88410785 51.61582996 0.20712613 71.41708737a50.41449845 50.41449845 0 0 1-71.4585126 0.20712611L523.84502517 448.06476737l-415.28787752 416.53063427a50.53877413 50.53877413 0 0 1-71.52065042-71.37566214l415.14288924-416.42707121-418.5811829-416.38564598a50.45592368 50.45592368 0 0 1-0.18641351-71.43779999 50.41449845 50.41449845 0 0 1 71.43779999-0.20712612l418.70545856 416.48920905L942.59190898-115.06973707999998a50.41449845 50.41449845 0 0 1 71.43779998-0.10356307 50.4973489 50.4973489 0 0 1 0.10356306 71.4585126L595.1792621 376.46126648999996z"  horiz-adv-x="1024" />

    
    <glyph glyph-name="cl-icon-circle-close" unicode="&#59003;" d="M512-125.72444444999996C230.92337778-125.72444444999996 2.27555555 102.92337778000001 2.27555555 384S230.92337778 893.72444445 512 893.72444445s509.72444445-228.64782222 509.72444445-509.72444445-228.64782222-509.72444445-509.72444445-509.72444445z m0 946.30343112c-240.73557333 0-436.57898667-195.84341333-436.57898667-436.57898667 0-240.69916445 195.84341333-436.57898667 436.57898667-436.57898667 240.69916445 0 436.57898667 195.87982222 436.57898667 436.57898667 0 240.73557333-195.87982222 436.57898667-436.57898667 436.57898667z m51.26371555-438.14456889l157.43203556 155.72081777a36.40888889 36.40888889 0 1 1-51.19089778 51.77344l-157.65048888-155.90286222-155.24750223 155.72081778a36.40888889 36.40888889 0 1 1-51.55498667-51.40935111l155.0290489-155.50236445-156.30336-154.6285511a36.40888889 36.40888889 0 1 1 51.19089777-51.77344l156.52181333 154.81059555L669.2864 172.93767111a36.33607111 36.33607111 0 0 1 51.48216889-0.07281778 36.40888889 36.40888889 0 0 1 0.07281778 51.48216889L563.26371555 382.43441778z"  horiz-adv-x="1024" />

    
    <glyph glyph-name="cl-icon-circle-close-solid" unicode="&#59004;" d="M512 893.72444445C230.95978667 893.72444445 2.27555555 665.07662222 2.27555555 384s228.64782222-509.72444445 509.72444445-509.72444445c281.04021333 0 509.72444445 228.64782222 509.72444445 509.72444445S793.07662222 893.72444445 512 893.72444445z m207.93116445-666.71957334a36.40888889 36.40888889 0 1 0-51.55498667-51.40935111l-156.55822223 157.03153778-157.06794666-155.39313778a36.40888889 36.40888889 0 1 0-51.19089778 51.77344L460.44501333 384.18204445 304.14165333 540.9951288899999a36.40888889 36.40888889 0 1 0 51.55498667 51.40935111l156.52181333-156.99512889L669.2864 590.80248889a36.37248 36.37248 0 0 0 51.48216889-0.29127111c14.16305778-14.30869333 14.01742222-37.35552-0.29127111-51.48216889L563.59139555 383.85436445000005l156.3397689-156.84949334z"  horiz-adv-x="1024" />

    
    <glyph glyph-name="cl-icon-search" unicode="&#59005;" d="M1009.52746667-56.96625777999998L795.29756445 157.28184889a447.01013333 447.01013333 0 0 1 103.63790222 286.86563556c0 247.88992-200.95886222 448.84878222-448.83057778 448.84878222-247.88992 0-448.84878222-200.97706667-448.84878222-448.84878222s200.95886222-448.83057778 448.84878222-448.83057778a447.04654222 447.04654222 0 0 1 289.41425778 105.76782222L953.5488-112.94492445000003c7.73688889-7.73688889 17.85856-11.59623111 27.99843555-11.5962311a39.59466667 39.59466667 0 0 1 27.99843556 67.57489777zM450.10488889 74.48803554999995a368.53077333 368.53077333 0 0 0-261.39761778 108.28003556 368.53077333 368.53077333 0 0 0-108.28003556 261.39761778 368.53077333 368.53077333 0 0 0 108.28003556 261.39761778A368.53077333 368.53077333 0 0 0 450.10488889 813.80693333a368.53077333 368.53077333 0 0 0 261.39761778-108.28003555 368.54897778 368.54897778 0 0 0 108.26183111-261.37941333 368.53077333 368.53077333 0 0 0-108.28003556-261.39761778A368.53077333 368.53077333 0 0 0 450.10488889 74.48803554999995z"  horiz-adv-x="1024" />

    
    <glyph glyph-name="cl-icon-close1" unicode="&#59006;" d="M879.9725037-101.08290844999999H146.45475555c-67.24479052 0-122.21735822 54.9725677-122.21735822 122.21735823v733.61483852c0 67.24479052 54.99198578 122.2367763 122.21735822 122.23677629h733.6342566c67.24479052 0 122.21735822-54.99198578 122.21735822-122.21735822v-733.65367467c0-67.108864-54.9725677-122.19794015-122.33386667-122.19794015z m-733.51774815 917.01854815c-36.66132385 0-61.16693333-24.38910103-61.16693333-61.16693333v-733.65367467c0-36.64190578 24.38910103-61.16693333 61.16693333-61.16693333h733.6342566c36.66132385 0 61.16693333 24.40851911 61.16693333 61.16693333V754.76870637c0 36.64190578-24.38910103 61.16693333-61.16693333 61.16693333H146.45475555zM757.75514548 357.39723852H268.69153185c-18.33066192 0-30.58346667 12.27222282-30.58346667 30.58346666 0 18.33066192 12.25280475 30.58346667 30.58346667 30.58346667h489.0830317c18.33066192 0 30.58346667-12.25280475 30.58346667-30.58346667 0-18.31124385-12.25280475-30.58346667-30.58346667-30.58346666z"  horiz-adv-x="1024" />

    
    <glyph glyph-name="cl-icon-open" unicode="&#59007;" d="M879.9725037-101.08290844999999H146.45475555c-67.24479052 0-122.21735822 54.9725677-122.21735822 122.21735823v733.61483852c0 67.24479052 54.99198578 122.2367763 122.21735822 122.23677629h733.6342566c67.24479052 0 122.21735822-54.99198578 122.21735822-122.21735822v-733.65367467c0-67.108864-54.9725677-122.19794015-122.33386667-122.19794015z m-733.51774815 917.01854815c-36.66132385 0-61.16693333-24.38910103-61.16693333-61.16693333v-733.65367467c0-36.64190578 24.38910103-61.16693333 61.16693333-61.16693333h733.6342566c36.66132385 0 61.16693333 24.40851911 61.16693333 61.16693333V754.76870637c0 36.64190578-24.38910103 61.16693333-61.16693333 61.16693333H146.45475555zM757.75514548 357.39723852H268.69153185c-18.33066192 0-30.58346667 12.27222282-30.58346667 30.58346666 0 18.33066192 12.25280475 30.58346667 30.58346667 30.58346667h489.0830317c18.33066192 0 30.58346667-12.25280475 30.58346667-30.58346667 0-18.31124385-12.25280475-30.58346667-30.58346667-30.58346666zM513.22333867 112.88484977999997c-18.33066192 0-30.60288475 12.23338667-30.60288475 30.58346667V632.55134815c0 18.33066192 12.27222282 30.58346667 30.60288475 30.58346667 18.31124385 0 30.58346667-12.25280475 30.58346666-30.58346667v-489.10244978c0-18.31124385-12.27222282-30.58346667-30.58346666-30.58346667z"  horiz-adv-x="1024" />

    
    <glyph glyph-name="cl-icon-arrow-left" unicode="&#59008;" d="M1009.83178025 808.79082407a47.12533561 47.12533561 0 1 1-66.5675744 66.5675744L484.89133296 416.98552558c-18.33756613-18.38175303-18.33756613-48.1637279 0-66.56757439L943.26420585-107.35839847a47.12533561 47.12533561 0 1 1 66.5675744 66.5675744L585.06304963 384l424.76873062 424.79082407z m-471.31963644 0a47.12533561 47.12533561 0 0 1-66.56757441 66.5675744L13.57169651 416.98552558c-18.33756613-18.38175303-18.33756613-48.1637279 0-66.56757439l458.37287289-458.3728729a47.12533561 47.12533561 0 0 1 66.56757441 66.58966785L113.72131973 384 538.51214381 808.79082407z"  horiz-adv-x="1024" />

    
    <glyph glyph-name="cl-icon-arrow-right" unicode="&#59009;" d="M14.16821975 808.79082407a47.12533561 47.12533561 0 1 0 66.5675744 66.5675744l458.37287289-458.37287289c18.33756613-18.38175303 18.33756613-48.1637279 0-66.56757439L80.73579415-107.35839847a47.12533561 47.12533561 0 1 0-66.5675744 66.5675744L438.93695037 384 14.16821975 808.79082407z m471.31963644 0a47.12533561 47.12533561 0 0 0 66.56757441 66.5675744L1010.42830349 416.98552558c18.33756613-18.38175303 18.33756613-48.1637279 0-66.56757439L552.0554306-107.95492171000001a47.12533561 47.12533561 0 0 0-66.56757441 66.58966785L910.27868027 384 485.48785619 808.79082407z"  horiz-adv-x="1024" />

    
    <glyph glyph-name="cl-icon-filter" unicode="&#59014;" d="M857.88444445 893.72444445H162.47466667C93.29777778 893.72444445 38.68444445 839.11111111 38.68444445 769.93422222c0-29.12711111 10.92266667-58.25422222 29.1271111-80.09955555 0-3.64088889 3.64088889-3.64088889 3.6408889-7.28177778l273.06666666-273.06666667v-287.63022222c0-10.92266667 3.64088889-18.20444445 10.92266667-25.48622222L603.02222222-114.80177777999995c7.28177778-3.64088889 14.56355555-7.28177778 21.84533333-7.28177777 10.92266667 0 18.20444445 3.64088889 25.48622223 10.92266666 7.28177778 7.28177778 7.28177778 18.20444445 7.28177777 25.48622222V398.56355555l291.27111112 283.98933334 3.64088888 3.64088889c18.20444445 21.84533333 29.12711111 50.97244445 29.12711112 80.09955555 0 72.81777778-54.61333333 127.43111111-123.79022222 127.43111112z m40.04977777-160.19911112s-3.64088889-3.64088889 0 0L603.02222222 438.61333333c-7.28177778-7.28177778-10.92266667-14.56355555-10.92266667-25.48622222V-16.49777777999998L413.696 132.77866667V420.40888889c0 10.92266667-3.64088889 18.20444445-10.92266667 25.48622222L126.06577778 729.88444445l-3.64088889 3.64088888c-10.92266667 10.92266667-14.56355555 21.84533333-14.56355556 36.40888889 0 29.12711111 25.48622222 54.61333333 54.61333334 54.61333333H857.88444445c29.12711111 0 54.61333333-25.48622222 54.61333333-54.61333333 0-14.56355555-7.28177778-25.48622222-14.56355556-36.40888889z"  horiz-adv-x="1024" />

    
    <glyph glyph-name="tuichudenglu" unicode="&#59020;" d="M228.65999998 731.919c19.426 14.6 47.01 10.68800001 61.61000002-8.737 14.6-19.426 10.68800001-47.009-8.737-61.61000001C185.55 589.433 127.99999999 476.73600001 127.99999999 354.39300000000003c0-212.077 171.923-384.00000001 384.00000001-384s384.00000001 171.923 384.00000001 384c0 122.47600001-57.67600002 235.281-153.83400001 307.40699998-19.44 14.58000001-23.378 42.16-8.797 61.60000002 14.581 19.44 42.16 23.378 61.6 8.797C913.054 643.625 984.00000001 504.864 984.00000001 354.39200000000005c0-260.67800001-211.322-472.00000001-472.00000001-472s-472.00000001 211.322-472.00000001 472c0 150.31 70.792 288.937 188.66000002 377.527zM556 512.00000001c0-24.30000001-19.70000001-44-44-44.00000001s-44 19.70000001-44 43.99999999V821c0 24.30000001 19.70000001 44 44 44s44-19.70000001 44-44v-308.99999999z"  horiz-adv-x="1024" />

    
    <glyph glyph-name="cl-icon-up" unicode="&#59026;" d="M512.758 531.96766667l-408.8-408.8c-18.745-18.745-49.138-18.745-67.883 0-18.745 18.745-18.745 49.137 0 67.883l476.68399997 476.68299999 476.68500004-476.68399999c18.745-18.74599999 18.745-49.138 0-67.88300001-18.745-18.745-49.137-18.745-67.88200001 0L512.758 531.96766667z"  horiz-adv-x="1024" />

    
    <glyph glyph-name="cl-icon-left" unicode="&#59027;" d="M367.23199999 381.10799998000005l408.8 408.80100002c18.74599999 18.745 18.74599999 49.137 0 67.88299999-18.745 18.745-49.137 18.745-67.883 0L231.46699999 381.10699999999997 708.14999999-95.57799999999997c18.74599999-18.74399999 49.139-18.74399999 67.88300001 0 18.74599999 18.74599999 18.74599999 49.137 0 67.88299999L367.23199999 381.10799998000005z"  horiz-adv-x="1024" />

    
    <glyph glyph-name="cl-icon-down" unicode="&#59028;" d="M512.758 244.11399999000002l408.803 408.80200001c18.745 18.745 49.137 18.745 67.88200001-2e-8 18.745-18.745 18.745-49.138 0-67.88199999L512.757 108.34899999000004 36.075 585.03499999c-18.74599999 18.74399999-18.74599999 49.137 0 67.882 18.74399999 18.745 49.137 18.745 67.882 0l408.8-408.803z"  horiz-adv-x="1024" />

    
    <glyph glyph-name="cl-icon-right" unicode="&#59029;" d="M655.47000002 380.72299999999996L246.67000002 789.525c-18.74599999 18.74599999-18.74599999 49.137 0 67.88299999 18.74399999 18.745 49.137 18.745 67.882 0l476.68400001-476.68499999L314.55000002-95.96000002000005c-18.74399999-18.745-49.137-18.745-67.88200001 0-18.745 18.745-18.745 49.138 0 67.88300002L655.47000002 380.72299999999996z"  horiz-adv-x="1024" />

    
    <glyph glyph-name="cl-icon-delete1" unicode="&#59030;" d="M937.984 649.1018666699999H800.42666668c-2.16213333 0.11413333-4.3232 0.22826667-6.48533335 0.22826666h-44.14613333V802.70186667c0 50.17600001-40.84586667 91.02293333-91.02186667 91.02293333H367.8432c-50.17600001 0-91.02186667-40.84693333-91.02186668-91.02293333v-153.37173334H232.10666667c-2.16213333 0-4.3232-0.11413333-6.48533335-0.22826666H86.016c-25.14453333 0-45.51146667-20.36586667-45.51146667-45.5104S60.87146667 558.0799999999999 86.016 558.0799999999999h55.0688v-592.78186667c0-50.17600001 40.84586667-91.02293333 91.02186667-91.02293333h561.83466666c50.17600001 0 91.02186667 40.84693333 91.02186667 91.02293333V558.0799999999999h53.13493333c25.14453333 0 45.5104 20.36586667 45.5104 45.51146667s-20.48 45.5104-45.62453333 45.5104zM367.8432 802.5888c0.11413333 0.11306667 0.11413333 0.11306667 0 0l290.816 0.11306667s0.11413333 0 0.11413333-0.11306667v-152.91733333s0-0.11413333-0.11413333-0.11413334H367.95733333s-0.11413333 0-0.11413333 0.11413334v152.91733333zM793.94133333-34.58879999999999c0-0.11306667-0.11413333-0.11306667 0 0l-561.83466666-0.11306667s-0.11413333 0-0.11413334 0.11306667V558.0799999999999h561.83466667v-592.6688zM413.81013333 22.30079999999998c25.14453333 0 45.5104 20.36586667 45.5104 45.5104V454.08746667c0 25.14453333-20.36586667 45.5104-45.5104 45.5104s-45.51146667-20.36586667-45.51146665-45.5104v-386.27626667c0-25.0304 20.36586667-45.5104 45.51146665-45.5104z m197.97333334 0c25.14453333 0 45.5104 20.36586667 45.5104 45.5104V454.08746667c0 25.14453333-20.36586667 45.5104-45.5104 45.5104s-45.51146667-20.36586667-45.51146666-45.5104v-386.27626667c0-25.0304 20.36586667-45.5104 45.51146666-45.5104z"  horiz-adv-x="1024" />

    
    <glyph glyph-name="cl-icon-delete2" unicode="&#59031;" d="M443.32373333 124.97066667000001V497.31839999c0 22.85226667-18.58453333 41.42293333-41.40800001 41.42293334-22.85866667 0-41.4432-18.57066667-41.44319999-41.42293334V124.97066667000001c0-22.8512 18.58453333-41.42826667 41.44213334-41.42826667 22.82453333 0 41.40800001 18.57706667 41.408 41.42826667z m219.34933334-0.01386667V497.33333333c0 22.85333333-18.58453333 41.42506665-41.44533334 41.42506667-22.8256 0-41.4048-18.57066667-41.4048-41.42506667v-372.37653333c0-22.85333333 18.58666667-41.43253333 41.4048-41.43253333 22.85866667 0 41.4464 18.57813334 41.4464 41.43253333zM986.53866667 720.45333333H809.4432v66.01386667c0 63.72266668-51.47733334 115.57226667-114.71573333 115.57226667H328.32c-63.696 0-115.51573333-51.85066667-115.51573333-115.57333334v-66.0128H35.74506667c-23.40586667 0-42.4384-19.024-42.43839999-42.42133333s19.03253332-42.43413333 42.43839999-42.43413333h950.79146666c23.36853334 0 42.40106667 19.03999999 42.40106667 42.43306667 0.00106667 23.3984-19.03146667 42.42133333-42.39999999 42.42133333z m-690.864 66.01386667c0 18.0224 14.64426667 32.68373333 32.64533333 32.68373333h366.40853334c17.83786667 0 31.81013334-14.35626667 31.81013333-32.68373333v-66.01386667H295.6736v66.01386667zM842.52586668 549.72586667c-22.87893333 0-41.42613333-18.54719999-41.42613335-41.42506666v-487.96266668c0-39.19146667-31.9072-71.07733333-71.12746666-71.07733333h-437.696c-39.22133333 0-71.12959999 31.88586667-71.1296 71.07733333V508.30080001c0 22.87786667-18.54613333 41.42506665-41.42506667 41.42506666s-41.42506665-18.54719999-41.42506667-41.42506666v-487.96266668c0-84.87573333 69.07413333-153.92853334 153.97866667-153.92853333h437.69600001c84.9056 0 153.97973334 69.0528 153.97973332 153.92853333V508.30080001c0 22.87786667-18.54719999 41.42506665-41.42506665 41.42506666z"  horiz-adv-x="1024" />

    
    <glyph glyph-name="cl-icon-circle-success" unicode="&#59032;" d="M512 832C262.4 832 64 633.6 64 384s198.4-448 448-448 448 198.4 448 448S761.6 832 512 832z m0 64c281.60000001 0 512-230.40000001 512-512s-230.40000001-512-512-512S0 102.39999998999997 0 384 230.39999999 896 512 896z m-83.2-678.4L768 556.8c12.8 12.8 32 12.8 44.8 0 12.8-12.8 12.8-32 0-44.79999999L448 147.20000000000005c-12.8-12.8-32-12.8-44.8 0L268.8 281.6c-12.8 12.8-12.8 32 0 44.8 12.8 12.8 32 12.8 44.8 0l115.2-108.8z"  horiz-adv-x="1024" />

    
    <glyph glyph-name="cl-icon-circle-success-solid" unicode="&#59033;" d="M512 896c281.60000001 0 512-230.40000001 512-512s-230.40000001-512-512-512S0 102.39999998999997 0 384 230.39999999 896 512 896z m-83.2-678.4L320 332.79999999999995c-12.8 12.8-32 12.8-44.8 0s-12.8-32 0-44.8l134.4-134.40000001c12.8-12.8 32-12.8 44.8 2e-8L819.2 512.00000001c12.8 12.8 12.8 32 0 44.79999999-12.8 12.8-32 12.8-44.8 0L428.8 217.60000000000002z"  horiz-adv-x="1024" />

    
    <glyph glyph-name="cl-icon-caretdown" unicode="&#59034;" d="M16.256 629.3962666699999l458.656-556.4736a48.4 48.4 0 0 1 72.1376 0l460.88853333 556.4736c27.76746667 31.21493333 5.728 80.58453332-36.0704 80.58453333H52.4224c-41.84533333 0-64.032-49.36959999-36.16533332-80.58453333z"  horiz-adv-x="1024" />

    
    <glyph glyph-name="cl-icon-back" unicode="&#59035;" d="M512 896c281.60000001 0 512-230.40000001 512-512s-230.40000001-512-512-512S0 102.39999998999997 0 384 230.39999999 896 512 896z m0-960c249.6 0 448 198.4 448 448S761.6 832 512 832 64 633.6 64 384s198.4-448 448-448zM588.80000001 633.6c6.4 6.4 32 6.4 44.79999999 0 6.4-12.8 6.4-38.4 0-44.8L428.8 384l204.8-204.8c12.8-12.8 12.8-32 0-44.8-12.8-12.8-32-12.8-44.79999999 0l-224.00000001 223.99999999c-12.8 12.8-12.8 32 0 44.80000001l223.99999999 230.4z"  horiz-adv-x="1024" />

    
    <glyph glyph-name="cl-icon-caretleft" unicode="&#59036;" d="M759.24053334 879.744l-556.61866667-458.56000001a48.4 48.4 0 0 1 0-72.13653332l556.52266667-460.88746667c31.1648-27.76853333 80.53546666-5.68106667 80.53546666 36.06826668V843.72373333c0 41.65013333-49.37066667 63.83573334-80.43946666 35.9232z"  horiz-adv-x="1024" />

    
    <glyph glyph-name="cl-icon-caretup" unicode="&#59037;" d="M16.256 137.34079999999994L477.19466667 693.81653333a48.4 48.4 0 0 0 72.13866666 0l458.60586668-556.47573333c27.76746667-31.16586667 5.728-80.58453332-36.07040001-80.58453333H52.27733333c-41.6512 0-63.8368 49.41866667-35.92426666 80.58453333z"  horiz-adv-x="1024" />

    
    <glyph glyph-name="cl-icon-caretright" unicode="&#59038;" d="M267.04000001 879.744l556.47466666-458.656a48.4 48.4 0 0 0 0-72.1376l-556.4736-460.69333332c-31.16586667-27.76746667-80.5856-5.68-80.5856 36.06826665V843.77066667c0.14613332 41.65333333 49.41866667 63.83786667 80.5856 35.92426666z"  horiz-adv-x="1024" />

    
    <glyph glyph-name="cl-icon-cart" unicode="&#59039;" d="M895.16800001 149.55733333h-640l-192 544h841.6c70.4 0 128.00000001-57.6 128-128 0-16-3.2-28.8-6.4-41.6l-131.2-374.4z m-595.20000002 64h550.40000002l115.19999998 329.60000001c3.2 6.4 3.2 12.8 3.2 22.39999999 0 35.2-28.8 64-64 64h-748.8l144-416z m35.20000002-320c-60.8 0-112 51.2-112.00000002 112s51.2 112 112 112 112-51.2 112-112-48-112-112-112z m0 160c-25.60000001 0-48-22.4-48-48s22.4-48 48-48 48 22.4 48 48-19.2 48-48 48z m479.99999998-160c-60.8 0-112 51.2-111.99999998 112s51.2 112 112 112 112-51.2 112-112-48-112-112-112z m2e-8 160c-25.60000001 0-48-22.4-48-48s22.4-48 48-48 48 22.4 48 48-19.2 48-48 48zM69.56799999 866.35733333l76.80000002-211.2-60.8-22.4-76.8 211.2c-6.4 16 3.2 35.2 19.2 41.6 16 6.4 35.2-3.2 41.6-19.2z"  horiz-adv-x="1056" />

    
    <glyph glyph-name="cl-icon-attachment" unicode="&#59040;" d="M306.176 555.374l51.712-51.712-155.063-155.136c-87.99-87.918-87.99-222.355 0-310.345s222.354-87.918 310.272 0l155.136 155.136 51.712-51.712L564.81-13.530999999999949c-113.81-113.81-299.959-113.81-413.769 0s-113.81 299.958 0 413.769l155.136 155.136zM306.176 555.374L564.809 814.08c87.918 87.918 222.354 87.918 310.272 0s87.991-222.354 0-310.345L616.594 245.10199999999998l-51.712 51.712 258.56 258.56c56.905 56.905 56.905 149.943 0 206.92s-149.943 56.833-206.848 0L357.888 503.663l-51.712 51.712zM409.6 451.95l51.785-51.712-155.209-155.21000001c-31.013-31.085-31.013-72.41 0-103.49699999s72.411-31.01199999 103.497 0l155.063 155.21 51.785-51.712-155.136-155.21c-56.905-56.905-150.016-56.905-206.921 0s-56.905 149.943 0 206.922l155.21 155.062z m258.633-258.633l181.029 181.028c15.506 15.506 36.205 15.506 51.712 0 15.506-15.506 15.506-36.206 0-51.712L719.945 141.60500000000002l-51.712 51.712zM409.6 451.95l181.029 181.028c15.579 15.507 36.205 15.507 51.712 0 15.579-15.506 15.579-36.205 0-51.712L461.385 400.238 409.6 451.95z"  horiz-adv-x="1024" />

    
    <glyph glyph-name="cl-icon-email-solid" unicode="&#59042;" d="M512 306.55999999999995L36.096 715.52c2.56 0.57600001 4.864 1.664 7.48800001 1.664H980.48c1.60000001 0 4.992-1.152 7.552-1.60000001L512 306.55999999999995z m510.97599999 352.384V44.15999999999997c0-3.84-1.152-7.16800001-2.048-10.68800001l-337.91999998 348.54400002L1020.416 672c1.34400001-4.16000001 2.56-8.448 2.55999999-13.056zM3.584 672.06400001L341.12 382.01599998999995 3.2 33.47199998999997c-0.83200001 3.456-2.11200001 6.84800001-2.11200001 10.68800001V658.944c0 4.67200001 1.28 8.89600001 2.56 13.12000001z m646.528-328.89600001l340.736-351.35999999c-3.39200001-0.896-6.72000001-2.176-10.43200001-2.17600001H43.58399999c-3.584 0-6.912 1.28-10.23999998 2.17599999l340.67199999 351.36000001 124.35200001-106.88a20.67200001 20.67200001 0 0 1 27.26399998 0l124.48000001 106.88z"  horiz-adv-x="1024" />

    
    <glyph glyph-name="cl-icon-collection" unicode="&#59043;" d="M127.99999999-19.200000000000045L448.00000001 166.39999999999998c38.4 25.60000001 89.6 25.60000001 127.99999998 0L896.00000001-19.200000000000045V768.00000001c0 38.4-25.60000001 63.99999999-64.00000001 63.99999999h-640c-38.4 0-63.99999999-25.60000001-64.00000001-64.00000001v-787.19999999zM192 896h640c70.4 0 128.00000001-57.6 128-128.00000001v-838.39999999c0-19.2-12.8-32-32-32.00000001-6.4 0-12.8 0-12.8 6.40000001L544 115.20000000000005c-19.2 12.8-44.8 12.8-64 0l-371.2-211.2c-12.8-6.4-32-6.4-44.8 12.8V768.00000001c0 70.4 57.6 128.00000001 128 127.99999999zM499.2 396.8c6.4 6.4 19.2 6.4 32 0l76.8-38.39999999-19.20000001 83.19999999c0 12.8 0 19.2 6.40000001 25.6l57.6 57.6-76.80000001 12.8c-12.8 0-19.2 6.4-25.59999999 19.2l-38.4 76.8-38.4-76.8C467.2 544 460.8 537.6 448.00000001 537.6l-83.20000001-12.8 57.6-57.6c12.8-6.4 19.2-19.2 12.79999999-25.6L422.4 358.39999998999997l76.8 38.40000001z m-102.4-128c-25.60000001-12.8-51.2 6.4-51.2 38.39999999L364.8 435.2l-89.60000001 89.6c-19.2 19.2-6.4 51.2 19.20000001 57.6l128 19.2 57.6 115.20000001c12.8 25.60000001 44.8 25.60000001 57.59999999-2e-8l57.60000001-115.19999999 128-19.2c32-6.4 44.8-38.4 25.60000001-57.6L652.8 435.2l19.2-128.00000001c6.4-32-19.2-51.2-44.8-38.39999999L512 332.79999999999995l-115.2-64z"  horiz-adv-x="1024" />

    
    <glyph glyph-name="cl-icon-echarts-solid" unicode="&#59044;" d="M118.46399999-3.973333329999946h835.11360001c25.92000001 0 46.93333333-21.01333334 46.93333333-46.93333334s-21.01333334-46.93333333-46.93333333-46.93333333H71.5296c-25.92000001 0-46.93333333 21.01333334-46.93333333 46.93333333V815.6768c0 25.92000001 21.01333334 46.93333333 46.93333333 46.93333333 25.92106667 0 46.93333333-21.01333334 46.93333333-46.93333333v-819.65013333z m130.84800001 374.57386666L367.55733332 190.11199999999997 454.4 430.40000001 633.97866667 520.53333333 786.25066667 332.79999999999995 901.97333333 663.408c3.89333333 11.12 16.06400001 16.9792 27.184 13.08693333a21.33333333 21.33333333 0 0 0 14.28586667-20.13546666V76.79999999999995H210.13333333V358.90880000000004c0 11.7824 9.55093333 21.33333333 21.33333334 21.33333333a21.33333333 21.33333333 0 0 0 17.84533333-9.64266666z"  horiz-adv-x="1024" />

    
    <glyph glyph-name="cl-icon-echarts" unicode="&#59045;" d="M118.46399999-3.973333329999946h835.11360001c25.92000001 0 46.93333333-21.01333334 46.93333333-46.93333334s-21.01333334-46.93333333-46.93333333-46.93333333H71.5296c-25.92000001 0-46.93333333 21.01333334-46.93333333 46.93333333V815.6768c0 25.92000001 21.01333334 46.93333333 46.93333333 46.93333333 25.92106667 0 46.93333333-21.01333334 46.93333333-46.93333333v-819.65013333z m367.15413334 408.89280001L416.46933333 175.52426666999997c-11.536-38.2688-62.57386667-45.52426667-84.31786666-11.98613334L170.752 412.4928c-14.10133334 21.74933333-7.89973333 50.81173332 13.8496 64.91306667 21.74933333 14.10026667 50.8128 7.89973333 64.91306668-13.85066667l106.31039999-163.97973334 45.81653333 151.99466667a46.93333333 46.93333333 0 0 0 24.22826667 28.57173334l191.41973333 94.11413333c20.8128 10.23253333 45.97973333 3.72906667 59.22880001-15.30666667l90.91626666-130.62186666 131.41866666 382.65066665c8.4192 24.5152 35.11786667 37.56266667 59.63306667 29.14346668 24.5152-8.4192 37.56266667-35.11786667 29.14346667-59.63306666l-161.472-470.15680001c-12.48106667-36.34133333-60.95786668-43.104-82.90986668-11.56693334l-120.73386666 173.46133334-136.896-67.30666667z"  horiz-adv-x="1024" />

    
    <glyph glyph-name="cl-icon-edit1" unicode="&#59046;" d="M937.77776543 664.59L734.46076542 867.987a35.89 35.89 0 0 1-51.18099999 0L130.20076544 314.98799999000005a33.314 33.314 0 0 1-10.76600001-18.96L70.28376543 44.88599999999997a33.705 33.705 0 0 1 38.775-39.321l253.563 43.84600001a33.86000001 33.86000001 0 0 1 20.674 9.67499999l554.404 554.56a35.89 35.89 0 0 1 0.078 51.024zM343.27076542 114.245l-197.93399999-34.173 38.22999999 192.942 389.47 389.471 159.16000001-159.316L343.27076542 114.24399999000002z m436.59600001 436.594L620.55076544 710.155l88.161 88.162 159.31599999-159.238-88.161-88.16z m106.105-642.096H103.12776543a33.705 33.705 0 0 0 0 67.408h783.07800001a33.705 33.705 0 1 0-0.07800001-67.33z"  horiz-adv-x="1024" />

    
    <glyph glyph-name="cl-icon-email" unicode="&#59047;" d="M1203.43485606 896h-1024c-93.86697008 0-170.6678803-76.79969659-170.66788028-170.66666667v-682.66666666c0-93.86697008 76.80091022-170.66666667 170.66788028-170.66666667h1024c93.86575645 0 170.66545303 76.79969659 170.66545304 170.66666667v682.66666666c0 93.86697008-76.79969659 170.66666667-170.66545304 170.66666667z m-1024-85.33272652h1024c17.06605985 0 25.59908978 0 34.13211972-8.53424356 0 0 0-8.53302991-8.53181629-8.53302991l-477.8666667-477.86666669c-34.13454697-34.13333333-85.33394015-34.13333333-119.46848707 2e-8L145.30273637 793.60000001s0 8.53302991-8.53424355 8.53302991c17.06727348 8.53424355 25.60030341 8.53424355 42.66757689 8.53424356zM94.09970228 42.66666667000004v682.66666666l349.86636327-349.86636326-349.86636327-341.33333332v8.53302992z m1194.66666668 0v-17.06727349L938.90000571 375.46818370000005l-59.73242312-59.73485036 358.39939319-358.39939319H179.43485607c-8.53424355 0-17.06727348 0-34.13454695 8.53424355l349.86757687 349.86514962 68.26666666-68.26545302c68.26666666-68.26666666 170.66545303-68.26666666 238.93333334 0L930.36697579 375.46818370000005l358.40060678 349.86514963V42.66666667000004z"  horiz-adv-x="1365" />

    
    <glyph glyph-name="cl-icon-folder" unicode="&#59048;" d="M998.9184 532.21226667c-11.94239999 16.33066667-29.12106667 27.81866667-49.12426666 33.3184V580.0640000000001c0 30.5504-12.144 61.6256-33.31520001 85.25973333-24.0064 26.79466667-57.15200002 41.55093333-93.33333333 41.55093334H490.04373333l-91.232 117.6512a38.784 38.784 0 0 1-30.64533334 15.0208H119.6288c-65.34826667 0-112.77866667-43.40693333-112.77866667-103.21066667v-694.0928c0-3.39200001 0.16-6.74773333 0.45333334-10.06613333-2.07573333-24.37120001 3.81546667-47.46666668 17.25546666-65.84533333 17.19893334-23.52 45.25439999-37.008 76.97173334-37.00800001h639.28533333c29.08693333 0 59.424 11.088 85.42613333 31.22240001 25.3728 19.64800001 44.32533333 46.13866666 53.38026668 74.60586666L1010.75200001 439.504l0.08106666 0.256c10.6976 33.7728 6.35306668 67.46986667-11.91573334 92.45226667zM91.89973334 753.8240000000001c6.24 5.1168 16.34666667 8.05119999 27.72906666 8.0512h229.5392l91.2352-117.65013333a38.78186667 38.78186667 0 0 1 30.64426667-15.02080001h352.096c32.01066666 0 49.0592-28.53866668 49.0592-49.14026666v-10.8448H282.66133333c-29.08480001 0-59.42186666-11.08906666-85.42293333-31.22346667-25.37706667-19.65226667-44.33173333-46.14506666-53.38453333-74.61546666l-59.41226668-183.20106668V736.336c0 10.192 4.256 14.86186667 7.45813333 17.488zM936.90666667 463.33866668L805.792 59.03893332999996l-0.08106667-0.256c-8.58453333-27.104-39.51359998-51.78666667-64.8928-51.78666666H119.62986667c-16.03733333 0-29.5936 10.80533333-33.81653334 25.5264 0.22826667 0.8864 0.47573333 1.77920001 0.76053334 2.68586666l131.11466666 404.29546667 0.08 0.256c8.58453333 27.104 39.51359998 51.78666667 64.8928 51.78666667h639.28533334c4.81386667 0 11.2128-0.90346667 14.3648-5.21386667 3.4304-4.68906666 3.6512-13.28 0.59626666-22.99413332z"  horiz-adv-x="1024" />

    
    <glyph glyph-name="cl-icon-eye-close" unicode="&#59049;" d="M820.319 414.70000001l92.7-128.20000002c15.70000001-21.70000001 10-51.30000001-12.7-66.29999999-22.70000001-14.90000002-53.8-9.50000001-69.5 12.2l-105.9 146.30000002c-51.59999999-15.2-106.30000001-24.90000001-162.9-28.50000002v-174.50000001c0-26.30000001-22.4-47.70000001-50-47.69999999s-50 21.30000001-50 47.70000001V350.20000000000005c-56.6 3.6-111.4 13.30000001-162.9 28.49999999l-105.8-146.29999999c-15.70000001-21.70000001-46.8-27.09999999-69.5-12.2-22.70000001 14.90000002-28.4 44.6-12.8 66.30000001l92.70000001 128.19999998c-78.40000001 36.70000001-145.2 87.4-193.70000001 149.00000002-16.6 21.10000001-12.10000001 50.90000001 10 66.69999999 22.10000001 15.8 53.4 11.50000001 69.9-9.50000001 84.80000001-107.8 244.50000001-177 422.1-176.99999998s337.2 69.2 422.1 176.99999998c16.6 21.10000001 47.90000001 25.30000001 69.9 9.50000001 22.10000001-15.8 26.50000001-45.70000001 10.00000001-66.70000001-48.50000002-61.6-115.30000001-112.30000001-193.70000001-148.99999998z m0-2e-8"  horiz-adv-x="1024" />

    
    <glyph glyph-name="cl-icon-eye-close-solid" unicode="&#59050;" d="M902.4 774.4c-25.60000001 25.60000001-64 25.60000001-89.6 0L704 665.60000001c-57.6 19.2-121.6 32-192 31.99999999C217.6 691.2 0 486.4 0 384c0-57.6 76.80000001-153.6 198.4-224l-76.8-76.8c-25.60000001-25.60000001-25.60000001-64 0-89.6 12.8-12.8 32-19.2 44.8-19.2s32 6.4 44.8 19.2l691.2 691.2c25.60000001 25.60000001 25.60000001 64 0 89.6zM268.8 384c0 140.8 108.8 249.6 249.6 249.6 44.8 0 89.6-12.8 121.60000001-38.4L300.8 262.4c-19.2 38.4-32 76.80000001-32 121.6z m633.6 179.20000001L755.2 416v-32c0-140.8-108.8-249.6-249.6-249.6-12.8 0-25.60000001 0-32 6.4l-51.2-51.2c25.60000001-6.4 57.6-6.4 89.6-6.4 300.8 0 512 211.2 512 307.2 0 38.4-44.8 108.8-121.6 172.80000001z"  horiz-adv-x="1024" />

    
    <glyph glyph-name="cl-icon-eye-open-solid" unicode="&#59051;" d="M1024 384c0-96-211.2-307.2-512-307.2C217.6 76.79999999999995 0 281.6 0 384s217.6 307.2 512 307.2c300.8 0 512-204.8 512-307.2zM512 633.6c-134.4 0-243.2-108.79999999-243.2-249.6s108.79999999-249.6 249.6-249.6C652.8 134.39999999999998 768 249.60000000000002 768 384c-6.4 140.8-121.6 249.6-256 249.6z m0-89.6c-89.6 0-160-70.4-160-160s70.4-160 160-160 160 70.4 160 160-70.4 160-160 160z"  horiz-adv-x="1024" />

    
    <glyph glyph-name="cl-icon-eye-open" unicode="&#59052;" d="M771.5891034-37.875c-217.96875001 0-421.875 126.5625-604.68750002 379.6875-14.0625 21.09375003-14.0625 56.24999999 0 84.375C349.71410339 679.3125 553.62035336 805.875 771.5891034 805.875s421.875-126.5625 604.68749999-379.6875c14.0625-21.09375003 14.0625-56.24999999-1e-8-84.375-182.8125-253.125-386.71875001-379.6875-604.68749998-379.6875z m0 773.4375c-196.875 0-379.6875-112.50000001-548.4375-351.5625 168.75-239.0625 351.5625-351.5625 548.4375-351.5625s379.6875 112.50000001 548.43749999 351.5625c-168.75 239.0625-351.5625 351.5625-548.43749999 351.5625zM771.5891034 173.0625c-119.53125001 0-210.9375 91.40625001-210.9375 210.9375s91.40625001 210.9375 210.9375 210.9375 210.9375-91.40625001 210.9375-210.9375-91.40625001-210.9375-210.9375-210.9375z m0 351.5625c-77.34375001 0-140.625-63.28125001-140.62500002-140.625s63.28125001-140.625 140.62500002-140.625 140.625 63.28125001 140.62499999 140.625-63.28125001 140.625-140.62499999 140.625z"  horiz-adv-x="1536" />

    
    <glyph glyph-name="cl-icon-screen-exit" unicode="&#59053;" d="M361.05784889 173.24145778000002L103.94965333-81.97688889000005c-16.05404445-15.93685333-41.98968889-15.84014222-57.92654222 0.21390222-15.93685333 16.05404445-15.84014222 41.98968889 0.21390222 57.92654222l258.95822222 257.05472H87.20497778c-21.6064 0-39.12248889 17.57411555-39.12248891 39.25333334 0 21.67808 17.51608889 39.25333334 39.12248891 39.25333333H400.1792c21.6064 0 39.12135111-17.57525333 39.12135111-39.25333333v-314.02666667c0-10.41066667-4.12103111-20.39580445-11.45742222-27.75722667a39.05536 39.05536 0 0 0-27.66392889-11.49610666 39.05536 39.05536 0 0 0-27.66392889 11.49610666 39.32046222 39.32046222 0 0 0-11.45856 27.75722667V173.24145778000002z m299.68497778 417.42791111l259.20056888 259.20056889c15.99601778 15.99601778 41.93052445 15.99601778 57.92654223 0 15.99601778-15.99601778 15.99601778-41.93052445 0-57.92654223l-256.20479999-256.20479999h212.93169776c21.6064 0 39.12248889-17.57297778 39.1224889-39.25333334 0-21.67808-17.51608889-39.25333334-39.1224889-39.25333332H621.62033778c-21.6064 0-39.12135111 17.57525333-39.12135111 39.25333332v314.02666667c0 10.41066667 4.12103111 20.39580445 11.45742222 27.75722667a39.05536 39.05536 0 0 0 27.66392889 11.49724444c10.37653333 0 20.3264-4.13582222 27.66392888-11.49724444a39.32046222 39.32046222 0 0 0 11.45742223-27.75608889v-219.84483556zM42.53582222 500.05333333a39.05536 39.05536 0 0 0-27.66392889 11.49724445A39.32046222 39.32046222 0 0 0 3.41333333 539.30666668v314.02666664C3.41333333 875.01255111 20.92942222 892.58666667 42.53582222 892.58666667h312.97649778c21.6064 0 39.12135111-17.57411555 39.12135111-39.25333335 0-21.67921778-17.51495111-39.25333334-39.12135111-39.25333332H81.65717332v-274.77333335c0-10.41066667-4.12103111-20.39466667-11.45742221-27.75608887A39.05536 39.05536 0 0 0 42.53468445 500.05333333z m938.92835556-628.05333333H668.48768c-21.6064 0-39.12135111 17.57411555-39.12135111 39.25333334 0 21.67921778 17.51495111 39.25333334 39.12135111 39.25333333h273.85514666V225.27999998999996c0 21.67921778 17.51495111 39.25333334 39.12135112 39.25333334 21.6064 0 39.12248889-17.57411555 39.12248889-39.25333332v-314.02666669c0-21.67921778-17.51608889-39.25333334-39.12248889-39.25333332z"  horiz-adv-x="1024" />

    
    <glyph glyph-name="cl-icon-screen-full" unicode="&#59054;" d="M944.39879111 758.47338667l-806.28622221-806.28622221h216.55665777c21.6064 0 39.12135111-17.57525333 39.12135111-39.25333335 0-21.67921778-17.51495111-39.25333334-39.12135111-39.25333333H41.69272887c-21.6064 0-39.12248889 17.57411555-39.12248888 39.25333333v314.02666667a39.3216 39.3216 0 0 0 11.45856001 27.75608888 39.05536 39.05536 0 0 0 27.6639289 11.49724445 39.05422222 39.05422222 0 0 0 27.6627911-11.49724445 39.32046222 39.32046222 0 0 0 11.45856001-27.75608888V10.74062220999997l803.75466666 803.75466666H670.54478222c-21.6064 0-39.12135111 17.57411555-39.12135111 39.25333335 0 21.67921778 17.51495111 39.25333334 39.12135111 39.25333333h312.97649778c21.6064 0 39.12248889-17.57411555 39.12248889-39.25333333v-314.02666667a39.3216 39.3216 0 0 0-11.45856-27.75608888 39.05536 39.05536 0 0 0-27.66392889-11.49724445 39.05536 39.05536 0 0 0-27.66392889 11.49724445 39.32046222 39.32046222 0 0 0-11.45742222 27.75608888V758.47338667zM42.53582222 500.05333333a39.05536 39.05536 0 0 0-27.66392889 11.49724445A39.32046222 39.32046222 0 0 0 3.41333333 539.30666668v314.02666664C3.41333333 875.01255111 20.92942222 892.58666667 42.53582222 892.58666667h312.97649778c21.6064 0 39.12135111-17.57411555 39.12135111-39.25333335 0-21.67921778-17.51495111-39.25333334-39.12135111-39.25333332H81.65717332v-274.77333335c0-10.41066667-4.12103111-20.39466667-11.45742221-27.75608887A39.05536 39.05536 0 0 0 42.53468445 500.05333333z m938.92835556-628.05333333H668.48768c-21.6064 0-39.12135111 17.57411555-39.12135111 39.25333334 0 21.67921778 17.51495111 39.25333334 39.12135111 39.25333333h273.85514666V225.27999998999996c0 21.67921778 17.51495111 39.25333334 39.12135112 39.25333334 21.6064 0 39.12248889-17.57411555 39.12248889-39.25333332v-314.02666669c0-21.67921778-17.51608889-39.25333334-39.12248889-39.25333332z"  horiz-adv-x="1024" />

    
    <glyph glyph-name="cl-icon-mark-solid" unicode="&#59055;" d="M926.25173332-82.03413333000003a51.7824 51.7824 0 0 0-79.22559999-44.01386667L539.44426667 66.57920000000001a51.7824 51.7824 0 0 1-54.88853334 0L176.97386667-126.048a51.7824 51.7824 0 0 0-79.22560001 44.01386667V798.25173332a103.56266667 103.56266667 0 0 0 103.56266667 103.56373334H822.68799999a103.56266667 103.56266667 0 0 0 103.56266668-103.56266666z"  horiz-adv-x="1024" />

    
    <glyph glyph-name="cl-icon-heart-solid" unicode="&#59056;" d="M1035.633 586.56833333a284.799 284.799 0 0 1-284.8 284.799A329.33 329.33 0 0 1 517.817 764.17933333 329.33 329.33 0 0 1 284.8 871.36733333 284.799 284.799 0 0 1 0.001 586.56833333c0-202.983 245.963-427.198 362.471-543.706l118.062-118.062a38.83599998 38.83599998 0 0 1 27.444-11.39100001h19.67799998a38.83599998 38.83599998 0 0 1 27.44400003 11.39100001l118.06199999 118.062c116.50799999 116.50799999 362.47 340.723 362.47 543.706z"  horiz-adv-x="1035" />

    
    <glyph glyph-name="cl-icon-home" unicode="&#59057;" d="M830.57813333-46.93333332999998H193.42186667a45.51146667 45.51146667 0 0 0-45.5104 45.51146667v409.6h-136.53333334L481.37066667 835.43466668a45.51146667 45.51146667 0 0 0 61.25866666-2e-8l469.99253334-427.25759999h-136.53333334v-409.6A45.51146667 45.51146667 0 0 0 830.57813333-46.93333332999998zM238.93333333 44.088533340000026h546.13333334V492.0544L512 740.2719999999999 238.93333333 492.0544v-447.96586666z"  horiz-adv-x="1024" />

    
    <glyph glyph-name="cl-icon-home-solid" unicode="&#59058;" d="M876.08853333-1.4218666599999779A45.51146667 45.51146667 0 0 0 830.57813333-46.93333332999998H193.42186667a45.51146667 45.51146667 0 0 0-45.5104 45.51146667v409.6h-136.53333334L481.37066667 835.43466668a45.51146667 45.51146667 0 0 0 61.25866666-2e-8l469.99253334-427.25759999h-136.53333334v-409.6z m-409.6 318.57706666v-273.06666666h91.02293334v273.06666666h-91.02293334z"  horiz-adv-x="1024" />

    
    <glyph glyph-name="cl-icon-image-solid" unicode="&#59059;" d="M926.25184237 746.47112059H97.74815763v-724.94224118l481.1531757 481.25754784a51.78193541 51.78193541 0 0 0 73.21948919 0l274.13101985-274.6492397V746.47112059z m-932.06755555 52.14359704A51.78193541 51.78193541 0 0 0 45.55358813 850.03377778h932.89282371c28.377088 0 51.3680877-23.04318578 51.36808771-51.41906015v-829.22943526A51.78193541 51.78193541 0 0 0 978.44641187-82.03377778000004H45.55358813a51.41906015 51.41906015 0 0 0-51.36808768 51.41906015V798.61471763z m310.68918518-362.83278222a103.56265718 103.56265718 0 1 0 0 207.12531437 103.56265718 103.56265718 0 0 0 0-207.12531437z"  horiz-adv-x="1024" />

    
    <glyph glyph-name="cl-icon-image" unicode="&#59060;" d="M140.62326518-82.03377778000004l-1.0364397-1.03522607-1.08741215 1.03522607H45.55358813a51.41906015 51.41906015 0 0 0-51.36808768 51.41906015V798.61471763A51.78193541 51.78193541 0 0 0 45.55358813 850.03377778h932.89282371c28.377088 0 51.3680877-23.04318578 51.36808771-51.41906015v-829.22943526A51.78193541 51.78193541 0 0 0 978.44641187-82.03377778000004H140.62326518z m785.62857719 310.68918519V746.47112059H97.74815763v-724.94224118L615.56265718 539.34459259l310.68918519-310.68918518z m0-146.43776474l-310.68918519 310.68918518-371.37673481-371.37794844h682.06592V82.21885628999996z m-621.37837037 353.56429274a103.56265718 103.56265718 0 1 0 0 207.12531437 103.56265718 103.56265718 0 0 0 0-207.12531437z"  horiz-adv-x="1024" />

    
    <glyph glyph-name="cl-icon-mark" unicode="&#59061;" d="M803.271 772.36099999v-737.39999999L589.18700001 168.45799999999997a145.63599999 145.63599999 0 0 1-154.374 0L220.73000001 34.960000000000036V772.36099999H803.26999999m0 97.091H220.73000001a97.09 97.09 0 0 1-97.09000001-97.08999999v-825.269a48.546 48.546 0 0 1 48.544-48.54499999 48.546 48.546 0 0 1 25.73 7.28199999l288.358 180.588a48.546 48.546 0 0 0 51.458 0L826.087-94.16999999999996a48.546 48.546 0 0 1 25.73-7.28199999 48.546 48.546 0 0 1 48.54400001 48.54499999V772.36099999a97.09 97.09 0 0 1-97.09000001 97.091z"  horiz-adv-x="1024" />

    
    <glyph glyph-name="cl-icon-label-solid" unicode="&#59062;" d="M993.085 858.457l-6.628 6.628a57.995 57.995 0 0 1-39.216 16.018H508.133a110.46700001 110.46700001 0 0 1-78.43-32.58799999L30.914 449.72800001a55.234 55.234 0 0 1 0-77.88000001l468.933-468.933a55.234 55.234 0 0 1 77.88 0l398.787 398.787a110.46700001 110.46700001 0 0 1 32.588 78.431V819.241a57.995 57.995 0 0 1-16.01799999 39.216z m-260.15-363.98999999a110.46700001 110.46700001 0 1 0 110.467 110.46799999 110.46700001 110.46700001 0 0 0-110.467-110.46799999z"  horiz-adv-x="1024" />

    
    <glyph glyph-name="cl-icon-label" unicode="&#59063;" d="M993.085 858.457l-6.628 6.628a57.995 57.995 0 0 1-39.216 16.018H508.133a110.46700001 110.46700001 0 0 1-78.43-32.58799999L30.914 449.72800001a55.234 55.234 0 0 1 0-77.88000001l468.933-468.933a55.234 55.234 0 0 1 77.88 0l398.787 398.787a110.46700001 110.46700001 0 0 1 32.588 78.431V819.241a57.995 57.995 0 0 1-16.01799999 39.216z m-94.45-478.324l-359.57-360.122L148.01 411.065l360.12199999 359.57h390.50300001z m-220.934 59.101a110.46700001 110.46700001 0 1 1-110.467 110.467 110.46700001 110.46700001 0 0 1 110.467-110.467z"  horiz-adv-x="1024" />

    
    <glyph glyph-name="cl-icon-hot" unicode="&#59064;" d="M451.854 800.019c0.024 0.06400001 0.048 0.145 0.081 0.14499999-0.081 0.06400001-0.097 0-0.081-0.14499999zM142.58799999 455.378c-0.015-0.01-0.03-0.021-0.03699999-0.017 0.006-0.016 0.019-0.006 0.03699999 0.017zM624.10000001 624.953c18.099-26.10000001 36.273-53.90799999 53.70099999-82.938 48.123-80.165 81.397-154.54800001 98.89899999-221.08299999 19.011-72.275 18.915-133.928-0.28599999-183.24900001-1.08400001-2.765-2.359-5.17799999-3.896-7.37499999a100.05 100.05 0 0 1-4.926-7.78100001c-20.48300001-35.914-66.648-76.351-130.217-114.117a101.187 101.187 0 0 1-3.399-1.909l-1.71-1.00099999c-19.005 19.216-44.009 36.6-76.792 50.192a99.992 99.992 0 0 1-78.091-0.63000001c-8.574-3.613-16.861-7.614-24.646-11.89799999l-0.265-0.14600001c-0.376-0.206-0.751-0.414-1.127-0.624-8.181-4.568-16.021-9.576-23.335-14.904a99.79 99.79 0 0 1-6.083-4.64599999 204.95 204.95 0 0 1-19.58-17.471 702.32 702.32 0 0 0-23.03100002 14.015c-0.44800001 0.285-0.897 0.565-1.34899998 0.84299999a677.6 677.6 0 0 0-2.998 1.928 88.69 88.69 0 0 1-1.26100001 0.835 625.201 625.201 0 0 0-5.65399999 3.719c-0.41 0.272-0.819 0.541-1.232 0.808-47.882 32.04400001-82.945 65.299-99.881 94.999a100.03 100.03 0 0 1-4.971 7.847c-1.519 2.168-2.775 4.551-3.842 7.283-6.194 15.90000001-11.333 31.95-15.281 47.72-0.11 0.475-0.225 0.94800001-0.343 1.421a348.667 348.667 0 0 0-2.24500001 9.659 166.43 166.43 0 0 1-0.42399999 2.092 297.84 297.84 0 0 0-1.865 9.537l-0.043 0.239c-0.072 0.433-0.176 1.041-0.30700002 1.764a343.681 343.681 0 0 0-1.34899998 8.413c-0.104 0.762-0.209 1.52-0.318 2.281-0.479 3.48-0.801 6.051-1.042 8.299a90.698 90.698 0 0 1-0.084 0.751l-0.044 0.432-0.072 0.689a325.386 325.386 0 0 0-0.767 8.341l-0.009 0.133c-0.038 0.57000001-0.098 1.477-0.188 2.589a320.224 320.224 0 0 0-0.436 7.996l-0.002 0.074-0.027 0.89200001-0.021 0.58199999a272.385 272.385 0 0 0-0.18200001 7.553v1.932c-0.007 2.944 0.021 5.52 0.08600001 7.873l0.006 0.224 0.04099999 1.62000001c0.085 2.63000001 0.20399999 5.18799999 0.35400001 7.608 0.031 0.488 0.057 0.977 0.08 1.46599999 0.195 2.891 0.402 5.481 0.634 7.91100001l0.021 0.21799999 0.038 0.41 0.061 0.61900001c0.24700001 2.568 0.546 5.22000001 0.91599998 8.104l0.02200002 0.176 0.094 0.74999999c0.365 2.773 0.753 5.403 1.157 7.822 0.075 0.45 0.147 0.901 0.216 1.353 0.702 4.162 1.622 8.758 2.877 14.37a225.414 225.414 0 0 0 1.004 4.248c0.98000001 4.095 2.031 8.096 3.12599999 11.892l0.032 0.11c0.256 0.89300001 0.506 1.794 0.75400001 2.69500001l0.10999999 0.4c0.534 1.775 1.258 3.969 2.09700001 6.50699999l0.197 0.595c0.82000001 2.50000001 1.55600001 4.73 2.208 6.57800001 0.111 0.298 0.226 0.594 0.33799999 0.89199999 0.295 0.776 0.591 1.55600001 0.88300001 2.341l0.051 0.138a282.008 282.008 0 0 0 4.333 10.988c0.26000001 0.62000001 0.519 1.243 0.777 1.86500001 0.193 0.466 0.382 0.93200001 0.581 1.39099999l0.056 0.13c0.349 0.807 0.69799999 1.60600001 1.04699999 2.398a213.645 213.645 0 0 1 21.65100001-24.243c19.333-18.617 44.339-27.96800001 69.372-27.968 24.027 0 48.079 8.614 67.163 25.918 79.306 71.91 167.59 151.963 208.63800001 276.515M533.206 895.993c6.21200001-28.647 10.144-55.329 12.242-80.458-0.115 0.867-0.189 1.702-0.307 2.569 2.983-33.158 2.553-63.407-0.651-91.353-0.496-4.229-1-8.467-1.62-12.597-0.098-0.66799999-0.23-1.33-0.33000001-1.98999999-20.503-130.632-104.734-208.479-194.25299999-289.64600001-23.411 22.543-37.247 55.04899999-37.23799999 102.811 0.083 21.742 2.999 46.622 9.18599999 75.154l-0.20700001-0.141c0.074 0.354 0.13199999 0.685 0.20700001 1.048 0 0-63.854-41.285-116.96799999-119.19-0.00899999 0.008-0.017 0.025-0.01700001 0.025-0.182-0.264-0.355-0.563-0.545-0.827-3.403-5.022-6.766-10.16-10.05300001-15.48-0.157-0.239-0.298-0.495-0.44699999-0.735a430.615 430.615 0 0 1-8.847-15.07499999 376.645 376.645 0 0 1-1.99099999-3.56900001c-2.883-5.253-5.71599999-10.605-8.43400001-16.116-0.133-0.272-0.281-0.537-0.414-0.809a407.245 407.245 0 0 1-8.095-17.627c-0.627-1.446-1.223-2.917-1.833-4.37099999a380.69 380.69 0 0 1-5.89-14.93500001c-0.528-1.421-1.074-2.808-1.586-4.22899999-1.09-3.058-2.115-6.163-3.139-9.28500001-0.025-0.066-0.05-0.13199999-0.066-0.198-1.049-3.17199999-2.098-6.345-3.064-9.582-0.39600001-1.306-0.744-2.66000001-1.123-3.982a368.61200001 368.61200001 0 0 1-4.296-16.331 316.22800001 316.22800001 0 0 1-1.33799999-5.69c-1.537-6.873-2.958-13.81200001-4.12200001-20.933 0-0.05-0.017-0.10000001-0.017-0.148a329.55 329.55 0 0 1-1.727-11.696c-0.032-0.266-0.065-0.529-0.09900001-0.794a352.944 352.944 0 0 1-1.272-11.283c-0.05-0.43-0.083-0.86000001-0.12399999-1.298a391.231 391.231 0 0 1-0.88400001-11.04399999c-0.033-0.545-0.066-1.106-0.09099999-1.65100001a358.25 358.25 0 0 1-0.504-10.922l-0.05-1.949a366.226 366.226 0 0 1-0.124-10.86999999v-2.16400001c0.033-3.618 0.115-7.253 0.256-10.912 0.025-0.769 0.042-1.54500001 0.083-2.313 0.157-3.659 0.363-7.344 0.62-11.044 0.074-0.793 0.115-1.57 0.173-2.362 0.281-3.733 0.63599999-7.49199999 1.024-11.268 0.083-0.784 0.157-1.553 0.248-2.33 0.413-3.84900001 0.917-7.723 1.454-11.614 0.107-0.734 0.207-1.462 0.306-2.197 0.578-3.989 1.23-8.02799999 1.93299999-12.07599999 0.12400001-0.645 0.214-1.28899999 0.33800001-1.933a392.635 392.635 0 0 1 2.495-12.771c0.099-0.479 0.19-0.958 0.281-1.43800001a451.803 451.803 0 0 1 3.18000001-13.745c0.05-0.231 0.10000001-0.45400001 0.15699999-0.677 4.874-19.627 11.234-39.84 19.346-60.657 4.097-10.49900001 9.186-19.866 15.101-28.309 69.223-121.39600001 265.021-200.978 265.021-200.978v0.008c-0.67600001 0.277-56.816 23.185-119.421 62.98000001 62.605-39.79600001 118.746-62.702 119.421-62.97300001l0.03299999-0.016v0.033c0.041-0.018 0.083-0.033 0.08300001-0.033 3.70899999 34.05 18.495 57.277 40.47700001 73.716-0.017 0.018-0.042 0.018-0.05800001 0.03300001 0.12400001 0.083 0.256 0.166 0.38 0.256 4.43600001 3.296 9.161 6.32 14.14999999 9.104 0.264 0.149 0.528 0.29 0.79300001 0.43799999 4.998 2.75 10.251 5.261 15.745 7.558 0.165 0.066 0.31399999 0.141 0.479 0.207 39.089-16.208 66.787-42.806 72.065-91.312 0 0 0.024 0.016 0.033 0.016v-0.016s42.739 17.38000001 95.334 48.25800001c-0.066-0.066-0.13199999-0.141-0.19799999-0.21500001 60.062 35.23 133.085 88.123 170.04999999 152.935 5.906 8.442 10.995 17.81 15.102 28.309C987.665 404.304 579.58000001 847.157 537.014 892.193c0.10000001-0.165 0.207-0.363 0.298-0.529a567.529 567.529 0 0 1-4.106 4.329zM319.17199999-60.82899999999995z"  horiz-adv-x="1024" />

    
    <glyph glyph-name="cl-icon-hot-solid" unicode="&#59065;" d="M451.854 800.019c0.024 0.06400001 0.048 0.145 0.081 0.14499999-0.081 0.06400001-0.097 0-0.081-0.14499999zM142.58799998 455.378c-0.015-0.01-0.03-0.021-0.03699998-0.017 0.006-0.016 0.019-0.006 0.03700001 0.017z m377.83100002-189.291c-15.925 0-28.761-5.461-38.505-16.381-9.746-10.92-14.619-27.38800001-14.619-49.404 0-21.667 5.003-38.09200002 15.011-49.272 10.005-11.18199998 22.71-16.77200001 38.113-16.772 15.401 0 28.04 5.54799999 37.917 16.643 9.87599999 11.095 14.814 27.735 14.814 49.926 0 21.927-4.81 38.286-14.423 49.075-9.617 10.789-22.385 16.185-38.308 16.185zM854.456 72.98299999999995c5.906 8.442 10.995 17.81 15.102 28.30900001C987.665 404.304 579.58000001 847.157 537.01400001 892.193c0.10000001-0.165 0.207-0.363 0.29799999-0.529-2.627 2.792-4.10499999 4.329-4.105 4.329 6.21200001-28.647 10.144-55.329 12.242-80.458-0.115 0.867-0.189 1.702-0.307 2.569 2.983-33.158 2.553-63.407-0.651-91.353-0.496-4.229-1-8.467-1.62-12.597-0.098-0.66799999-0.22999999-1.33-0.33-1.98999999-20.503-130.632-104.734-208.479-194.253-289.64600001-23.411 22.543-37.247 55.04899999-37.238 102.811 0.083 21.742 2.999 46.62200001 9.18599999 75.154l-0.20699999-0.141c0.074 0.354 0.13199999 0.685 0.20699999 1.048 0 0-63.854-41.285-116.968-119.19000001-0.00899999 0.008-0.017 0.025-0.01699999 0.02500001-0.182-0.264-0.355-0.563-0.545-0.827-3.403-5.022-6.766-10.16-10.053-15.48-0.157-0.239-0.298-0.495-0.447-0.735a430.615 430.615 0 0 1-8.84699999-15.07499999 376.645 376.645 0 0 1-1.99100001-3.56900001c-2.88299999-5.253-5.71599999-10.605-8.434-16.116-0.133-0.272-0.281-0.537-0.414-0.809a407.245 407.245 0 0 1-8.095-17.627c-0.62700001-1.446-1.223-2.917-1.833-4.37099999a380.69 380.69 0 0 1-5.89-14.93500001c-0.528-1.42100001-1.074-2.808-1.58600001-4.22899999-1.09-3.058-2.115-6.163-3.13899999-9.28500001-0.025-0.06599999-0.05-0.13199999-0.066-0.198-1.049-3.17199999-2.098-6.345-3.064-9.582-0.39600001-1.306-0.744-2.66000001-1.12300001-3.982a368.61200003 368.61200003 0 0 1-4.296-16.331 316.22800001 316.22800001 0 0 1-1.33799998-5.69c-1.537-6.873-2.958-13.81200001-4.12200001-20.933 0-0.05-0.017-0.10000001-0.017-0.148a329.55 329.55 0 0 1-1.727-11.696c-0.032-0.266-0.065-0.529-0.099-0.794a352.944 352.944 0 0 1-1.272-11.283c-0.05-0.43-0.083-0.86000001-0.124-1.298a391.231 391.231 0 0 1-0.884-11.04399999c-0.033-0.545-0.06599999-1.10599999-0.091-1.65100001a358.25 358.25 0 0 1-0.504-10.922l-0.05-1.949a366.226 366.226 0 0 1-0.12400001-10.86999999v-2.16400001c0.033-3.618 0.115-7.253 0.256-10.912 0.025-0.769 0.042-1.54500001 0.08300001-2.31300001 0.157-3.659 0.363-7.344 0.62-11.04399999 0.074-0.793 0.115-1.57 0.17299999-2.362 0.281-3.733 0.63599999-7.49199999 1.024-11.268 0.083-0.784 0.157-1.553 0.24800002-2.33 0.413-3.84900001 0.91699999-7.723 1.45399999-11.614 0.107-0.734 0.207-1.462 0.306-2.19700001 0.578-3.989 1.23-8.02799999 1.933-12.07599998 0.12400001-0.645 0.214-1.28899999 0.33799999-1.933a392.635 392.635 0 0 1 2.49500001-12.771c0.099-0.479 0.19-0.958 0.281-1.43800002a451.803 451.803 0 0 1 3.18-13.74499999c0.05-0.231 0.10000001-0.45400001 0.157-0.677 4.87399999-19.627 11.234-39.84 19.346-60.657 4.097-10.49900001 9.186-19.866 15.101-28.309 69.223-121.39600002 265.021-200.97799999 265.02099999-200.978v0.008c-0.67600001 0.277-56.816 23.185-119.42099999 62.98000001 62.605-39.79600001 118.746-62.702 119.42099999-62.97300001l0.03300002-0.016v0.033c0.04099999-0.018 0.083-0.033 0.08299999-0.033 3.70899999 34.05 18.495 57.277 40.477 73.716-0.017 0.018-0.042 0.018-0.058 0.03300001 0.12400001 0.083 0.256 0.166 0.38000001 0.256 4.43600001 3.296 9.161 6.32 14.14999999 9.104 0.264 0.149 0.528 0.29 0.793 0.43799999 4.998 2.75 10.251 5.261 15.745 7.558 0.165 0.06599999 0.31399999 0.141 0.479 0.207 39.089-16.208 66.78699999-42.806 72.065-91.312 0 0 0.024 0.016 0.033 0.016v-0.016s42.739 17.38000001 95.334 48.25800001c-0.06599999-0.06599999-0.13199999-0.141-0.198-0.21500001 60.06000001 35.229 133.083 88.12199999 170.048 152.933zM312.641-56.53199999000003z m82.736 161.02999999h-38.636v83.667h-75.704v-83.667h-38.636V295.846h38.636v-75.313h75.704v75.313h38.636v-191.348zM587.90000001 127.40599999999995c-16.79599999-17.448-39.245-26.171-67.352-26.171-28.454 0-51.08 8.679-67.872 26.038-16.795 17.361-25.192 41.26799998-25.192 71.726 0 19.489 2.915 35.847 8.74599999 49.075 4.35 9.746 10.289 18.491 17.816 26.236 7.526 7.743 15.771 13.486 24.73400001 17.229 11.92 5.045 25.669 7.57 41.24599999 7.57 28.192 0 50.751-8.747 67.678-26.235 16.922-17.49000002 25.386-41.813 25.386-72.965 0.001-30.89-8.398-55.058-25.18999999-72.503z m41.63699999 136.071v32.369h152.061v-32.369H724.95v-158.979h-38.635V263.477h-56.778z"  horiz-adv-x="1024" />

    
    <glyph glyph-name="cl-icon-heart" unicode="&#59066;" d="M750.834 850.034A329.33 329.33 0 0 1 517.817 742.846 329.33 329.33 0 0 1 284.8 850.034 284.799 284.799 0 0 1 0.001 565.235c0-202.983 245.963-427.198 362.471-543.706l118.062-118.062a38.83599998 38.83599998 0 0 1 27.444-11.39100001h19.67799998a38.83599998 38.83599998 0 0 1 27.44400003 11.39100001l118.06199999 118.062c116.50799999 116.50799999 362.47 340.723 362.47 543.706A284.799 284.799 0 0 1 750.835 850.034zM631.737 125.09299999999996L517.817 12.725999999999999 403.897 125.09299999999996C298.781 228.65499999999997 103.565 422.318 103.565 565.235a181.235 181.235 0 0 0 181.235 181.236 258.907 258.907 0 0 0 192.10999999-114.438 39.871 39.871 0 0 1 31.06800001-15.016h23.302a26.409 26.409 0 0 1 20.71299999 10.356A264.60400001 264.60400001 0 0 0 749.28 746.47a181.235 181.235 0 0 0 182.789-181.236c0-142.917-195.216-336.58000001-300.332-440.14199998z"  horiz-adv-x="1035" />

    
    <glyph glyph-name="cl-icon-more-solid" unicode="&#59067;" d="M25.94541113 384a110.46726585 110.46726585 0 1 1 220.9345317 0 110.46726585 110.46726585 0 1 1-220.9345317 0z m375.51966183 0a110.46726585 110.46726585 0 1 1 220.93453168 0 110.46726585 110.46726585 0 1 1-220.93453168 0z m375.65774591 0a110.46726585 110.46726585 0 1 1 220.93453167 0 110.46726585 110.46726585 0 1 1-220.93453167 0z"  horiz-adv-x="1024" />

    
    <glyph glyph-name="cl-icon-more-ver" unicode="&#59068;" d="M401.53411499 759.58870386a110.46726585 110.46726585 0 1 1 220.9345317 0 110.46726585 110.46726585 0 1 1-220.9345317 0z m0-375.51966182a110.46726585 110.46726585 0 1 1 220.9345317 0 110.46726585 110.46726585 0 1 1-220.9345317 0z m0-375.6577459a110.46726585 110.46726585 0 1 1 220.9345317 0 110.46726585 110.46726585 0 1 1-220.9345317 0z"  horiz-adv-x="1024" />

    
    <glyph glyph-name="cl-icon-more" unicode="&#59069;" d="M122.78029292 297.67811679c-64.23257257 0-116.49049351 52.25792095-116.49049352 116.49187436 0 64.23671508 52.25792095 116.49739773 116.49049352 116.49739772 64.23533426 0 116.4932552-52.26068262 116.49325519-116.49739772 0-64.23395341-52.25792095-116.49187436-116.49325519-116.49187436z m0 176.56535437c-33.12084799 0-60.06657581-26.9484895-60.06657582-60.07209917 0-33.12222881 26.94572782-60.06795664 60.06657582-60.06795665s60.06933748 26.94572782 60.06933748 60.06657581c0 33.1249905-26.9484895 60.07348-60.06933748 60.07348001zM506.42482214 297.67811679c-64.23395341 0-116.49049351 52.25792095-116.49049351 116.49187436 0 64.23671508 52.25654011 116.49739773 116.49049351 116.49739772 64.23671508 0 116.49739773-52.26068262 116.49739772-116.49739772 0-64.23395341-52.26068262-116.49187436-116.49739772-116.49187436z m0 176.56535437c-33.11946715 0-60.06657581-26.9484895-60.06657579-60.07209917 0-33.12222881 26.94572782-60.06795664 60.06657579-60.06795665 33.12360965 0 60.07486085 26.94572782 60.07486085 60.06657581 0 33.1249905-26.94987035 60.07348-60.07486085 60.07348001zM890.07073222 297.67811679c-64.23395341 0-116.49187436 52.25792095-116.49187437 116.49187436 0 64.23671508 52.25792095 116.49739773 116.49187437 116.49739772 64.23671508 0 116.49739773-52.26068262 116.49739771-116.49739772 0-64.23395341-52.26068262-116.49187436-116.49739771-116.49187436z m0 176.56535437c-33.12084799 0-60.06795664-26.9484895-60.06795664-60.07209917 0-33.12222881 26.94572782-60.06795664 60.06657579-60.06795665 33.12637135 0 60.0762417 26.94572782 60.07624169 60.06657581 0 33.1249905-26.95125118 60.07348-60.07486084 60.07348001z"  horiz-adv-x="1024" />

    
    <glyph glyph-name="cl-icon-notifications-off-solid" unicode="&#59070;" d="M408.43733333-30.25173332999998h207.12533334a103.56266667 103.56266667 0 0 0-207.12533334 0zM822.68906667 487.56266667a310.68906667 310.68906667 0 0 1-62.1376 186.41386666l-46.60266667 62.1376a155.34506666 155.34506666 0 0 1-124.27733333 62.1376h-25.88906667V875.92533334a25.89013333 25.89013333 0 0 1-25.89226667 25.89119999h-51.78026666a25.89013333 25.89013333 0 0 1-25.89226667-25.89120001v-77.67253332h-25.89013333a151.20213333 151.20213333 0 0 1-77.67253335-22.2656l466.03413335-466.03306667z m147.5776-455.15946667L169.20533333 833.46453333a25.89013333 25.89013333 0 0 1-36.24746666 0l-27.4432-27.44533333a25.89013333 25.89013333 0 0 1 0-36.7648L240.1472 634.624a304.47573333 304.47573333 0 0 1-38.83733333-147.06026667v-142.91733333a155.34506666 155.34506666 0 0 0-45.568-109.776l-42.97706667-42.97813333a51.7824 51.7824 0 0 1-15.01653333-36.24746667v-30.55146667a51.7824 51.7824 0 0 1 51.78026666-51.78133333h651.93066667l103.56266667-103.56266667a25.89013333 25.89013333 0 0 1 36.24746666 0l27.44426667 27.4432a25.89013333 25.89013333 0 0 1 1.55306667 35.21066667z"  horiz-adv-x="1024" />

    
    <glyph glyph-name="cl-icon-notifications-on-solid" unicode="&#59071;" d="M408.43733333-30.25173332999998h207.12533334a103.56266667 103.56266667 0 0 0-207.12533334 0z m502.79786667 222.14293333l-42.97813333 42.97813333a155.34506666 155.34506666 0 0 0-45.568 109.776V487.56266667a310.68906667 310.68906667 0 0 1-62.1376 186.41386666l-46.60266667 62.1376a155.34506666 155.34506666 0 0 1-124.27733333 62.1376h-25.88906667V875.92533334a25.89013333 25.89013333 0 0 1-25.89226667 25.89119999h-51.78026666a25.89013333 25.89013333 0 0 1-25.89226667-25.89120001v-77.67253332h-25.89013333a155.34506666 155.34506666 0 0 1-124.2752-62.13760001l-46.60266667-62.13759999a310.68906667 310.68906667 0 0 1-62.13866667-186.41386667v-142.91733333a155.34506666 155.34506666 0 0 0-45.568-109.776l-42.97813333-42.97813333a51.7824 51.7824 0 0 1-15.01653333-36.24746667v-30.55146667a51.7824 51.7824 0 0 1 51.78026666-51.78133333h724.94293334a51.7824 51.7824 0 0 1 51.78026666 51.78133333v30.55146667a51.7824 51.7824 0 0 1-15.01653333 36.24746667z"  horiz-adv-x="1024" />

    
    <glyph glyph-name="cl-icon-share" unicode="&#59072;" d="M832 255.99999999c-63.99999999 0-121.6-32-153.6-76.79999999 0 0 0 6.4 6.4 6.4L371.2 352v-6.4c6.4 25.60000001 12.8 44.8 12.80000001 70.4s-6.4 44.8-12.80000001 64c0-6.4 6.4-12.8 6.4-19.19999999l294.4 134.39999999C665.6 601.6 659.2 614.40000001 652.8 627.2c32-70.4 102.4-115.2 179.2-115.20000001 108.79999999 0 192 83.2 192 192.00000001S940.8 896 832 896 640.00000001 812.8 640.00000001 704c0-25.60000001 6.4-44.8 12.79999999-64 0 6.4-6.4 12.8-6.4 19.2L352 524.8c6.4-12.8 12.8-19.2 12.8-31.99999999-25.60000001 70.4-96 115.2-172.8 115.19999999-108.79999999 0-192-83.2-192-192s83.2-192 192-192c63.99999999 0 121.6 32 153.6 76.8 0 0 0-6.4-6.4-6.4l307.2-166.4v6.4c0-25.60000001-6.4-44.8-6.40000001-70.4 0-108.79999999 83.2-192 192.00000001-192S1024-44.799999999999955 1024 64 940.8 255.99999999 832 255.99999999z m0 576.00000001c70.4 0 128.00000001-57.6 128-128s-57.6-128.00000001-128-128-128.00000001 57.6-128 128 57.6 128.00000001 128 128z m-640-544c-70.4 0-128.00000001 57.6-128 128s57.6 128.00000001 128 128 128.00000001-57.6 128-128-57.6-128.00000001-128-128zM364.8 332.79999999999995c0-6.4-6.4-12.8-12.8-19.2 6.4 6.4 12.8 12.8 12.8 19.2z m307.2-166.4c-6.4-6.4-6.4-12.8-12.8-19.19999999 0 6.4 6.4 12.8 12.8 19.19999999z m160-230.4c-70.4 0-128.00000001 57.6-128 128s57.6 128.00000001 128 128 128.00000001-57.6 128-128-57.6-128.00000001-128-128z"  horiz-adv-x="1024" />

    
    <glyph glyph-name="cl-icon-shopping" unicode="&#59073;" d="M1093.393-128H1.126l102.4 750.933h887.467l102.4-750.933zM79.633-59.73299999999995h935.253l-85.333 614.4h-768l-81.92-614.4zM820.326 554.6669999999999H274.193v68.266C274.193 773.12 397.073 896 547.26000001 896s273.066-122.88 273.06599999-273.067v-68.266zM342.46000002 622.933h409.59999999c0 112.64-92.16 204.8-204.80000003 204.8s-204.8-92.16-204.79999996-204.8z m-37.54700002-235.52a64.853 64.853 0 1 1 129.70700001 0 64.853 64.853 0 1 1-129.70700001 0z m375.46699998 0a64.853 64.853 0 1 1 129.70600002 0 64.853 64.853 0 1 1-129.70600002 0z"  horiz-adv-x="1093" />

    
    <glyph glyph-name="cl-icon-star" unicode="&#59074;" d="M615.56672 472.961l249.07-19.676-190.04-162.077 57.996-242.337L519.25272 178.84000000000003l-213.857-129.97 58.512 242.337-190.038 162.07700001 249.06999999 19.67599999L519.25272 703.90699999zM512.52072 880.482a26.409 26.409 0 0 1-24.855-16.57L360.80172 558.91800001 29.91772 532.51A25.37299999 25.37299999 0 0 1 7.13272 514.386l-5.69699999-12.944a25.37299999 25.37299999 0 0 1 7.76799999-27.962l251.14-214.376-74.56500002-322.082a26.409 26.409 0 0 1 9.83800002-27.443l12.94599999-7.768a24.337 24.337 0 0 1 15.53400001-5.178 24.855 24.855 0 0 1 13.463 3.625L519.25272 72.69000000000005l283.24500001-172.432a24.855 24.855 0 0 1 13.463-3.625 24.337 24.337 0 0 1 15.53499999 5.178l11.392 7.768a26.409 26.409 0 0 1 9.838 27.443l-74.566 322.082 251.658 214.893a25.37299999 25.37299999 0 0 1 7.25 27.445l-4.143 12.944a25.37299999 25.37299999 0 0 1-22.783 18.124l-330.884 26.41L550.32172 863.91a25.37299999 25.37299999 0 0 1-24.337 16.571z"  horiz-adv-x="1038" />

    
    <glyph glyph-name="cl-icon-share1" unicode="&#59075;" d="M926.25199999 358.11c0 21.448 17.38799999 38.83599998 38.83600001 38.836 21.448 0 38.83599998-17.38799999 38.83599999-38.836v-323.635c0-78.645-63.754-142.40000001-142.39899999-142.4h-699.05c-78.645 0-142.40000001 63.755-142.4 142.4V694.689c0 78.645 63.755 142.39899999 142.4 142.399h336.58c21.448 0 38.835-17.38799999 38.835-38.83600001 0-21.449-17.387-38.83599998-38.836-38.83599999h-336.58c-35.747 0-64.726-28.98000001-64.72599999-64.727v-660.214c0-35.74800001 28.98000001-64.727 64.72699999-64.72699999h699.05c35.74800001 0 64.727 28.98000001 64.72699999 64.72699999V358.11z m-51.047 336.58L766.234 810.471c-14.701 15.62000001-13.95599999 40.197 1.66199999 54.897 15.62000001 14.70000001 40.198 13.95599999 54.899-1.664L993.369 682.47c23.326-24.784 5.754-65.453-28.281-65.453H770.146c-99.129 0-180.474-86.429-180.474-194.18v-233.018c0-21.448-17.387-38.83599998-38.83599999-38.836-21.448 0-38.83599998 17.38799999-38.83600001 38.836V422.83599998c0 149.632 115.031 271.853 258.146 271.85300002h105.05999999z"  horiz-adv-x="1024" />

    
    <glyph glyph-name="cl-icon-thumbs" unicode="&#59076;" d="M643.60380599 508.776375c19.94737099 89.088833 33.873156 153.52277701 41.80405001 193.43432899C705.376981 802.701001 653.52409801 896.005933 550.759639 896.005933c-92.683987 0-139.21137401-46.05871199-166.66249301-138.113844l-0.69806899-2.69735401C366.928208 680.735688 341.734443 623.008545 308.38632202 581.702833c-35.277204-43.691605-87.80936899-69.563664-143.67960903-70.758094l-26.28437498-0.561619c-62.692727-1.33977799-112.820213-52.95634601-112.82021199-116.17114199v-381.40374702c0-77.76152601 62.53155799-140.800321 139.67016098-140.80032098h495.02486c101.685715 0 192.45446199 64.27574199 226.946586 160.70616499l102.83565 287.503577c26.165723 73.15189699-11.447936 153.834239-84.01349501 180.21254599a138.666564 138.666564 0 0 1-47.37574799 8.34617701h-215.08633399zM550.71217801 819.2054879899999c47.10878198 0 71.396837-43.76872901 59.859912-101.90917699-9.083796-45.77790198-26.38424-125.31624099-51.859804-238.40342-5.413496-24.030976 12.67796201-46.916961 37.088624-46.91696099H858.18685799a62.862795 62.862795 0 0 0 21.50368901-3.79389701c32.93580599-11.988791 50.00784401-48.66312199 38.13177201-81.91335501l-102.68338001-287.50357799c-23.566256-65.97839801-85.579701-109.955757-155.052399-109.955756H165.793367c-35.010237 0-63.391785 28.65247001-63.39178499 63.99888701V394.21296699c0 21.43151001 16.970196 38.932673 38.19604199 39.387506l26.243835 0.56161901c78.105616 1.672993 151.54128999 37.890513 200.85502101 99.060541 41.216723 51.126139 70.975623 119.17798 89.83831699 203.851971 18.583863 61.732635 39.528899 82.130884 93.17837 82.13088401z"  horiz-adv-x="1024" />

    
    <glyph glyph-name="cl-icon-send" unicode="&#59077;" d="M259.41333333 418.13333333H580.26666667c20.48 0 34.13333333-13.65333333 34.13333333-34.13333333s-13.65333333-34.13333333-34.13333333-34.13333333H259.41333333c0-6.82666667-6.82666667-13.65333333-6.82666666-27.30666667L68.26666667-59.73333333000005l955.73333333 443.73333333L68.26666667 827.73333333l184.32-382.29333333c6.82666667-13.65333333 6.82666667-20.48 6.82666666-27.30666667z m791.89333334-95.57333333l-955.73333334-443.73333333c-34.13333333-13.65333333-75.09333333 0-88.74666666 34.13333333-6.82666667 20.48-6.82666667 40.96 0 61.44000001l184.32 382.29333333c6.82666667 20.48 6.82666667 40.96 0 61.43999999L6.82666667 800.42666667c-13.65333333 34.13333333 0 75.09333333 34.13333333 88.74666666 13.65333333 6.82666667 40.96 6.82666667 54.61333333 0l955.73333334-443.73333333c34.13333333-13.65333333 47.78666667-54.61333333 34.13333332-88.74666668-6.82666667-13.65333333-20.48-27.30666668-34.13333332-34.13333332z"  horiz-adv-x="1092" />

    
    <glyph glyph-name="cl-icon-star1" unicode="&#59078;" d="M1037.06872 501.442l-4.144 12.944a25.37299999 25.37299999 0 0 1-22.783 18.124l-330.884 26.41L550.32172 863.91a25.37299999 25.37299999 0 0 1-24.337 16.571h-13.464a26.409 26.409 0 0 1-24.855-16.57L360.80172 558.91800001 29.91772 532.51A25.37299999 25.37299999 0 0 1 7.13272 514.386l-5.69699999-12.944a25.37299999 25.37299999 0 0 1 7.76799999-27.962l251.14-214.376-74.56500002-322.082a26.409 26.409 0 0 1 9.83800002-27.443l12.94599999-7.768a24.337 24.337 0 0 1 15.53400001-5.178 24.855 24.855 0 0 1 13.463 3.625L519.25272 72.69000000000005l283.24500001-172.432a24.855 24.855 0 0 1 13.463-3.625 24.337 24.337 0 0 1 15.53499999 5.178l11.392 7.768a26.409 26.409 0 0 1 9.838 27.443l-74.566 322.082 251.658 214.893a25.37299999 25.37299999 0 0 1 7.25 27.445zM674.59772 291.20799999999997l57.995-242.337L519.25272 178.84000000000003V703.90800001l96.314-230.94600002 249.07-19.67599999z"  horiz-adv-x="1038" />

    
    <glyph glyph-name="cl-icon-star-solid" unicode="&#59079;" d="M10.43998 473.48a25.37299999 25.37299999 0 0 0-9.32 27.962l4.143 12.944A25.37299999 25.37299999 0 0 0 28.04497999 532.51l330.88400001 26.41L485.79498001 863.91a26.409 26.409 0 0 0 26.40899999 16.571h13.464a25.37299999 25.37299999 0 0 0 24.337-16.57L677.38498 558.91800001l330.884-26.40900001a25.37299999 25.37299999 0 0 0 22.784-18.124l4.143-12.944a25.37299999 25.37299999 0 0 0-7.767-27.962L777.84198 259.10400000000004l76.637-321.563a26.409 26.409 0 0 0-9.839-27.44500001l-15.016-8.28499999a25.89 25.89 0 0 0-28.997 0L518.93498002 72.69100000000003 235.68998-99.74300000000005a25.89 25.89 0 0 0-28.998 0l-11.392 7.767a26.409 26.409 0 0 0-9.83800001 27.44399999l74.56600001 323.63500001z"  horiz-adv-x="1036" />

    
    <glyph glyph-name="cl-icon-square" unicode="&#59080;" d="M356.46122667 423.38417778H142.59541333c-64.32312889 0-116.65408 52.33095111-116.65408 116.65408V753.4034488899999c0 64.32312889 52.33095111 116.65408 116.65408 116.65408h213.86581334c64.32312889 0 116.65408-52.33095111 116.65408-116.65408v-213.36519111c-0.00113778-64.32199111-52.33208889-116.65408-116.65408-116.65408zM142.59541333 792.28814222c-21.44142222 0-38.88469333-17.44327111-38.88469333-38.88469333v-213.36519111c0-21.44028446 17.44327111-38.88469333 38.88469333-38.88469333h213.86581334c21.44142222 0 38.88469333 17.44440887 38.88469333 38.88469333V753.4034488899999c0 21.44142222-17.44327111 38.88469333-38.88469333 38.88469333H142.59541333zM356.46122667-102.05866666999998H142.59541333C78.27228445-102.05866666999998 25.94133333-49.72771554999997 25.94133333 14.595413330000042V227.95946666999998c0 64.32426667 52.33095111 116.65408 116.65408 116.65408h213.86581334c64.32312889 0 116.65408-52.32981333 116.65408-116.65408v-213.36405334c-0.00113778-64.32312889-52.33208889-116.65408-116.65408-116.65408zM142.59541333 266.84416c-21.44142222 0-38.88469333-17.44213333-38.88469333-38.88469333v-213.36405334c0-21.44142222 17.44327111-38.88469333 38.88469333-38.88469333h213.86581334c21.44142222 0 38.88469333 17.44327111 38.88469333 38.88469333V227.95946666999998c0 21.44142222-17.44327111 38.88469333-38.88469333 38.88469333H142.59541333z m738.80803556-368.29639111H667.53763555c-64.32312889 0-116.65408 52.33095111-116.65408 116.65408V228.56817778000004c0 64.32312889 52.33095111 116.65408 116.65408 116.65408H881.40231111c64.32312889 0 116.65408-52.33095111 116.65408-116.65408V15.200711100000035c0-64.32312889-52.33095111-116.65408-116.65408-116.65408zM667.53763555 267.45173333c-21.44142222 0-38.88469333-17.44327111-38.88469333-38.88469333V15.200711100000035c0-21.44028446 17.44327111-38.88469333 38.88469333-38.88469331H881.40231111c21.44142222 0 38.88469333 17.44440887 38.88469334 38.88469334V228.56817778000004c0 21.44142222-17.44327111 38.88469333-38.88469334 38.88469333H667.53763555z m106.93290667 154.71843554c-123.95633778 0-224.80213334 100.73201778-224.80213333 224.55068446s100.84579555 224.55182222 224.80213333 224.55182222 224.80213334-100.73315555 224.80213333-224.55182222c0-123.81752889-100.84579555-224.55182222-224.80213333-224.55182222z m0 368.90282668c-79.73432889 0-144.60245334-64.75548445-144.60245333-144.35100442s64.86698666-144.35214222 144.60245333-144.35214223 144.60245334 64.75548445 144.60245333 144.35214223-64.86812445 144.35100445-144.60245333 144.35100442z"  horiz-adv-x="1024" />

    
    <glyph glyph-name="cl-icon-setting" unicode="&#59081;" d="M936.05 505.287l-31.29 11.15c-10.125 3.641-18.09 11.15-22.186 21.05s-3.86800001 20.82000001 0.797 30.60499999l14.222 29.924c23.666 49.835 13.767 107.29200001-25.259 146.31800001s-96.483 48.925-146.31799999 25.259l-29.92400002-14.222c-9.784-4.665-20.593-4.89299999-30.60599999-0.797-10.01200001 4.096-17.522 12.06000001-21.049 22.187l-11.15 31.289C614.741 860.046 567.182 893.61 512 893.61S409.259 860.047 390.713 808.05l-11.15-31.29c-3.641-10.125-11.15-18.09-21.05-22.186-10.01200001-4.096-20.82000001-3.86800001-30.60499999 0.797l-29.924 14.222c-49.835 23.666-107.29200001 13.767-146.31800001-25.259s-48.925-96.483-25.259-146.31799999l14.222-29.92400002c4.665-9.784 4.89299999-20.593 0.797-30.60599999-4.096-10.01200001-12.06000001-17.522-22.187-21.049l-31.289-11.15C35.954 486.741 2.39 439.182 2.39 384s33.56399999-102.741 85.56-121.287l31.29-11.15c10.125-3.641 18.09-11.15 22.186-21.05 4.096-10.01200001 3.86800001-20.82000001-0.797-30.60499999l-14.222-29.924c-23.666-49.835-13.767-107.29200001 25.259-146.31800001s96.483-48.925 146.31800001-25.259l29.924 14.222c9.784 4.665 20.593 4.89299999 30.60599999 0.797s17.522-12.06000001 21.049-22.187l11.15-31.289c18.546-51.99600001 66.105-85.56 121.287-85.56s102.741 33.56399999 121.287 85.56l11.15 31.29c3.641 10.125 11.15 18.09 21.05 22.186 10.01200001 4.096 20.82000001 3.86800001 30.60500001-0.797l29.924-14.222c17.977-8.533 36.978-12.743 55.75099999-12.74300001 33.11 0 65.65 13.08399999 90.567 38.00200001 39.026 39.026 48.925 96.483 25.259 146.31799999l-14.222 29.92400002c-4.665 9.784-4.89299999 20.593-0.797 30.60599999 4.096 10.01200001 12.06000001 17.522 22.187 21.049l31.289 11.15c51.99600001 18.546 85.56 66.105 85.56 121.287s-33.56399999 102.741-85.56 121.287z m-30.60600001-156.786l-31.28999999-11.15c-34.24599999-12.174-61.89400001-38.457-75.775-72.021s-12.971-71.68 2.61699999-104.562l14.22200001-29.92400001c10.581-22.30000001-2.958-38.456-7.396-42.89399999-4.437-4.437-20.594-17.977-42.89399999-7.395l-29.92400002 14.222c-32.881 15.58699999-70.88299999 16.611-104.56099999 2.617-33.56499999-13.881-59.847-41.52999998-72.022-75.776l-11.15-31.29c-8.306-23.21-29.24-25.03000001-35.49900001-25.03s-27.306 1.82000001-35.49799999 25.03l-11.15000001 31.29c-12.175 34.247-38.457 61.895-72.02199999 75.776-15.815 6.485-32.54000001 9.785-49.26600001 9.785-18.887 0-37.88800001-4.21-55.296-12.402l-29.92299999-14.222c-22.30000001-10.582-38.457 2.958-42.894 7.395-4.438 4.438-17.977 20.594-7.396 42.89399999l14.222 29.92400001c15.58799999 32.882 16.61200001 70.88399999 2.617 104.562-13.88 33.56399999-41.529 59.847-75.776 72.021l-31.289 11.15c-23.21 8.306-25.03000001 29.241-25.03 35.499s1.82000001 27.307 25.03 35.499l31.29 11.15c34.24599999 12.174 61.89400001 38.457 75.775 72.021s12.97 71.68-2.617 104.562l-14.222 29.92400001c-10.581 22.30000001 2.958 38.456 7.396 42.89399999 4.437 4.437 20.593 17.977 42.894 7.395l29.92299999-14.222c32.882-15.58699999 70.88399999-16.611 104.56200001-2.617 33.56499999 13.881 59.847 41.52999998 72.02199999 75.776l11.15000001 31.29c8.306 23.21 29.24 25.03000001 35.49799999 25.03s27.307-1.82000001 35.50000001-25.03l11.15-31.29c12.174-34.247 38.456-61.895 72.02-75.776 33.56499999-13.88 71.68-12.97 104.56199999 2.617l29.92400002 14.222c22.30000001 10.582 38.457-2.958 42.89399999-7.395 4.438-4.438 17.977-20.594 7.396-42.89399999l-14.22200001-29.92400001c-15.58799999-32.882-16.61200001-70.88399999-2.61699999-104.562 13.88-33.56399999 41.529-59.847 75.776-72.021l31.28899999-11.15c23.21-8.306 25.03000001-29.241 25.03000001-35.499s-1.706-27.307-25.03000001-35.499zM512 602.11200001c-120.263 0-218.11200001-97.849-218.11200001-218.11200001S391.737 165.88799999000003 512 165.88799999000003 730.11200001 263.73699999999997 730.11200001 384 632.263 602.11200001 512 602.11200001z m0-345.20200001c-70.087 0-127.09 57.003-127.09 127.09S441.913 511.09 512 511.09 639.09 454.087 639.09 384 582.087 256.90999999999997 512 256.90999999999997z"  horiz-adv-x="1024" />

    
    <glyph glyph-name="cl-icon-refresh" unicode="&#59082;" d="M512 798.2519999900001a414.25199999 414.25199999 0 1 1 369.099-602.48799998 41.425 41.425 0 0 0 73.73699999-37.78000001 497.103 497.103 0 1 0-79.37099999 565.206l62.966 62.96599999a41.425 41.425 0 0 0 70.672-29.32899999v-165.7a41.26000001 41.26000001 0 0 0-41.42599999-41.426h-165.70000001a41.26000001 41.26000001 0 0 0-29.33 70.754l44.16 44.16A413.755 413.755 0 0 1 512 798.251z"  horiz-adv-x="1024" />

    
    <glyph glyph-name="cl-icon-relation" unicode="&#59083;" d="M543.967 207.15499999999997L342.421 5.45799999999997c-27.843-27.848-64.928-43.294-104.38-43.29399999s-76.54000001 15.333-104.38 43.29299999c-27.843 27.96-43.399 64.94000001-43.399 104.4 0 39.46000001 15.33 76.552 43.285 104.4l201.66 201.696c15.893 15.897 15.893 41.60299999 0 57.386-15.895 15.897-41.595 15.897-57.376 0L76.17 271.75599998999996C32.88700001 228.46400000000006 9.102 170.962 9.102 109.85699999999997c0-61.107 23.784-118.605 67.06999999-161.785 44.637-44.647 103.253-66.97 161.75600001-66.97 58.614 0 117.23 22.323 161.755 66.97l201.66 201.696c15.89199999 15.897 15.89199999 41.602 0 57.386-15.895 15.784-41.48399999 15.784-57.376 0zM947.928 819.918c-89.273 89.304-234.342 89.304-323.616 0L422.658 618.194c-15.894-15.899-15.894-41.608 0-57.394 15.893-15.899 41.593-15.899 57.374 0l201.654 201.725c57.6 57.62000001 151.269 57.62000001 208.869 0 27.841-27.85199999 43.28399999-64.949 43.284-104.414 0-39.466-15.33-76.563-43.284-104.414L688.90000001 351.97199999c-15.895-15.90000001-15.895-41.60899999-2e-8-57.39499999 7.89-7.89199999 18.26000001-11.84000001 28.74100001-11.84 10.483 0 20.742 3.94799999 28.744 11.84l201.656 201.725c89.16 89.193 89.16 234.42599999-0.113 323.618z m-465.392-525.3L597.89099999 410.02000001c15.946 15.952 15.946 41.74800001 0 57.58699999-15.946 15.953-41.73200001 15.953-57.56399999 0L424.971 352.206c-15.946-15.953-15.946-41.749 0-57.589 7.917-7.919 18.32-11.88 28.838-11.88s20.697 3.96 28.726 11.88z"  horiz-adv-x="1024" />

    
    <glyph glyph-name="cl-icon-plus-solid" unicode="&#59084;" d="M512 896c281.6 0 512-230.4 512-512s-230.4-512-512-512S0 102.39999999999998 0 384 230.4 896 512 896z m32-480V640c0 19.2-12.8 32-32 32s-32-12.8-32-32v-224H256c-19.2 0-32-12.8-32-32s12.8-32 32-32h224v-224c0-19.2 12.8-32 32-32s32 12.8 32 32V352h224c19.2 0 32 12.8 32 32s-12.8 32-32 32H544z"  horiz-adv-x="1024" />

    
    <glyph glyph-name="cl-icon-plus1" unicode="&#59085;" d="M512 832C262.4 832 64 633.6 64 384s198.4-448 448-448 448 198.4 448 448S761.6 832 512 832z m0 64c281.6 0 512-230.4 512-512s-230.4-512-512-512S0 102.39999999999998 0 384 230.4 896 512 896z m32-480h224c19.2 0 32-12.8 32-32s-12.8-32-32-32H544v-224c0-19.2-12.8-32-32-32s-32 12.8-32 32V352H256c-19.2 0-32 12.8-32 32s12.8 32 32 32h224V640c0 19.2 12.8 32 32 32s32-12.8 32-32v-224z"  horiz-adv-x="1024" />

    
    </font>
</defs>
</svg>
