<?xml version="1.0" standalone="no"?>
<!DOCTYPE svg PUBLIC "-//W3C//DTD SVG 1.1//EN" "http://www.w3.org/Graphics/SVG/1.1/DTD/svg11.dtd" >
<!--
2013-9-30: Created.
-->
<svg>
<metadata>
Created by iconfont
</metadata>
<defs>

<font id="iconfont" horiz-adv-x="1024" >
  <font-face
    font-family="iconfont"
    font-weight="500"
    font-stretch="normal"
    units-per-em="1024"
    ascent="896"
    descent="-128"
  />
    <missing-glyph />
    
    <glyph glyph-name="cl-icon-loading" unicode="&#58966;" d="M883.33313802 412.66676433V362.66666667000004H683.3336263v50.00009766h199.99951172z m-550.00019531 0V362.66666667000004H133.33430989v50.00009766h199.99951172z m150.00029296-200.00039063H533.33333333v-199.99951172h-50.00009766V212.6663737z m0 550.00019531H533.33333333v-199.99951172h-50.00009766V762.66569011z m299.99970704-614.99970703l-34.99980469-34.99980469-140.00009766 139.99921875 35.0006836 35.0006836 139.99921875-140.00097656zM408.33352864 522.66627604l-34.99980468-34.99980468-140.00097657 140.00097656 35.0006836 34.99892578 140.00009765-140.00009766z m-34.99980468-234.9993164l34.99980468-35.0006836-140.00097656-139.99921875-34.99892578 34.99980469 140.00009766 140.00009766z m374.99941406 374.99941406l34.99980468-34.99980469-139.99921875-140.00009765-35.00068359 34.99980468 140.00097656 140.00097657z"  horiz-adv-x="1024" />

    
    <glyph glyph-name="cl-icon-set" unicode="&#58968;" d="M814.23125 356.19843749999995c0.8859375 9.196875 1.434375 18.4359375 1.434375 27.8015625s-0.5484375 18.6046875-1.434375 27.8015625l70.4953125 55.7296875c15.271875 12.4875 19.1953125 34.003125 9.4078125 51.0046875l-75.178125 131.540625c-9.534375 16.70625-29.953125 24.721875-49.275 17.296875L687.078125 633.7921875c-15.1453125 10.884375-31.0078125 20.2078125-47.334375 27.84375L627.2140625 750.9046875C624.2609375 770.2265625 607.3015625 784.78125 587.8109375 784.78125h-150.3984375c-19.74375 0-36.3234375-14.2171875-39.4453125-34.171875l-12.4875-88.9734375c-16.36875-7.678125-32.23125-17.0015625-47.3765625-27.84375L255.2890625 667.5c-17.8453125 6.91875-39.4453125-0.7171875-48.9796875-17.4234375L131.13125 518.578125c-9.7875-17.128125-5.8640625-38.64375 9.6609375-51.2578125l70.2-55.51875c-0.8859375-9.1546875-1.434375-18.4359375-1.434375-27.8015625s0.5484375-18.646875 1.434375-27.8015625L140.4125 300.46875c-15.1453125-12.5296875-19.06875-34.003125-9.28125-50.9625l75.2203125-131.625c9.5765625-16.6640625 30.459375-24.6796875 49.2328125-17.2125l82.603125 33.58125c15.1875-10.884375 31.05-20.2078125 47.334375-27.8015625l12.5296875-89.3953125C401.13125-2.5640624999999773 417.7109375-16.78125 437.4125-16.78125h150.35625c19.490625 0 36.4078125 14.5546875 39.4875 34.171875l12.4875 89.015625a299.57607422 299.57607422 0 0 1 47.334375 27.84375l82.8140625-33.75c4.640625-1.8140625 9.4921875-2.7 14.4703125-2.7 14.175 0 27.421875 7.678125 34.59375 20.1234375l75.0515625 131.45625c9.8296875 16.959375 6.0328125 38.475-9.61875 51.4265625l-70.1578125 55.3921875z m-28.6875-216.50625L691.9296875 177.78750000000002c-7.003125 2.9109375-14.934375 1.771875-20.8828125-2.86875-18.478125-14.34375-38.221875-25.9453125-58.725-34.4671875-6.8765625-2.86875-11.728125-9.196875-12.7828125-16.5796875l-13.7953125-98.5078125-146.0109375-2.1515625-14.090625 100.659375c-1.0125 7.3828125-5.90625 13.66875-12.7828125 16.5796875-20.334375 8.4375-40.1203125 20.08125-58.725 34.4671875a21.30029297 21.30029297 0 0 1-12.909375 4.3875c-2.6578125 0-5.3578125-0.50625-7.93125-1.5609375l-90.3234375-38.9390625-75.9796875 128.840625 79.396875 62.690625c5.821875 4.5984375 8.775 11.9390625 7.846875 19.2796875-1.51875 11.30625-2.4890625 22.7390625-2.4890625 34.3828125s0.9703125 23.0765625 2.446875 34.2984375c0.9703125 7.3828125-1.9828125 14.68125-7.846875 19.2796875l-78.5953125 60.0328125 71.9296875 130.696875 93.5296875-38.053125a21.04277344 21.04277344 0 0 1 20.8828125 2.8265625c18.5203125 14.34375 38.3484375 25.9875 58.8515625 34.59375 6.8765625 2.86875 11.6859375 9.1546875 12.740625 16.5375L437.4125 742.59375l148.078125 2.1515625 14.090625-100.6171875c1.0125-7.3828125 5.90625-13.66875 12.7828125-16.5375 20.41875-8.521875 40.2046875-20.1234375 58.7671875-34.509375 5.990625-4.5984375 13.921875-5.6953125 20.8828125-2.86875l90.3234375 38.896875 76.021875-128.75625-79.4390625-62.775c-5.821875-4.5984375-8.8171875-11.896875-7.8890625-19.2375 1.434375-11.30625 2.4890625-22.7390625 2.4890625-34.3828125s-1.0125-23.0765625-2.4890625-34.3828125c-0.928125-7.340625 2.0671875-14.6390625 7.8890625-19.2375l78.553125-59.9484375-71.9296875-130.696875zM512.675 543.046875c-86.990625 0-157.7390625-71.3390625-157.7390625-159.046875 0-87.665625 70.7484375-159.046875 157.7390625-159.046875 86.990625 0 157.696875 71.3390625 157.696875 159.046875s-70.7484375 159.046875-157.696875 159.046875z m0-275.90625c-63.703125 0-115.5515625 52.396875-115.5515625 116.859375s51.8484375 116.859375 115.5515625 116.859375c63.703125 0 115.509375-52.4390625 115.509375-116.859375S576.3359375 267.140625 512.675 267.140625z"  horiz-adv-x="1024" />

    
    <glyph glyph-name="cl-icon-warning-solid" unicode="&#58973;" d="M512 777.75C294.59374999 777.75 118.25 601.40625001 118.25 384c0-217.4625 176.34375001-393.75 393.75-393.75 217.51875001 0 393.75 176.2875 393.75 393.75 0 217.40625001-176.23125001 393.75-393.75 393.75z m0-618.75c-23.23125001 0-42.1875 18.9-42.1875 42.1875s18.95625001 42.1875 42.1875 42.1875c23.4 0 42.1875-18.9 42.1875-42.1875s-18.7875-42.1875-42.1875-42.1875z m42.1875 210.9375c0-23.34375001-18.7875-42.1875-42.1875-42.1875-23.23125001 0-42.1875 18.84375001-42.1875 42.1875V566.8125c0 23.34375001 18.95625001 42.1875 42.1875 42.1875 23.4 0 42.1875-18.84375001 42.1875-42.1875v-196.875z"  horiz-adv-x="1024" />

    
    <glyph glyph-name="cl-icon-warning" unicode="&#58974;" d="M554.1875 369.9375c0-23.2875-18.7875-42.1875-42.1875-42.1875-23.23125001 0-42.1875 18.9-42.1875 42.1875V566.8125c0 23.34375001 18.95625001 42.1875 42.1875 42.1875 23.4 0 42.1875-18.84375001 42.1875-42.1875v-196.875z m0-168.75c0 23.2875-18.7875 42.1875-42.1875 42.1875-23.23125001 0-42.1875-18.9-42.1875-42.1875s18.95625001-42.1875 42.1875-42.1875c23.4 0 42.1875 18.9 42.1875 42.1875zM512 777.75C294.59374999 777.75 118.25 601.40625001 118.25 384c0-217.4625 176.34375001-393.75 393.75-393.75 217.51875001 0 393.75 176.2875 393.75 393.75 0 217.40625001-176.23125001 393.75-393.75 393.75z m0-731.925c-186.75 0-338.175 151.36875001-338.175 338.175S325.25 722.175 512 722.175 850.0625 570.75 850.0625 384 698.75 45.825000000000045 512 45.825000000000045z"  horiz-adv-x="1024" />

    
    <glyph glyph-name="cl-icon-user" unicode="&#58975;" d="M511.84344482 350.30685425c-53.8343811 0-104.44702148 20.96356201-142.51382446 59.02954101-38.06680298 38.06762695-59.03036499 88.67861938-59.03036499 142.51382446s20.96356201 104.44702148 59.03036499 142.51382447C407.39642334 732.4300232 458.00906372 753.39440918 511.84344482 753.39440918c53.8343811 0 104.44619751-20.96356201 142.51382447-59.03036499 38.06597901-38.06762695 59.03118896-88.67861938 59.03118896-142.51464844S692.42407227 447.40484619 654.35726929 409.33721924c-38.06762695-38.06597901-88.67944336-59.02954102-142.51464844-59.02954101z m0 349.12463379c-81.37573242 0-147.58126831-66.20471191-147.58126831-147.58044434S430.4677124 404.26977539 511.84344482 404.26977539c81.3765564 0 147.58044433 66.20471191 147.58044434 147.58126831S593.21917724 699.43148804 511.84344482 699.43148804zM771.75717163 15.140350340000055H251.92889404c-34.1685791 0-65.68725586 15.5541687-86.47283935 42.67529297-20.67434692 26.97610474-27.53723145 61.23449707-18.86901856 94.06823731l45.52542114 198.62814331 0.13183594 0.49108886c13.79663086 51.24792481 60.02490234 87.26138305 112.90924072 88.2789917l81.61962891 13.21160889 8.62289429-53.26995849-85.76586914-13.8831482h-2.16952515c-29.33514404 0-55.16839599-19.67816162-62.98461914-47.91494751l-45.50811768-198.55563355-0.1326599-0.49026488c-4.48242188-16.65252685-1.03738403-34.05239868 9.45181274-47.73944093 10.48919677-13.68621826 26.39685059-21.53704834 43.64099121-21.53704834h519.82745361c17.2449646 0 33.15097046 7.85083008 43.64099121 21.53704834 10.49002075 13.68621826 13.93505859 31.08773804 9.45181274 47.73944093l-0.24472045 0.98547362-45.39605713 198.05877686c-7.81704712 28.23760987-33.6494751 47.91741943-62.98544312 47.91741944h-2.16787719l-85.82519531 13.88314819 8.61712646 53.27078247 81.68225098-13.21160889c52.88516235-1.01843261 99.11425781-37.03024292 112.91088867-88.27899169l0.24472045-0.98547364 45.4133606-198.13458252c8.66903687-32.83538818 1.80615234-67.09130859-18.86901855-94.06741333-20.78475952-27.12277222-52.30261231-42.67694092-86.47201538-42.67694092z"  horiz-adv-x="1024" />

    
    <glyph glyph-name="cl-icon-user-solid" unicode="&#58976;" d="M512 350.72790526999995c-53.8343811 0-104.44702148 20.96438599-142.51300049 59.03036499-38.06762695 38.06762695-59.03118896 88.67861938-59.03118896 142.51300049s20.96438599 104.44702148 59.03118896 142.51464844C407.55297852 732.85107422 458.1656189 753.81628418 512 753.81628418s104.44619751-20.96356201 142.51464844-59.03118897c38.06515503-38.06680298 59.02954102-88.67861938 59.02954101-142.51382446s-20.96356201-104.44619751-59.02954101-142.51300049c-38.06845093-38.06597901-88.68109131-59.02954102-142.51464844-59.02954101zM877.09902954 151.88388062L831.68566895 350.01928711000005l-0.24472046 0.98547364c-13.79663086 51.24874878-60.02572632 87.26138305-112.91088867 88.27899169l-7.05981446 1.14202881c-10.17526245-18.16452026-22.90896607-35.04199219-38.03384399-50.16769409-43.16308594-43.16226196-100.55126953-66.93310547-161.59213257-66.93310547-61.04251099 0-118.4298706 23.77084351-161.59213257 66.93310547-15.1257019 15.1257019-27.86022949 32.00317383-38.03466797 50.16851807l-7.06228638-1.14367676c-52.88516235-1.01843261-99.11260987-37.0310669-112.90924071-88.2789917l-0.13183594-0.49108887-45.52542115-198.62731933c-8.66986084-32.83374023-1.80615234-67.09213257 18.86901855-94.06823731 20.78475952-27.12112427 52.30261231-42.67529297 86.47201539-42.67529297H771.7579956c34.1685791 0 65.68725586 15.5541687 86.47283936 42.67529297 20.67352295 26.97528076 27.53805542 61.23120117 18.86901856 94.06741333z"  horiz-adv-x="1024" />

    
    <glyph glyph-name="cl-icon-info-solid" unicode="&#58977;" d="M512 776.00625C295.83125 776.00625 119.99375 600.16875 119.99375 384S295.83125-8.006250000000023 512-8.006250000000023 904.00625 167.83124999999995 904.00625 384 728.16875 776.00625 512 776.00625zM540.125 187.125c0-15.553125-12.571875-28.125-28.125-28.125s-28.125 12.571875-28.125 28.125V440.25c0 15.553125 12.571875 28.125 28.125 28.125s28.125-12.571875 28.125-28.125v-253.125z m-28.125 337.5c-23.2875 0-42.1875 18.928125-42.1875 42.1875 0 23.315625 18.9 42.1875 42.1875 42.1875s42.1875-18.871875 42.1875-42.1875c0-23.259375-18.9-42.1875-42.1875-42.1875z"  horiz-adv-x="1024" />

    
    <glyph glyph-name="cl-icon-info" unicode="&#58978;" d="M512-8.006250000000023C295.859375-8.006250000000023 119.99375 167.83124999999995 119.99375 384 119.99375 600.140625 295.859375 776.00625 512 776.00625c216.16875 0 392.00625-175.8375 392.00625-392.00625 0-216.16875-175.8375-392.00625-392.00625-392.00625z m0 727.7625c-185.146875 0-335.75625-150.609375-335.75625-335.75625 0-185.11875 150.609375-335.75625 335.75625-335.75625 185.11875 0 335.75625 150.609375 335.75625 335.75625S697.11875 719.75625 512 719.75625zM469.8125 566.8125a1.31835938 1.31835938 0 1 1 84.375 0 1.31835938 1.31835938 0 1 1-84.375 0zM512 159c-15.525 0-28.125 12.571875-28.125 28.125V440.25c0 15.525 12.6 28.125 28.125 28.125s28.125-12.6 28.125-28.125v-253.125c0-15.553125-12.6-28.125-28.125-28.125z"  horiz-adv-x="1024" />

    
    <glyph glyph-name="cl-icon-question-solid" unicode="&#58979;" d="M512 777.75C294.875 777.75 118.25 601.125 118.25 384s176.625-393.75 393.75-393.75 393.75 176.625 393.75 393.75S729.125 777.75 512 777.75z m0-675.309375c-23.2875 0-42.1875 18.9-42.1875 42.1875s18.9 42.1875 42.1875 42.1875 42.1875-18.9 42.1875-42.1875-18.9-42.1875-42.1875-42.1875z m77.85 287.55C565.38125001 365.54999999999995 540.125 340.29374999000004 540.125 317.59687499999995v-47.559375c0-15.525-12.6-28.125-28.125-28.125s-28.125 12.6-28.125 28.125v47.559375c0 46.0125 35.15625001 81.16875001 66.20625001 112.190625C572.834375 452.540625 596.375 476.053125 596.375 494.8125c0 46.884375-37.85625001 85.021875-84.375 85.021875-47.30625001 0-84.375-36.50625001-84.375-83.109375 0-15.525-12.6-28.125-28.125-28.125s-28.125 12.6-28.125 28.125c0 76.8375 63.084375 139.359375 140.625 139.359375S652.625 572.71875001 652.625 494.8125c0-42.075-31.921875-73.96875001-62.775-104.821875z"  horiz-adv-x="1024" />

    
    <glyph glyph-name="cl-icon-question" unicode="&#58980;" d="M469.8125 144.62812499999995c0-23.29980469 18.88769531-42.1875 42.1875-42.1875s42.1875 18.88769531 42.1875 42.1875-18.88769531 42.1875-42.1875 42.1875-42.1875-18.88769531-42.1875-42.1875zM512-9.75C294.875-9.75 118.25 166.875 118.25 384S294.875 777.75 512 777.75s393.75-176.625 393.75-393.75-176.625-393.75-393.75-393.75z m0 730.99775391c-185.9625 0-337.24775391-151.28525391-337.24775391-337.24775391 0-185.934375 151.28525391-337.24775391 337.24775391-337.24775391 185.934375 0 337.24775391 151.3125 337.24775391 337.24775391 0 185.9625-151.31337891 337.24775391-337.24775391 337.24775391z m0-479.3625c-15.52587891 0-28.125 12.6-28.125 28.12412109v47.559375c0 46.01337891 35.15537109 81.16875 66.20537109 112.190625 22.75224609 22.78125 46.29375 46.29375 46.29375 65.053125 0 46.884375-37.85625 85.021875-84.37412109 85.021875-47.30537109 0-84.375-36.50625-84.375-83.109375 0-15.525-12.59912109-28.12412109-28.125-28.12412109s-28.125 12.6-28.125 28.125c0 76.83662109 63.08261719 139.35849609 140.625 139.35849609S652.625 572.71875 652.625 494.8125c0-42.103125-31.921875-73.99599609-62.775-104.85-24.46875-24.4125-49.72412109-49.66875-49.72412109-72.36474609v-47.559375c0-15.52587891-12.6-28.153125-28.12587891-28.153125z"  horiz-adv-x="1024" />

    
    <glyph glyph-name="cl-icon-remove" unicode="&#58981;" d="M681.6875 414H342.3125c-16.5 0-30-11.25-30-30s14.0625-30 30-30h339.375c16.5 0 30 13.5 30 30s-13.5 30-30 30zM512 721.5c90.1875 0 174.9375-35.0625 238.6875-98.8125S849.5 474.1875 849.5 384s-35.0625-174.9375-98.8125-238.6875S602.1875 46.5 512 46.5c-90.1875 0-174.9375 35.0625-238.6875 98.8125S174.5 293.8125 174.5 384s35.0625 174.9375 98.8125 238.6875S421.8125 721.5 512 721.5m0 52.5C296.5625 774 122 599.4375 122 384s174.5625-390 390-390 390 174.5625 390 390S727.4375 774 512 774z"  horiz-adv-x="1024" />

    
    <glyph glyph-name="cl-icon-remove-solid" unicode="&#58982;" d="M512 774C296.5625 774 122 599.4375 122 384s174.5625-390 390-390 390 174.5625 390 390S727.4375 774 512 774z m169.6875-420H342.3125c-15.9375 0-30 11.25-30 30s13.5 30 30 30h339.375c16.5 0 30-13.5 30-30s-13.5-30-30-30z"  horiz-adv-x="1024" />

    
    <glyph glyph-name="cl-icon-check" unicode="&#58988;" d="M887.904 597.7919999999999c-12.864 12.064-33.152 11.488-45.216-1.408L415.936 142.01599999999996l-233.12 229.696c-12.608 12.416-32.864 12.288-45.28-0.32-12.416-12.576-12.256-32.864 0.352-45.248l256.48-252.672c0.096-0.096 0.224-0.128 0.32-0.224s0.128-0.224 0.224-0.32c2.016-1.92 4.448-3.008 6.784-4.288 1.152-0.672 2.144-1.664 3.36-2.144 3.776-1.472 7.776-2.24 11.744-2.24 4.192 0 8.384 0.832 12.288 2.496 1.312 0.544 2.336 1.664 3.552 2.368 2.4 1.408 4.896 2.592 6.944 4.672 0.096 0.096 0.128 0.256 0.224 0.352 0.064 0.096 0.192 0.128 0.288 0.224L889.28 552.576c12.16 12.832 11.488 33.088-1.376 45.216z"  horiz-adv-x="1024" />

    
    <glyph glyph-name="cl-icon-cloud-upload" unicode="&#58995;" d="M766.1375 506.68125001C722.6 614.5125 617.01875001 690.5625 493.71874999 690.5625c-156.6 0-284.4-122.34375001-293.39999998-276.6375C122.525 405.09375001 62 339.11249999999995 62 258.89999998999997 62 172.66874999000004 131.91874999 102.75 218.15 102.75h229.55625001V231.33749999999998H319.11874999L512 488.45625001l192.88125001-257.11875001H576.29375001V102.75h183.71249998C871.60625001 102.75 962 193.25624999000001 962 304.79999999999995c0 109.51875001-87.13125001 198.61875001-195.8625 201.88125001z"  horiz-adv-x="1024" />

    
    <glyph glyph-name="cl-icon-download" unicode="&#58996;" d="M784.20232757 442.87270898a31.07783221 31.07783221 0 0 1-43.31220062-0.14007568L541.81138407 249.13991006000003V775.96590079A30.23408303 30.23408303 0 0 1 511.15625082 805.87204193a30.23408303 30.23408303 0 0 1-30.60899148-29.81303202v-525.46643343L283.06373047 442.77959985a31.12479877 31.12479877 0 0 1-43.35916718-0.0939331 29.25025818 29.25025818 0 0 1 0.04614258-42.18747611l248.29636625-241.498579a30.32801614 30.32801614 0 0 1 10.64080151-6.65688676 30.93775654 30.93775654 0 0 1 12.4683772-2.67132403c1.07775796 0 2.01544107 0.46884156 3.09402218 0.60974038a30.93775654 30.93775654 0 0 1 21.98363021 8.76461299l248.06153349 241.68726919a29.20329162 29.20329162 0 0 1-0.09310914 42.1874761zM886.99886859 72.28045412999995c0-16.82802356-13.96883331-30.46809183-31.26569843-30.46809182H168.26682984a30.89078998 30.89078998 0 0 0-31.26569843 30.46809182c0 16.82802356 14.01579986 30.4689158 31.26569843 30.4689158h687.46634032c17.29686511 0 31.26569843-13.64089141 31.26569843-30.4689158z"  horiz-adv-x="1024" />

    
    <glyph glyph-name="cl-icon-upload" unicode="&#58997;" d="M784.20166016 325.12701416000004a31.07785034 31.07785034 0 0 0-43.31222534 0.14007568L541.81222534 518.85992432v-526.87243653a30.23410034 30.23410034 0 0 0-30.65597534-29.85919189 30.23410034 30.23410034 0 0 0-30.60900879 29.81222534V517.40725708L283.06359864 325.22094727a31.1248169 31.1248169 0 0 0-43.3591919 0.09310913 29.25027466 29.25027466 0 0 0 0.04696655 42.1875l248.29568481 241.49871826a30.32803344 30.32803344 0 0 0 10.64080811 6.65689087 30.93777466 30.93777466 0 0 0 12.46838379 2.71911621c1.07775879 0 2.0154419-0.46966553 3.09402466-0.60974121a30.93777466 30.93777466 0 0 0 21.98364258-8.7654419L784.29559326 367.31451416000004a29.2033081 29.2033081 0 0 0-0.0939331-42.1875zM886.99908447 695.71948242a30.84384156 30.84384156 0 0 1-31.26489257 30.46810914H168.26663208a30.8908081 30.8908081 0 0 1-31.26489258-30.46810914c0-16.82803344 14.0158081-30.4689331 31.26489258-30.4689331h687.46673584a30.84384156 30.84384156 0 0 1 31.26489258 30.4689331z"  horiz-adv-x="1024" />

    
    <glyph glyph-name="cl-icon-plus" unicode="&#58999;" d="M855.87509156 415.59365844l-310.03115846-0.0939331V727.68804932a31.3126831 31.3126831 0 1 1-62.5314331 0v-311.95266724l-314.95275878 0.14007568h-0.09393312a31.3126831 31.3126831 0 0 1-0.14007568-62.71847534l315.18676758-0.18704224v-312.65716552a31.3126831 31.3126831 0 1 1 62.5314331 0V352.82904052000004l309.75018312 0.09393312h0.14007568a31.3126831 31.3126831 0 0 1 0.14007568 62.67150878z"  horiz-adv-x="1024" />

    
    <glyph glyph-name="cl-icon-minus" unicode="&#59000;" d="M891.6875 398.06277466c0-18.75036621-14.06277466-37.49990844-37.49990844-37.49990844H169.81158447c-18.74954224 0-37.49990844 14.06195068-37.49990845 37.49908446s14.06277466 37.50073242 37.49990845 37.50073242h689.06277466c18.74954224 0 32.8123169-14.06277466 32.81231689-37.49990844z"  horiz-adv-x="1024" />

    
    <glyph glyph-name="cl-icon-edit" unicode="&#59001;" d="M357.31277466 374.62481690000004c0 4.68841552 0 4.68841552 0 0l374.99908447 374.99990844c9.37600708 9.3751831 28.12554932 18.75036621 42.1875 18.75036622 18.75036621 0 37.50073242-9.3751831 51.56350709-23.43795777l32.81231688-32.81231689c14.06195068-14.06195068 23.43713379-32.8123169 23.4371338-51.56268311 0-14.06195068-4.68759156-32.8123169-18.74954224-42.1875l-370.31314087-374.99908447h-4.68676757l-140.62527466-37.50073242H343.25c-4.68759156 0-14.06277466 4.68841552-18.75036621 4.68841552-4.68676758 4.68676758-9.37435913 14.06195068-4.68676757 23.4371338l37.49908446 140.62445068z m412.4998169 332.81240844l-337.5-337.5 51.5626831-51.56185912 342.18759155 342.18676757-56.25027465 46.87591553zM371.37472534 257.4375l65.62545776 18.75036621-46.87591552 51.56185913-18.74954224-70.31222534zM896.37509156 449.62463379V93.37591553000004c0-51.5626831-42.1875-89.06259156-89.06259156-89.06259155H216.6875c-46.87509156 0-89.06259156 42.1875-89.06259156 89.06259155V674.6240844700001c0 51.5626831 42.1875 93.7501831 89.06259156 93.75018311h379.6875c18.75036621 0 32.8123169-14.06277466 32.8123169-37.49990845 0-18.75036621-14.06195068-37.49990844-32.8123169-37.49990845H221.37509156c-14.06277466 0-23.43795776-9.3751831-23.43795778-23.43795776V93.37591553000004c0-14.06277466 9.3751831-23.43795776 23.43795778-23.43795777H802.62408447c14.06277466 0 23.43795776 9.3751831 23.43795777 23.43795777V449.62463379c0 18.75036621 14.06195068 37.50073242 37.49908447 37.50073243 18.75036621-4.68841552 32.81314087-18.75036621 32.81314087-37.50073243z"  horiz-adv-x="1024" />

    
    <glyph glyph-name="cl-icon-close" unicode="&#59002;" d="M576.254 394.672l323.52 321.84c15.296 15.2 15.36 39.872 0.15999999 55.168a38.944 38.944 0 0 1-55.19999999 0.16L521.14999999 449.968l-320.79999999 321.76a39.04 39.04 0 0 1-55.248-55.136l320.688-321.68-323.344-321.648a38.976 38.976 0 0 1-0.144-55.184 38.944 38.944 0 0 1 55.184-0.16l323.43999999 321.728L844.622 14.960000000000036a38.944 38.944 0 0 1 55.184-0.08 39.008 39.008 0 0 1 0.08 55.2L576.254 394.656z"  horiz-adv-x="1024" />

    
    <glyph glyph-name="cl-icon-circle-close" unicode="&#59003;" d="M512-9.75C294.875-9.75 118.25 166.875 118.25 384S294.875 777.75 512 777.75s393.75-176.625 393.75-393.75-176.625-393.75-393.75-393.75z m0 730.996875c-185.9625 0-337.246875-151.284375-337.246875-337.246875 0-185.934375 151.284375-337.246875 337.246875-337.246875 185.934375 0 337.246875 151.3125 337.246875 337.246875 0 185.9625-151.3125 337.246875-337.246875 337.246875z m39.6-338.45625l121.6125 120.290625a28.125 28.125 0 1 1-39.54375 39.99375l-121.78125-120.43125-119.925 120.290625a28.125 28.125 0 1 1-39.825-39.7125l119.75625-120.121875-120.740625-119.446875a28.125 28.125 0 1 1 39.54375-39.99375l120.909375 119.5875L633.5 220.95937500000002a28.06875 28.06875 0 0 1 39.76875-0.05625 28.125 28.125 0 0 1 0.05625 39.76875L551.6 382.790625z"  horiz-adv-x="1024" />

    
    <glyph glyph-name="cl-icon-circle-close-solid" unicode="&#59004;" d="M512 777.75C294.903125 777.75 118.25 601.125 118.25 384s176.625-393.75 393.75-393.75c217.096875 0 393.75 176.625 393.75 393.75S729.125 777.75 512 777.75z m160.621875-515.025a28.125 28.125 0 1 0-39.825-39.7125l-120.9375 121.303125-121.33125-120.0375a28.125 28.125 0 1 0-39.54375 39.99375L472.175 384.140625 351.434375 505.275a28.125 28.125 0 1 0 39.825 39.7125l120.909375-121.275L633.5 543.75a28.096875 28.096875 0 0 0 39.76875-0.225c10.940625-11.053125 10.828125-28.85625-0.225-39.76875L551.853125 383.88750000000005l120.76875-121.1625z"  horiz-adv-x="1024" />

    
    <glyph glyph-name="cl-icon-search" unicode="&#59005;" d="M896.328125 43.364062500000045L730.840625 208.86562500000002a345.3046875 345.3046875 0 0 1 80.0578125 221.596875c0 191.4890625-155.2359375 346.725-346.7109375 346.725-191.4890625 0-346.725-155.25-346.725-346.725s155.2359375-346.7109375 346.725-346.7109375a345.3328125 345.3328125 0 0 1 223.565625 81.703125L853.0859375 0.12187500000004547c5.9765625-5.9765625 13.7953125-8.9578125 21.628125-8.9578125a30.5859375 30.5859375 0 0 1 21.628125 52.2zM464.1875 144.90937499999995a284.68125 284.68125 0 0 0-201.9234375 83.64375 284.68125 284.68125 0 0 0-83.64375 201.9234375 284.68125 284.68125 0 0 0 83.64375 201.9234375A284.68125 284.68125 0 0 0 464.1875 716.015625a284.68125 284.68125 0 0 0 201.9234375-83.64375 284.6953125 284.6953125 0 0 0 83.6296875-201.909375 284.68125 284.68125 0 0 0-83.64375-201.9234375A284.68125 284.68125 0 0 0 464.1875 144.90937499999995z"  horiz-adv-x="1024" />

    
    <glyph glyph-name="cl-icon-close1" unicode="&#59006;" d="M796.25 9.284999999999968H229.625c-51.945 0-94.41 42.465-94.41 94.41v566.7c0 51.945 42.48 94.425 94.41 94.425h566.715c51.945 0 94.41-42.48 94.41-94.41v-566.73c0-51.84-42.465-94.395-94.5-94.395z m-566.625 708.375c-28.32 0-47.25-18.84-47.25-47.25v-566.73c0-28.305 18.84-47.25 47.25-47.25h566.715c28.32 0 47.25 18.855 47.25 47.25V670.41c0 28.305-18.84 47.25-47.25 47.25H229.625zM701.84 363.45000000000005H324.05c-14.16 0-23.625 9.48-23.625 23.625 0 14.16 9.465 23.625 23.625 23.625h377.805c14.16 0 23.625-9.465 23.625-23.625 0-14.145-9.465-23.625-23.625-23.625z"  horiz-adv-x="1024" />

    
    <glyph glyph-name="cl-icon-open" unicode="&#59007;" d="M796.25 9.284999999999968H229.625c-51.945 0-94.41 42.465-94.41 94.41v566.7c0 51.945 42.48 94.425 94.41 94.425h566.715c51.945 0 94.41-42.48 94.41-94.41v-566.73c0-51.84-42.465-94.395-94.5-94.395z m-566.625 708.375c-28.32 0-47.25-18.84-47.25-47.25v-566.73c0-28.305 18.84-47.25 47.25-47.25h566.715c28.32 0 47.25 18.855 47.25 47.25V670.41c0 28.305-18.84 47.25-47.25 47.25H229.625zM701.84 363.45000000000005H324.05c-14.16 0-23.625 9.48-23.625 23.625 0 14.16 9.465 23.625 23.625 23.625h377.805c14.16 0 23.625-9.465 23.625-23.625 0-14.145-9.465-23.625-23.625-23.625zM512.945 174.57000000000005c-14.16 0-23.64 9.45-23.64 23.625V576c0 14.16 9.48 23.625 23.64 23.625 14.145 0 23.625-9.465 23.625-23.625v-377.82c0-14.145-9.48-23.625-23.625-23.625z"  horiz-adv-x="1024" />

    
    <glyph glyph-name="cl-icon-arrow-left" unicode="&#59008;" d="M849.995 672.405a31.995 31.995 0 1 1-45.195 45.195L493.595 406.395c-12.45-12.48-12.45-32.7 0-45.195L804.8 50.39999999999998a31.995 31.995 0 1 1 45.195 45.195L561.605 384l288.39 288.405z m-319.995 0a31.995 31.995 0 0 1-45.195 45.195L173.6 406.395c-12.45-12.48-12.45-32.7 0-45.195l311.205-311.205a31.995 31.995 0 0 1 45.195 45.21L241.595 384 530 672.405z"  horiz-adv-x="1024" />

    
    <glyph glyph-name="cl-icon-arrow-right" unicode="&#59009;" d="M174.005 672.405a31.995 31.995 0 1 0 45.195 45.195l311.205-311.205c12.45-12.48 12.45-32.7 0-45.195L219.2 50.39999999999998a31.995 31.995 0 1 0-45.195 45.195L462.395 384 174.005 672.405z m319.995 0a31.995 31.995 0 0 0 45.195 45.195L850.4 406.395c12.45-12.48 12.45-32.7 0-45.195L539.195 49.995000000000005a31.995 31.995 0 0 0-45.195 45.21L782.405 384 494 672.405z"  horiz-adv-x="1024" />

    
    <glyph glyph-name="cl-icon-filter" unicode="&#59014;" d="M779.1875 777.75H242C188.5625 777.75 146.375 735.5625 146.375 682.125c0-22.5 8.4375-45 22.5-61.875 0-2.8125 2.8125-2.8125 2.8125-5.625l210.9375-210.9375v-222.1875c0-8.4375 2.8125-14.0625 8.4375-19.6875L582.3125-1.3125c5.625-2.8125 11.25-5.625 16.875-5.625 8.4375 0 14.0625 2.8125 19.6875 8.4375 5.625 5.625 5.625 14.0625 5.625 19.6875V395.25l225 219.375 2.8125 2.8125c14.0625 16.875 22.5 39.375 22.5 61.875 0 56.25-42.1875 98.4375-95.625 98.4375z m30.9375-123.75s-2.8125-2.8125 0 0L582.3125 426.1875c-5.625-5.625-8.4375-11.25-8.4375-19.6875V74.625L436.0625 189.9375V412.125c0 8.4375-2.8125 14.0625-8.4375 19.6875L213.875 651.1875l-2.8125 2.8125c-8.4375 8.4375-11.25 16.875-11.25 28.125 0 22.5 19.6875 42.1875 42.1875 42.1875H779.1875c22.5 0 42.1875-19.6875 42.1875-42.1875 0-11.25-5.625-19.6875-11.25-28.125z"  horiz-adv-x="1024" />

    
    <glyph glyph-name="tuichudenglu" unicode="&#59020;" d="M278.53503417 670.67642212c16.00653076 12.0300293 38.73504638 8.80664063 50.7650757-7.19906616 12.0300293-16.00653076 8.80664063-38.73422242-7.19906617-50.76507569C243.01348877 553.2715759299999 195.59374999 460.41210938 195.59374999 359.60458373999995c0-174.74606323 141.66018677-316.40625001 316.40625001-316.40625s316.40625001 141.66018677 316.40625001 316.40625c0 100.91711426-47.52355958 193.86557007-126.75531007 253.29556273-16.01806641 12.01354981-19.26287842 34.73876953-7.24850463 50.75683595 12.01437378 16.01806641 34.73876953 19.26287842 50.75683593 7.24850464C842.45831299 597.92440796 900.91601563 483.58886719 900.91601563 359.60375977c0-214.79205323-174.1239624-388.91601563-388.91601563-388.91601563s-388.91601563 174.1239624-388.91601563 388.91601563c0 123.85162354 58.33081055 238.07675171 155.45104981 311.07266235zM548.25488281 489.46875001c0-20.02258301-16.23229981-36.25488281-36.25488281-36.25488282s-36.25488281 16.23229981-36.25488281 36.2548828V744.0769043c0 20.02258301 16.23229981 36.25488281 36.25488281 36.25488281s36.25488281-16.23229981 36.25488281-36.25488281v-254.60815429z"  horiz-adv-x="1024" />

    
    <glyph glyph-name="cl-icon-up" unicode="&#59026;" d="M512.58553696 514.78099251l-315.78826905-315.78826904c-14.48006631-14.48006631-37.95793533-14.48006631-52.43800163 0-14.48006631 14.48006631-14.48006631 37.95716286 0 52.43800163l368.22704314 368.22627067 368.22781564-368.22704315c14.48006631-14.48083877 14.48006631-37.95793533 0-52.43800164-14.48006631-14.48006631-37.95716286-14.48006631-52.43722916 0L512.58553696 514.78099251z"  horiz-adv-x="1024" />

    
    <glyph glyph-name="cl-icon-left" unicode="&#59027;" d="M350.73168945 381.76599882999994l315.78826904 315.78904153c14.48083877 14.48006631 14.48083877 37.95716286 0 52.43800163-14.48006631 14.48006631-37.95716286 14.48006631-52.43800163 0L245.85645867 381.76522637000005 614.08272934 13.537410740000041c14.48083877-14.47929382 37.95870781-14.47929382 52.43800164 0 14.48083877 14.48083877 14.48083877 37.95716286 0 52.43800163L350.73168945 381.76599882999994z"  horiz-adv-x="1024" />

    
    <glyph glyph-name="cl-icon-down" unicode="&#59028;" d="M512.58553696 226.50291823999999l315.79058647 315.789814c14.48006631 14.48006631 37.95716286 14.48006631 52.43722916-1e-8 14.48006631-14.48006631 14.48006631-37.95793533 0-52.43722915L512.58476448 121.62768745000005 144.35926628 489.85627556c-14.48083877 14.47929382-14.48083877 37.95716286 0 52.43722916 14.47929382 14.48006631 37.95716286 14.48006631 52.43722916 0l315.78826904-315.79058648z"  horiz-adv-x="1024" />

    
    <glyph glyph-name="cl-icon-right" unicode="&#59029;" d="M721.70411301 381.46859551L405.91584397 697.2584095c-14.48083877 14.48083877-14.48083877 37.95716286 0 52.43800163 14.47929382 14.48006631 37.95716286 14.48006631 52.43722915 0l368.22704316-368.22781562L458.35152817 13.242324820000022c-14.47929382-14.48006631-37.95716286-14.48006631-52.43722916 0-14.48006631 14.48006631-14.48006631 37.95793533 0 52.43800164L721.70411301 381.46859551z"  horiz-adv-x="1024" />

    
    <glyph glyph-name="cl-icon-delete1" unicode="&#59030;" d="M820.49609375 575.98582649H720.87756348c-1.56580925 0.08265495-3.13084602 0.16530991-4.69665528 0.16530991h-31.97047233V687.22239876c0 36.33728028-29.58043099 65.91848374-65.91771126 65.91848373H407.6021595c-36.33728028 0-65.91771126-29.58120346-65.91771126-65.91848373v-111.07126236H309.30224609c-1.56580925 0-3.13084602-0.08265495-4.69665527-0.16530991H203.50390625c-18.20958138 0-32.95924187-14.74888802-32.95924187-32.95846939S185.29432487 510.06811523 203.50390625 510.06811523h39.88062859v-429.29051399c0-36.33728028 29.58043099-65.91848374 65.91771125-65.91848373h406.87866211c36.33728028 0 65.91771126 29.58120346 65.91771126 65.91848373V510.06811523h38.48012924c18.20958138 0 32.95846939 14.74888802 32.9584694 32.95924187s-14.83154297 32.95846939-33.04112435 32.95846939zM407.6021595 687.14051628c0.08265495 0.08188248 0.08265495 0.08188248 0 0l210.60791016 0.08188248s0.08265495 0 0.08265495-0.08188248v-110.7421875s0-0.08265495-0.08265495-0.08265495H407.68481445s-0.08265495 0-0.08265495 0.08265495v110.7421875zM716.1809082 80.85948371999996c0-0.08188248-0.08265495-0.08188248 0 0l-406.87866211-0.08188248s-0.08265495 0-0.08265495 0.08188248V510.06811523h406.87866211v-429.20863151zM440.8912487 122.05872916999999c18.20958138 0 32.95846939 14.74888802 32.9584694 32.9584694V434.75709343c0 18.20958138-14.74888802 32.95846939-32.9584694 32.95846939s-32.95924187-14.74888802-32.95924186-32.95846939v-279.73989486c0-18.12692642 14.74888802-32.95846939 32.95924186-32.9584694z m143.37158203 0c18.20958138 0 32.95846939 14.74888802 32.9584694 32.9584694V434.75709343c0 18.20958138-14.74888802 32.95846939-32.9584694 32.95846939s-32.95924187-14.74888802-32.95924186-32.95846939v-279.73989486c0-18.12692642 14.74888802-32.95846939 32.95924186-32.9584694z"  horiz-adv-x="1024" />

    
    <glyph glyph-name="cl-icon-delete2" unicode="&#59031;" d="M462.26489258 196.41188049000004V466.06478119c0 16.54953003-13.45885277 29.99834061-29.98752595 29.9983406-16.55416489 0-30.01301766-13.44881058-30.01301765-29.9983406V196.41188049000004c0-16.54875755 13.45885277-30.00220298 30.01224518-30.00220298 16.52944565 0 29.98752594 13.45344544 29.98752594 30.00220298z m158.852005-0.01004219V466.07559585c0 16.55030251-13.45885277 29.99988555-30.0145626 29.99988557-16.53021812 0-29.98520852-13.44881058-29.98520852-29.99988557v-269.67375755c0-16.55030251 13.46039772-30.00529289 29.98520852-30.00529289 16.55416489 0 30.01533508 13.45421792 30.01533508 30.00529289zM855.65921021 627.65830422H727.40730477v47.80700683c0 46.14772797-37.27970123 83.69702339-83.07672501 83.69702339H378.979599c-46.12841606 0-83.65608216-37.5500679-83.65608215-83.69779587v-47.80623435H167.09787559c-16.95044517 0-30.73373795-13.77711296-30.73373794-30.72137834s13.78329277-30.73064804 30.73373794-30.73064803h688.55978966c16.92340852 0 30.70670127 13.7887001 30.70670128 30.72987557 0.00077248 16.94503784-13.78252029 30.72137832-30.7059288 30.72137832z m-500.32124519 47.80700683c0 13.05175781 10.60532571 23.66944313 23.64163398 23.66944313h265.35175324c12.91811943 0 23.03678513-10.39675713 23.03678512-23.66944313v-47.80700683H355.33719253v47.80700683zM751.36565399 504.01808167c-16.56884194 0-30.00065803-13.43181609-30.00065804-29.99988556v-353.38082314c0-28.38232041-23.10708046-51.47395134-51.51025772-51.47395134h-316.97788238c-28.40394973 0-51.51180267 23.09163094-51.51180267 51.47395134V474.01819611c0 16.56806946-13.43104362 29.99988555-29.99988556 29.99988556s-29.99988555-13.43181609-29.99988556-29.99988556v-353.38082314c0-61.46670341 50.02324104-111.47449493 111.51080132-111.47449494h316.97788238c61.48833275 0 111.5115738 50.00779152 111.51157379 111.47449494V474.01819611c0 16.56806946-13.43181609 29.99988555-29.99988556 29.99988556z"  horiz-adv-x="1024" />

    
    <glyph glyph-name="cl-icon-circle-success" unicode="&#59032;" d="M512 730.06933594C319.18994141 730.06933594 165.93066406 576.8100585899999 165.93066406 384s153.25927734-346.06933594 346.06933594-346.06933594 346.06933594 153.25927734 346.06933594 346.06933594S704.81005859 730.06933594 512 730.06933594z m0 49.43847656c217.52929688 0 395.5078125-177.97851563 395.5078125-395.5078125s-177.97851563-395.5078125-395.5078125-395.5078125S116.4921875 166.47070312000005 116.4921875 384 294.47070312 779.5078125 512 779.5078125z m-64.27001953-524.04785156L709.75390625 517.48388672c9.88769531 9.88769531 24.71923828 9.88769531 34.60693359 0 9.88769531-9.88769531 9.88769531-24.71923828 0-34.60693359L462.56152344 201.07763672c-9.88769531-9.88769531-24.71923828-9.88769531-34.6069336 0L324.13378906 304.8984375c-9.88769531 9.88769531-9.88769531 24.71923828 0 34.60693359 9.88769531 9.88769531 24.71923828 9.88769531 34.6069336 0l88.98925781-84.04541015z"  horiz-adv-x="1024" />

    
    <glyph glyph-name="cl-icon-circle-success-solid" unicode="&#59033;" d="M512 779.5078125c217.52929688 0 395.5078125-177.97851563 395.5078125-395.5078125s-177.97851563-395.5078125-395.5078125-395.5078125S116.4921875 166.47070312000005 116.4921875 384 294.47070312 779.5078125 512 779.5078125z m-64.27001953-524.04785156L363.68457031 344.44921875c-9.88769531 9.88769531-24.71923828 9.88769531-34.60693359 0s-9.88769531-24.71923828 0-34.60693359l103.82080078-103.82080079c9.88769531-9.88769531 24.71923828-9.88769531 34.60693359 1e-8L749.3046875 482.87695313c9.88769531 9.88769531 9.88769531 24.71923828 0 34.60693359-9.88769531 9.88769531-24.71923828 9.88769531-34.60693359 0L447.72998047 255.45996093999997z"  horiz-adv-x="1024" />

    
    <glyph glyph-name="cl-icon-caretdown" unicode="&#59034;" d="M152.98396302 561.71510124l332.15703963-402.99619675a35.05110741 35.05110741 0 0 1 52.24179268 0l333.77383232 402.99619675c20.10910034 22.60574341 4.14819717 58.35903167-26.12205505 58.35903167H179.17554092c-30.30424118 0-46.37174606-35.75328827-26.19080542-58.35903167z"  horiz-adv-x="1024" />

    
    <glyph glyph-name="cl-icon-back" unicode="&#59035;" d="M512 779.5078125c217.52929688 0 395.5078125-177.97851563 395.5078125-395.5078125s-177.97851563-395.5078125-395.5078125-395.5078125S116.4921875 166.47070312000005 116.4921875 384 294.47070312 779.5078125 512 779.5078125z m0-741.57714844c192.81005859 0 346.06933594 153.25927734 346.06933594 346.06933594S704.81005859 730.06933594 512 730.06933594 165.93066406 576.8100585899999 165.93066406 384s153.25927734-346.06933594 346.06933594-346.06933594zM571.32617188 576.8100585899999c4.94384766 4.94384766 24.71923828 4.94384766 34.60693359 0 4.94384766-9.88769531 4.94384766-29.66308594 0-34.60693359L447.72998047 384l158.203125-158.203125c9.88769531-9.88769531 9.88769531-24.71923828 0-34.60693359-9.88769531-9.88769531-24.71923828-9.88769531-34.60693359 0l-173.03466797 173.03466796c-9.88769531 9.88769531-9.88769531 24.71923828 0 34.6069336l173.03466796 177.97851562z"  horiz-adv-x="1024" />

    
    <glyph glyph-name="cl-icon-caretleft" unicode="&#59036;" d="M691.05071259 743.01603698l-403.10125351-332.08751678a35.05110741 35.05110741 0 0 1 0-52.2410202l403.03173065-333.77305985c22.56943703-20.10987282 58.32349777-4.11420822 58.32349777 26.12051011V716.93028832c0 30.16287803-35.75406074 46.22961045-58.25397491 26.01545333z"  horiz-adv-x="1024" />

    
    <glyph glyph-name="cl-icon-caretup" unicode="&#59037;" d="M152.98396302 205.37028694000003L486.79410171 608.3680286399999a35.05110741 35.05110741 0 0 0 52.24256516 0l332.12073326-402.9977417c20.10910034-22.5702095 4.14819717-58.35903167-26.12205506-58.35903167H179.07048416c-30.16365052 0-46.23038291 35.78882217-26.01622581 58.35903167z"  horiz-adv-x="1024" />

    
    <glyph glyph-name="cl-icon-caretright" unicode="&#59038;" d="M334.60084153 743.01603698l402.99696921-332.15703963a35.05110741 35.05110741 0 0 0 0-52.24179268l-402.99619674-333.63246917c-22.5702095-20.10910034-58.35980415-4.11343574-58.35980415 26.12051009V716.96427727c0.10582924 30.16519546 35.78882217 46.23115539 58.35980415 26.01622581z"  horiz-adv-x="1024" />

    
    <glyph glyph-name="cl-icon-cart" unicode="&#59039;" d="M807.98815918 186.41912842h-494.38476562l-148.31542969 420.22705078h650.1159668c54.38232422 0 98.87695313-44.49462891 98.87695312-98.87695313 0-12.35961914-2.47192383-22.24731445-4.94384765-32.13500976l-101.34887696-289.21508789z m-459.77783204 49.43847656h425.17089845l88.9892578 254.6081543c2.47192383 4.94384766 2.47192383 9.88769531 2.47192383 17.30346679 0 27.19116211-22.24731445 49.43847656-49.43847656 49.43847656h-578.43017578l111.23657226-321.35009765z m27.19116212-247.19238281c-46.96655273 0-86.51733398 39.55078125-86.51733399 86.51733398s39.55078125 86.51733398 86.51733398 86.51733398 86.51733398-39.55078125 86.51733399-86.51733398-37.07885742-86.51733398-86.51733399-86.51733398z m0 123.5961914c-19.77539063 0-37.07885742-17.3034668-37.07885742-37.07885742s17.3034668-37.07885742 37.07885742-37.07885742 37.07885742 17.3034668 37.07885742 37.07885742-14.83154297 37.07885742-37.07885742 37.07885742z m370.78857421-123.5961914c-46.96655273 0-86.51733398 39.55078125-86.51733397 86.51733398s39.55078125 86.51733398 86.51733398 86.51733398 86.51733398-39.55078125 86.51733399-86.51733398-37.07885742-86.51733398-86.51733399-86.51733398z m1e-8 123.5961914c-19.77539063 0-37.07885742-17.3034668-37.07885742-37.07885742s17.3034668-37.07885742 37.07885742-37.07885742 37.07885742 17.3034668 37.07885742 37.07885742-14.83154297 37.07885742-37.07885742 37.07885742zM170.23181152 740.13006592l59.32617188-163.14697266-46.96655273-17.3034668-59.32617188 163.14697266c-4.94384766 12.35961914 2.47192383 27.19116211 14.83154297 32.13500976 12.35961914 4.94384766 27.19116211-2.47192383 32.13500977-14.83154296z"  horiz-adv-x="1056" />

    
    <glyph glyph-name="cl-icon-attachment" unicode="&#59040;" d="M342.40625 525.2078247100001l42.609375-42.609375-127.76797485-127.828125c-72.50152588-72.44219971-72.50152588-183.21487427 0-255.71640015s183.21405029-72.44219971 255.65625 0l127.828125 127.828125 42.609375-42.609375L555.51409912 56.44454956000004c-93.77655029-93.77655029-247.15859985-93.77655029-340.93515014 0s-93.77655029 247.15777588 0 340.93515015l127.828125 127.828125zM342.40625 525.2078247100001L555.51327515 738.375c72.44219971 72.44219971 183.21405029 72.44219971 255.65625 0s72.50234985-183.21405029 0-255.71640015L598.18280029 269.55157470999995l-42.609375 42.609375 213.046875 213.046875c46.88827515 46.88827515 46.88827515 123.54922485 0 170.49682617s-123.54922485 46.82894898-170.4375 0L385.015625 482.59927368l-42.609375 42.609375zM427.625 439.98907471l42.66952515-42.609375-127.88827515-127.88909913c-25.55392456-25.61325073-25.55392456-59.66400146 0-85.27890014s59.66482544-25.55310058 85.27890015 0l127.76797485 127.88909912 42.66952515-42.609375-127.828125-127.88909912c-46.88827515-46.88827515-123.609375-46.88827515-170.49765015 0s-46.88827515 123.54922485 0 170.49847412l127.88909912 127.76715088z m213.10702515-213.10702515l149.16329956 149.16247559c12.77655029 12.77655029 29.83200073 12.77655029 42.609375 0 12.77655029-12.77655029 12.77655029-29.83282471 0-42.609375L683.34140015 184.27267456000004l-42.609375 42.609375zM427.625 439.98907471l149.16329956 149.16247558c12.83670044 12.77737427 29.83200073 12.77737427 42.609375 0 12.83670044-12.77655029 12.83670044-29.83200073 0-42.609375L470.29452515 397.37969971 427.625 439.98907471z"  horiz-adv-x="1024" />

    
    <glyph glyph-name="cl-icon-email-solid" unicode="&#59042;" d="M512 324.17944336000005L144.37548828 640.09130859c1.97753906 0.44494629 3.75732422 1.28540039 5.78430176 1.28540039H873.88964844c1.23596192 0 3.85620117-0.88989258 5.83374023-1.23596191L512 324.17944336000005z m394.71679687 272.20825195V121.48168944999998c0-2.96630859-0.88989258-5.53710938-1.58203125-8.25622559l-261.03515624 269.24194337L904.73925781 606.47314453c1.03820801-3.21350098 1.97753906-6.52587891 1.97753906-10.08544922zM119.26074219 606.5225830100001L379.99926758 382.46740722000004 118.96411133 113.22546385999999c-0.6427002 2.66967773-1.63146973 5.289917-1.63146973 8.25622559V596.38769531c0 3.60900879 0.98876953 6.87194825 1.97753906 10.1348877z m499.42749023-254.06433106l263.21044922-271.41723632c-2.62023926-0.69213867-5.19104004-1.6809082-8.05847168-1.68090821H150.15979003c-2.76855469 0-5.33935547 0.98876953-7.91015624 1.6809082l263.16101074 271.41723633 96.05895997-82.56225586a15.96862793 15.96862793 0 0 1 21.060791 0l96.15783692 82.56225586z"  horiz-adv-x="1024" />

    
    <glyph glyph-name="cl-icon-collection" unicode="&#59043;" d="M215.36914062 72.53759765999996L462.56152345 215.90917968999997c29.66308594 19.77539063 69.21386719 19.77539063 98.8769531 0L808.63085938 72.53759765999996V680.63085938c0 29.66308594-19.77539063 49.43847655-49.43847657 49.43847656h-494.38476562c-29.66308594 0-49.43847655-19.77539063-49.43847657-49.43847657v-608.09326171zM264.80761719 779.5078125h494.38476562c54.38232422 0 98.87695313-44.49462891 98.87695313-98.87695313v-647.64404296c0-14.83154297-9.88769531-24.71923828-24.71923828-24.71923829-4.94384766 0-9.88769531 0-9.88769532 4.94384766L536.71923828 176.35839843999997c-14.83154297 9.88769531-34.60693359 9.88769531-49.43847656 0l-286.74316406-163.14697266c-9.88769531-4.94384766-24.71923828-4.94384766-34.6069336 9.88769531V680.63085938c0 54.38232422 44.49462891 98.87695313 98.87695313 98.87695312zM502.11230469 393.88769531c4.94384766 4.94384766 14.83154297 4.94384766 24.71923828 0l59.32617187-29.66308593-14.83154297 64.27001953c0 9.88769531 0 14.83154297 4.94384766 19.77539062l44.49462891 44.49462891-59.32617189 9.88769531c-9.88769531 0-14.83154297 4.94384766-19.77539061 14.83154297l-29.66308594 59.32617187-29.66308594-59.32617187C477.39306641 507.59619141 472.44921875 502.65234375 462.56152345 502.65234375l-64.27001954-9.88769531 44.4946289-44.49462891c9.88769531-4.94384766 14.83154297-14.83154297 9.88769531-19.77539062L442.78613281 364.22460937000005l59.32617188 29.66308594z m-79.1015625-98.87695312c-19.77539063-9.88769531-39.55078125 4.94384766-39.55078125 29.66308593L398.29150391 423.55078125l-69.2138672 69.21386719c-14.83154297 14.83154297-4.94384766 39.55078125 14.83154298 44.4946289l98.87695312 14.83154297 44.49462891 88.98925782c9.88769531 19.77539063 34.60693359 19.77539063 44.4946289-1e-8l44.49462891-88.98925781 98.87695313-14.83154297c24.71923828-4.94384766 34.60693359-29.66308594 19.77539063-44.4946289L620.76464844 423.55078125l14.83154297-98.87695313c4.94384766-24.71923828-14.83154297-39.55078125-34.6069336-29.66308593L512 344.44921875l-88.98925781-49.43847656z"  horiz-adv-x="1024" />

    
    <glyph glyph-name="cl-icon-echarts-solid" unicode="&#59044;" d="M208.00280761 84.29983520999997h645.10537721c20.02258301 0 36.25488281-16.23229981 36.25488281-36.25488282s-16.23229981-36.25488281-36.25488281-36.25488281H171.74710083c-20.02258301 0-36.25488281 16.23229981-36.25488281 36.25488281V717.46005249c0 20.02258301 16.23229981 36.25488281 36.25488281 36.25488282 20.02340698 0 36.25488281-16.23229981 36.25488281-36.25488282v-633.16021728z m101.07696534 289.34939575L400.42147827 234.22613525999998 467.50537109 419.84289551 606.22561646 489.46875 723.85211182 344.44921875 813.24511719 599.83602906c3.00750732 8.58993531 12.40905762 13.11602783 20.99899292 10.10934448a16.47949219 16.47949219 0 0 0 11.03549194-15.5541687V146.6953125H278.81518555V364.61764526c0 9.10162354 7.37786865 16.47949219 16.47949218 16.47949219a16.47949219 16.47949219 0 0 0 13.78509522-7.44873047z"  horiz-adv-x="1024" />

    
    <glyph glyph-name="cl-icon-echarts" unicode="&#59045;" d="M208.00280761 84.29983520999997h645.10537721c20.02258301 0 36.25488281-16.23229981 36.25488281-36.25488282s-16.23229981-36.25488281-36.25488281-36.25488281H171.74710083c-20.02258301 0-36.25488281 16.23229981-36.25488281 36.25488281V717.46005249c0 20.02258301 16.23229981 36.25488281 36.25488281 36.25488282 20.02340698 0 36.25488281-16.23229981 36.25488281-36.25488282v-633.16021728z m283.61782838 315.85995483L438.20483398 222.95745849000002c-8.9112854-29.56173706-48.33682251-35.16641235-65.13354492-9.25900268L248.39404297 406.01000977c-10.89294434 16.80084229-6.10235596 39.25085449 10.69848633 50.14379882 16.80084229 10.89212036 39.25167847 6.10235596 50.14379883-10.6993103l82.12225341-126.67044068 35.3921814 117.41226197a36.25488281 36.25488281 0 0 0 18.71575928 22.07098389l147.8671875 72.70092773c16.07739258 7.90438843 35.51824951 2.88061523 45.75283814-11.82403565l70.23065185-100.90228271 101.51779175 295.58853149c6.50363159 18.93740844 27.12771607 29.01626587 46.06512451 22.51263429 18.93740844-6.50363159 29.01626587-27.12771607 22.51263427-46.06512451l-124.73327636-363.18493653c-9.6413269-28.07281494-47.08850098-33.29681396-64.04589845-8.93518067l-93.26403808 133.99475098-105.74890136-51.99279786z"  horiz-adv-x="1024" />

    
    <glyph glyph-name="cl-icon-edit1" unicode="&#59046;" d="M862.83006795 615.19903565L695.30202229 782.79299927a29.57244873 29.57244873 0 0 1-42.17184448 0L197.40712484 327.13586425000005a27.44989013 27.44989013 0 0 1-8.87091065-15.62255859L148.03703817 104.57867432a27.77206421 27.77206421 0 0 1 31.94961547-32.39950562l208.92947388 36.12799073a27.89978028 27.89978028 0 0 1 17.03485107 7.97195434l456.81481934 456.94335938a29.57244873 29.57244873 0 0 1 0.06427002 42.04248047zM372.97139485 161.72872925000001l-163.09259033-28.15768433 31.50054931 158.97930909 320.91339112 320.91421508 131.14379883-131.27233886L372.97139485 161.72790526999995z m359.74401856 359.7423706L601.44307455 652.74343872l72.64242553 72.64324951 131.27233887-131.20806885-72.64242554-72.64160156z m87.42782593-529.07080078H175.09966023a27.77206421 27.77206421 0 0 0 0 55.54248047h645.23638917a27.77206421 27.77206421 0 1 0-0.06427003-55.47821045z"  horiz-adv-x="1024" />

    
    <glyph glyph-name="cl-icon-email" unicode="&#59047;" d="M1030.8772176 731.61428833h-695.22857666c-63.72949219 0-115.87225342-52.14193726-115.87225341-115.87142945v-463.48571776c0-63.72949219 52.14276123-115.87142945 115.87225341-115.87142945h695.22857666c63.72866821 0 115.87060547 52.14193726 115.87060547 115.87142945v463.48571776c0 63.72949219-52.14193726 115.87142945-115.87060547 115.87142945z m-695.22857666-57.93530273h695.22857666c11.58673096 0 17.38009643 0 23.17346192-5.79418946 0 0 0-5.79336547-5.7925415-5.79336547l-324.44000245-324.44000245c-23.17510987-23.17428589-57.93612671-23.17428589-81.11123656 1e-8L312.47517903 662.09143067s0 5.79336547-5.79418945 5.79336547c11.58755493 5.79418945 17.38092041 5.79418945 28.96847534 5.79418946zM277.71169026 152.25714112000003v463.48571776l237.53622437-237.53622436-237.53622437-231.74285889v5.79336549z m811.10000611 0v-11.58755494L851.275472 378.20745849l-40.55438232-40.55603026 243.32958984-243.32958985H335.64864095c-5.79418945 0-11.58755493 0-23.17510986 5.79418945l237.53704833 237.53540039 46.34857178-46.3477478c46.34857177-46.34857177 115.87060547-46.34857177 162.22000122 0L845.48210653 378.20745849l243.33041381 237.53540039V152.25714112000003z"  horiz-adv-x="1365" />

    
    <glyph glyph-name="cl-icon-folder" unicode="&#59048;" d="M888.13287354 498.490448c-9.22521972 12.61505127-22.49533081 21.48925781-37.94732666 25.7376709V535.45477295c0 23.59945679-9.38095093 47.60430908-25.73519898 65.8611145-18.54437256 20.69824219-44.14855958 32.09710693-72.09777832 32.09710693H495.03930664l-70.47454834 90.88275147a29.9597168 29.9597168 0 0 1-23.67279053 11.60321045H208.90258789c-50.47998047 0-87.11883545-33.53082276-87.11883545-79.7277832v-536.17016602c0-2.62023926 0.12359619-5.21246338 0.35018921-7.77584839-1.60345459-18.82617188 2.94735718-36.66687012 13.32943726-50.86395263 13.28576661-18.16864013 34.95794677-28.58779907 59.45883179-28.58779908h493.83270263c22.46896362 0 45.90362549 8.56521607 65.98965454 24.1185608 19.59988403 15.17761231 34.24026489 35.64102172 41.23498536 57.6312561L897.27404786 426.8755188l0.06262206 0.19775391c8.26364136 26.08868408 4.90759278 52.11886597-9.20462036 71.41717529zM187.48254395 669.68023682c4.82025146 3.9526062 12.62741089 6.21936035 21.42004394 6.21936035h177.31356812l70.47702026-90.88192749a29.95806885 29.95806885 0 0 1 23.67196655-11.60321046h271.98577881c24.72747802 0 37.89706421-22.04544068 37.89706421-37.95968627v-8.37734985H334.84133911c-22.46731568 0-45.90197753-8.56604003-65.98718262-24.11938477-19.60317993-15.1809082-34.24520874-35.64596557-41.23828125-57.63867187l-45.89456177-141.51846314V656.1711731c0 7.87307739 3.28765869 11.48043823 5.76123047 13.50906372zM840.23028565 445.28723145L738.94732666 132.97531128000003l-0.06262207-0.19775391c-6.63134766-20.93719482-30.52331542-40.00396729-50.12814331-40.00396729H208.90341187c-12.38845825 0-22.86035156 8.34686279-26.12246705 19.71853638 0.17633057 0.6847229 0.36749268 1.37438965 0.5874939 2.07476807l101.28295899 312.30862427 0.06179809 0.19775391c6.63134766 20.93719482 30.52331542 40.00396729 50.12814331 40.00396728h493.83270264c3.71859742 0 8.66162109-0.69790649 11.09646606-4.02758789 2.64990234-3.62219238 2.82046508-10.25848388 0.46060181-17.76242065z"  horiz-adv-x="1024" />

    
    <glyph glyph-name="cl-icon-eye-close" unicode="&#59049;" d="M750.16908836 407.71501923l71.6085434-99.03144837c12.12787628-16.76273347 7.72476196-39.62802888-9.8104477-51.21517182-17.53520966-11.50989533-41.55921936-7.33852387-53.68709563 9.4242096l-81.8052292 113.01326753c-39.85977172-11.74163818-82.11421967-19.23465729-125.83637236-22.01557161v-134.79709625c0-20.31612397-17.3034668-36.84711457-38.62380982-36.84711456s-38.62380982 16.45374298-38.62380982 36.84711457V357.89030456c-43.72215271 2.7809143-86.05384826 10.27393342-125.83637237 22.0155716l-81.72798157-113.01326752c-12.12787628-16.76273347-36.15188599-20.93410492-53.68709564-9.4242096-17.53520966 11.50989533-21.93832398 34.45243836-9.88769531 51.21517183l71.60854339 99.03144835c-60.56213379 28.34987641-112.1635437 67.51441956-149.62863922 115.09895326-12.82310486 16.29924774-9.34696198 39.31903839 7.72476197 51.52416229 17.07172394 12.2051239 41.25022888 8.88347626 53.99608611-7.33852387 65.50598145-83.27293396 188.87043-136.72828674 326.06220246-136.72828673s260.47897339 53.45535278 326.06220245 136.72828673c12.82310486 16.29924774 37.0016098 19.54364777 53.99608612 7.33852387 17.07172394-12.2051239 20.4706192-35.30216217 7.72476197-51.5241623-37.46509553-47.58453369-89.06650544-86.74907685-149.62863923-115.09895324z m0-1e-8"  horiz-adv-x="1024" />

    
    <glyph glyph-name="cl-icon-eye-close-solid" unicode="&#59050;" d="M813.57470703 685.57470703c-19.77539063 19.77539063-49.43847656 19.77539063-69.21386719 0L660.31542969 601.52929688c-44.49462891 14.83154297-93.93310547 24.71923828-148.31542969 24.71923828C284.58300781 621.3046875 116.4921875 463.1015625 116.4921875 384c0-44.49462891 59.32617188-118.65234375 153.25927734-173.03466797l-59.32617187-59.32617187c-19.77539063-19.77539063-19.77539063-49.43847656 0-69.21386719 9.88769531-9.88769531 24.71923828-14.83154297 34.60693359-14.83154297s24.71923828 4.94384766 34.6069336 14.83154297l533.93554687 533.93554687c19.77539063 19.77539063 19.77539063 49.43847656 0 69.21386719zM324.13378906 384c0 108.76464844 84.04541016 192.81005859 192.8100586 192.81005859 34.60693359 0 69.21386719-9.88769531 93.93310547-29.66308593L348.85302734 290.06689453c-14.83154297 29.66308594-24.71923828 59.32617188-24.71923828 93.93310547z m489.44091797 138.42773438L699.86621094 408.71923828v-24.71923828c0-108.76464844-84.04541016-192.81005859-192.8100586-192.81005859-9.88769531 0-19.77539063 0-24.71923828 4.94384765l-39.55078125-39.55078125c19.77539063-4.94384766 44.49462891-4.94384766 69.21386719-4.94384765 232.36083984 0 395.5078125 163.14697266 395.5078125 237.3046875 0 29.66308594-34.60693359 84.04541016-93.93310547 133.48388672z"  horiz-adv-x="1024" />

    
    <glyph glyph-name="cl-icon-eye-open-solid" unicode="&#59051;" d="M907.5078125 384c0-74.15771484-163.14697266-237.3046875-395.5078125-237.3046875C284.58300781 146.6953125 116.4921875 304.8984375 116.4921875 384s168.09082031 237.3046875 395.5078125 237.3046875c232.36083984 0 395.5078125-158.203125 395.5078125-237.3046875zM512 576.8100585899999c-103.82080078 0-187.86621094-84.04541015-187.86621094-192.81005859s84.04541015-192.81005859 192.8100586-192.81005859C620.76464844 191.18994140999996 709.75390625 280.17919922 709.75390625 384c-4.94384766 108.76464844-93.93310547 192.81005859-197.75390625 192.81005859z m0-69.21386718c-69.21386719 0-123.59619141-54.38232422-123.59619141-123.59619141s54.38232422-123.59619141 123.59619141-123.59619141 123.59619141 54.38232422 123.59619141 123.59619141-54.38232422 123.59619141-123.59619141 123.59619141z"  horiz-adv-x="1024" />

    
    <glyph glyph-name="cl-icon-eye-open" unicode="&#59052;" d="M754.94419765 58.111604690000036c-168.37567091 0-325.88839531 97.76651859-467.10669995 293.29955578-10.86294651 16.29441978-10.86294651 43.45178603 0 65.17767906C429.05580233 612.12187672 586.56852672 709.88839531 754.94419765 709.88839531s325.88839531-97.76651859 467.10669994-293.29955578c10.86294651-16.29441978 10.86294651-43.45178603-1e-8-65.17767906-141.21830464-195.53303719-298.73102903-293.29955578-467.10669993-293.29955578z m0 597.46205807c-152.08125114 0-293.29955578-86.90357209-423.65491391-271.57366276 130.35535812-184.67009067 271.57366276-271.57366276 423.65491391-271.57366276s293.29955578 86.90357209 423.65491389 271.57366276c-130.35535812 184.67009067-271.57366276 271.57366276-423.65491389 271.57366276zM754.94419765 221.05580234c-92.33504534 0-162.94419766 70.60915232-162.94419766 162.94419766s70.60915232 162.94419766 162.94419766 162.94419766 162.94419766-70.60915232 162.94419765-162.94419766-70.60915232-162.94419766-162.94419765-162.94419766z m0 271.57366277c-59.74620581 0-108.62946511-48.88325931-108.62946511-108.62946511s48.88325931-108.62946511 108.62946511-108.62946511 108.62946511 48.88325931 108.6294651 108.62946511-48.88325931 108.62946511-108.6294651 108.62946511z"  horiz-adv-x="1536" />

    
    <glyph glyph-name="cl-icon-screen-exit" unicode="&#59053;" d="M402.68823242 231.36941528L216.49139404 46.54119873000002c-11.62628174-11.54141235-30.40878296-11.47137451-41.95019531 0.15490723-11.54141235 11.62628174-11.47137451 30.40878296 0.15490723 41.95019531l187.53662109 186.15811157H204.36495972c-15.64727783 0-28.33236695 12.72711182-28.33236695 28.42712403 0 15.69918823 12.68508911 28.42712403 28.33236695 28.42712402H431.01977539c15.64727783 0 28.33154297-12.72793579 28.33154297-28.42712402v-227.41699219c0-7.53936768-2.98443604-14.77056885-8.29742432-20.10168457a28.28375244 28.28375244 0 0 0-20.03411865-8.32543946 28.28375244 28.28375244 0 0 0-20.03411865 8.32543946 28.47573852 28.47573852 0 0 0-8.2982483 20.10168457V231.36941528z m217.03079224 302.29980469l187.71212768 187.71212769c11.58425903 11.58425903 30.36593628 11.58425903 41.95019532 0 11.58425903-11.58425903 11.58425903-30.36593628 0-41.95019532l-185.54260254-185.54260253h154.20437621c15.64727783 0 28.33236695-12.72628784 28.33236695-28.42712403 0-15.69918823-12.68508911-28.42712403-28.33236695-28.42712402H591.38665771c-15.64727783 0-28.33154297 12.72793579-28.33154297 28.42712402v227.41699219c0 7.53936768 2.98443604 14.77056885 8.29742432 20.10168457a28.28375244 28.28375244 0 0 0 20.03411865 8.32626343c7.51464844 0 14.7203064-2.99514771 20.03411865-8.32626343a28.47573852 28.47573852 0 0 0 8.29742432-20.10086059v-159.21084596zM172.01571656 468.04541016a28.28375244 28.28375244 0 0 0-20.03411866 8.32626343A28.47573852 28.47573852 0 0 0 143.68334961 496.47253418v227.41699218C143.68334961 739.5895385700001 156.36843872 752.31665039 172.01571656 752.31665039h226.65646362c15.64727783 0 28.33154297-12.72711182 28.33154297-28.42712403 0-15.70001221-12.68426513-28.42712403-28.33154297-28.42712402H200.34725952v-198.98986817c0-7.53936768-2.98443604-14.76974487-8.29742431-20.10086058A28.28375244 28.28375244 0 0 0 172.01489258 468.04541016z m679.96856688-454.83398438H625.32781982c-15.64727783 0-28.33154297 12.72711182-28.33154297 28.42712403 0 15.70001221 12.68426513 28.42712403 28.33154297 28.42712402h198.32492065V269.05554199000005c0 15.70001221 12.68426513 28.42712403 28.33154297 28.42712403 15.64727783 0 28.33236695-12.72711182 28.33236695-28.42712402v-227.4169922c0-15.70001221-12.68508911-28.42712403-28.33236695-28.42712402z"  horiz-adv-x="1024" />

    
    <glyph glyph-name="cl-icon-screen-full" unicode="&#59054;" d="M825.1416626 655.19229126l-583.90960693-583.90960693h156.82955932c15.64727783 0 28.33154297-12.72793579 28.33154297-28.42712402 0-15.70001221-12.68426513-28.42712403-28.33154297-28.42712403H171.40515136c-15.64727783 0-28.33236695 12.72711182-28.33236694 28.42712403v227.41699218a28.4765625 28.4765625 0 0 0 8.29824829 20.10086059 28.28375244 28.28375244 0 0 0 20.03411866 8.32626343 28.28292847 28.28292847 0 0 0 20.03329467-8.32626343 28.47573852 28.47573852 0 0 0 8.2982483-20.10086059V113.68688964l582.07626342 582.07626343H626.81756592c-15.64727783 0-28.33154297 12.72711182-28.33154297 28.42712403 0 15.70001221 12.68426513 28.42712403 28.33154297 28.42712402h226.65646362c15.64727783 0 28.33236695-12.72711182 28.33236694-28.42712402v-227.41699218a28.4765625 28.4765625 0 0 0-8.29824828-20.1008606 28.28375244 28.28375244 0 0 0-20.03411866-8.32626343 28.28375244 28.28375244 0 0 0-20.03411865 8.32626343 28.47573852 28.47573852 0 0 0-8.29742432 20.1008606V655.19229126zM172.01571656 468.04541016a28.28375244 28.28375244 0 0 0-20.03411866 8.32626343A28.47573852 28.47573852 0 0 0 143.68334961 496.47253418v227.41699218C143.68334961 739.5895385700001 156.36843872 752.31665039 172.01571656 752.31665039h226.65646362c15.64727783 0 28.33154297-12.72711182 28.33154297-28.42712403 0-15.70001221-12.68426513-28.42712403-28.33154297-28.42712402H200.34725952v-198.98986817c0-7.53936768-2.98443604-14.76974487-8.29742431-20.10086058A28.28375244 28.28375244 0 0 0 172.01489258 468.04541016z m679.96856688-454.83398438H625.32781982c-15.64727783 0-28.33154297 12.72711182-28.33154297 28.42712403 0 15.70001221 12.68426513 28.42712403 28.33154297 28.42712402h198.32492065V269.05554199000005c0 15.70001221 12.68426513 28.42712403 28.33154297 28.42712403 15.64727783 0 28.33236695-12.72711182 28.33236695-28.42712402v-227.4169922c0-15.70001221-12.68508911-28.42712403-28.33236695-28.42712402z"  horiz-adv-x="1024" />

    
    <glyph glyph-name="cl-icon-mark-solid" unicode="&#59055;" d="M831.99960327 23.999725340000055a40.00067138 40.00067138 0 0 0-61.19989014-33.9996643L533.20004273 138.79998779000005a40.00067138 40.00067138 0 0 1-42.40008546 0L253.20028687-9.999938960000009a40.00067138 40.00067138 0 0 0-61.19989015 33.9996643V703.99960327a79.99969482 79.99969482 0 0 0 79.99969484 80.0005188H751.99908447a79.99969482 79.99969482 0 0 0 79.99969483-79.99969483z"  horiz-adv-x="1024" />

    
    <glyph glyph-name="cl-icon-heart-solid" unicode="&#59056;" d="M916.49402809 523.99972343a220.00044822 220.00044822 0 0 1-220.0012207 220.00044823A254.39958572 254.39958572 0 0 1 516.49349404 661.1999931400001 254.39958572 254.39958572 0 0 1 336.4934082 744.00017166 220.00044822 220.00044822 0 0 1 116.49295998 523.99972343c0-156.79953575 190.00056267-330.00028611 280.00021934-419.99994277l91.20008469-91.20008469a29.99988555 29.99988555 0 0 1 21.19983673-8.79927636h15.20078658a29.99988555 29.99988555 0 0 1 21.19983675 8.79927636l91.20008467 91.20008469c89.99965667 89.99965667 279.99944687 263.20040703 279.99944688 419.99994277z"  horiz-adv-x="1035" />

    
    <glyph glyph-name="cl-icon-home" unicode="&#59057;" d="M774.50029297 46.5H249.49970703a37.50029297 37.50029297 0 0 0-37.49941406 37.50029297v337.5h-112.5L486.76220703 773.54882813a37.50029297 37.50029297 0 0 0 50.47558594-1e-8l387.26191406-352.04941406h-112.5v-337.5A37.50029297 37.50029297 0 0 0 774.50029297 46.5zM287 121.49970702999997h450V490.61220703L512 695.13720703 287 490.61220703v-369.1125z"  horiz-adv-x="1024" />

    
    <glyph glyph-name="cl-icon-home-solid" unicode="&#59058;" d="M811.99970703 84.00029297000003A37.50029297 37.50029297 0 0 0 774.50029297 46.5H249.49970703a37.50029297 37.50029297 0 0 0-37.49941406 37.50029297v337.5h-112.5L486.76220703 773.54882813a37.50029297 37.50029297 0 0 0 50.47558594-1e-8l387.26191406-352.04941406h-112.5v-337.5z m-337.5 262.49941406v-225h75.00058594v225h-75.00058594z"  horiz-adv-x="1024" />

    
    <glyph glyph-name="cl-icon-image-solid" unicode="&#59059;" d="M811.99970703 646.50029297H212.00029297v-525.00058594l348.44941406 348.525a37.50029297 37.50029297 0 0 0 53.02529297 0l198.52470703-198.9V646.50029297z m-675 37.76220703A37.50029297 37.50029297 0 0 0 174.20117187 721.5h675.59765625c20.55058594 0 37.20058594-16.68779297 37.20058594-37.2375v-600.525A37.50029297 37.50029297 0 0 0 849.79882813 46.5H174.20117187a37.2375 37.2375 0 0 0-37.20058593 37.2375V684.2625z m225-262.76220703a74.99970703 74.99970703 0 1 0 0 149.99941406 74.99970703 74.99970703 0 0 0 0-149.99941406z"  horiz-adv-x="1024" />

    
    <glyph glyph-name="cl-icon-image" unicode="&#59060;" d="M243.05029297 46.5l-0.75058594-0.74970703-0.7875 0.74970703H174.20117187a37.2375 37.2375 0 0 0-37.20058593 37.2375V684.2625A37.50029297 37.50029297 0 0 0 174.20117187 721.5h675.59765625c20.55058594 0 37.20058594-16.68779297 37.20058594-37.2375v-600.525A37.50029297 37.50029297 0 0 0 849.79882813 46.5H243.05029297z m568.94941406 225V646.50029297H212.00029297v-525.00058594L586.99970703 496.5l225-225z m0-106.04970703l-225 225-268.94970703-268.95058594h493.94970703V165.45117187000005z m-450 256.05a74.99970703 74.99970703 0 1 0 0 149.99941406 74.99970703 74.99970703 0 0 0 0-149.99941406z"  horiz-adv-x="1024" />

    
    <glyph glyph-name="cl-icon-mark" unicode="&#59061;" d="M751.99990844 703.99960327v-607.59887695L575.60012818 206.39886474000002a120.00036621 120.00036621 0 0 1-127.20025635 0L272.00091553 96.39990234000004V703.99960327H751.99908447m0 80.0005188H272.00091553a79.99969482 79.99969482 0 0 1-79.99969483-79.99969483v-680.0007019a40.00067138 40.00067138 0 0 1 39.99902344-39.99984741 40.00067138 40.00067138 0 0 1 21.2008667 6.00018311l237.59967041 148.79992675a40.00067138 40.00067138 0 0 0 42.40008545 0L770.79971313-9.999938960000009a40.00067138 40.00067138 0 0 1 21.20086671-6.00018311 40.00067138 40.00067138 0 0 1 39.99902344 39.99984741V703.99960327a79.99969482 79.99969482 0 0 1-79.99969484 80.0005188z"  horiz-adv-x="1024" />

    
    <glyph glyph-name="cl-icon-label-solid" unicode="&#59062;" d="M908.40182495 774.94052124l-5.46130371 5.46130371a47.78640747 47.78640747 0 0 1-32.31298828 13.19842529H508.81369018a91.02200318 91.02200318 0 0 1-64.62432861-26.85168456L115.59735107 438.15820313a45.51141357 45.51141357 0 0 1 0-64.17114258l386.3888855-386.3888855a45.51141357 45.51141357 0 0 1 64.17114258 0l328.59036255 328.59036255a91.02200318 91.02200318 0 0 1 26.85168457 64.62515258V742.62753296a47.78640747 47.78640747 0 0 1-13.19842529 32.31298828z m-214.35699463-299.91851806a91.02200318 91.02200318 0 1 0 91.02200317 91.02282714 91.02200318 91.02200318 0 0 0-91.02200317-91.02282714z"  horiz-adv-x="1024" />

    
    <glyph glyph-name="cl-icon-label" unicode="&#59063;" d="M908.40182495 774.94052124l-5.46130371 5.46130371a47.78640747 47.78640747 0 0 1-32.31298828 13.19842529H508.81369018a91.02200318 91.02200318 0 0 1-64.62432861-26.85168456L115.59735107 438.15820313a45.51141357 45.51141357 0 0 1 0-64.17114258l386.3888855-386.3888855a45.51141357 45.51141357 0 0 1 64.17114258 0l328.59036255 328.59036255a91.02200318 91.02200318 0 0 1 26.85168457 64.62515258V742.62753296a47.78640747 47.78640747 0 0 1-13.19842529 32.31298828z m-77.82440185-394.12683106l-296.27655029-296.73138427L212.08148193 406.30087281l296.73138428 296.27655029h321.76455689z m-182.04400635 48.69772339a91.02200318 91.02200318 0 1 1-91.02200318 91.02200318 91.02200318 91.02200318 0 0 1 91.02200318-91.02200318z"  horiz-adv-x="1024" />

    
    <glyph glyph-name="cl-icon-hot" unicode="&#59064;" d="M459.13730469 749.64169922c0.02109375 0.05625001 0.0421875 0.12744141 0.0711914 0.1274414-0.07119141 0.05625001-0.08525391 0-0.0711914-0.1274414zM187.32148437 446.73457031c-0.01318359-0.00878906-0.02636719-0.01845703-0.03251953-0.0149414 0.00527344-0.0140625 0.01669922-0.00527344 0.03251953 0.0149414zM610.52539063 595.77509766c15.90732422-22.93945313 31.88056641-47.38007812 47.19814453-72.89472657 42.29560547-70.45751953 71.54033203-135.83320313 86.92294921-194.31123046 16.70888672-63.52294922 16.62451172-117.71015625-0.25136718-161.05869141-0.95273438-2.43017578-2.07333984-4.55097655-3.42421875-6.48193359a87.93457031 87.93457031 0 0 1-4.32949219-6.83876954c-18.00263673-31.56503906-58.57734375-67.10537109-114.44853516-100.29814453a88.93388672 88.93388672 0 0 1-2.98740234-1.67783203l-1.50292969-0.87978515c-16.70361328 16.8890625-38.67978516 32.16796875-67.49296875 44.1140625a87.88359375 87.88359375 0 0 1-68.63466797-0.55371094c-7.53574219-3.17548828-14.81923828-6.69199219-21.66152343-10.45722656l-0.23291016-0.12832032c-0.33046875-0.18105469-0.66005859-0.36386719-0.99052734-0.5484375-7.19033203-4.01484375-14.08095703-8.41640625-20.50927735-13.09921875a87.70605469 87.70605469 0 0 1-5.34638672-4.08339843 180.13183594 180.13183594 0 0 1-17.20898437-15.35537109 617.2734375 617.2734375 0 0 0-20.24208986 12.31787109c-0.39375001 0.25048828-0.78837891 0.49658203-1.18564452 0.74091796a595.546875 595.546875 0 0 0-2.63496093 1.69453125 77.95019531 77.95019531 0 0 1-1.10830079 0.73388672 549.49306641 549.49306641 0 0 0-4.96933593 3.26865235c-0.36035156 0.2390625-0.71982422 0.47548828-1.0828125 0.71015625-42.08378906 28.16367188-72.90087891 57.39169922-87.78603516 83.49521484a87.91699219 87.91699219 0 0 1-4.36904297 6.89677734c-1.33505859 1.90546875-2.43896484 3.99990234-3.37675781 6.40107422-5.44394531 13.97460938-9.96064453 28.08105469-13.43056641 41.94140625-0.09667969 0.41748047-0.19775391 0.83320313-0.30146484 1.24892578a306.44560547 306.44560547 0 0 0-1.97314454 8.48935547 146.27636719 146.27636719 0 0 1-0.37265624 1.83867188 261.7734375 261.7734375 0 0 0-1.63916016 8.3821289l-0.03779297 0.2100586c-0.06328125 0.38056641-0.1546875 0.91494141-0.26982423 1.55039062a302.06337891 302.06337891 0 0 0-1.18564452 7.39423828c-0.09140625 0.66972656-0.18369141 1.3359375-0.27949218 2.00478516-0.42099609 3.05859375-0.70400391 5.31826172-0.91582032 7.29404297a79.71503906 79.71503906 0 0 1-0.07382812 0.66005859l-0.03867188 0.3796875-0.06328125 0.60556641a285.98378906 285.98378906 0 0 0-0.67412109 7.33095703l-0.00791016 0.11689453c-0.03339844 0.50097657-0.08613281 1.29814453-0.16523437 2.27548828a281.446875 281.446875 0 0 0-0.38320313 7.02773438l-0.00175781 0.06503906-0.02373047 0.78398438-0.01845703 0.51152343a239.40087891 239.40087891 0 0 0-0.15996095 6.63837891v1.69804687c-0.00615234 2.5875 0.01845703 4.8515625 0.07558595 6.91962891l0.00527344 0.196875 0.03603515 1.42382813c0.07470703 2.31152345 0.17929687 4.55976562 0.31113282 6.68671875 0.02724609 0.42890625 0.05009766 0.85869141 0.0703125 1.28847656 0.17138672 2.54091797 0.35332031 4.81728516 0.55722656 6.95302735l0.01845703 0.19160155 0.03339844 0.36035157 0.05361328 0.54404297c0.21708985 2.25703125 0.47988281 4.58789063 0.80507811 7.12265625l0.01933595 0.1546875 0.08261719 0.65917968c0.32080078 2.43720703 0.66181641 4.74873047 1.01689453 6.87480469 0.06591797 0.39550781 0.12919922 0.79189453 0.18984375 1.18916016 0.61699219 3.65800781 1.42558594 7.69746094 2.52861328 12.62988281a198.11777344 198.11777344 0 0 0 0.88242188 3.73359375c0.86132813 3.59912109 1.78505859 7.115625 2.74746093 10.45195312l0.028125 0.09667969c0.225 0.78486329 0.44472656 1.57675781 0.66269532 2.36865235l0.09667968 0.3515625c0.46933594 1.56005859 1.10566406 3.48837891 1.84306641 5.71904296l0.17314453 0.52294922c0.72070313 2.19726563 1.36757813 4.15722656 1.940625 5.78144532 0.09755859 0.26191406 0.19863281 0.52207031 0.29707031 0.78398437 0.25927734 0.68203125 0.51943359 1.36757813 0.77607422 2.05751953l0.04482422 0.12128906a247.85859375 247.85859375 0 0 0 3.80830078 9.65742188c0.22851563 0.54492188 0.45615234 1.09248047 0.68291016 1.63916016 0.16962891 0.40957031 0.33574219 0.81914063 0.51064453 1.22255859l0.04921875 0.11425781c0.30673828 0.70927734 0.61347655 1.41152345 0.92021484 2.10761719a187.77392578 187.77392578 0 0 1 19.02919922-21.30732422c16.99189453-16.36259766 38.96982422-24.58125001 60.97148438-24.58125 21.11748047 0 42.25693359 7.57089844 59.02998047 22.77949219 69.70253906 63.20214844 147.29589844 133.56123047 183.37324219 243.03076172M530.63808594 833.99384766c5.45976563-25.17802734 8.915625-48.62900391 10.75957031-70.71503907-0.10107422 0.76201172-0.16611328 1.49589844-0.26982422 2.25791016 2.62177734-29.14277344 2.24384766-55.72880859-0.57216797-80.29072266-0.4359375-3.71689453-0.87890625-7.44169922-1.42382812-11.07158203-0.08613281-0.58710937-0.20214844-1.16894531-0.29003907-1.74902343-18.02021484-114.81328125-92.05136719-183.23349609-170.73017578-254.57167969-20.57607422 19.81318359-32.73662109 48.38291015-32.72871092 90.36123047 0.07294922 19.10917969 2.63583984 40.97636719 8.0736328 66.05332031l-0.1819336-0.12392578c0.06503906 0.31113281 0.11601562 0.60205078 0.1819336 0.92109375 0 0-56.12167969-36.28564453-102.80390624-104.75683594-0.00791015 0.00703125-0.01494141 0.02197266-0.01494142 0.02197266-0.15996094-0.23203125-0.31201172-0.49482422-0.4790039-0.72685547-2.99091797-4.41386719-5.94667969-8.9296875-8.83564454-13.60546875-0.13798828-0.21005859-0.26191406-0.43505859-0.39287109-0.6459961a378.47021484 378.47021484 0 0 1-7.77568359-13.24951171 331.03564453 331.03564453 0 0 1-1.74990234-3.13681641c-2.53388672-4.61689453-5.02382812-9.32080078-7.41269532-14.16445313-0.11689453-0.2390625-0.24697266-0.47197266-0.36386719-0.71103515a357.93017578 357.93017578 0 0 1-7.11474609-15.49248047c-0.55107422-1.27089844-1.07490234-2.56376953-1.61103516-3.84169921a334.59082031 334.59082031 0 0 1-5.17675781-13.12646485c-0.4640625-1.24892578-0.94394531-2.46796875-1.39394531-3.71689453-0.95800781-2.68769531-1.85888672-5.41669922-2.75888672-8.16064454-0.02197266-0.05800781-0.04394531-0.11601562-0.05800781-0.17402343-0.92197266-2.78789062-1.84394531-5.57666016-2.69296875-8.42167969-0.34804688-1.14785156-0.65390625-2.33789063-0.98701172-3.49980469a323.97539063 323.97539063 0 0 1-3.77578125-14.35341797 277.93476563 277.93476563 0 0 1-1.17597655-5.00097656c-1.35087891-6.04072266-2.59980469-12.13945313-3.62285158-18.39814453 0-0.04394531-0.01494141-0.08789063-0.0149414-0.13007813a289.64355469 289.64355469 0 0 1-1.5178711-10.2796875c-0.028125-0.23378906-0.05712891-0.46494141-0.08701172-0.69785156a310.2046875 310.2046875 0 0 1-1.11796875-9.91669922c-0.04394531-0.37792969-0.07294922-0.75585938-0.10898437-1.14082031a343.85537109 343.85537109 0 0 1-0.77695313-9.70664062c-0.02900391-0.47900391-0.05800781-0.97207031-0.07998046-1.45107422a314.86816406 314.86816406 0 0 1-0.44296875-9.59941407l-0.04394532-1.71298828a321.87832031 321.87832031 0 0 1-0.10898437-9.55371093v-1.90195313c0.02900391-3.17988281 0.10107422-6.37470703 0.225-9.590625 0.02197266-0.67587891 0.03691406-1.35791017 0.07294922-2.03291016 0.13798828-3.21591797 0.31904297-6.4546875 0.54492187-9.70664062 0.06503906-0.69697266 0.10107422-1.37988281 0.15205078-2.07597656 0.24697266-3.28095703 0.55898437-6.58476562 0.9-9.90351563 0.07294922-0.6890625 0.13798828-1.36494141 0.21796875-2.04785156 0.36298828-3.38291017 0.80595703-6.78779297 1.27792969-10.20761719 0.09404297-0.64511719 0.18193359-1.28496094 0.26894531-1.93095703 0.50800781-3.50595703 1.08105469-7.05585937 1.69892578-10.61367187 0.10898438-0.56689453 0.18808594-1.13291015 0.29707032-1.69892578a345.08935547 345.08935547 0 0 1 2.19287109-11.22451172c0.08701172-0.42099609 0.16699219-0.84199219 0.24697266-1.26386719a397.09248047 397.09248047 0 0 1 2.79492188-12.08056641c0.04394531-0.20302734 0.08789063-0.39902345 0.13798827-0.59501953 4.28378906-17.25029297 9.87363281-35.015625 17.00332032-53.31181641 3.60087891-9.22763673 8.07363281-17.46035156 13.27236328-24.88095703 60.84052734-106.69570313 232.92861328-176.64082031 232.92861328-176.64082031v0.00703125c-0.59414063 0.24345703-49.9359375 20.37744141-104.95986328 55.35351563 55.02392578-34.97695313 104.36660156-55.10917969 104.95986328-55.34736329l0.0290039-0.0140625v0.02900391c0.03603516-0.01582031 0.07294922-0.02900391 0.07294922-0.02900391 3.25986327 29.92675781 16.25537109 50.34111328 35.57548829 64.78945313-0.01494141 0.01582031-0.03691406 0.01582031-0.05097657 0.02900391 0.10898438 0.07294922 0.225 0.14589844 0.33398438 0.225 3.89882813 2.896875 8.05166016 5.5546875 12.43652343 8.0015625 0.23203125 0.13095703 0.4640625 0.25488281 0.69697266 0.38496093 4.39277344 2.41699219 9.00966797 4.62392578 13.83837891 6.64277344 0.14501953 0.05800781 0.27597655 0.12392578 0.42099609 0.18193359 34.35556641-14.2453125 58.69951172-37.62246094 63.33837891-80.2546875 0 0 0.02109375 0.0140625 0.0290039 0.0140625v-0.0140625s37.56357422 15.27539063 83.78964844 42.41425783c-0.05800781-0.05800781-0.11601562-0.12392578-0.17402343-0.18896486 52.78886719 30.96386719 116.96923828 77.45185547 149.45800781 134.41552735 5.19082031 7.41972656 9.66357422 15.65332031 13.27324218 24.88095703C930.06494141 401.8453125 571.39648438 791.07158203 533.98496094 830.65400391c0.08789063-0.14501953 0.18193359-0.31904297 0.26191406-0.46494141a498.80478516 498.80478516 0 0 1-3.60878906 3.80478516zM342.52226562-6.9629882799999905z"  horiz-adv-x="1024" />

    
    <glyph glyph-name="cl-icon-hot-solid" unicode="&#59065;" d="M462.44122315 726.78909302c0.01977539 0.05273438 0.03955078 0.11947632 0.06674193 0.11947631-0.06674195 0.05273438-0.07992554 0-0.06674193-0.11947631zM207.61389159 442.81365967c-0.01235962-0.00823974-0.02471924-0.01730347-0.03048705-0.01400757 0.00494385-0.01318359 0.01565552-0.00494385 0.03048707 0.01400757z m311.32315065-155.97097779c-13.12179565 0-23.69833374-4.49972534-31.72714234-13.49752807-8.03045654-8.99780273-12.04568482-22.56701661-12.04568482-40.7076416 0-17.85305786 4.12234497-31.38684083 12.36868287-40.59887695 8.24386597-9.21368407 18.71246338-13.81970215 31.40414429-13.81970216 12.69003296 0 23.10424805 4.57141113 31.24264526 13.71340943 8.13757324 9.14199829 12.20635987 22.85293579 12.20635987 41.13775635 0 18.06729126-3.96331787 31.5466919-11.8841858 40.43655395-7.92416382 8.88986206-18.44467163 13.33602906-31.56481933 13.33602905zM794.17504883 127.72988891c4.86639404 6.95599365 9.05960083 14.67498779 12.44366455 23.32589723C903.93588257 400.72998047 567.68420411 765.62960815 532.61090089 802.73812867c0.08239747-0.13595581 0.17056274-0.29910278 0.24554442-0.43588258-2.1645813 2.30053711-3.38241577 3.56698609-3.38241577 3.56698609 5.11853028-23.60440063 8.35839844-45.58969117 10.08709717-66.29534913-0.09475708 0.71438599-0.1557312 1.40240479-0.2529602 2.11679078 2.45791626-27.3213501 2.10360718-52.24575805-0.53640748-75.2725525-0.40869141-3.48458862-0.82397461-6.97659302-1.33483887-10.37960815-0.08074951-0.55041503-0.18951415-1.09588623-0.27191162-1.63970946-16.89395141-107.63745117-86.29815674-171.78140258-160.05953979-238.66094971-19.29006958 18.57485962-30.69058227 45.35897827-30.68316651 84.71365356 0.06838989 17.91485596 2.47109985 38.41534425 7.56903076 61.92498779l-0.17056274-0.11618042c0.06097412 0.29168701 0.10876464 0.56442261 0.17056274 0.86352539 0 0-52.61407471-34.01779175-96.37866211-98.2095337-0.00741577 0.0065918-0.01400757 0.02059937-0.01400756 0.02059938-0.14996338-0.2175293-0.29251099-0.46389771-0.44906616-0.681427-2.8039856-4.13800049-5.57501221-8.37158203-8.28341675-12.75512696-0.12936401-0.19692993-0.24554443-0.40786743-0.36831665-0.60562134a354.81582641 354.81582641 0 0 1-7.28970336-12.42141723 310.34591675 310.34591675 0 0 1-1.64053346-2.94076538c-2.37551879-4.32833862-4.70983886-8.73825073-6.94940185-13.27917481-0.10958862-0.22412109-0.23153687-0.44247437-0.34112549-0.66659546a335.55953979 335.55953979 0 0 1-6.67007446-14.52420044c-0.51663209-1.19146729-1.00772094-2.40353393-1.51034546-3.60159301a313.67889404 313.67889404 0 0 1-4.85321045-12.30606079c-0.43505859-1.17086793-0.88494873-2.3137207-1.30682374-3.48458862-0.89813232-2.51971435-1.7427063-5.07815552-2.58645629-7.65060426-0.02059937-0.05438231-0.04119873-0.10876464-0.05438233-0.16314697-0.86434937-2.61364746-1.72869873-5.2281189-2.5246582-7.89532471-0.32629395-1.07611084-0.61303711-2.19177247-0.92532349-3.28106689a303.72692873 303.72692873 0 0 1-3.53979492-13.45632935 260.56384278 260.56384278 0 0 1-1.10247802-4.68841552c-1.26644898-5.66317749-2.4373169-11.38073731-3.39642334-17.2482605 0-0.04119873-0.01400757-0.08239747-0.01400758-0.12194825a271.54083252 271.54083252 0 0 1-1.42300414-9.63720703c-0.02636719-0.21917724-0.05355835-0.43588257-0.08157349-0.65423584a290.81689453 290.81689453 0 0 1-1.0480957-9.29690552c-0.04119873-0.35430908-0.06838989-0.70861817-0.10217285-1.06951904a322.3644104 322.3644104 0 0 1-0.72839356-9.09997558c-0.02719117-0.44906617-0.05438231-0.91131591-0.07498169-1.36038208a295.18890381 295.18890381 0 0 1-0.4152832-8.99945069l-0.04119873-1.60592651a301.76092529 301.76092529 0 0 1-0.10217286-8.956604v-1.78308106c0.02719117-2.98114013 0.09475708-5.97628784 0.2109375-8.99121094 0.02059937-0.63363648 0.03460693-1.27304078 0.0683899-1.90585328 0.12936401-3.0149231 0.29910278-6.05126953 0.51086426-9.09997557 0.06097412-0.65341187 0.09475708-1.29364013 0.1425476-1.94622803 0.23153687-3.07589722 0.52404785-6.17321777 0.84375-9.2845459 0.06838989-0.64599609 0.12936401-1.27963257 0.20434572-1.91986084 0.34030151-3.17147828 0.75558471-6.36355591 1.19805907-9.56964111 0.08816528-0.60479737 0.17056274-1.20465088 0.25213623-1.81027223 0.47625732-3.28683472 1.01348877-6.61486816 1.59274292-9.95031737 0.10217286-0.53146362 0.17633057-1.06210327 0.27850341-1.59274292a323.52127075 323.52127075 0 0 1 2.05581666-10.52297973c0.08157349-0.39468383 0.15655518-0.78936768 0.23153686-1.1848755a372.27420044 372.27420044 0 0 1 2.62023926-11.325531c0.04119873-0.19033813 0.08239747-0.37408448 0.12936402-0.55783081 4.01605223-16.17214966 9.25653076-32.82714844 15.94061279-49.97982789 3.37582398-8.65090943 7.56903076-16.36907959 12.44284057-23.32589721 57.03799438-100.02722169 218.37057495-165.60076903 218.37057495-165.60076904v0.00659179c-0.55700684 0.22824097-46.81494141 19.10385132-98.39987182 51.89392091 51.58493042-32.79089356 97.84368896-51.66485596 98.39987182-51.88815309l0.02719118-0.01318359v0.02719116c0.03378295-0.01483154 0.06838989-0.02719117 0.06838988-0.02719116 3.05612182 28.05633545 15.2394104 47.1947937 33.35202026 60.74011231-0.01400757 0.01483154-0.03460693 0.01483154-0.04779052 0.02719116 0.10217286 0.06838989 0.2109375 0.13677979 0.31311035 0.2109375 3.65515137 2.71582031 7.5484314 5.20751953 11.65924072 7.50146485 0.2175293 0.12277222 0.43505859 0.23895263 0.65341187 0.36090087 4.1182251 2.26593018 8.44656372 4.33493042 12.97348022 6.2276001 0.13595581 0.05438231 0.25872802 0.11618042 0.39468384 0.17056274 32.20834351-13.35498047 55.03079223-35.27105713 59.37973022-75.23876953 0 0 0.01977539 0.01318359 0.02719117 0.01318359v-0.01318359s35.21585083 14.32067872 78.55279541 39.76336671c-0.05438231-0.05438231-0.10876464-0.11618042-0.16314698-0.17715455 49.48791504 29.02780151 109.65701294 72.61029052 140.11523438 126.01290893zM347.73324585 21.01281739000001z m68.17236328 132.68463134h-31.83508301v68.93948364h-62.37817383v-68.93948364h-31.835083V311.36334229h31.835083v-62.05599976h62.37817383v62.05599976h31.83508301v-157.66589356zM574.53967286 172.57305908c-13.83947753-14.37670898-32.33688354-21.5642395-55.49633789-21.5642395-23.44537354 0-42.08862305 7.15127563-55.92480469 21.45465088-13.83865357 14.3050232-20.75756836 34.00378417-20.75756836 59.10040283 0 16.05844117 2.40188599 29.53701782 7.20648193 40.43655395 3.58428955 8.03045654 8.47787476 15.2361145 14.67993164 21.61779786 6.20123291 6.3800354 12.99490357 11.11212158 20.38018799 14.19625854 9.82177734 4.1569519 21.15060425 6.23748779 33.98565673 6.23748779 23.22949219 0 41.8175354-7.20730591 55.76495362-21.61697387 13.94329834-14.41131593 20.91741943-34.45285034 20.91741943-60.12130738 0.00082398-25.45257568-6.91973877-45.36639404-20.7559204-59.7406311z m34.30783081 112.11904907v26.67123414h125.29440307v-26.67123414H687.46539307v-130.99465942h-31.83425904V284.69210814999997h-46.78363036z"  horiz-adv-x="1024" />

    
    <glyph glyph-name="cl-icon-heart" unicode="&#59066;" d="M696.49357986 744.00017166A254.39958572 254.39958572 0 0 1 516.49349404 661.1999931400001 254.39958572 254.39958572 0 0 1 336.4934082 744.00017166 220.00044822 220.00044822 0 0 1 116.49295998 523.99972343c0-156.79953575 190.00056267-330.00028611 280.00021934-419.99994277l91.20008469-91.20008469a29.99988555 29.99988555 0 0 1 21.19983673-8.79927636h15.20078658a29.99988555 29.99988555 0 0 1 21.19983675 8.79927636l91.20008467 91.20008469c89.99965667 89.99965667 279.99944687 263.20040703 279.99944688 419.99994277A220.00044822 220.00044822 0 0 1 696.49435234 744.00017166zM604.49398232 184.00050545L516.49349404 97.19967269999995 428.49300576 184.00050545C347.2933979 263.99968528 196.49368477 413.59974289 196.49368477 523.99972343a139.99972343 139.99972343 0 0 0 139.99972343 140.00049591 199.99949455 199.99949455 0 0 0 148.40040207-88.40063094 30.79939842 30.79939842 0 0 1 23.99929047-11.59950256h18.00024033a20.40032387 20.40032387 0 0 1 16.00029945 7.99976348A204.40029144 204.40029144 0 0 0 695.29315185 663.99944687a139.99972343 139.99972343 0 0 0 141.20015144-140.00049592c0-110.39998055-150.79971313-260.00003815-231.99932097-339.99921797z"  horiz-adv-x="1035" />

    
    <glyph glyph-name="cl-icon-more-solid" unicode="&#59067;" d="M160.001 384a80 80 0 1 1 160 0 80 80 0 1 1-160 0z m271.95 0a80 80 0 1 1 160 0 80 80 0 1 1-160 0z m272.05 0a80 80 0 1 1 160 0 80 80 0 1 1-160 0z"  horiz-adv-x="1024" />

    
    <glyph glyph-name="cl-icon-more-ver" unicode="&#59068;" d="M432.001 656a80 80 0 1 1 160 0 80 80 0 1 1-160 0z m0-271.95a80 80 0 1 1 160 0 80 80 0 1 1-160 0z m0-272.05a80 80 0 1 1 160 0 80 80 0 1 1-160 0z"  horiz-adv-x="1024" />

    
    <glyph glyph-name="cl-icon-more" unicode="&#59069;" d="M245.578 321.486c-46.517 0-84.362 37.845-84.362 84.363 0 46.52 37.845 84.367 84.362 84.367 46.519 0 84.364-37.847 84.364-84.367 0-46.518-37.845-84.363-84.364-84.363z m0 127.868c-23.986 0-43.5-19.516-43.5-43.504 0-23.987 19.514-43.501 43.5-43.501s43.502 19.514 43.502 43.5c0 23.989-19.516 43.505-43.502 43.505zM523.412 321.486c-46.518 0-84.362 37.845-84.362 84.363 0 46.52 37.844 84.367 84.362 84.367 46.52 0 84.367-37.847 84.367-84.367 0-46.518-37.847-84.363-84.367-84.363z m0 127.868c-23.985 0-43.5-19.516-43.5-43.504 0-23.987 19.514-43.501 43.5-43.501 23.988 0 43.506 19.514 43.506 43.5 0 23.989-19.517 43.505-43.506 43.505zM801.247 321.486c-46.518 0-84.363 37.845-84.363 84.363 0 46.52 37.845 84.367 84.363 84.367 46.52 0 84.367-37.847 84.367-84.367 0-46.518-37.847-84.363-84.367-84.363z m0 127.868c-23.986 0-43.501-19.516-43.501-43.504 0-23.987 19.514-43.501 43.5-43.501 23.99 0 43.507 19.514 43.507 43.5 0 23.989-19.518 43.505-43.506 43.505z"  horiz-adv-x="1024" />

    
    <glyph glyph-name="cl-icon-notifications-off-solid" unicode="&#59070;" d="M426.66699219 42.66708984000002h170.66601562a85.33300781 85.33300781 0 0 0-170.66601562 0zM767.99990234 469.33300781a255.99990234 255.99990234 0 0 1-51.19980468 153.60029297l-38.39941407 51.19980469a128.00039062 128.00039062 0 0 1-102.40136718 51.19980469h-21.3319336V789.33398438a21.3328125 21.3328125 0 0 1-21.33457031 21.3336914h-42.665625a21.3328125 21.3328125 0 0 1-21.33457031-21.33369141v-64.00019531h-21.3328125a124.58671875 124.58671875 0 0 1-64.00019532-18.34628906l384.00029297-383.99941406z m121.60019532-375.03984375L229.54589844 754.34736328a21.3328125 21.3328125 0 0 1-29.86699219 0l-22.6125-22.61425781a21.3328125 21.3328125 0 0 1 0-30.29326172L288.00019531 590.5078125a250.88027344 250.88027344 0 0 1-32.00097656-121.17392578v-117.76025391a128.00039062 128.00039062 0 0 0-37.546875-90.45263672l-35.41201172-35.41289062a42.66738281 42.66738281 0 0 1-12.37324219-29.86699219v-25.17363281a42.66738281 42.66738281 0 0 1 42.665625-42.66650391h537.17431641l85.33300781-85.33300781a21.3328125 21.3328125 0 0 1 29.86699219 0l22.61337891 22.6125a21.3328125 21.3328125 0 0 1 1.2796875 29.01269531z"  horiz-adv-x="1024" />

    
    <glyph glyph-name="cl-icon-notifications-on-solid" unicode="&#59071;" d="M426.66699219 42.66708984000002h170.66601562a85.33300781 85.33300781 0 0 0-170.66601562 0z m414.29267578 183.04013672l-35.41289063 35.41289063a128.00039062 128.00039062 0 0 0-37.546875 90.45263672V469.33300781a255.99990234 255.99990234 0 0 1-51.19980468 153.60029297l-38.39941407 51.19980469a128.00039062 128.00039062 0 0 1-102.40136718 51.19980469h-21.3319336V789.33398438a21.3328125 21.3328125 0 0 1-21.33457031 21.3336914h-42.665625a21.3328125 21.3328125 0 0 1-21.33457031-21.33369141v-64.00019531h-21.3328125a128.00039062 128.00039062 0 0 1-102.39960938-51.19980469l-38.39941406-51.19980468a255.99990234 255.99990234 0 0 1-51.20068359-153.60029297v-117.76025391a128.00039062 128.00039062 0 0 0-37.546875-90.45263672l-35.41289063-35.41289062a42.66738281 42.66738281 0 0 1-12.37324219-29.86699219v-25.17363281a42.66738281 42.66738281 0 0 1 42.665625-42.66650391h597.33457032a42.66738281 42.66738281 0 0 1 42.665625 42.66650391v25.17363281a42.66738281 42.66738281 0 0 1-12.37324219 29.86699219z"  horiz-adv-x="1024" />

    
    <glyph glyph-name="cl-icon-share" unicode="&#59072;" d="M743.74285888 291.30285644c-46.34857177 0-88.06228638-23.17428589-111.23657226-55.61828613 0 0 0 4.63485718 4.63485718 4.63485718L410.03314209 360.82571411000004v-4.63485718c4.63485718 18.53942872 9.26971435 32.44400024 9.26971436 50.98342896s-4.63485718 32.44400024-9.26971436 46.34857177c0-4.63485718 4.63485718-9.26971435 4.63485718-13.90457152l213.20343018 97.33200073C623.23657227 541.5851440399999 618.60171508 550.8548584 613.96685791 560.12457276c23.17428589-50.98342896 74.15771484-83.4274292 129.77600097-83.42742921 78.79257202 0 139.04571533 60.25314331 139.04571534 139.04571533S822.53543091 754.78857422 743.74285888 754.78857422 604.69714356 694.5354309100001 604.69714356 615.7428588800001c0-18.53942872 4.63485718-32.44400024 9.26971435-46.34857177 0 4.63485718-4.63485718 9.26971435-4.63485718 13.90457153L396.12857055 485.96685791c4.63485718-9.26971435 9.26971435-13.90457153 9.26971437-23.17428588-18.53942872 50.98342896-69.52285766 83.4274292-125.1411438 83.42742919-78.79257202 0-139.04571533-60.25314331-139.04571534-139.04571533s60.25314331-139.04571533 139.04571534-139.04571534c46.34857177 0 88.06228638 23.17428589 111.23657226 55.61828614 0 0 0-4.63485718-4.63485718-4.63485718l222.47314453-120.50628662v4.63485718c0-18.53942872-4.63485718-32.44400024-4.63485718-50.98342895 0-78.79257202 60.25314331-139.04571533 139.04571533-139.04571534S882.78857422 73.46456909000005 882.78857422 152.25714112000003 822.53543091 291.30285644 743.74285888 291.30285644z m0 417.137146c50.98342896 0 92.69714356-41.7137146 92.69714356-92.69714356s-41.7137146-92.69714356-92.69714356-92.69714355-92.69714356 41.7137146-92.69714355 92.69714355 41.7137146 92.69714356 92.69714355 92.69714356z m-463.48571776-393.9628601c-50.98342896 0-92.69714356 41.7137146-92.69714356 92.69714355s41.7137146 92.69714356 92.69714356 92.69714356 92.69714356-41.7137146 92.69714355-92.69714356-41.7137146-92.69714356-92.69714355-92.69714355zM405.39828492 346.92114258000004c0-4.63485718-4.63485718-9.26971435-9.26971437-13.90457154 4.63485718 4.63485718 9.26971435 9.26971435 9.26971437 13.90457154z m222.47314453-120.50628662c-4.63485718-4.63485718-4.63485718-9.26971435-9.26971437-13.90457153 0 4.63485718 4.63485718 9.26971435 9.26971437 13.90457153z m115.87142943-166.8548584c-50.98342896 0-92.69714356 41.7137146-92.69714355 92.69714356s41.7137146 92.69714356 92.69714355 92.69714355 92.69714356-41.7137146 92.69714356-92.69714355-41.7137146-92.69714356-92.69714356-92.69714356z"  horiz-adv-x="1024" />

    
    <glyph glyph-name="cl-icon-shopping" unicode="&#59073;" d="M933.04273737 13.211425780000013H142.02687097l74.15771484 543.82300079h642.70043671l74.15771485-543.82300079zM198.88136041 62.650143739999976h677.30688751l-61.7978543 444.94628906h-556.18286133l-59.32617188-444.94628906zM735.28858972 507.5964328H339.78101862v49.43799377C339.78101862 665.79931641 428.77027643 754.78857422 537.53516626 754.78857422s197.75342345-88.98925781 197.75342346-197.75414765v-49.43799377zM389.21973658 557.03442657h296.63085937c0 81.57348633-66.74194336 148.31542969-148.3154297 148.31542969s-148.31542969-66.74194336-148.31542967-148.31542969z m-27.19140351-170.56274414a46.96631134 46.96631134 0 1 1 93.93334686 0 46.96631134 46.96631134 0 1 1-93.93334686 0z m271.91186248 0a46.96631134 46.96631134 0 1 1 93.93262268 0 46.96631134 46.96631134 0 1 1-93.93262268 0z"  horiz-adv-x="1093" />

    
    <glyph glyph-name="cl-icon-star" unicode="&#59074;" d="M592.00282593 452.7202549l192.40064621-15.19924164-146.80137634-125.20062446 44.80052947-187.19956399L517.60255356 225.51878356999998l-165.19944191-100.39873123 45.19912719 187.19956398-146.79983138 125.20062447 192.4006462 15.19924163L517.60255356 631.1205425200001zM512.40224381 767.52052688a20.40032387 20.40032387 0 0 1-19.19989587-12.79993057L395.20292778 519.1199913099999 139.60291405 498.72043991A19.60003852 19.60003852 0 0 1 122.00204392 484.72008133l-4.40079689-9.99893189a19.60003852 19.60003852 0 0 1 6.00059509-21.59997939l193.99967193-165.60035706-57.59968758-248.80067826a20.40032387 20.40032387 0 0 1 7.59962083-21.19906425l10.00047683-6.00059509a18.79975319 18.79975319 0 0 1 11.99964523-3.99988174 19.19989585 19.19989585 0 0 1 10.39984704 2.8002262L517.60255356 143.52043533000005l218.80002022-133.19961548a19.19989585 19.19989585 0 0 1 10.39984703-2.8002262 18.79975319 18.79975319 0 0 1 12.00041771 3.99988174l8.80004883 6.00059509a20.40032387 20.40032387 0 0 1 7.59962081 21.19906425l-57.60046005 248.80067826 194.39981461 165.99972725a19.60003852 19.60003852 0 0 1 5.60045242 21.2006092l-3.20036888 9.99893189a19.60003852 19.60003852 0 0 1-17.59932518 14.00035858l-255.60001374 20.40109634L541.6026165 754.71905137a19.60003852 19.60003852 0 0 1-18.79975319 12.80070304z"  horiz-adv-x="1038" />

    
    <glyph glyph-name="cl-icon-share1" unicode="&#59075;" d="M831.99980926 364.00059128c0 16.56806946 13.43181609 29.99988555 29.99988556 29.99988555 16.56806946 0 29.99988555-13.43181609 29.99988556-29.99988555v-250.00033379c0-60.75139045-49.24844741-110.00061036-109.99983787-110.00061035h-539.99948502c-60.75139045 0-110.00061036 49.24921989-110.00061035 110.00061035V623.99985696c0 60.75139045 49.24921989 109.99983787 110.00061035 109.99983786h260.00003815c16.56806946 0 29.99911309-13.43181609 29.99911308-29.99988556 0-16.56884194-13.43104362-29.99988555-29.99988555-29.99988556h-260.00003816c-27.61370659 0-49.99929428-22.38636017-49.99929427-50.00006674v-509.99959947c0-27.61447907 22.38636017-50.00006676 50.00006675-50.00006675h539.99948502c27.61447907 0 50.00006676 22.38636017 50.00006675 50.00006675V364.00059128z m-39.43259239 260.00003814L708.38971329 713.4386959c-11.35617256 12.06607819-10.78067779 31.05122566 1.28385543 42.40662576 12.06607819 11.35540009 31.05199814 10.78067779 42.4081707-1.28540039L883.84609413 614.56097031c18.01877976-19.14505005 4.44482803-50.56088448-21.84639931-50.56088447H711.41164017c-76.57479287 0-139.41186905-66.76434517-139.41186905-149.99942781v-180.0008583c0-16.56806946-13.43104362-29.99988555-29.99988556-29.99988557-16.56806946 0-29.99988555 13.43181609-29.99988556 29.99988557V413.99988555c0 115.5871582 88.85870933 209.99997139 199.41164017 209.99997141h81.15634918z"  horiz-adv-x="1024" />

    
    <glyph glyph-name="cl-icon-thumbs" unicode="&#59076;" d="M620.43819463 486.81256485c16.43612722 73.40693637 27.91062049 126.49887022 34.44547578 159.38497567C671.33772238 728.9989937400001 628.61226337 805.87988864 543.9369584 805.87988864c-76.36925198 0-114.70663751-37.95120922-137.32566257-113.80230066l-0.57519112-2.22255121C392.46452685 628.50267261 371.70550418 580.93697251 344.22749922 546.9021146c-29.06752039-36.00077317-72.35269052-57.31869287-118.38834972-58.30287287l-21.65765762-0.4627598c-51.65721524-1.10394305-92.96099093-43.63468451-92.9609901-95.72207135v-314.26700345c0-64.07352302 51.52441607-116.0158895 115.08466634-116.01588949h407.88791565c83.7864473 0 158.57759015 52.9615794 186.99822455 132.41779953l84.73396453 236.89564755c21.55989139 60.27530575-9.43280859 126.75550699-69.22498672 148.4905622a114.25772791 114.25772791 0 0 1-39.03641345 6.87703793h-177.22567804zM543.89785175 742.59827197c38.81644024 0 58.82918088-36.06432139 49.32304761-83.97057431-7.48481726-37.71982891-21.73994385-103.25740072-42.73116175-196.43836487-4.46058325-19.80091406 10.44631879-38.65838462 30.56008448-38.65838461H797.24918109a51.79734696 51.79734696 0 0 0 17.71849374-3.1260748c27.13826788-9.87845938 41.20519373-40.09717694 31.41961195-67.49452469l-84.60849794-236.89564837c-19.41799658-54.36452472-70.5155007-90.60075192-127.75923989-90.6007511H226.73452481c-28.84754636 0-52.23322129 23.60890778-52.23322128 52.73345792V392.41522549c0 17.65902008 13.98301062 32.07953403 31.47256879 32.45430487l21.62425368 0.4627598c64.35704443 1.37850376 124.86617523 31.22082065 165.49943748 81.62337058 33.96153323 42.12664041 58.48211123 98.19962951 74.02449216 167.96884817 15.31263126 50.86612381 32.57080911 67.67376307 76.77661101 67.67376307z"  horiz-adv-x="1024" />

    
    <glyph glyph-name="cl-icon-send" unicode="&#59077;" d="M316.8828125 410.3671875H564.734375c15.8203125 0 26.3671875-10.546875 26.3671875-26.3671875s-10.546875-26.3671875-26.3671875-26.3671875H316.8828125c0-5.2734375-5.2734375-10.546875-5.2734375-21.09375L169.2265625 41.2265625l738.28125 342.7734375L169.2265625 726.7734375l142.3828125-295.3125c5.2734375-10.546875 5.2734375-15.8203125 5.2734375-21.09375z m611.71875-73.828125l-738.28125-342.7734375c-26.3671875-10.546875-58.0078125 0-68.5546875 26.3671875-5.2734375 15.8203125-5.2734375 31.640625 0 47.46093751l142.3828125 295.3125c5.2734375 15.8203125 5.2734375 31.640625 0 47.46093749L121.765625 705.6796875c-10.546875 26.3671875 0 58.0078125 26.3671875 68.5546875 10.546875 5.2734375 31.640625 5.2734375 42.1875 0l738.28125-342.7734375c26.3671875-10.546875 36.9140625-42.1875 26.36718749-68.55468751-5.2734375-10.546875-15.8203125-21.09375001-26.36718749-26.36718749z"  horiz-adv-x="1092" />

    
    <glyph glyph-name="cl-icon-star1" unicode="&#59078;" d="M917.60308762 474.72114944l-3.20114136 9.99893189a19.60003852 19.60003852 0 0 1-17.59932518 14.00035858l-255.60001374 20.40109634L541.6026165 754.71905137a19.60003852 19.60003852 0 0 1-18.79975319 12.80070304h-10.4006195a20.40032387 20.40032387 0 0 1-19.19989587-12.79993057L395.20292778 519.1199913099999 139.60291405 498.72043991A19.60003852 19.60003852 0 0 1 122.00204392 484.72008133l-4.40079689-9.99893189a19.60003852 19.60003852 0 0 1 6.00059509-21.59997939l193.99967193-165.60035706-57.59968758-248.80067826a20.40032387 20.40032387 0 0 1 7.59962083-21.19906425l10.00047683-6.00059509a18.79975319 18.79975319 0 0 1 11.99964523-3.99988174 19.19989585 19.19989585 0 0 1 10.39984704 2.8002262L517.60255356 143.52043533000005l218.80002022-133.19961548a19.19989585 19.19989585 0 0 1 10.39984703-2.8002262 18.79975319 18.79975319 0 0 1 12.00041771 3.99988174l8.80004883 6.00059509a20.40032387 20.40032387 0 0 1 7.59962081 21.19906425l-57.60046005 248.80067826 194.39981461 165.99972725a19.60003852 19.60003852 0 0 1 5.60045242 21.2006092zM637.60286827 312.32038880000005l44.799757-187.19956399L517.60255356 225.51878356999998V631.12131501l74.40027237-178.40028764 192.40064621-15.19924163z"  horiz-adv-x="1038" />

    
    <glyph glyph-name="cl-icon-star-solid" unicode="&#59079;" d="M124.55682354 453.12117005a19.60003852 19.60003852 0 0 0-7.19947815 21.59997939l3.20036888 9.99893189A19.60003852 19.60003852 0 0 0 138.15626697 498.72043991l255.60001374 20.40109634L491.75724583 754.71905137a20.40032387 20.40032387 0 0 0 20.40032386 12.80070304h10.40061951a19.60003852 19.60003852 0 0 0 18.79975319-12.79993057L639.75596027 519.1199913099999l255.60001374-20.40032388a19.60003852 19.60003852 0 0 0 17.60009765-14.00035857l3.20036889-9.99893189a19.60003852 19.60003852 0 0 0-5.99982263-21.5999794L717.35660152 287.52081298999997l59.20025826-248.39976311a20.40032387 20.40032387 0 0 0-7.6003933-21.20060921l-11.59950256-6.39996528a19.99940872 19.99940872 0 0 0-22.39949226 0L517.35710698 143.52120780999996 298.55708675 10.320047380000005a19.99940872 19.99940872 0 0 0-22.40026474 0l-8.80004883 5.99982262a20.40032387 20.40032387 0 0 0-7.59962082 21.19983672l57.60046006 250.00033379z"  horiz-adv-x="1036" />

    
    </font>
</defs>
</svg>
