<?xml version="1.0" standalone="no"?>
<!DOCTYPE svg PUBLIC "-//W3C//DTD SVG 1.1//EN" "http://www.w3.org/Graphics/SVG/1.1/DTD/svg11.dtd" >
<!--
2013-9-30: Created.
-->
<svg>
<metadata>
Created by iconfont
</metadata>
<defs>

<font id="iconfont" horiz-adv-x="1024" >
  <font-face
    font-family="iconfont"
    font-weight="500"
    font-stretch="normal"
    units-per-em="1024"
    ascent="896"
    descent="-128"
  />
    <missing-glyph />
    
    <glyph glyph-name="camera" unicode="&#59585;" d="M718.41 635L659 737.95a30 30 0 0 1-26.61 15H391.64a30 30 0 0 1-27.42-18.67L306.92 635H172a30 30 0 0 1-30-30v-560a30 30 0 0 1 30-30h680a30 30 0 0 1 30 30V605a30 30 0 0 1-30 30zM822 75H202V575h139.56l34.65 60 33.43 58h206.05l33.44-58 34.64-60H822zM512 536.32c-110.46 0-200-89.54-200-200s89.54-200 200-200 200 89.54 200 200-89.54 200-200 200z m0.67-340a140 140 0 1 0 140 140 140 140 0 0 0-140-140z"  horiz-adv-x="1024" />

    
    <glyph glyph-name="arrow-up" unicode="&#59586;" d="M554.4 447.9l-21.2 21.2c-11.7 11.7-30.7 11.7-42.4 0l-21.2-21.2-318.8-318.8c-11.7-11.7-11.7-30.7 0-42.4s30.7-11.7 42.4 0L512 405.5l318.8-318.8c11.7-11.7 30.7-11.7 42.4 0s11.7 30.7 0 42.4L554.4 447.9z m-403.6-149c11.7-11.7 30.7-11.7 42.4 0L512 617.6l318.8-318.8c11.7-11.7 30.7-11.7 42.4 0s11.7 30.7 0 42.4L554.4 660.1l-21.2 21.2c-11.7 11.7-30.7 11.7-42.4 0l-21.2-21.2-318.8-318.8c-11.7-11.7-11.7-30.7 0-42.4z"  horiz-adv-x="1024" />

    
    <glyph glyph-name="back" unicode="&#59587;" d="M883.75 45.81c-1.84 23.75-4.2 52.23-4.74 54.85-10.9 53.38-6.56 39.13-27.23 97.91A711.7 711.7 0 0 1 815.24 284q-11.36 22.43-24.18 43.9c-9.89 16.54-20.39 32.57-31.41 47.93-38.75 53.95-83.95 99.26-131.12 131.49q-3.22 2.2-6.45 4.34c-56.34 36.93-114.67 55.66-173.37 55.66V724.44c0 28-35 40.74-53 19.28l-7-8.36-141-168.05-50.35-60-50.18-59.8a31.93 31.93 0 0 1 0-39.9L214 328l50.34-60 124.37-148.24 7-8.36c18-21.46 53-8.73 53 19.28V268c156.66 0 340-99.45 373.16-231.54A30.12 30.12 0 0 1 851 13.5h2.82a30 30 0 0 1 29.93 32.31zM767.64 200.25A492.72 492.72 0 0 1 673.73 268c-69.76 38.75-147.82 60-225 60h-30a30 30 0 0 1-30-30v-84.88l-46 54.88-50.35 60-83.55 99.57 66.92 79.75 50.34 60L388.71 642v-104.69a30 30 0 0 1 30-30h30c90.65 0 186.22-60.68 262.2-166.49q4.56-6.35 9-12.83A640.29 640.29 0 0 0 756 268a655.63 655.63 0 0 0 42.31-98.49q-14.52 15.89-30.67 30.74z"  horiz-adv-x="1024" />

    
    <glyph glyph-name="camera-fill" unicode="&#59588;" d="M852 635H718.41L659 737.95a30 30 0 0 1-26.61 15H391.64a30 30 0 0 1-27.42-18.67L306.92 635H172a30 30 0 0 1-30-30v-560a30 30 0 0 1 30-30h680a30 30 0 0 1 30 30V605a30 30 0 0 1-30 30zM512 136.32c-110.46 0-200 89.54-200 200s89.54 200 200 200 200-89.54 200-200-89.54-200-200-200z"  horiz-adv-x="1024" />

    
    <glyph glyph-name="care-right" unicode="&#59589;" d="M688.75 405.28c-0.53 0.52-1.08 1-1.63 1.5L386.47 707.43l-8.85 8.85a30 30 0 0 1-42.43 0 29.89 29.89 0 0 1-8.72-19.3V71a29.89 29.89 0 0 1 8.72-19.3 30 30 0 0 1 42.43 0l8.85 8.85 300.65 300.67c0.55 0.48 1.1 1 1.63 1.5a30.17 30.17 0 0 1 0 42.56z"  horiz-adv-x="1024" />

    
    <glyph glyph-name="arrow-right" unicode="&#59590;" d="M597.1 362.8c11.7 11.7 11.7 30.7 0 42.4l-21.2 21.2-318.8 318.8c-11.7 11.7-30.7 11.7-42.4 0s-11.7-30.7 0-42.4L533.5 384 214.7 65.2c-11.7-11.7-11.7-30.7 0-42.4s30.7-11.7 42.4 0l318.8 318.8 21.2 21.2z m212.2 42.4l-21.2 21.2-318.8 318.8c-11.7 11.7-30.7 11.7-42.4 0s-11.7-30.7 0-42.4L745.6 384 426.9 65.2c-11.7-11.7-11.7-30.7 0-42.4s30.7-11.7 42.4 0l318.8 318.8 21.2 21.2c11.7 11.7 11.7 30.7 0 42.4z"  horiz-adv-x="1024" />

    
    <glyph glyph-name="attachment" unicode="&#59591;" d="M829.93 377.43a30 30 0 0 1-42.43 0L533.59 123.52l0.14-0.14a169.95 169.95 0 0 0-239.15 1.23c-62.11 62.12-66 160.74-11.71 227.45l309.74 309.73-0.17 0.16a110 110 0 0 0 155.31-155.77l-0.07 0.07-294.79-294.79a50 50 0 0 0-70.54 70.88h-0.05l250.13 250.17a30 30 0 0 1 0 42.42 30 30 0 0 1-42.43 0L338.59 323.52l0.06-0.06a110 110 0 0 1 156.5-154.59l0.33 0.33 293.87 293.87 0.08-0.08A170 170 0 1 1 549 703.4l0.18-0.17-296.4-296.4-14.32-14.33A228 228 0 0 1 185 254.13c-0.13-3.09-0.21-6.2-0.21-9.31a228.53 228.53 0 0 1 67.42-162.63 232.38 232.38 0 0 1 39.63-31.82 227.23 227.23 0 0 1 58.43-26.43 230.4 230.4 0 0 1 227.21 58.25l-0.16 0.16L829.93 335a30 30 0 0 1 0 42.43z"  horiz-adv-x="1024" />

    
    <glyph glyph-name="circle-plus-fill" unicode="&#59592;" d="M512 754c-204.35 0-370-165.65-370-370s165.65-370 370-370 370 165.65 370 370-165.65 370-370 370z m175-370a30 30 0 0 0-30-30H542v-115a30 30 0 0 0-30-30 30 30 0 0 0-30 30V354H367a30 30 0 0 0-30 30 30 30 0 0 0 30 30h115V529a30 30 0 0 0 30 30 30 30 0 0 0 30-30v-115h115a30 30 0 0 0 30-30z"  horiz-adv-x="1024" />

    
    <glyph glyph-name="check" unicode="&#59593;" d="M862.12 631.62a30 30 0 0 1-42.43 0L388.13 200 204.31 383.87a30 30 0 0 1-42.43 0 30 30 0 0 1 0-42.42L367 136.38a30 30 0 0 1 42.42 0c0.38 0.38 0.75 0.77 1.1 1.16l451.6 451.65a30 30 0 0 1 0 42.43z"  horiz-adv-x="1024" />

    
    <glyph glyph-name="circle-plus" unicode="&#59594;" d="M512 754c-204.35 0-370-165.65-370-370s165.65-370 370-370 370 165.65 370 370-165.65 370-370 370z m321-370c0-176.73-143.27-320-320-320S193 207.27 193 384s143.27 320 320 320 320-143.27 320-320z m-176 30H542V529a30 30 0 0 1-30 30 30 30 0 0 1-30-30v-115H367a30 30 0 0 1-30-30 30 30 0 0 1 30-30h115v-115a30 30 0 0 1 30-30 30 30 0 0 1 30 30V354h115a30 30 0 0 1 30 30 30 30 0 0 1-30 30z"  horiz-adv-x="1024" />

    
    <glyph glyph-name="d-left" unicode="&#59595;" d="M533.2 22.8c11.7 11.7 11.7 30.7 0 42.4L244.4 354H852c16.6 0 30 13.4 30 30s-13.4 30-30 30H244.4l288.8 288.8c11.7 11.7 11.7 30.7 0 42.4s-30.7 11.7-42.4 0L172 426.4l-21.2-21.2c-11.7-11.7-11.7-30.7 0-42.4l21.2-21.2 318.8-318.8c11.7-11.7 30.7-11.7 42.4 0z"  horiz-adv-x="1024" />

    
    <glyph glyph-name="checkbox-fill" unicode="&#59596;" d="M852 754H172a30 30 0 0 1-30-30v-680a30 30 0 0 1 30-30h680a30 30 0 0 1 30 30V724a30 30 0 0 1-30 30zM740.24 518.35L429.16 207.21a35.2 35.2 0 0 0-46.37 0.07l-99 99a30 30 0 0 0 42.42 42.43L406 268.92l291.82 291.85a30 30 0 0 0 42.42-42.42z"  horiz-adv-x="1024" />

    
    <glyph glyph-name="collapse" unicode="&#59597;" d="M852 704H172a30 30 0 0 1-30-30v-580a30 30 0 0 1 30-30h680a30 30 0 0 1 30 30V674a30 30 0 0 1-30 30z m-630-50h580a30 30 0 0 0 30-30v-86.5H192V624a30 30 0 0 0 30 30z m580-540H222a30 30 0 0 0-30 30V477.5h640V144a30 30 0 0 0-30-30zM649.57 554.07a30 30 0 0 1 42.43 0l22 22 22-22a30 30 0 0 1 42.43 0 30 30 0 0 1 0 42.43L736 638.93a32 32 0 0 1-44 0l-42.43-42.43a30 30 0 0 1 0-42.43z"  horiz-adv-x="1024" />

    
    <glyph glyph-name="checkbox" unicode="&#59598;" d="M852 754H172a30 30 0 0 1-30-30v-680a30 30 0 0 1 30-30h680a30 30 0 0 1 30 30V724a30 30 0 0 1-30 30z m-20-660a30 30 0 0 0-30-30H222a30 30 0 0 0-30 30V674a30 30 0 0 0 30 30h580a30 30 0 0 0 30-30z m-91.76 466.77a30 30 0 0 1-42.42 0L406 268.92l-79.79 79.79a30 30 0 0 1-42.42 0 30 30 0 0 1 0-42.43l99-99a35.19 35.19 0 0 1 46.37-0.07l311.08 311.14a30 30 0 0 1 0 42.42z"  horiz-adv-x="1024" />

    
    <glyph glyph-name="arrow-left" unicode="&#59599;" d="M809.3 65.2L490.5 384l318.8 318.8c11.7 11.7 11.7 30.7 0 42.4s-30.7 11.7-42.4 0L448.1 426.4l-21.2-21.2c-11.7-11.7-11.7-30.7 0-42.4l21.2-21.2 318.8-318.8c11.7-11.7 30.7-11.7 42.4 0s11.7 30.7 0 42.4zM278.4 384l318.8 318.8c11.7 11.7 11.7 30.7 0 42.4s-30.7 11.7-42.4 0L235.9 426.4l-21.2-21.2c-11.7-11.7-11.7-30.7 0-42.4l21.2-21.2 318.8-318.8c11.7-11.7 30.7-11.7 42.4 0s11.7 30.7 0 42.4L278.4 384z"  horiz-adv-x="1024" />

    
    <glyph glyph-name="d-top-left" unicode="&#59600;" d="M782.4 624.4c0-16.5-13.4-30-30-30H344l429.7-429.7c11.7-11.7 11.7-30.7 0-42.4s-30.7-11.7-42.4 0L301.5 552v-408.4c0-16.5-13.4-30-30-30-16.5 0-30 13.4-30 30V624.5c0 16.5 13.4 30 30 30h480.9c16.5-0.1 30-13.5 30-30.1z"  horiz-adv-x="1024" />

    
    <glyph glyph-name="down" unicode="&#59601;" d="M512 256.4L193.2 575.2c-11.7 11.7-30.7 11.7-42.4 0s-11.7-30.7 0-42.4L469.6 214l21.2-21.2c11.7-11.7 30.7-11.7 42.4 0l21.2 21.2 318.8 318.8c11.7 11.7 11.7 30.7 0 42.4s-30.7 11.7-42.4 0L512 256.4z"  horiz-adv-x="1024" />

    
    <glyph glyph-name="d-bottom-left" unicode="&#59602;" d="M782.4 143.6c0 16.5-13.4 30-30 30H344l429.7 429.7c11.7 11.7 11.7 30.7 0 42.4s-30.7 11.7-42.4 0L301.5 216V624.4c0 16.5-13.4 30-30 30-16.5 0-30-13.4-30-30v-480.9c0-16.5 13.4-30 30-30h480.9c16.5 0.1 30 13.5 30 30.1z"  horiz-adv-x="1024" />

    
    <glyph glyph-name="email-fill" unicode="&#59603;" d="M852 704H172c-16.568 0-30-13.432-30-30v-580c0-16.568 13.432-30 30-30h680c16.568 0 30 13.432 30 30V674c0 16.568-13.432 30-30 30z m-50.967-137.563l-267.641-267.64c-5.905-5.908-13.664-8.832-21.407-8.783-7.732-0.041-15.479 2.884-21.378 8.783l-267.64 267.641c-11.716 11.715-11.716 30.71 0 42.426 11.715 11.715 30.711 11.715 42.426 0L512 362.256l246.607 246.608c11.715 11.715 30.711 11.715 42.426 0 11.715-11.716 11.715-30.711 0-42.427z"  horiz-adv-x="1024" />

    
    <glyph glyph-name="code-open" unicode="&#59604;" d="M434.2 123.7L530.8 655c3 16.3 18.6 27.1 34.9 24.1 16.3-3 27.1-18.6 24.1-34.9L493.2 113c-3-16.3-18.6-27.1-34.9-24.1-16.3 2.9-27.1 18.5-24.1 34.8zM215 384.5l183.3 183.3c11.7 11.7 11.7 30.7 0 42.4s-30.7 11.7-42.4 0l-205.1-205c-11.7-11.7-11.7-30.7 0-42.4 1.6-1.6 3.3-3 5.2-4.2l200.8-200.8c11.7-11.7 30.7-11.7 42.4 0s11.7 30.7 0 42.4L215 384.5z m658.2 20.7l-205 205c-11.7 11.7-30.7 11.7-42.4 0s-11.7-30.7 0-42.4L809 384.5 624.7 200.2c-11.7-11.7-11.7-30.7 0-42.4s30.7-11.7 42.4 0L868 358.6c1.9 1.2 3.6 2.6 5.2 4.2 11.7 11.7 11.7 30.7 0 42.4z"  horiz-adv-x="1024" />

    
    <glyph glyph-name="arrow-down" unicode="&#59605;" d="M469.6 320.1l21.2-21.2c11.7-11.7 30.7-11.7 42.4 0l21.2 21.2 318.8 318.8c11.7 11.7 11.7 30.7 0 42.4s-30.7 11.7-42.4 0L512 362.5 193.2 681.3c-11.7 11.7-30.7 11.7-42.4 0s-11.7-30.7 0-42.4l318.8-318.8z m403.6 149c-11.7 11.7-30.7 11.7-42.4 0L512 150.4 193.2 469.1c-11.7 11.7-30.7 11.7-42.4 0s-11.7-30.7 0-42.4l318.8-318.8 21.2-21.2c11.7-11.7 30.7-11.7 42.4 0l21.2 21.2 318.8 318.8c11.7 11.7 11.7 30.7 0 42.4z"  horiz-adv-x="1024" />

    
    <glyph glyph-name="edit-outline" unicode="&#59606;" d="M361.5 473.3l-0.1-0.2-0.7-0.5 0.3-0.4-102-218.7 240.3 21 0.4-0.6L868.4 532 729.3 730.7 361.5 473.3z m355.3 168.2l61.2-87.4-318.3-222.9 0.3-0.4-106-9.3 45.5 97.5-0.1 0.1 317.4 222.4z m58.8-514.2c0-16.6-13.4-30-30-30h-500c-16.6 0-30 13.4-30 30v460c0 16.6 13.4 30 30 30h213.9l85.7 60H185.6c-16.6 0-30-13.4-30-30v-580c0-16.6 13.4-30 30-30h620c16.6 0 30 13.4 30 30V438.1l-60-42v-268.8z"  horiz-adv-x="1024" />

    
    <glyph glyph-name="email-open" unicode="&#59607;" d="M881.1 461.16a30 30 0 0 1-14.23 32.71L572 664.11l-45 26a30 30 0 0 1-30 0l-45-26-294.87-170.24a30 30 0 0 1-14.23-32.72 29.89 29.89 0 0 1-0.9-7.26v-350a30 30 0 0 1 30-30h680a30 30 0 0 1 30 30v350a30 30 0 0 1-0.9 7.27z m-117.32 22.73L512 338.53 260.22 483.89h-0.37L512 629.47l252.15-145.58z"  horiz-adv-x="1024" />

    
    <glyph glyph-name="button" unicode="&#59608;" d="M852 624H172a30 30 0 0 1-30-30v-420a30 30 0 0 1 30-30h680a30 30 0 0 1 30 30V594a30 30 0 0 1-30 30z m-30-420H202V564h620zM292 504h440q30 0 30-30v-180q0-30-30-30H292q-30 0-30 30V474q0 30 30 30z"  horiz-adv-x="1024" />

    
    <glyph glyph-name="care-up" unicode="&#59609;" d="M490.72 560.75c-0.52-0.53-1-1.08-1.5-1.63L188.57 258.47l-8.85-8.85a30 30 0 0 1 0-42.43 29.89 29.89 0 0 1 19.3-8.72H825a29.89 29.89 0 0 1 19.3 8.72 30 30 0 0 1 0 42.43l-8.85 8.85-300.67 300.65c-0.48 0.55-1 1.1-1.5 1.63a30.17 30.17 0 0 1-42.56 0z"  horiz-adv-x="1024" />

    
    <glyph glyph-name="edit" unicode="&#59610;" d="M852 98.3H172c-16.6 0-30-13.4-30-30s13.4-30 30-30h680c16.6 0 30 13.4 30 30s-13.4 30-30 30z m40 412.3L747.6 716.9c-9.5 13.6-28.2 16.9-41.8 7.4L239.2 397.6v0.1l-0.1-0.1-0.2-0.2 0.1-0.1-109.6-235c-7-15-0.5-32.9 14.5-39.9 4.8-2.2 10-3.2 15.3-2.7l258.3 22.6 0.2-0.3 466.9 326.9c13.6 9.5 16.9 28.2 7.4 41.7zM205.7 183.9l43.9 94.2 59.6-85.1-103.5-9.1z m177.9 7.4l-110 157.1 441.2 308.9 110-157.1-441.2-308.9z"  horiz-adv-x="1024" />

    
    <glyph glyph-name="delete" unicode="&#59611;" d="M852 634H677v90a29.85 29.85 0 0 1-3.62 14.3 30.18 30.18 0 0 1-2.34 3.65q-0.87 1.16-1.83 2.22t-2 2q-1.06 1-2.22 1.83a30.18 30.18 0 0 1-3.65 2.34A29.85 29.85 0 0 1 647 754H377a30 30 0 0 1-30-30v-90H172a30 30 0 0 1-30-30 30 30 0 0 1 30-30h680a30 30 0 0 1 30 30 30 30 0 0 1-30 30z m-235 0H407v60h210zM437 514q30 0 30-30v-190q0-30-30-30t-30 30V484q0 30 30 30z m295 0a30 30 0 0 1-30-30v-410H322V484a30 30 0 0 1-30 30 30 30 0 0 1-30-30v-440a29.85 29.85 0 0 1 3.62-14.3A30.18 30.18 0 0 1 268 26q0.87-1.15 1.83-2.22t2-2q1.07-1 2.22-1.83a30.18 30.18 0 0 1 3.65-2.34A29.85 29.85 0 0 1 292 14h440a30 30 0 0 1 30 30V484a30 30 0 0 1-30 30z m-145 0q30 0 30-30v-190q0-30-30-30t-30 30V484q0 30 30 30z"  horiz-adv-x="1024" />

    
    <glyph glyph-name="card" unicode="&#59612;" d="M852 704H172a30 30 0 0 1-30-30v-580a30 30 0 0 1 30-30h680a30 30 0 0 1 30 30V674a30 30 0 0 1-30 30z m-630-50h580a30 30 0 0 0 30-30v-86.5H192V624a30 30 0 0 0 30 30z m580-540H222a30 30 0 0 0-30 30V477.5h640V144a30 30 0 0 0-30-30z"  horiz-adv-x="1024" />

    
    <glyph glyph-name="close" unicode="&#59613;" d="M708.58 623L512 426.43 315.42 623c-16.4 16.4-39.19 20.2-50.91 8.49-11.71-11.72-7.91-34.49 8.49-50.91L469.57 384 273 187.42c-16.4-16.4-20.2-39.19-8.49-50.91 11.72-11.71 34.49-7.91 50.91 8.49L512 341.57 708.58 145c16.4-16.4 39.19-20.2 50.91-8.49 11.71 11.72 7.91 34.49-8.49 50.91L554.43 384 751 580.58c16.4 16.4 20.2 39.19 8.49 50.91-11.72 11.71-34.49 7.91-50.91-8.49z"  horiz-adv-x="1024" />

    
    <glyph glyph-name="filter" unicode="&#59614;" d="M882 713.9c0.1 10.5-5.3 20.7-15 26.3-6.3 3.7-13.5 4.7-20.1 3.6H175.4c-5.8 0.6-11.8-0.5-17.3-3.5l-0.6-0.3s-0.1 0-0.1-0.1h-0.1c-9.1-5.2-15.2-14.9-15.2-26.1 0-7 2.4-13.5 6.5-18.6L342 360v-306.1c0-23.1 25-37.5 45-26l15 8.7 220 127 60 34.6V359.8l194 335.9c3.7 4.9 5.9 11 6 17.5v0.7zM682 479.8l-60-103.9v-143l-220-127V376l-60 104-117.7 203.8h575.4L682 479.8z"  horiz-adv-x="1024" />

    
    <glyph glyph-name="date" unicode="&#59615;" d="M852 704H695v27a30 30 0 0 1-30 30 30 30 0 0 1-30-30v-27H389v27a30 30 0 0 1-30 30 30 30 0 0 1-30-30v-27H172a30 30 0 0 1-30-30v-580a30 30 0 0 1 30-30h680a30 30 0 0 1 30 30V674a30 30 0 0 1-30 30z m-660-80a30 30 0 0 0 30 30h107v-23a30 30 0 0 1 30-30 30 30 0 0 1 30 30v23h246v-23a30 30 0 0 1 30-30 30 30 0 0 1 30 30v23h107a30 30 0 0 0 30-30v-86.5H192z m640-480a30 30 0 0 0-30-30H222a30 30 0 0 0-30 30V477.5h640zM269 405h30q30 0 30-30t-30-30h-30q-30 0-30 30t30 30z m228 0h30q30 0 30-30t-30-30h-30q-30 0-30 30t30 30z m228 0h30q30 0 30-30t-30-30h-30q-30 0-30 30t30 30zM271 284h30q30 0 30-30t-30-30h-30q-30 0-30 30t30 30z m228 0h30q30 0 30-30t-30-30h-30q-30 0-30 30t30 30z m228 0h30q30 0 30-30t-30-30h-30q-30 0-30 30t30 30z"  horiz-adv-x="1024" />

    
    <glyph glyph-name="care-left" unicode="&#59616;" d="M335.25 362.72c0.53-0.52 1.08-1 1.63-1.5l300.65-300.65 8.85-8.85a30 30 0 0 1 42.43 0 29.89 29.89 0 0 1 8.72 19.3V697a29.89 29.89 0 0 1-8.72 19.3 30 30 0 0 1-42.43 0l-8.85-8.85-300.65-300.67c-0.55-0.48-1.1-1-1.63-1.5a30.17 30.17 0 0 1 0-42.56z"  horiz-adv-x="1024" />

    
    <glyph glyph-name="eye-close" unicode="&#59617;" d="M865.33 541a30 30 0 0 1-42 0.45C706.2 429.2 606.77 376.74 512 376.74S317.8 429.2 200.64 541.42a30 30 0 0 1-42-0.45 30 30 0 0 1 0.48-42.9c43.56-41.74 84.71-75.57 124.43-102.29L249 335.93a30 30 0 0 1 11-41 30 30 0 0 1 41 11l34 58.83c50.1-26.76 98.54-42.15 147-46.63v-69.88a30 30 0 0 1 30-30 30 30 0 0 1 30 30v69.88c46.66 4.31 93.29 18.72 141.45 43.68L718 301.93a30 30 0 0 1 41-11 30 30 0 0 1 11 41l-34.84 60.34c41.36 27.24 84.22 62.21 129.71 105.8a30 30 0 0 1 0.46 42.93z"  horiz-adv-x="1024" />

    
    <glyph glyph-name="d-bottom-right" unicode="&#59618;" d="M241.6 143.6c0 16.5 13.4 30 30 30H680L250.4 603.2c-11.7 11.7-11.7 30.7 0 42.4s30.7 11.7 42.4 0L722.5 216V624.4c0 16.5 13.4 30 30 30 16.5 0 30-13.4 30-30v-480.9c0-16.5-13.4-30-30-30H271.6c-16.5 0.1-30 13.5-30 30.1z"  horiz-adv-x="1024" />

    
    <glyph glyph-name="affix" unicode="&#59619;" d="M699.9 233.41l153.75 153.71a29.49 29.49 0 0 1 0.09 41.71c-0.56 0.56-1.15 1.11-1.76 1.63-70.88 60.81-168.23 81.54-257.63 55.71l-160.8 125.72a161.92 161.92 0 0 1-46.73 132.38 29.56 29.56 0 0 1-41.78 0l-188.8-188.8a29.55 29.55 0 0 1 0-41.79 161.77 161.77 0 0 1 132.38-46.73l121.19-155c-32.25-92.47-12.94-197.58 51.24-272.38a29.56 29.56 0 0 1 41.67-3.21c0.57 0.5 1.13 1 1.67 1.55L658.1 191.63 826 23.71a29.54 29.54 0 0 1 41.76 41.8l-167.9 167.9z"  horiz-adv-x="1024" />

    
    <glyph glyph-name="cloud-upload" unicode="&#59620;" d="M760.8 486c-12.4 126.6-119 225.4-248.8 225.4S275.6 612.6 263.2 486c-94-32.4-143.9-134.9-111.5-228.9 21.5-62.2 75.2-107.8 140.1-118.8v0.3h70c16.6 0 30 13.4 30 30v1c0 16.6-13.4 30-30 30h-70c-64.2 16.4-102.9 81.8-86.5 146C219 398.9 267 436.1 322 435.9h1.7c-2.7 19.9-2.2 40.2 1.4 60 16.2 88.5 93.7 155.6 186.9 155.6s170.7-67.1 186.9-155.6c3.6-19.8 4.1-40.1 1.4-60h1.7c66.3 0.1 120.1-53.5 120.2-119.8 0.1-56.1-38.7-104.8-93.3-117.2h-70c-16.6 0-30-13.4-30-30v-1c0-16.6 13.4-30 30-30h70c98.3 14.8 166 106.5 151.1 204.8-10 66.2-55.9 121.4-119.2 143.3z m-93.2-132.6L533.2 487.8c-0.3 0.4-0.7 0.7-1.1 1l-0.5 0.5-0.6 0.5c-0.2 0.2-0.5 0.4-0.7 0.5l-0.5 0.3c-0.3 0.2-0.5 0.4-0.8 0.6l-0.4 0.3c-0.3 0.2-0.5 0.4-0.8 0.5l-0.4 0.3-0.7 0.4-0.1 0.1-0.5 0.3-0.8 0.4-0.5 0.3-0.2 0.1-0.5 0.2-0.6 0.3-0.2 0.1-0.5 0.2-0.8 0.3-0.6 0.2-0.8 0.3h-0.1l-0.4 0.1-0.9 0.3h-0.1l-0.4 0.1-1 0.2-0.5 0.1c-0.3 0.1-0.6 0.1-0.9 0.2l-0.6 0.1-0.9 0.1-0.8 0.1h-4.4l-0.8-0.1-0.9-0.1-0.6-0.1c-0.3 0-0.6-0.1-0.9-0.2l-0.5-0.1-1-0.2-0.4-0.1-0.9-0.3-0.5-0.1-0.8-0.3-0.6-0.2-0.7-0.3-0.6-0.3-0.6-0.3-0.7-0.3-0.5-0.3-0.8-0.4-0.5-0.3-0.8-0.5-0.4-0.3c-0.3-0.2-0.5-0.3-0.8-0.5l-0.4-0.3c-0.3-0.2-0.5-0.4-0.8-0.6l-0.5-0.3-0.7-0.5-0.6-0.5-0.5-0.5c-0.4-0.3-0.7-0.7-1-1L356.4 353.5c-11.7-11.7-11.7-30.7 0-42.4s30.7-11.7 42.4 0l83.1 83.1v-256.3h60V394.2L625 311c11.7-11.7 30.7-11.7 42.4 0 11.9 11.7 11.9 30.7 0.2 42.4z"  horiz-adv-x="1024" />

    
    <glyph glyph-name="d-right" unicode="&#59621;" d="M490.8 745.2c-11.7-11.7-11.7-30.7 0-42.4L779.6 414H172c-16.6 0-30-13.4-30-30s13.4-30 30-30h607.6L490.8 65.2c-11.7-11.7-11.7-30.7 0-42.4s30.7-11.7 42.4 0L852 341.6l21.2 21.2c11.7 11.7 11.7 30.7 0 42.4L852 426.4 533.2 745.2c-11.7 11.7-30.7 11.7-42.4 0z"  horiz-adv-x="1024" />

    
    <glyph glyph-name="filter1" unicode="&#59622;" d="M616.52 733H200.83a30 30 0 0 1-26-45l131.39-227.55V115a30 30 0 0 1 30-30 30 30 0 0 1 30 30V476.56l-4.87 8.44-108.54 188h311.77L456 485l-4.81-8.34V65a30 30 0 0 1 30-30 30 30 0 0 1 30 30V460.62L642.5 688a30 30 0 0 1-25.98 45z m-23.3-270a30 30 0 0 1 30-30h200a30 30 0 0 1 0 60h-200a30 30 0 0 1-30-30z m230-114h-200a30 30 0 0 1 0-60h200a30 30 0 0 1 0 60z m0-144h-200a30 30 0 0 1 0-60h200a30 30 0 0 1 0 60z"  horiz-adv-x="1024" />

    
    <glyph glyph-name="folder-open" unicode="&#59623;" d="M865.3 508.1c-1.6 0.7-3.4 1.2-5.1 1.5-1.3 0.2-2.6 0.4-4 0.4H766v62c0 16.6-11.3 30-25.3 30H419l-70.2 83.2c-5.1 6.1-12.1 9.2-19.4 8.7-0.7 0.1-1.3 0.1-1.9 0.1H167.2c-14 0-25.3-13.4-25.3-30v-560c0-16.6 11.3-30 25.3-30h573.5c0.9 0 1.9 0.1 2.8 0.2 9.8 1 18.2 8.7 21.5 19.6l115.4 375.9c4.8 15.5-2 32.8-15.1 38.4zM192.6 634h127.8l70.2-83.2c5.7-6.7 13.7-9.8 21.6-8.5 1.3-0.2 2.6-0.4 4-0.4h299.4v-32H282.9c-12.1 0-22.6-10.3-24.9-24.5l-65.4-213V634z m531-500H203.9l97 316h519.7l-97-316z"  horiz-adv-x="1024" />

    
    <glyph glyph-name="file-copy" unicode="&#59624;" d="M473.7 626.8c-6.1 5.3-14.1 7.9-22.1 7.2H232c-16.6 0-30-13.4-30-30v-560c0-16.6 13.4-30 30-30h440c16.6 0 30 13.4 30 30V414c-0.9 10.1-5.3 19.5-12.5 26.6L473.7 626.8z m8.3-86.4L593.7 444H482v96.4zM642 74H262V574h160v-160c0-16.6 13.4-30 30-30h190v-310z m177.9 411c-0.7 7.7-4.4 14.8-10.2 19.8L529.6 746.6c-6.1 5.3-14 7.8-22 7.2-1.2 0.1-2.4 0.2-3.6 0.2H292c-16.6 0-30-13.4-30-30s13.4-30 30-30h206.7L762 466.7V104c0-16.6 13.4-30 30-30s30 13.4 30 30V474c0 3.8-0.7 7.5-2.1 11z"  horiz-adv-x="1024" />

    
    <glyph glyph-name="d-top-right" unicode="&#59625;" d="M241.6 624.4c0-16.5 13.4-30 30-30H680L250.4 164.8c-11.7-11.7-11.7-30.7 0-42.4s30.7-11.7 42.4 0L722.5 552v-408.4c0-16.5 13.4-30 30-30 16.5 0 30 13.4 30 30V624.5c0 16.5-13.4 30-30 30H271.6c-16.5-0.1-30-13.5-30-30.1z"  horiz-adv-x="1024" />

    
    <glyph glyph-name="filter-fill" unicode="&#59626;" d="M882 713.92c0.09 10.46-5.29 20.66-15 26.27a29.873 29.873 0 0 1-20.15 3.57H175.36c-5.81 0.6-11.85-0.48-17.35-3.46-0.21-0.11-0.42-0.23-0.63-0.34-0.03-0.02-0.06-0.03-0.09-0.05-0.03-0.02-0.05-0.03-0.08-0.05-9.08-5.16-15.21-14.91-15.21-26.1 0-7.04 2.43-13.51 6.5-18.63L342 359.96v-306.12c0-23.09 25-37.53 45-25.98l15 8.66 220 127.02 60 34.64V359.75L875.96 695.7a29.87 29.87 0 0 1 6.03 17.54c0 0.11 0.01 0.22 0.01 0.33v0.35z"  horiz-adv-x="1024" />

    
    <glyph glyph-name="form" unicode="&#59627;" d="M202 724v-680a30 30 0 0 1 30-30h560a30 30 0 0 1 30 30V724a30 30 0 0 1-30 30H232a30 30 0 0 1-30-30z m530-650H292a30 30 0 0 0-30 30V664a30 30 0 0 0 30 30h440a30 30 0 0 0 30-30v-560a30 30 0 0 0-30-30zM352 582.5h320q30 0 30-30t-30-30H352q-30 0-30 30t30 30z m0-172h320q30 0 30-30t-30-30H352q-30 0-30 30t30 30z m0-165h320q30 0 30-30t-30-30H352q-30 0-30 30t30 30z"  horiz-adv-x="1024" />

    
    <glyph glyph-name="code-close" unicode="&#59628;" d="M215 384.5l183.3 183.3c11.7 11.7 11.7 30.7 0 42.4s-30.7 11.7-42.4 0l-205.1-205c-11.7-11.7-11.7-30.7 0-42.4 1.6-1.6 3.3-3 5.2-4.2l200.8-200.8c11.7-11.7 30.7-11.7 42.4 0s11.7 30.7 0 42.4L215 384.5z m658.2 20.7l-205 205c-11.7 11.7-30.7 11.7-42.4 0s-11.7-30.7 0-42.4L809 384.5 624.7 200.2c-11.7-11.7-11.7-30.7 0-42.4s30.7-11.7 42.4 0L868 358.6c1.9 1.2 3.6 2.6 5.2 4.2 11.7 11.7 11.7 30.7 0 42.4z"  horiz-adv-x="1024" />

    
    <glyph glyph-name="folder" unicode="&#59629;" d="M852 602H470.4l-83.2 83.2c-6.1 6.1-14.4 9.2-23 8.7-0.8 0.1-1.5 0.1-2.3 0.1H172c-16.6 0-30-13.4-30-30v-560c0-16.6 13.4-30 30-30h680c16.6 0 30 13.4 30 30V572c0 16.6-13.4 30-30 30z m-30-468H202V634h151.6l83.2-83.2c6.7-6.7 16.2-9.8 25.6-8.5 1.5-0.2 3.1-0.4 4.6-0.4h355V134z"  horiz-adv-x="1024" />

    
    <glyph glyph-name="file-unknown" unicode="&#59630;" d="M816 492c-1.2 1.7-2.6 3.2-4.2 4.5l-279 249c-5.6 5.4-13.1 8.5-20.8 8.5H232c-16.6 0-30-13.4-30-30v-680c0-16.6 13.4-30 30-30h560c16.6 0 30 13.4 30 30V474c0 6.5-2.1 12.8-6 18zM542 657l171.4-153H542V657z m220-583H262V694h220v-220c0-16.6 13.4-30 30-30h250v-370zM427.1 373.8c-6.7-4.3-12.8-9.6-17.9-15.8-15.5-18.8-4.3-51 17.6-51 10 0 18.7 8.1 21.8 19.7 2.8 10.5 8 18.7 15.7 24.6 12 9.1 26.8 13.7 44.5 13.7s31.3-3.5 40.9-10.5c9.6-7 14.4-17.5 14.4-31.4 0-7.5-2.4-15.3-7.2-23.3-4.8-8-13.6-15.8-26.4-23.3-17.7-10.7-30.1-20.7-37.3-29.8s-10.8-18.5-10.8-28.2v-10.1c0-16.2 10.9-29.4 24.2-29.4 13.7 0 24.8 13.4 24.8 30v4.7c0 6.3 5.2 11.7 12.4 19.3s12.4 14.2 27.2 24c15.4 10.2 26.9 18.9 36.5 30.7s14.4 24.7 14.4 38.6c0 20.4-10 37-30.1 49.9s-47.7 19.3-83 19.3c-32 0-59.2-7.3-81.7-21.7zM512 165c-8.6 0-15.7-2.9-21.4-8.6S482 143.6 482 135s2.9-15.7 8.6-21.4 12.9-8.6 21.4-8.6c8.6 0 15.7 2.8 21.4 8.6 5.7 5.7 8.6 12.9 8.6 21.4s-2.9 15.7-8.6 21.4c-5.6 5.7-13.4 8.8-21.4 8.6z"  horiz-adv-x="1024" />

    
    <glyph glyph-name="home" unicode="&#59631;" d="M873.49 407.94L792 489.43l-60 60L557.43 724l-21.22 21.21a30 30 0 0 1-42.42 0L472.57 724 292 543.43l-60-60-81.49-81.49a30 30 0 0 1 0.61-43c11.87-11.23 30.7-10.53 42.26 1L232 398.57V44a29.85 29.85 0 0 1 3.62-14.3A30.18 30.18 0 0 1 238 26q0.87-1.15 1.83-2.22t2-2q1.06-1 2.22-1.83a30.18 30.18 0 0 1 3.65-2.34A29.85 29.85 0 0 1 262 14h500a30 30 0 0 1 30 30V404.57l39.06-39.06a30 30 0 0 1 42.43 0 30 30 0 0 1 0 42.43zM732 74H292V458.57l223 223 217-217z"  horiz-adv-x="1024" />

    
    <glyph glyph-name="care-down" unicode="&#59632;" d="M533.28 207.25c0.52 0.53 1 1.08 1.5 1.63l300.65 300.65 8.85 8.85a30 30 0 0 1 0 42.43 29.89 29.89 0 0 1-19.3 8.72H199a29.89 29.89 0 0 1-19.3-8.72 30 30 0 0 1 0-42.43l8.85-8.85 300.67-300.65c0.48-0.55 1-1.1 1.5-1.63a30.17 30.17 0 0 1 42.56 0z"  horiz-adv-x="1024" />

    
    <glyph glyph-name="d-down" unicode="&#59633;" d="M876.7 405.2c-11.7 11.7-30.7 11.7-42.4 0L545.5 116.4V724c0 16.6-13.4 30-30 30s-30-13.4-30-30v-607.6L196.7 405.2c-11.7 11.7-30.7 11.7-42.4 0s-11.7-30.7 0-42.4L473.1 44l21.2-21.2c11.7-11.7 30.7-11.7 42.4 0l21.2 21.2 318.8 318.8c11.7 11.7 11.7 30.7 0 42.4z"  horiz-adv-x="1024" />

    
    <glyph glyph-name="heart" unicode="&#59634;" d="M882 505.62a195 195 0 0 1-332.55 138.29l-0.09 0.08-37.44-37.44-37 37A195 195 0 0 1 199 368l270.56-270.66 21.22-21.21a30 30 0 0 1 42.42 0l21.22 21.21L826 368.95a193.67 193.67 0 0 1 56 136.67zM512 139.77L241.61 410.15C189 462.8 189 548.44 241.62 601.08s138.28 52.64 190.92 0l37-37 21.21-21.21a30 30 0 0 1 42.43 0l21.21 21.21 37 37 0.07-0.08c52.64 52.64 138.29 52.64 190.92 0s52.64-138.28 0-190.92z"  horiz-adv-x="1024" />

    
    <glyph glyph-name="hot-fill" unicode="&#59635;" d="M518.1 298.7c-11.5 0-20.8-3.9-27.8-11.8s-10.6-19.8-10.6-35.7c0-15.7 3.6-27.5 10.9-35.6 7.2-8.1 16.4-12.1 27.6-12.1 11.1 0 20.3 4 27.4 12 7.1 8 10.7 20.1 10.7 36.1 0 15.9-3.5 27.7-10.4 35.5-7.1 7.7-16.3 11.6-27.8 11.6z m-49.6 386.1s0 0.1 0.1 0.1c-0.1 0.1-0.1 0-0.1-0.1z m61.6 66.7c0.1-0.1 0.1-0.3 0.2-0.4-1.9 2-3 3.1-3 3.1 4.5-20.7 7.3-40 8.9-58.2-0.1 0.6-0.1 1.2-0.2 1.9 2.2-24 1.8-45.8-0.5-66.1-0.4-3.1-0.7-6.1-1.2-9.1-0.1-0.5-0.2-1-0.2-1.4-14.8-94.5-75.7-150.7-140.5-209.4-16.9 16.3-26.9 39.8-26.9 74.3 0.1 15.7 2.2 33.7 6.6 54.3l-0.1-0.1c0.1 0.3 0.1 0.5 0.1 0.8 0 0-46.2-29.9-84.6-86.2-0.1-0.2-0.3-0.4-0.4-0.6-2.5-3.6-4.9-7.3-7.3-11.2-0.1-0.2-0.2-0.4-0.3-0.5-2.2-3.6-4.3-7.2-6.4-10.9-0.5-0.9-1-1.7-1.4-2.6-2.1-3.8-4.1-7.7-6.1-11.7l-0.3-0.6c-2.1-4.2-4-8.5-5.9-12.7-0.5-1-0.9-2.1-1.3-3.2-1.5-3.6-2.9-7.2-4.3-10.8-0.4-1-0.8-2-1.1-3.1-0.8-2.2-1.5-4.5-2.3-6.7v-0.1c-0.8-2.3-1.5-4.6-2.2-6.9-0.3-0.9-0.5-1.9-0.8-2.9-1.1-3.9-2.2-7.8-3.1-11.8-0.3-1.4-0.7-2.7-1-4.1-1.1-5-2.1-10-3-15.1v-0.1c-0.5-2.8-0.9-5.6-1.2-8.5 0-0.2 0-0.4-0.1-0.6-0.4-2.7-0.7-5.4-0.9-8.2 0-0.3-0.1-0.6-0.1-0.9-0.3-2.7-0.5-5.3-0.6-8 0-0.4 0-0.8-0.1-1.2-0.2-2.6-0.3-5.3-0.4-7.9v-1.4c-0.1-2.6-0.1-5.2-0.1-7.9v-1.6c0-2.6 0.1-5.2 0.2-7.9 0-0.6 0-1.1 0.1-1.7 0.1-2.6 0.3-5.3 0.4-8 0.1-0.6 0.1-1.1 0.1-1.7 0.2-2.7 0.5-5.4 0.7-8.1 0.1-0.6 0.1-1.1 0.2-1.7 0.3-2.8 0.7-5.6 1.1-8.4 0.1-0.5 0.1-1.1 0.2-1.6 0.4-2.9 0.9-5.8 1.4-8.7 0.1-0.5 0.2-0.9 0.2-1.4 0.6-3.1 1.2-6.2 1.8-9.2 0.1-0.3 0.1-0.7 0.2-1 0.7-3.3 1.5-6.6 2.3-9.9 0-0.2 0.1-0.3 0.1-0.5 3.5-14.2 8.1-28.8 14-43.9 3-7.6 6.6-14.4 10.9-20.5 50.1-87.8 191.6-145.3 191.6-145.3-0.3 0.1-21.1 8.6-49.3 23.9 28.3-15.3 49-23.7 49.3-23.9h0.1c2.7 24.6 13.4 41.4 29.3 53.3 0.1 0.1 0.2 0.1 0.3 0.2 3.2 2.4 6.6 4.6 10.2 6.6l0.6 0.3c3.6 2 7.4 3.8 11.4 5.5 0.1 0 0.2 0.1 0.3 0.1 28.3-11.7 48.3-31 52.1-66 0 0 30.9 12.6 68.9 34.9 0 0-0.1-0.1-0.1-0.2 43.4 25.5 96.2 63.7 123 110.6 4.3 6.1 8 12.9 10.9 20.5 85.4 219.2-209.6 539.4-240.4 572zM345 181.9h-27.9V320.3H345v-54.5h54.7v54.5h27.9v-138.4h-27.9v60.5H345v-60.5z m221.9 16.6c-12.1-12.6-28.4-18.9-48.7-18.9-20.6 0-36.9 6.3-49.1 18.8-12.1 12.6-18.2 29.8-18.2 51.9 0 14.1 2.1 25.9 6.3 35.5 3.1 7 7.4 13.4 12.9 19 5.4 5.6 11.4 9.8 17.9 12.5 8.6 3.6 18.6 5.5 29.8 5.5 20.4 0 36.7-6.3 48.9-19 12.2-12.6 18.4-30.2 18.4-52.8 0-22.4-6.1-39.9-18.2-52.5z m140 98.4h-41v-115H638v115h-41v23.4h110v-23.4z"  horiz-adv-x="1024" />

    
    <glyph glyph-name="error" unicode="&#59636;" d="M512 754c-204.35 0-370-165.65-370-370s165.65-370 370-370 370 165.65 370 370-165.65 370-370 370z m321-370c0-176.73-143.27-320-320-320S193 207.27 193 384s143.27 320 320 320 320-143.27 320-320z m-197.26-81.32a30 30 0 0 0 0-42.42 30 30 0 0 0-42.42 0L512 341.57l-81.32-81.31a30 30 0 0 0-42.42 0 30 30 0 0 0 0 42.42L469.57 384l-81.31 81.32a30 30 0 0 0 0 42.42 30 30 0 0 0 42.42 0L512 426.43l81.32 81.31a30 30 0 0 0 42.42 0 30 30 0 0 0 0-42.42L554.43 384z"  horiz-adv-x="1024" />

    
    <glyph glyph-name="grid" unicode="&#59637;" d="M819.57 567.21h-81.52l25.81 146.42a30 30 0 0 1-24.33 34.75A30 30 0 0 1 704.77 724l-27.65-156.79H410.26l25.81 146.42a30 30 0 0 1-24.33 34.75A30 30 0 0 1 377 724l-27.67-156.79h-89.76a30 30 0 0 1-30-30 30 30 0 0 1 30-30h79.18l-40.51-229.74h-93.81a30 30 0 0 1-30-30 30 30 0 0 1 30-30h83.23l-28.76-163.1a30 30 0 0 1 24.34-34.75A30 30 0 0 1 318 44l30.6 173.51h266.85l-28.76-163.1A30 30 0 0 1 611 19.62 30 30 0 0 1 645.78 44l30.6 173.51h88a30 30 0 0 1 30 30 30 30 0 0 1-30 30H687l40.52 229.74h92.1a30 30 0 0 1 30 30 30 30 0 0 1-30.05 29.96zM626 277.47H359.17l40.51 229.74h266.86z"  horiz-adv-x="1024" />

    
    <glyph glyph-name="heart-fill" unicode="&#59638;" d="M882 505.62a195 195 0 0 1-332.55 138.29l-0.09 0.08-37.44-37.44-37 37A195 195 0 0 1 199 368l270.56-270.66 21.22-21.21a30 30 0 0 1 42.42 0l21.22 21.21L826 368.95a193.67 193.67 0 0 1 56 136.67z"  horiz-adv-x="1024" />

    
    <glyph glyph-name="cloud-upload-fill" unicode="&#59639;" d="M760.79 445.4C748.42 571.91 641.76 670.77 512 670.77S275.58 571.91 263.21 445.4A180.06 180.06 0 0 1 142 275.23c0-89.13 64.8-163.13 149.86-177.47V98l367.06-0.8h70a180 180 0 0 1 31.87 348.2z m-93.23-174.28a30 30 0 0 0-42.42 0L542 354.26v-256l-60 0.13V354.26l-83.14-83.14a30 30 0 0 0-42.42 0 30 30 0 0 0 0 42.42L490.79 447.9c0.34 0.34 0.69 0.67 1.05 1l0.54 0.46 0.57 0.49 0.7 0.55 0.45 0.35 0.78 0.56 0.41 0.28 0.82 0.53 0.41 0.26 0.82 0.47 0.47 0.26 0.78 0.4 0.54 0.27 0.73 0.32 0.64 0.28 0.65 0.26 0.74 0.28 0.57 0.19 0.84 0.27 0.51 0.15c0.31 0.08 0.61 0.17 0.92 0.24l0.42 0.1h0.05c0.32 0.08 0.63 0.15 0.95 0.21l0.5 0.09 0.94 0.16 0.57 0.07 0.87 0.11 0.78 0.06h4.34l0.78-0.06 0.87-0.11 0.57-0.07 0.94-0.16 0.5-0.09c0.32-0.06 0.63-0.13 0.95-0.21l0.36-0.08h0.11c0.31-0.07 0.62-0.16 0.92-0.24l0.37-0.1 0.14-0.05c0.28-0.08 0.56-0.18 0.84-0.27l0.57-0.19 0.75-0.28 0.45-0.17 0.19-0.09 0.64-0.28 0.51-0.22 0.21-0.1 0.55-0.27 0.78-0.4 0.47-0.26 0.14-0.08 0.67-0.39 0.42-0.26c0.28-0.17 0.55-0.35 0.82-0.53l0.41-0.28 0.78-0.56 0.45-0.35 0.7-0.54 0.58-0.51 0.53-0.45c0.36-0.33 0.72-0.68 1.07-1l134.37-134.38a30 30 0 0 0 0-42.42z"  horiz-adv-x="1024" />

    
    <glyph glyph-name="download" unicode="&#59640;" d="M852 14H172c-16.6 0-30 13.4-30 30s13.4 30 30 30h680c16.6 0 30-13.4 30-30s-13.4-30-30-30z m21.2 519.2c-11.7 11.7-30.7 11.7-42.4 0L547 249.4V724c0 16.6-13.4 30-30 30s-30-13.4-30-30v-484.6L193.2 533.2c-11.7 11.7-30.7 11.7-42.4 0s-11.7-30.7 0-42.4L469.6 172l21.2-21.2c11.7-11.7 30.7-11.7 42.4 0l21.2 21.2 318.8 318.8c11.7 11.7 11.7 30.7 0 42.4z"  horiz-adv-x="1024" />

    
    <glyph glyph-name="error-fill" unicode="&#59641;" d="M512 754c-204.35 0-370-165.65-370-370s165.65-370 370-370 370 165.65 370 370-165.65 370-370 370z m123.74-451.32a30 30 0 0 0 0-42.42 30 30 0 0 0-42.42 0L512 341.57l-81.32-81.31a30 30 0 0 0-42.42 0 30 30 0 0 0 0 42.42L469.57 384l-81.31 81.32a30 30 0 0 0 0 42.42 30 30 0 0 0 42.42 0L512 426.43l81.32 81.31a30 30 0 0 0 42.42 0 30 30 0 0 0 0-42.42L554.43 384z"  horiz-adv-x="1024" />

    
    <glyph glyph-name="echarts-bar" unicode="&#59642;" d="M852 74H202V724a30 30 0 0 1-30 30 30 30 0 0 1-30-30v-680a29.85 29.85 0 0 1 3.62-14.3A30.18 30.18 0 0 1 148 26q0.87-1.15 1.83-2.22t2-2q1.06-1 2.22-1.83a30.18 30.18 0 0 1 3.65-2.34A29.85 29.85 0 0 1 172 14h680a30 30 0 0 1 30 30 30 30 0 0 1-30 30zM466 505.74q30 0 30-30v-300q0-30-30-30t-30 30v300q0 30 30 30z m-150-100q30 0 30-30v-200q0-30-30-30t-30 30v200q0 30 30 30z m300 200q30 0 30-30v-400q0-30-30-30t-30 30v400q0 30 30 30z m150 100q30 0 30-30v-500q0-30-30-30t-30 30v500q0 30 30 30z"  horiz-adv-x="1024" />

    
    <glyph glyph-name="d-up" unicode="&#59643;" d="M150.8 362.8c11.7-11.7 30.7-11.7 42.4 0L482 651.6V44c0-16.6 13.4-30 30-30s30 13.4 30 30V651.6l288.8-288.8c11.7-11.7 30.7-11.7 42.4 0s11.7 30.7 0 42.4L554.4 724l-21.2 21.2c-11.7 11.7-30.7 11.7-42.4 0L469.6 724 150.8 405.2c-11.7-11.7-11.7-30.7 0-42.4z"  horiz-adv-x="1024" />

    
    <glyph glyph-name="echarts-line" unicode="&#59644;" d="M852 74H202V724a30 30 0 0 1-30 30 30 30 0 0 1-30-30v-680a29.85 29.85 0 0 1 3.62-14.3A30.18 30.18 0 0 1 148 26q0.87-1.15 1.83-2.22t2-2q1.06-1 2.22-1.83a30.18 30.18 0 0 1 3.65-2.34A29.85 29.85 0 0 1 172 14h680a30 30 0 0 1 30 30 30 30 0 0 1-30 30z m-611.51 73.68a30 30 0 0 1 41 11L425.2 407.6l147.2-85 28.35-16.37a30 30 0 0 1 39.58 8.77l18.78 26.81 213.07 304.3a30 30 0 0 1-7.37 41.79 30 30 0 0 1-41.81-7.35l-216-308.6-151.8 87.61-26 15a30 30 0 0 1-41-11l-15-26-143.69-248.9a30 30 0 0 1 10.98-40.98z"  horiz-adv-x="1024" />

    
    <glyph glyph-name="file-text" unicode="&#59645;" d="M816 492c-1.2 1.7-2.6 3.2-4.2 4.5l-279 249c-5.6 5.4-13.1 8.5-20.9 8.5H232c-16.6 0-30-13.4-30-30v-680c0-16.6 13.4-30 30-30h560c16.6 0 30 13.4 30 30V474c0 6.5-2.1 12.8-6 18zM542 657l171.4-153H542V657z m220-583H262V694h220v-220c0-16.6 13.4-30 30-30h250v-370zM322 354c0-16.6 13.4-30 30-30h240c16.6 0 30 13.4 30 30s-13.4 30-30 30H352c-16.6 0-30-13.4-30-30z m150-91H352c-16.6 0-30-13.4-30-30s13.4-30 30-30h120c16.6 0 30 13.4 30 30s-13.4 30-30 30z"  horiz-adv-x="1024" />

    
    <glyph glyph-name="eye-open" unicode="&#59646;" d="M864.85 406.18c-59.67 57.18-114.82 99.53-168 129-63.32 35.18-123.8 52.28-184.88 52.28s-121.56-17.1-184.88-52.28c-53.15-29.52-108.3-71.87-168-129.05a31.22 31.22 0 0 1 0-44.36c59.67-57.18 114.82-99.53 168-129.05 63.32-35.18 123.8-52.28 184.88-52.28s121.56 17.1 184.88 52.28c53.15 29.52 108.3 71.87 168 129.05a31.22 31.22 0 0 1 0 44.36zM512 240.49c-88.59 0-181.26 45.86-288.68 143.51C330.74 481.65 423.41 527.51 512 527.51S693.26 481.65 800.68 384C693.26 286.35 600.59 240.49 512 240.49zM405 383.5a110 110 0 1 1 110 110 110 110 0 0 1-110-110z m110 50a50 50 0 1 0-50-50 50 50 0 0 0 50 50z"  horiz-adv-x="1024" />

    
    <glyph glyph-name="file" unicode="&#59647;" d="M816 492a30 30 0 0 1-4.15 4.54l-279 249A29.9 29.9 0 0 1 512 754H232a30 30 0 0 1-30-30v-680a30 30 0 0 1 30-30h560a30 30 0 0 1 30 30V474a29.87 29.87 0 0 1-6 18zM542 657l171.39-153H542z m220-583H262V694h220v-220a30 30 0 0 1 30-30h250z"  horiz-adv-x="1024" />

    
    <glyph glyph-name="email" unicode="&#59648;" d="M801.033 608.846c-11.715 11.715-30.711 11.715-42.426 0L512 362.238 265.393 608.846c-11.715 11.715-30.711 11.715-42.426 0-11.716-11.716-11.716-30.711 0-42.426l267.641-267.641c5.899-5.9 13.645-8.824 21.377-8.783 7.745-0.049 15.502 2.875 21.408 8.783l267.642 267.64c11.713 11.716 11.713 30.711-0.002 42.427zM852 704H172c-16.568 0-30-13.432-30-30v-580c0-16.568 13.432-30 30-30h680c16.568 0 30 13.432 30 30V674c0 16.568-13.432 30-30 30z m-20-560c0-16.567-13.432-30-30-30H222c-16.568 0-30 13.433-30 30V624c0 16.568 13.432 30 30 30h580c16.568 0 30-13.432 30-30v-480z"  horiz-adv-x="1024" />

    
    <glyph glyph-name="hot" unicode="&#59649;" d="M468.5 684.9s0 0.1 0.1 0.1c-0.1 0-0.1 0-0.1-0.1zM244.8 435.6z m348.3 122.7c13.1-18.9 26.2-39 38.8-60 34.8-58 58.9-111.8 71.5-159.9 13.7-52.3 13.7-96.9-0.2-132.5-0.8-2-1.7-3.7-2.8-5.3-1.3-1.8-2.5-3.7-3.6-5.6-14.8-26-48.2-55.2-94.2-82.5-0.8-0.4-1.6-0.9-2.5-1.4l-1.2-0.7c-13.7 13.9-31.8 26.5-55.5 36.3-18.1 7.5-38.5 7.3-56.5-0.5-6.2-2.6-12.2-5.5-17.8-8.6l-0.2-0.1c-0.3-0.1-0.5-0.3-0.8-0.5-5.9-3.3-11.6-6.9-16.9-10.8-1.5-1.1-3-2.2-4.4-3.4-5-3.9-9.7-8.1-14.2-12.6-5.6 3.3-11.2 6.7-16.7 10.1-0.3 0.2-0.6 0.4-1 0.6-0.7 0.5-1.4 0.9-2.2 1.4l-0.9 0.6c-1.4 0.9-2.7 1.8-4.1 2.7l-0.9 0.6c-34.6 23.2-60 47.2-72.2 68.7-1.1 1.9-2.3 3.8-3.6 5.7-1.1 1.6-2 3.3-2.8 5.3-4.5 11.5-8.2 23.1-11.1 34.5-0.1 0.3-0.2 0.7-0.2 1-0.6 2.3-1.1 4.6-1.6 7l-0.3 1.5c-0.5 2.3-0.9 4.6-1.3 6.9v0.2c-0.1 0.3-0.1 0.8-0.2 1.3-0.4 2-0.7 4.1-1 6.1-0.1 0.6-0.2 1.1-0.2 1.6-0.3 2.5-0.6 4.4-0.8 6 0 0.2 0 0.4-0.1 0.5v0.3l-0.1 0.5-0.6 6v0.1c0 0.4-0.1 1.1-0.1 1.9-0.1 1.9-0.2 3.9-0.3 5.8v1.1c-0.1 1.8-0.1 3.6-0.1 5.5v1.4c0 2.1 0 4 0.1 5.7v1.4c0.1 1.9 0.1 3.8 0.3 5.5 0 0.4 0 0.7 0.1 1.1 0.1 2.1 0.3 4 0.5 5.7v0.9c0.2 1.9 0.4 3.8 0.7 5.9v0.1l0.1 0.5c0.3 2 0.5 3.9 0.8 5.7 0.1 0.3 0.1 0.7 0.2 1 0.5 3 1.2 6.3 2.1 10.4 0.2 1 0.5 2.1 0.7 3.1 0.7 3 1.5 5.9 2.3 8.6v0.1c0.2 0.6 0.4 1.3 0.5 1.9l0.1 0.3c0.4 1.3 0.9 2.9 1.5 4.7l0.1 0.4c0.6 1.8 1.1 3.4 1.6 4.8 0.1 0.2 0.2 0.4 0.2 0.6 0.2 0.6 0.4 1.1 0.6 1.7v0.1c1 2.7 2 5.3 3.1 7.9 0.2 0.4 0.4 0.9 0.6 1.3 0.1 0.3 0.3 0.7 0.4 1v0.1c0.3 0.6 0.5 1.2 0.8 1.7 4.8-6.2 10-12.1 15.7-17.5 14-13.5 32.1-20.2 50.2-20.2 17.4 0 34.8 6.2 48.6 18.7 57.4 52 121.3 109.9 151 200m-65.8 196c4.5-20.7 7.3-40 8.9-58.2-0.1 0.6-0.1 1.2-0.2 1.9 2.2-24 1.8-45.9-0.5-66.1-0.4-3.1-0.7-6.1-1.2-9.1-0.1-0.5-0.2-1-0.2-1.4-14.8-94.5-75.7-150.8-140.5-209.5-16.9 16.3-26.9 39.8-26.9 74.4 0.1 15.7 2.2 33.7 6.6 54.4l-0.1-0.1c0.1 0.3 0.1 0.5 0.1 0.8 0 0-46.2-29.9-84.6-86.2-0.1-0.2-0.3-0.4-0.4-0.6-2.5-3.6-4.9-7.3-7.3-11.2-0.1-0.2-0.2-0.4-0.3-0.5-2.2-3.6-4.3-7.2-6.4-10.9-0.5-0.9-1-1.7-1.4-2.6-2.1-3.8-4.1-7.7-6.1-11.7l-0.3-0.6c-2.1-4.2-4-8.5-5.9-12.7-0.5-1-0.9-2.1-1.3-3.2-1.5-3.6-2.9-7.2-4.3-10.8-0.4-1-0.8-2-1.1-3.1-0.8-2.2-1.5-4.5-2.3-6.7v-0.1c-0.8-2.3-1.5-4.6-2.2-6.9-0.3-0.9-0.5-1.9-0.8-2.9-1.1-3.9-2.2-7.9-3.1-11.8-0.3-1.4-0.7-2.7-1-4.1-1.1-5-2.1-10-3-15.1v-0.1c-0.5-2.8-0.9-5.6-1.2-8.5 0-0.2 0-0.4-0.1-0.6-0.4-2.7-0.7-5.4-0.9-8.2 0-0.3-0.1-0.6-0.1-0.9-0.3-2.7-0.5-5.3-0.6-8 0-0.4 0-0.8-0.1-1.2-0.2-2.6-0.3-5.3-0.4-7.9v-1.4c-0.1-2.6-0.1-5.2-0.1-7.9v-1.6c0-2.6 0.1-5.2 0.2-7.9 0-0.6 0-1.1 0.1-1.7 0.1-2.6 0.3-5.3 0.4-8 0.1-0.6 0.1-1.1 0.1-1.7 0.2-2.7 0.5-5.4 0.7-8.1 0.1-0.6 0.1-1.1 0.2-1.7 0.3-2.8 0.7-5.6 1.1-8.4 0.1-0.5 0.1-1.1 0.2-1.6 0.4-2.9 0.9-5.8 1.4-8.7 0.1-0.5 0.2-0.9 0.2-1.4 0.6-3.1 1.2-6.2 1.8-9.2 0.1-0.3 0.1-0.7 0.2-1 0.7-3.3 1.5-6.6 2.3-9.9 0-0.2 0.1-0.3 0.1-0.5 3.5-14.2 8.1-28.8 14-43.9 3-7.6 6.6-14.4 10.9-20.5 50.1-87.8 191.7-145.4 191.7-145.4-0.5 0.2-41.1 16.8-86.4 45.6 45.3-28.8 85.9-45.3 86.4-45.5h0.1c2.7 24.6 13.4 41.4 29.3 53.3 0.1 0.1 0.2 0.1 0.3 0.2 3.2 2.4 6.6 4.6 10.2 6.6l0.6 0.3c3.6 2 7.4 3.8 11.4 5.5 0.1 0 0.2 0.1 0.3 0.1 28.3-11.7 48.3-31 52.1-66 0 0 30.9 12.6 69 34.9 0 0-0.1-0.1-0.1-0.2 43.4 25.5 96.3 63.7 123 110.6 4.3 6.1 8 12.9 10.9 20.5C856 398.7 560.9 719 530.1 751.6c0.1-0.1 0.1-0.3 0.2-0.4-1 1-2 2.1-3 3.1z"  horiz-adv-x="1024" />

    
    <glyph glyph-name="echarts-pie" unicode="&#59650;" d="M882 384.3a29.84 29.84 0 0 1-29.9 29.7H542.67V724a30 30 0 0 1-29.79 30H512q-14.81 0-29.33-1.15C292 737.9 142 578.47 142 384c0-204.49 165.31-369.89 369.8-370 194.34-0.1 353.72 149.62 369 340q1.2 14.85 1.21 30zM512 74c-171.1 0-310.12 139.12-310 310.21 0.11 161.22 123.29 293.63 280.67 308.4V354h337.88C805.46 196.87 673.09 74 512 74z m107.46 600.85a310.85 310.85 0 0 0 184-185.24 30 30 0 0 1 33.42-19.36 30 30 0 0 1 22.94 39.91A371 371 0 0 1 640.37 731.1a30 30 0 0 1-40.07-22.89 30 30 0 0 1 19.16-33.36z"  horiz-adv-x="1024" />

    
    <glyph glyph-name="folder-fill" unicode="&#59651;" d="M852 602H470.43l-83.18 83.18a29.89 29.89 0 0 1-23 8.72c-0.75 0.06-1.51 0.1-2.28 0.1H172a30 30 0 0 1-30-30v-560a30 30 0 0 1 30-30h680a30 30 0 0 1 30 30V572a30 30 0 0 1-30 30z"  horiz-adv-x="1024" />

    
    <glyph glyph-name="full" unicode="&#59652;" d="M454.84 326.84a30 30 0 0 1-42.42 0L202 116.43V284a30 30 0 0 1-30 30 30 30 0 0 1-30-30v-241.48c0-0.24 0-0.46 0.05-0.69s0-0.52 0.06-0.78 0.06-0.58 0.1-0.87 0.05-0.38 0.07-0.57 0.11-0.63 0.16-0.94l0.09-0.5c0.06-0.32 0.14-0.63 0.21-0.95 0-0.16 0.07-0.32 0.11-0.47 0.07-0.31 0.16-0.62 0.25-0.92s0.09-0.34 0.14-0.51 0.18-0.56 0.27-0.84l0.19-0.57c0.09-0.25 0.19-0.5 0.29-0.74s0.16-0.44 0.25-0.65 0.18-0.43 0.28-0.64 0.21-0.49 0.33-0.72 0.17-0.37 0.26-0.55 0.27-0.52 0.41-0.78l0.25-0.47 0.47-0.81 0.27-0.42c0.17-0.28 0.34-0.55 0.52-0.82s0.19-0.27 0.29-0.41l0.55-0.78 0.35-0.45a17.79 17.79 0 0 1 1.05-1.28l0.45-0.53q1-1.1 2.1-2.1l0.53-0.45c0.19-0.17 0.38-0.34 0.58-0.5l0.69-0.55c0.16-0.11 0.31-0.23 0.46-0.35l0.78-0.55 0.41-0.29 0.82-0.52 0.42-0.27 0.81-0.47 0.47-0.25 0.78-0.41 0.55-0.26c0.23-0.12 0.48-0.22 0.72-0.33l0.64-0.28 0.65-0.25 0.74-0.29 0.57-0.19 0.84-0.27 0.51-0.14c0.3-0.09 0.61-0.18 0.92-0.25l0.47-0.11c0.32-0.07 0.63-0.15 0.95-0.21l0.5-0.09 0.94-0.16 0.57-0.07c0.29 0 0.58-0.08 0.87-0.1l0.78-0.06 0.69-0.05H412a30 30 0 0 1 30 30 30 30 0 0 1-30 30H244.43l210.41 210.38a30 30 0 0 1 0 42.42zM882 725.48c0 0.24 0 0.46-0.05 0.69s0 0.52-0.06 0.78-0.06 0.58-0.1 0.87 0 0.38-0.07 0.57-0.11 0.63-0.16 0.94l-0.09 0.5c-0.06 0.32-0.14 0.63-0.21 0.95 0 0.16-0.07 0.32-0.11 0.47-0.07 0.31-0.16 0.62-0.25 0.92s-0.09 0.34-0.14 0.51-0.18 0.56-0.27 0.84l-0.19 0.57c-0.09 0.25-0.19 0.5-0.29 0.75s-0.16 0.43-0.25 0.64-0.18 0.43-0.28 0.64-0.21 0.49-0.33 0.72-0.17 0.37-0.26 0.55l-0.41 0.78-0.25 0.47-0.47 0.81-0.27 0.42c-0.17 0.28-0.34 0.55-0.52 0.82s-0.19 0.27-0.29 0.41l-0.55 0.78-0.35 0.46-0.55 0.69c-0.16 0.2-0.33 0.39-0.5 0.59l-0.45 0.52q-1 1.1-2.1 2.1l-0.53 0.45c-0.19 0.17-0.38 0.34-0.58 0.5l-0.7 0.55-0.45 0.35-0.78 0.55-0.41 0.29-0.82 0.52-0.42 0.27-0.81 0.47-0.47 0.25-0.78 0.41-0.55 0.26c-0.23 0.12-0.47 0.22-0.72 0.33l-0.64 0.28-0.64 0.25-0.75 0.29-0.57 0.19c-0.28 0.09-0.56 0.19-0.84 0.27l-0.51 0.14c-0.3 0.09-0.61 0.18-0.92 0.25l-0.47 0.11c-0.32 0.07-0.63 0.15-0.95 0.21l-0.5 0.09-0.94 0.16-0.57 0.07c-0.29 0-0.58 0.08-0.87 0.1l-0.78 0.06-0.69 0.05H612a30 30 0 0 1-30-30 30 30 0 0 1 30-30h167.57L569.16 483.58a30 30 0 0 1 0-42.42 30 30 0 0 1 42.42 0L822 651.57V484a30 30 0 0 1 30-30 30 30 0 0 1 30 30V725.48z"  horiz-adv-x="1024" />

    
    <glyph glyph-name="home-fill" unicode="&#59653;" d="M873.49 407.94L792 489.43l-60 60L557.43 724l-21.22 21.21a30 30 0 0 1-42.42 0L472.57 724 292 543.43l-60-60-81.49-81.49a30 30 0 0 1 0.61-43c11.87-11.23 30.7-10.53 42.26 1L232 398.57V44a29.85 29.85 0 0 1 3.62-14.3A30.18 30.18 0 0 1 238 26q0.87-1.15 1.83-2.22t2-2q1.06-1 2.22-1.83a30.18 30.18 0 0 1 3.65-2.34A29.85 29.85 0 0 1 262 14h500a30 30 0 0 1 30 30V404.57l39.06-39.06a30 30 0 0 1 42.43 0 30 30 0 0 1 0 42.43z"  horiz-adv-x="1024" />

    
    <glyph glyph-name="label" unicode="&#59654;" d="M882.21 427.22v297a30 30 0 0 1-30 30h-297a30 30 0 0 1-21.21-8.8l-51.22-51.21L150.58 362a29.82 29.82 0 0 1-7.58-12.68 31 31 0 0 1-0.93-4.23c-0.13-1-0.23-1.91-0.27-2.87a27.67 27.67 0 0 1 0-2.88c0-1 0.14-1.92 0.27-2.87a30.7 30.7 0 0 1 0.93-4.23 29.82 29.82 0 0 1 7.55-12.67l297-297a30 30 0 0 1 42.42 0l332.24 332.22L873.42 406a30 30 0 0 1 8.79 21.22z m-413.43-341L214.22 340.78l353.43 353.43h254.56v-254.56zM585.73 537.44a80 80 0 1 1 160 0 80 80 0 1 1-160 0z"  horiz-adv-x="1024" />

    
    <glyph glyph-name="info" unicode="&#59655;" d="M462 588.5a50 50 0 1 1 100 0 50 50 0 1 1-100 0z m50-109c-16.6 0-30-13.4-30-30v-290c0-16.6 13.4-30 30-30s30 13.4 30 30v290c0 16.6-13.4 30-30 30z m0 274.5c-204.3 0-370-165.7-370-370 0-204.4 165.7-370 370-370 204.4 0 370 165.6 370 370 0 204.3-165.6 370-370 370z m-1-690c-176.7 0-320 143.3-320 320s143.3 320 320 320 320-143.3 320-320-143.3-320-320-320z"  horiz-adv-x="1024" />

    
    <glyph glyph-name="label-fill" unicode="&#59656;" d="M882.21 724.21a30 30 0 0 1-30 30h-297a30 30 0 0 1-21.21-8.79l-51.22-51.21L150.58 362a29.82 29.82 0 0 1-7.58-12.68 31 31 0 0 1-0.93-4.23c-0.13-1-0.23-1.91-0.27-2.87a27.67 27.67 0 0 1 0-2.88c0-1 0.14-1.92 0.27-2.87a30.7 30.7 0 0 1 0.93-4.23 29.82 29.82 0 0 1 7.55-12.67l297-297a30 30 0 0 1 42.42 0l332.24 332.22L873.42 406a30 30 0 0 1 8.79 21.21v297zM722.3 480.87a80 80 0 1 0 0 113.14 80 80 0 0 0 0-113.14z"  horiz-adv-x="1024" />

    
    <glyph glyph-name="minus" unicode="&#59657;" d="M820 354H204c-23.2 0-42 13.43-42 30s18.8 30 42 30h616c23.2 0 42-13.43 42-30s-18.8-30-42-30z"  horiz-adv-x="1024" />

    
    <glyph glyph-name="more" unicode="&#59658;" d="M452 634a60 60 0 1 1 120 0 60 60 0 1 1-120 0z m0-250a60 60 0 1 1 120 0 60 60 0 1 1-120 0z m0-250a60 60 0 1 1 120 0 60 60 0 1 1-120 0z"  horiz-adv-x="1024" />

    
    <glyph glyph-name="list" unicode="&#59659;" d="M192 624h640q30 0 30-30t-30-30H192q-30 0-30 30t30 30z m0-210h640q30 0 30-30t-30-30H192q-30 0-30 30t30 30z m0-210h640q30 0 30-30t-30-30H192q-30 0-30 30t30 30z"  horiz-adv-x="1024" />

    
    <glyph glyph-name="loginout" unicode="&#59660;" d="M745.33 695.55q-10.73 8.72-22.08 16.64a30 30 0 0 1-43.15-9.62 18.66 18.66 0 0 1 6-25A320.62 320.62 0 0 0 833 410.15c1-176.64-140.53-320.23-317.18-321.76C337.8 86.86 193 230.71 193 408.38a320.52 320.52 0 0 0 140.87 265.18 19.68 19.68 0 0 1 6 26.14 30 30 0 0 1-43.47 9.38q-11.1-8-21.57-16.74A369.22 369.22 0 0 1 142 411.67c-1.76-203.09 161.65-370.43 364.73-373.25C713.5 35.54 882 202.28 882 408.38c0 115.89-53.28 219.32-136.67 287.17zM512 787q30 0 30-30v-240q0-30-30-30t-30 30V757q0 30 30 30z"  horiz-adv-x="1024" />

    
    <glyph glyph-name="more-v" unicode="&#59661;" d="M202 384a60 60 0 1 1 120 0 60 60 0 1 1-120 0z m250 0a60 60 0 1 1 120 0 60 60 0 1 1-120 0z m250 0a60 60 0 1 1 120 0 60 60 0 1 1-120 0z"  horiz-adv-x="1024" />

    
    <glyph glyph-name="left" unicode="&#59662;" d="M384.4 384l318.8 318.8c11.7 11.7 11.7 30.7 0 42.4s-30.7 11.7-42.4 0L342 426.4l-21.2-21.2c-11.7-11.7-11.7-30.7 0-42.4l21.2-21.2 318.8-318.8c11.7-11.7 30.7-11.7 42.4 0s11.7 30.7 0 42.4L384.4 384z"  horiz-adv-x="1024" />

    
    <glyph glyph-name="notification-fill" unicode="&#59663;" d="M799.1 125.1l-2.8 5.8-25.8 54.2-6.1 12.8c-7.1 14.9-12.9 40.6-12.9 57.1V425.9c-0.8 97.6-60.5 185-151.1 221.2 9.3 48.8-22.7 96-71.5 105.3s-96-22.7-105.3-71.5c-2.1-11.2-2.1-22.6 0-33.8-90.6-36.3-150.3-123.7-151.1-221.3v-170.9c0-16.5-5.8-42.2-12.9-57.1l-6.1-12.8-25.8-54.2-2.8-5.8c-7.1-14.9 0.6-27.1 17.1-27.1h167.5c11.6-56.8 67.1-93.4 123.9-81.8 41.2 8.4 73.4 40.6 81.8 81.8H782c16.5 0.1 24.2 12.3 17.1 27.2zM512 694c16.6 0 30-13.4 30-30 0-0.6 0-1.3-0.1-1.9-9.8 1.2-19.6 1.9-29.4 1.9h-1c-9.8 0-19.7-0.7-29.4-1.9 0 0.6-0.1 1.3-0.1 1.9 0 16.5 13.4 30 30 30z m0.4-619.9c-16.7 0-31.9 9.2-39.7 23.9h79.5c-7.8-14.7-23.1-23.9-39.8-23.9z"  horiz-adv-x="1024" />

    
    <glyph glyph-name="info-fill" unicode="&#59664;" d="M512 14c204.4 0 370 165.6 370 370 0 204.3-165.6 370-370 370-204.3 0-370-165.7-370-370 0-204.4 165.7-370 370-370z m29.7 145.5c0-16.6-13.4-30-30-30s-30 13.4-30 30v290c0 16.6 13.4 30 30 30s30-13.4 30-30v-290z m-29.5 479c27.6 0 50-22.4 50-50s-22.3-50-50-50c-27.6 0-50 22.4-50 50s22.4 50 50 50z"  horiz-adv-x="1024" />

    
    <glyph glyph-name="list-dot" unicode="&#59665;" d="M324.86 624h500q30 0 30-30t-30-30h-500q-30 0-30 30t30 30z m-155.72-30a30 30 0 1 1 60 0 30 30 0 1 1-60 0z m155.72-180h500q30 0 30-30t-30-30h-500q-30 0-30 30t30 30z m-155.72-30a30 30 0 1 1 60 0 30 30 0 1 1-60 0z m155.72-180h500q30 0 30-30t-30-30h-500q-30 0-30 30t30 30z m-155.72-30a30 30 0 1 1 60 0 30 30 0 1 1-60 0z"  horiz-adv-x="1024" />

    
    <glyph glyph-name="loading" unicode="&#59666;" d="M482.08 543.56a29.92 29.92 0 1 1 59.84 0v179.5a29.92 29.92 0 1 1-59.84 0z m0-498.62a29.92 29.92 0 1 1 59.84 0v179.5a29.92 29.92 0 1 1-59.84 0z m-99.72 350.5a30 30 0 0 1-29.92 29.92h-179.5a29.92 29.92 0 1 1 0-59.84h179.5a30 30 0 0 1 29.92 29.92z m289.2 29.92a30 30 0 0 1-29.92-29.92 30 30 0 0 1 29.92-29.92h179.5A30 30 0 0 1 881 395.44a30 30 0 0 1-29.92 29.92zM251.09 644.91a30 30 0 0 1 0-42.31L378 475.67A29.92 29.92 0 0 1 420.33 518L293.4 644.91a30 30 0 0 1-42.31 0z m352.58-352.58a30 30 0 0 1 0-42.31L730.6 123.09a30 30 0 0 1 42.31 0 30 30 0 0 1 0 42.31L646 292.33a30 30 0 0 1-42.31 0zM772.91 602.6a30 30 0 0 1 0 42.31 30 30 0 0 1-42.31 0L603.67 518a30 30 0 0 1 0-42.31 30 30 0 0 1 42.31 0zM251.09 165.4a30 30 0 0 1 0-42.31 30 30 0 0 1 42.31 0L420.33 250a30 30 0 0 1 0 42.31 30 30 0 0 1-42.31 0z"  horiz-adv-x="1024" />

    
    <glyph glyph-name="modal" unicode="&#59667;" d="M512 700c-204.38 0-370.06-125.32-370.06-279.92 0-64 28.42-123 76.24-170.2l-18.46-104.65L186.1 68l67.9 39.2 102.1 58.95c47.37-16.67 100.16-26 155.86-26 204.38 0 370.06 125.33 370.06 279.93S716.38 700 512 700z m0-499.76a430.78 430.78 0 0 0-82.94 8 384 384 0 0 0-78.4 24.13l-61.72-35.64-21.31-12.3 4 22.79 11.37 64.7c-20.73 16.1-38.13 34.4-51.43 54.35-18.91 28.46-29.57 60.26-29.57 93.84 0 121.41 138.78 219.83 310 219.83s310-98.42 310-219.83-138.81-219.84-310-219.84z"  horiz-adv-x="1024" />

    
    <glyph glyph-name="qq" unicode="&#59668;" d="M799.14 290.44c-14.63 47.54-31.5 87.47-57.46 152.86C745.74 615.1 675 754 511.93 754c-164.86 0-234.06-141.71-229.59-310.7-26-65.47-42.83-105.16-57.46-152.86-31.17-101.28-21.08-143.2-13.39-144.11 16.53-2.06 64.23 76.23 64.23 76.23 0-45.31 23.07-104.42 73.17-147.08-24.22-7.52-78.54-27.7-65.64-49.77 10.42-17.86 179.82-11.41 228.68-5.87 48.86-5.54 218.26-12 228.68 5.87 12.9 22-41.5 42.25-65.64 49.77 50 42.74 73.16 101.86 73.16 147.08 0 0 47.79-78.29 64.24-76.23 7.86 1 17.94 42.91-13.23 144.11z"  horiz-adv-x="1024" />

    
    <glyph glyph-name="notification" unicode="&#59669;" d="M799.1 125.1l-2.8 5.8-25.8 54.2-6.1 12.8c-7.1 14.9-12.9 40.6-12.9 57.1V425.9c-0.8 97.6-60.5 185-151.1 221.2 9.3 48.8-22.7 96-71.5 105.3s-96-22.7-105.3-71.5c-2.1-11.2-2.1-22.6 0-33.8-90.6-36.3-150.3-123.7-151.1-221.3v-170.9c0-16.5-5.8-42.2-12.9-57.1l-6.1-12.8-25.8-54.2-2.8-5.8c-7.1-14.9 0.6-27.1 17.1-27.1h167.5c11.6-56.8 67.1-93.4 123.9-81.8 41.2 8.4 73.4 40.6 81.8 81.8H782c16.5 0.1 24.2 12.3 17.1 27.2zM512 694c16.6 0 30-13.4 30-30 0-0.6 0-1.3-0.1-1.9-9.8 1.2-19.6 1.9-29.4 1.9h-1c-9.8 0-19.7-0.7-29.4-1.9 0 0.6-0.1 1.3-0.1 1.9 0 16.5 13.4 30 30 30z m0.4-619.9c-16.7 0-31.9 9.2-39.7 23.9h79.5c-7.8-14.7-23.1-23.9-39.8-23.9zM300.8 158l18.9 39.8c7.1 14.9 12.8 40.6 12.8 57.1V424c0 99.1 80.5 179.7 179.5 180 99-0.3 179.5-80.9 179.5-180v-169c0-16.5 5.8-42.2 12.8-57.1l18.8-39.8H300.8z"  horiz-adv-x="1024" />

    
    <glyph glyph-name="notification-off" unicode="&#59670;" d="M300.8 158l18.9 39.8c7.1 14.9 12.8 40.6 12.8 57.1v169c0 40.3 13.6 79.5 38.6 111.2l-31.8 55c-42.6-44.2-66.5-103-66.8-164.4v-170.9c0-16.5-5.8-42.2-12.9-57.1l-6.1-12.8-25.8-54.1-2.8-5.8c-7.1-14.9 0.6-27.1 17.1-27.1h167.5c11.6-56.8 67.1-93.4 123.9-81.8 41.2 8.4 73.4 40.6 81.8 81.8h8.2l-34.6 60h-288z m211.6-83.9c-16.6 0-31.9 9.2-39.7 23.9h79.5c-7.8-14.7-23.1-23.9-39.8-23.9z m286.7 51l-2.8 5.8-25.8 54.2-6.1 12.8c-7.1 14.9-12.9 40.6-12.9 57.1V425.9c-0.8 97.6-60.5 185-151.1 221.2 9.3 48.8-22.7 96-71.5 105.3s-96-22.7-105.3-71.5c-2.1-11.2-2.1-22.6 0-33.8-3.6-1.4-7.1-2.9-10.6-4.5l30.3-52.4c21.8 9.1 45.1 13.8 68.7 13.9 99-0.3 179.5-80.9 179.5-180v-169c0-16.5 5.8-42.2 12.8-57.1l18.9-39.8h-30.4l34.6-60H782c16.5-0.2 24.2 12 17.1 26.9zM541.9 662c-9.8 1.2-19.6 1.9-29.4 1.9h-1c-9.8 0-19.7-0.7-29.4-1.9 0 0.6-0.1 1.3-0.1 1.9 0 16.6 13.4 30 30 30s30-13.4 30-30c0-0.6 0-1.3-0.1-1.9zM333 754.1L743 44c8.3-14.3 3.4-32.7-11-41-14.3-8.3-32.7-3.4-41 11L281 724.1c-8.3 14.3-3.4 32.7 11 41 14.4 8.2 32.7 3.3 41-11z"  horiz-adv-x="1024" />

    
    <glyph glyph-name="picture-fill" unicode="&#59671;" d="M852 704H172c-16.6 0-30-13.4-30-30v-580c0-16.6 13.4-30 30-30h680c16.6 0 30 13.4 30 30V674c0 16.6-13.4 30-30 30z m-20-216.3c-0.9-0.7-1.7-1.4-2.5-2.2L603.1 259.1 483.5 378.7c-1 1.5-2.2 2.9-3.5 4.2-6 6-13.8 8.9-21.6 8.8-7.8 0.1-15.6-2.8-21.6-8.8-1.3-1.3-2.5-2.8-3.5-4.2L192.6 138c-0.4 1.9-0.6 3.9-0.6 6V624c0 16.6 13.4 30 30 30h580c16.6 0 30-13.4 30-30v-136.3z m-499.8 26.8a60 60 0 1 1 120 0 60 60 0 1 1-120 0z"  horiz-adv-x="1024" />

    
    <glyph glyph-name="look" unicode="&#59672;" d="M172 494.5c-16.3 0-29.5 13.2-29.5 29.5V724c0 16.3 13.2 29.5 29.5 29.5h200c16.3 0 29.5-13.2 29.5-29.5s-13.2-29.5-29.5-29.5H201.5V524c0-16.3-13.2-29.5-29.5-29.5zM372 753c16 0 29-13 29-29s-13-29-29-29H201v-171c0-16-13-29-29-29s-29 13-29 29V724c0 16 13 29 29 29h200m0 1H172c-16.6 0-30-13.4-30-30v-200c0-16.6 13.4-30 30-30s30 13.4 30 30V694h170c16.6 0 30 13.4 30 30s-13.4 30-30 30zM172 14.5c-16.3 0-29.5 13.2-29.5 29.5V244c0 16.3 13.2 29.5 29.5 29.5s29.5-13.2 29.5-29.5v-170.5H372c16.3 0 29.5-13.2 29.5-29.5s-13.2-29.5-29.5-29.5H172z m0 258.5c16 0 29-13 29-29v-171h171c16 0 29-13 29-29s-13-29-29-29H172c-16 0-29 13-29 29V244c0 16 13 29 29 29m0 1c-16.6 0-30-13.4-30-30v-200c0-16.6 13.4-30 30-30h200c16.6 0 30 13.4 30 30s-13.4 30-30 30H202V244c0 16.6-13.4 30-30 30z m680 220.5c-16.3 0-29.5 13.2-29.5 29.5V694.5H652c-16.3 0-29.5 13.2-29.5 29.5s13.2 29.5 29.5 29.5h200c16.3 0 29.5-13.2 29.5-29.5v-200c0-16.3-13.2-29.5-29.5-29.5z m0 258.5c16 0 29-13 29-29v-200c0-16-13-29-29-29s-29 13-29 29V695H652c-16 0-29 13-29 29s13 29 29 29h200m0 1H652c-16.6 0-30-13.4-30-30s13.4-30 30-30h170v-170c0-16.6 13.4-30 30-30s30 13.4 30 30V724c0 16.6-13.4 30-30 30zM652 14.5c-16.3 0-29.5 13.2-29.5 29.5s13.2 29.5 29.5 29.5h170.5V244c0 16.3 13.2 29.5 29.5 29.5s29.5-13.2 29.5-29.5v-200c0-16.3-13.2-29.5-29.5-29.5H652zM852 273c16 0 29-13 29-29v-200c0-16-13-29-29-29H652c-16 0-29 13-29 29s13 29 29 29h171V244c0 16 13 29 29 29m0 1c-16.6 0-30-13.4-30-30v-170H652c-16.6 0-30-13.4-30-30s13.4-30 30-30h200c16.6 0 30 13.4 30 30V244c0 16.6-13.4 30-30 30z"  horiz-adv-x="1024" />

    
    <glyph glyph-name="password" unicode="&#59673;" d="M852 524H742c0 127-103 230-230 230S282 651 282 524H172c-16.6 0-30-13.4-30-30v-450c0-16.6 13.4-30 30-30h680c16.6 0 30 13.4 30 30V494c0 16.6-13.4 30-30 30zM512 694c93.7 0 170-76.3 170-170H342c0 93.7 76.3 170 170 170z m310-620H202V464h620v-390zM469 270.7V164c0-16.6 13.4-30 30-30s30 13.4 30 30V270.7c34.9 16.6 49.8 58.3 33.2 93.2-16.6 34.9-58.3 49.8-93.2 33.2-34.9-16.6-49.8-58.3-33.2-93.2 6.9-14.5 18.6-26.2 33.2-33.2z"  horiz-adv-x="1024" />

    
    <glyph glyph-name="pack" unicode="&#59674;" d="M463.54 307.8c0 0.26 0 0.52-0.06 0.77s-0.06 0.59-0.1 0.88-0.05 0.38-0.07 0.57-0.11 0.63-0.16 0.94l-0.09 0.5c-0.06 0.32-0.14 0.63-0.21 0.95 0 0.16-0.07 0.32-0.11 0.47-0.08 0.31-0.16 0.62-0.25 0.92s-0.09 0.34-0.14 0.51l-0.27 0.84-0.19 0.57c-0.09 0.25-0.19 0.5-0.29 0.74s-0.16 0.44-0.25 0.65-0.19 0.43-0.28 0.64-0.21 0.49-0.33 0.72-0.17 0.37-0.26 0.55l-0.41 0.78-0.25 0.47c-0.16 0.27-0.31 0.54-0.48 0.81s-0.17 0.28-0.26 0.42-0.34 0.55-0.52 0.82-0.19 0.27-0.29 0.41l-0.55 0.78-0.35 0.45c-0.18 0.23-0.36 0.47-0.55 0.7s-0.33 0.39-0.5 0.58l-0.45 0.53q-1 1.1-2.1 2.1l-0.53 0.45c-0.19 0.17-0.38 0.34-0.58 0.5l-0.69 0.55c-0.16 0.11-0.31 0.23-0.46 0.35l-0.78 0.55-0.41 0.29-0.82 0.52-0.42 0.27-0.81 0.46-0.47 0.26-0.78 0.41-0.55 0.26c-0.23 0.12-0.48 0.22-0.72 0.33l-0.64 0.28-0.65 0.25-0.74 0.29-0.57 0.19-0.84 0.27-0.51 0.14-0.92 0.25-0.47 0.11c-0.32 0.07-0.63 0.15-1 0.21l-0.5 0.09-0.94 0.16-0.57 0.07c-0.29 0-0.58 0.08-0.88 0.1s-0.51 0-0.77 0.06l-0.69 0.05H193.58a30 30 0 0 1-30-30 30 30 0 0 1 30-30H361.2L150.79 65.21a30 30 0 0 1 0-42.42 30 30 0 0 1 42.42 0L403.63 233.2v-167.57a30 30 0 0 1 30-30 30 30 0 0 1 30 30V307.11c-0.05 0.24-0.07 0.46-0.09 0.69z m409.67 437.41a30 30 0 0 1-42.42 0L620.37 534.8V702.37a30 30 0 0 1-30 30 30 30 0 0 1-30-30v-241.48c0-0.24 0-0.46 0.05-0.69s0-0.52 0.06-0.77 0.06-0.59 0.1-0.88 0-0.38 0.07-0.57 0.11-0.63 0.16-0.94l0.09-0.5c0.06-0.32 0.14-0.63 0.21-1 0-0.16 0.07-0.32 0.11-0.47 0.08-0.31 0.16-0.62 0.25-0.92s0.09-0.34 0.14-0.51l0.27-0.84 0.19-0.57c0.09-0.25 0.19-0.5 0.29-0.75s0.16-0.43 0.25-0.64 0.19-0.43 0.28-0.64 0.21-0.49 0.33-0.72a5.6 5.6 0 0 1 0.27-0.55c0.13-0.26 0.26-0.52 0.4-0.78s0.17-0.31 0.26-0.47 0.3-0.54 0.46-0.81l0.27-0.42c0.17-0.28 0.34-0.55 0.52-0.82s0.19-0.27 0.29-0.41l0.55-0.78 0.36-0.46q0.25-0.34 0.54-0.69c0.16-0.2 0.33-0.39 0.5-0.59l0.45-0.52q1-1.1 2.1-2.1l0.53-0.45c0.19-0.17 0.38-0.34 0.58-0.5l0.7-0.55 0.45-0.35 0.78-0.55 0.41-0.29 0.82-0.52 0.42-0.26 0.81-0.48 0.47-0.25 0.78-0.4a5.6 5.6 0 0 1 0.55-0.27c0.23-0.12 0.48-0.22 0.72-0.33l0.64-0.28 0.64-0.25 0.75-0.29 0.57-0.19 0.84-0.27 0.51-0.14 0.92-0.25 0.47-0.11c0.32-0.07 0.63-0.15 0.95-0.21l0.5-0.09 0.94-0.16 0.57-0.07c0.29 0 0.58-0.08 0.88-0.1s0.51 0 0.77-0.06h242.17a30 30 0 0 1 30 30 30 30 0 0 1-30 30H662.8l210.41 210.38a30 30 0 0 1 0 42.42z"  horiz-adv-x="1024" />

    
    <glyph glyph-name="look-up" unicode="&#59675;" d="M172 494.5a29.53 29.53 0 0 0-29.5 29.5V724a29.53 29.53 0 0 0 29.5 29.5h200a29.5 29.5 0 0 0 0-59H201.5V524a29.53 29.53 0 0 0-29.5-29.5zM372 753a29 29 0 0 0 0-58H201v-171a29 29 0 0 0-58 0V724a29 29 0 0 0 29 29h200m0 1H172a30 30 0 0 1-30-30v-200a30 30 0 0 1 30-30 30 30 0 0 1 30 30V694h170a30 30 0 0 1 30 30 30 30 0 0 1-30 30zM172 14.5a29.53 29.53 0 0 0-29.5 29.5V244a29.5 29.5 0 0 0 59 0v-170.5H372a29.5 29.5 0 0 0 0-59z m0 258.5a29 29 0 0 0 29-29v-171h171a29 29 0 0 0 0-58H172a29 29 0 0 0-29 29V244a29 29 0 0 0 29 29m0 1a30 30 0 0 1-30-30v-200a30 30 0 0 1 30-30h200a30 30 0 0 1 30 30 30 30 0 0 1-30 30H202V244a30 30 0 0 1-30 30z m680 220.5a29.53 29.53 0 0 0-29.5 29.5V694.5H652a29.5 29.5 0 0 0 0 59h200a29.53 29.53 0 0 0 29.5-29.5v-200a29.53 29.53 0 0 0-29.5-29.5z m0 258.5a29 29 0 0 0 29-29v-200a29 29 0 0 0-58 0V695H652a29 29 0 0 0 0 58h200m0 1H652a30 30 0 0 1-30-30 30 30 0 0 1 30-30h170v-170a30 30 0 0 1 30-30 30 30 0 0 1 30 30V724a30 30 0 0 1-30 30zM652 14.5a29.5 29.5 0 0 0 0 59h170.5V244a29.5 29.5 0 0 0 59 0v-200a29.53 29.53 0 0 0-29.5-29.5zM852 273a29 29 0 0 0 29-29v-200a29 29 0 0 0-29-29H652a29 29 0 0 0 0 58h171V244a29 29 0 0 0 29 29m0 1a30 30 0 0 1-30-30v-170H652a30 30 0 0 1-30-30 30 30 0 0 1 30-30h200a30 30 0 0 1 30 30V244a30 30 0 0 1-30 30zM710.28 164.22a29.29 29.29 0 0 0-20.86 8.64L612.32 250l-0.35-0.27A207.29 207.29 0 0 0 482 204.5c-115.52 0-209.5 94-209.5 209.5s94 209.5 209.5 209.5 209.5-94 209.5-209.5a208.09 208.09 0 0 0-39.14-122l0.76-0.64 0.6 0.59 77.42-77.42a29.5 29.5 0 0 0-20.86-50.36zM482 564.5c-83 0-150.5-67.5-150.5-150.5S399 263.5 482 263.5 632.5 331 632.5 414 565 564.5 482 564.5z m0 58.5a209 209 0 0 0 170-330.66l1.52-1.29 0.25 0.25 77.07-77.08a29 29 0 0 0-41-41L613 250l-0.63 0.63-0.7-0.55A209 209 0 1 0 482 623m0-360c83.26 0 151 67.74 151 151s-67.74 151-151 151-151-67.74-151-151 67.74-151 151-151m0 361c-116 0-210-94-210-210s94-210 210-210a209.08 209.08 0 0 1 130.28 45.3l76.79-76.8a30 30 0 0 1 42.43 0 30 30 0 0 1 0 42.43l-77.78 77.78-1-1A209 209 0 0 1 692 414c0 116-94 210-210 210z m0-360a150 150 0 1 0 150 150 150 150 0 0 0-150-150z"  horiz-adv-x="1024" />

    
    <glyph glyph-name="plus" unicode="&#59676;" d="M820 414H542V692c0 23.2-13.43 42-30 42s-30-18.8-30-42v-278H204c-23.2 0-42-13.43-42-30s18.8-30 42-30h278v-278c0-23.2 13.43-42 30-42s30 18.8 30 42V354h278c23.2 0 42 13.43 42 30s-18.8 30-42 30z"  horiz-adv-x="1024" />

    
    <glyph glyph-name="pause" unicode="&#59677;" d="M442 692v-616c0-23.2-13.43-42-30-42s-30 18.8-30 42V692c0 23.2 13.43 42 30 42s30-18.8 30-42z m200 0v-616c0-23.2-13.43-42-30-42s-30 18.8-30 42V692c0 23.2 13.43 42 30 42s30-18.8 30-42z"  horiz-adv-x="1024" />

    
    <glyph glyph-name="page" unicode="&#59678;" d="M852 753.95a30.27 30.27 0 0 1-5.42-0.5l-9-3.18-324.32-114.86-331.19 117.28a30 30 0 0 1-38.29-18.26 30.17 30.17 0 0 1-1.52-6.62 28.87 28.87 0 0 1-0.26-3.86v-560a30 30 0 0 1 25.06-29.59l330.51-117 9.23-3.36a29.78 29.78 0 0 1 15.27 1.25l80.47 28.5 258.51 91.54 1.76 0.62a30 30 0 0 1 19.19 28v560a30 30 0 0 1-30 30.04zM482 560.69v-474.21l-280 99.16V682l280-99.16z m340-375.53L542 86V581.94l61.13 21.65L822 681.09z"  horiz-adv-x="1024" />

    
    <glyph glyph-name="refresh" unicode="&#59679;" d="M892.37 663.43a29.8 29.8 0 0 1-4.62 11.24 30 30 0 0 1-41.65 8.1l-65.58-44.24A368.93 368.93 0 0 1 512 754c-204.35 0-370-165.65-370-370s165.65-370 370-370c135 0 253.17 72.33 317.77 180.37A22.89 22.89 0 0 1 810.13 229a30 30 0 0 1-25.45-14.13C728.17 124.29 627.63 64 513 64c-177.67 0-321.52 144.79-320 322.81a320 320 0 0 0 546 223.72l-58.7-39.6a30 30 0 0 1-8.1-41.65 30 30 0 0 1 25.63-13.21L801.14 496l29.45-5.72A30 30 0 0 1 865.76 514l5.73 29.45 21 108a30.12 30.12 0 0 1-0.12 11.98z"  horiz-adv-x="1024" />

    
    <glyph glyph-name="radio" unicode="&#59680;" d="M512 754c-204.35 0-370-165.65-370-370s165.65-370 370-370 370 165.65 370 370-165.65 370-370 370z m321-370c0-176.73-143.27-320-320-320S193 207.27 193 384s143.27 320 320 320 320-143.27 320-320zM512 494q110 0 110-110T512 274q-110 0-110 110t110 110z"  horiz-adv-x="1024" />

    
    <glyph glyph-name="picture" unicode="&#59681;" d="M852 704H172c-16.6 0-30-13.4-30-30v-580c0-16.6 13.4-30 30-30h680c16.6 0 30 13.4 30 30V674c0 16.6-13.4 30-30 30z m-20-560c0-16.6-13.4-30-30-30H245.7l204.2 204.2 123.4-123.4c5.9-5.9 13.6-8.8 21.3-8.8 7.7 0 15.5 2.9 21.4 8.8l216 216V144z m0 347.7c-4-1.5-7.8-3.8-11-7L594.6 258.3 475 378c-1 1.5-2.2 2.9-3.5 4.2-6 5.9-13.8 8.9-21.6 8.8-7.8 0.1-15.6-2.8-21.6-8.8-1.3-1.3-2.5-2.8-3.5-4.2L192 145.2V624c0 16.6 13.4 30 30 30h580c16.6 0 30-13.4 30-30v-132.3z m-499.8 22.8a60 60 0 1 1 120 0 60 60 0 1 1-120 0z"  horiz-adv-x="1024" />

    
    <glyph glyph-name="remove" unicode="&#59682;" d="M512 754c-204.35 0-370-165.65-370-370s165.65-370 370-370 370 165.65 370 370-165.65 370-370 370z m321-370c0-176.73-143.27-320-320-320S193 207.27 193 384s143.27 320 320 320 320-143.27 320-320z m-466 30h290q30 0 30-30t-30-30H367q-30 0-30 30t30 30z"  horiz-adv-x="1024" />

    
    <glyph glyph-name="popover" unicode="&#59683;" d="M852 709.3H322c-16.6 0-30-13.4-30-30v-90h60v60h470v-246h-60v-60h90c16.6 0 30 13.4 30 30v306c0 16.5-13.4 30-30 30zM326.3 347c32.6 42.8-15.8 91.2-58.6 58.6-32.6-42.8 15.8-91.2 58.6-58.6z m280 0c32.6 42.8-15.8 91.2-58.6 58.6-32.6-42.8 15.8-91.2 58.6-58.6z m-140 0c32.6 42.8-15.8 91.2-58.6 58.6-32.6-42.8 15.8-91.2 58.6-58.6zM702 559.3H172c-16.6 0-30-13.4-30-30v-306c0-16.6 13.4-30 30-30h73l-7.5-42.6-16.2-91.9 71.5 60 88.8 74.5H702c16.6 0 30 13.4 30 30v306c0 16.5-13.4 30-30 30z m-30-156v-150H359.8L309 210.7l7.5 42.6H202v246h470v-96z"  horiz-adv-x="1024" />

    
    <glyph glyph-name="renew" unicode="&#59684;" d="M371.5 753c16.3 0 29.5-13.2 29.5-29.5v-200c0-16.3-13.2-29.5-29.5-29.5h-200c-16.3 0-29.5 13.2-29.5 29.5s13.2 29.5 29.5 29.5H342V723.5c0 16.3 13.2 29.5 29.5 29.5z m0-480c16.3 0 29.5-13.2 29.5-29.5v-200c0-16.3-13.2-29.5-29.5-29.5S342 27.2 342 43.5V214H171.5c-16.3 0-29.5 13.2-29.5 29.5s13.2 29.5 29.5 29.5h200z m281 480c16.3 0 29.5-13.2 29.5-29.5V553h170.5c16.3 0 29.5-13.2 29.5-29.5S868.8 494 852.5 494h-200c-16.3 0-29.5 13.2-29.5 29.5v200c0 16.3 13.2 29.5 29.5 29.5z m200-480c16.3 0 29.5-13.2 29.5-29.5S868.8 214 852.5 214H682v-170.5c0-16.3-13.2-29.5-29.5-29.5S623 27.2 623 43.5v200c0 16.3 13.2 29.5 29.5 29.5h200z"  horiz-adv-x="1024" />

    
    <glyph glyph-name="question" unicode="&#59685;" d="M406.2 586.6c23.9 28.4 59.1 42.6 105.6 42.6 41.7 0 75.4-13 101.3-39 25.9-26 38.8-58.5 38.8-97.5 0-29.7-6.2-55.1-18.7-76.3-12.6-21.4-29.8-39.8-50.4-53.7-20.9-14.1-35.2-27.5-42.6-40.2-7.5-12.7-11.5-20.3-11.5-40.2v-2.9c0.1-16.7-12.6-30.3-28.4-30.3h-0.7c-15.7 0-28.4 13.4-28.4 30v4.7c-0.2 24.9 5.1 46.4 15.9 64.5s27.5 34.8 50.2 50.1c19.2 13.3 32.8 26.8 41 40.3 8.2 13.6 12.2 30.4 12.2 50.5 0 23.4-7.3 42.7-22 58-14.7 15.3-34.3 23-59 23-24.9 0-44.9-7.9-60-23.6-10.7-11.1-18-25-22-41.8-3.1-13-14.3-22.1-27.1-22.1-18.6 0-32.1 18.5-27.5 37.5 5.8 24.6 17.2 47.3 33.3 66.4z m58.2-449.8c-9.4 9.3-14.1 21.3-14.1 35.8 0 14.8 4.7 26.9 14.1 36.2 9.4 9.3 21.4 14 36.1 14 14.7 0 26.7-4.7 35.9-14 9.3-9.3 13.9-21.4 13.9-36.2 0-14.6-4.6-26.5-13.9-35.8-9.3-9.3-21.2-14-35.9-14-14.6 0-26.7 4.7-36.1 14zM512 754c-204.4 0-370-165.6-370-370 0-204.3 165.6-370 370-370 204.3 0 370 165.7 370 370 0 204.4-165.7 370-370 370z m321-370c0-176.7-143.3-320-320-320S193 207.3 193 384s143.3 320 320 320 320-143.3 320-320z"  horiz-adv-x="1024" />

    
    <glyph glyph-name="remove-fill" unicode="&#59686;" d="M512 754c-204.35 0-370-165.65-370-370s165.65-370 370-370 370 165.65 370 370-165.65 370-370 370z m175-370a30 30 0 0 0-30-30H367a30 30 0 0 0-30 30 30 30 0 0 0 30 30h290a30 30 0 0 0 30-30z"  horiz-adv-x="1024" />

    
    <glyph glyph-name="search" unicode="&#59687;" d="M837.75 28.25a29.31 29.31 0 0 0-20.86 8.64l-120 120-0.35-0.29a328.16 328.16 0 0 0-210.3-75.84h-0.42c-88.67 0.11-171.72 34.71-233.84 97.42S156 324.3 156.76 413a329.51 329.51 0 0 0 326.7 326.72h2.77a326 326 0 0 0 127.94-25.94 332 332 0 0 0 175.56-175.4A328.73 328.73 0 0 0 739 198.87l-0.3-0.35 119.91-119.91a29.5 29.5 0 0 0-20.86-50.36z m-351.5 652.5c-149.15 0-270.5-121.35-270.5-270.5s121.35-270.5 270.5-270.5 270.5 121.34 270.5 270.5-121.34 270.5-270.5 270.5z m-0.02 58.5A325.37 325.37 0 0 0 614 713.35a331.64 331.64 0 0 0 175.3-175.14 328.2 328.2 0 0 0-50.66-339l-0.58-0.7 0.64-0.65 119.55-119.6a29 29 0 1 0-41-41L697.58 156.91l-0.65 0.65-0.7-0.59a327.68 327.68 0 0 0-210-75.72h-0.42a329 329 0 0 0-2.37 658h2.77m0-600c149.43 0 271 121.57 271 271s-121.57 271-271 271-271-121.57-271-271 121.57-271 271-271m0 601h-2.78c-180-1.5-325.7-147.17-327.19-327.22a329.39 329.39 0 0 1 329.59-332.78h0.42a328.66 328.66 0 0 1 210.62 76l119.67-119.71a30 30 0 0 1 42.42 0A30 30 0 0 1 859 79L739.38 198.55a328.65 328.65 0 0 1 76.87 211.79c0 181.85-148.51 329.91-330 329.91z m0-600c-149.12 0-270 120.88-270 270s120.88 270 270 270 270-120.88 270-270-120.88-270-270-270z"  horiz-adv-x="1024" />

    
    <glyph glyph-name="question-fill" unicode="&#59688;" d="M512 754c-204.3 0-370-165.6-370-370s165.7-370 370-370 370 165.7 370 370-165.7 370-370 370z m24.5-617.2c-9.3-9.3-21.2-14-35.9-14s-26.7 4.7-36.1 14c-9.4 9.3-14.1 21.3-14.1 35.8 0 14.8 4.7 26.9 14.1 36.2 9.4 9.3 21.4 14 36.1 14 14.7 0 26.7-4.7 35.9-14 9.3-9.3 13.9-21.4 13.9-36.2 0-14.6-4.7-26.5-13.9-35.8z m96.8 279.6c-12.6-21.4-29.8-39.8-50.4-53.7-20.9-14.1-35.2-27.5-42.6-40.2-7.5-12.7-11.5-20.3-11.5-40.2v-2.9c0.1-16.7-12.6-30.3-28.4-30.3h-0.7c-15.7 0-28.4 13.4-28.4 30v4.7c-0.2 24.9 5.1 46.4 15.9 64.5s27.5 34.8 50.2 50.1c19.2 13.3 32.8 26.8 41 40.3 8.2 13.6 12.2 30.4 12.2 50.5 0 23.4-7.3 42.7-22 58-14.7 15.3-34.3 23-59 23-24.9 0-44.9-7.9-60-23.6-10.7-11.1-18-25-22-41.8-3.1-13-14.3-22.1-27.1-22.1-18.6 0-32.1 18.5-27.5 37.5 5.8 24.3 17.2 47 33.3 66.1 23.9 28.4 59.1 42.6 105.6 42.6 41.7 0 75.4-13 101.3-39 25.9-26 38.8-58.5 38.8-97.5 0-29.3-6.2-54.8-18.7-76z"  horiz-adv-x="1024" />

    
    <glyph glyph-name="send" unicode="&#59689;" d="M869 756.18l-0.21 0.18-0.71 0.56c-0.21 0.17-0.43 0.33-0.65 0.49l-0.29 0.21a30 30 0 0 1-32.49 1.61l-675.5-390a30 30 0 0 1-11-41 29.87 29.87 0 0 1 9.43-10 29.88 29.88 0 0 1 15.45-9.29L303.2 277.7a30 30 0 0 1 36 21.41 30 30 0 0 1-22 36.94l-67.44 16.19 559.38 323-77.35-438.73L509.09 290 646 426.89a30 30 0 0 1 0 42.42 30 30 0 0 1-42.43 0l-169.7-169.7a41.29 41.29 0 0 1-10.94-24.36v-235.08a30 30 0 0 1 8.29-26.63 30 30 0 0 1 42.43 0l99 99a30 30 0 0 1 0 42.43 30 30 0 0 1-42.42 0l-47.29-47.29V234.55l263.85-63.34a33 33 0 0 1 38.81 24.93l93.77 531.8A30 30 0 0 1 869 756.18z"  horiz-adv-x="1024" />

    
    <glyph glyph-name="right" unicode="&#59690;" d="M639.6 384L320.8 65.2c-11.7-11.7-11.7-30.7 0-42.4s30.7-11.7 42.4 0L682 341.6l21.2 21.2c11.7 11.7 11.7 30.7 0 42.4L682 426.4 363.2 745.2c-11.7 11.7-30.7 11.7-42.4 0s-11.7-30.7 0-42.4L639.6 384z"  horiz-adv-x="1024" />

    
    <glyph glyph-name="share-fill" unicode="&#59691;" d="M762 254.21a120 120 0 0 1-92.1-43.1l-291.2 145.1a120.16 120.16 0 0 1 0.7 52.7L672 554.81a119.73 119.73 0 0 1 179.5 158.5c-43.7 49.6-119.4 54.2-169 10.5a119.61 119.61 0 0 1-37.6-115.5l-292.1-145.6a120 120 0 1 1-12.2-169.3 115.63 115.63 0 0 1 10 9.8l293.6-146.3a120 120 0 1 1 140.5 95.2 123.71 123.71 0 0 1-22.7 2.1z"  horiz-adv-x="1024" />

    
    <glyph glyph-name="share" unicode="&#59692;" d="M762 254c-35.6 0-69.3-15.8-92.1-43.1L378.7 356c4.1 17.3 4.4 35.3 0.7 52.7L672 554.6c43.8-49.6 119.4-54.2 169-10.5 49.6 43.8 54.2 119.4 10.5 169s-119.4 54.2-169 10.5c-32.6-28.8-47-73-37.6-115.5L352.8 462.5c-43.4 50.1-119.2 55.6-169.3 12.2s-55.6-119.2-12.2-169.3 119.2-55.6 169.3-12.2c3.5 3.1 6.9 6.3 10 9.8l293.6-146.3c-12.5-65.1 30.1-128 95.2-140.5s128 30.1 140.5 95.2-30.1 128-95.2 140.5c-7.5 1.4-15.1 2.1-22.7 2.1z m0 440c33.1 0 60-26.9 60-60s-26.9-60-60-60-60 26.9-60 60c0 0.9 0 1.8 0.1 2.7 1.4 32 27.8 57.3 59.9 57.3zM262 324c-33.1 0-60 26.9-60 60s26.9 60 60 60c33 0 59.8-26.7 60-59.7v-1.5l-0.1-2.8c-2.1-31.5-28.3-56-59.9-56z m500-250c-33.1 0-60 26.9-60 60s26.9 60 60 60 60-26.9 60-60-26.9-60-60-60z"  horiz-adv-x="1024" />

    
    <glyph glyph-name="notification-off-fill" unicode="&#59693;" d="M799.09 125.06l-2.78 5.84-25.82 54.16-6.08 12.75c-7.1 14.9-12.91 40.58-12.91 57.08V425.8A240.25 240.25 0 0 1 600.4 647a90 90 0 1 1-176.8 0q-2.52-1-5-2.07L734.36 98H782c16.5 0 24.19 12.17 17.09 27.06zM541.93 662a245.41 245.41 0 0 1-29.43 1.89h-1a245.41 245.41 0 0 1-29.43-1.89c0 0.63-0.07 1.26-0.07 1.9a30 30 0 0 0 60 0c0-0.64 0-1.27-0.07-1.9z m-199.17-68.34a238.37 238.37 0 0 1-70.24-167.9V254.9c0-16.5-5.81-42.19-12.91-57.08l-6.08-12.76-25.84-54.16-2.78-5.84c-7.1-14.9 0.59-27.08 17.09-27.08h167.55a105 105 0 0 1 205.74 0h15.15L343.72 594.6zM552.16 98a45 45 0 0 0-79.48 0zM343 747.07a30 30 0 0 1-41 11 30 30 0 0 1-11-41l410-710.14a30 30 0 0 1 41-11 30 30 0 0 1 11 41z"  horiz-adv-x="1024" />

    
    <glyph glyph-name="setting" unicode="&#59694;" d="M836.53 313.91a122.54 122.54 0 0 0 39.21 176.19l-30 52-30.39 52.6-30 52a121.49 121.49 0 0 0-50.46-16.52q-5.92-0.58-12-0.59a122.46 122.46 0 0 0-122.5 122.5H420.8a122.46 122.46 0 0 0-122.5-122.5q-4.71 0-9.32 0.35a121.8 121.8 0 0 0-51 15.53l-30-52-29.68-51.4-30-52a123.07 123.07 0 0 0 39.21-36 122.51 122.51 0 0 0 0-140.18 123.07 123.07 0 0 0-39.21-36l30-52 30.05-52 30-52a121.74 121.74 0 0 0 50.7 16.11c3.53 0.3 7.1 0.47 10.72 0.47a122.46 122.46 0 0 0 122.5-122.5h179.1a122.46 122.46 0 0 0 122.5 122.5c3.73 0 7.42-0.18 11.07-0.5a121.81 121.81 0 0 0 50.66-16.17l30 52 30.14 52.2 30 52a123.07 123.07 0 0 0-39.21 35.91zM256.86 574.29A182.72 182.72 0 0 1 473.28 700.1h74.63a182.67 182.67 0 0 1 218.88-125.21l37.74-65.37a182.47 182.47 0 0 1 0-251l-37.62-65.16a182.67 182.67 0 0 1-218-125.42h-74.16A182.7 182.7 0 0 1 257 193.4l-37.57 65.08a182.47 182.47 0 0 1 0 251M512 564a180 180 0 1 1 180-180 180 180 0 0 1-180 180z m0-300a120 120 0 1 0 120 120 120 120 0 0 0-120-120z"  horiz-adv-x="1024" />

    
    <glyph glyph-name="setting-fill" unicode="&#59695;" d="M836.5 313.9c-38.7 55.5-25.1 131.9 30.4 170.6 2.8 2 5.8 3.8 8.8 5.6l-30 52-30.4 52.6-30 52c-15.4-9.2-32.6-14.8-50.5-16.5-3.9-0.4-7.9-0.6-12-0.6-67.6 0-122.5 54.8-122.5 122.4v0.1H420.8c0-67.6-54.8-122.5-122.4-122.5h-0.1c-3.1 0-6.2 0.1-9.3 0.4-17.9 1.3-35.4 6.7-51 15.5l-30-52-29.7-51.5-30-52c15.5-9 28.9-21.3 39.2-36 29.4-42.1 29.4-98.1 0-140.2-10.3-14.7-23.7-27-39.2-36l30-52 30.1-52 30-52c15.5 9 32.8 14.5 50.7 16.1 3.5 0.3 7.1 0.5 10.7 0.5 67.6 0 122.5-54.8 122.5-122.4v-0.1h179.1c0 67.6 54.8 122.5 122.4 122.5h0.1c3.7 0 7.4-0.2 11.1-0.5 17.9-1.6 35.2-7.1 50.7-16.2l30 52 30.1 52.2 30 52c-15.6 9-29 21.3-39.3 36zM512 204c-99.4 0-180 80.6-180 180s80.6 180 180 180 180-80.6 180-180-80.6-180-180-180z"  horiz-adv-x="1024" />

    
    <glyph glyph-name="sort-down" unicode="&#59696;" d="M335 396.78a30 30 0 0 0 42.42 0l260.36-260.35V692c0 23.2 13.43 42 30 42s30-18.8 30-42v-616a59.43 59.43 0 0 0-0.6-8.43 30 30 0 0 0-8.62-24.35A29.88 29.88 0 0 0 677 36a22.27 22.27 0 0 0-9.24-2 22.15 22.15 0 0 0-7.06 1.18 29.88 29.88 0 0 0-14.59 8L335 354.35a30 30 0 0 0 0 42.43z"  horiz-adv-x="1024" />

    
    <glyph glyph-name="skeleton" unicode="&#59697;" d="M192 414h640c16.6 0 30-13.4 30-30s-13.4-30-30-30H192c-16.6 0-30 13.4-30 30s13.4 30 30 30z m0-210h640c16.6 0 30-13.4 30-30s-13.4-30-30-30H192c-16.6 0-30 13.4-30 30s13.4 30 30 30z m320 420H192.6c-16.3 0-30.2-12.8-30.6-29.2-0.5-17 13.1-30.8 30-30.8h350c16.6 0 30 13.4 30 30s-13.4 30-30 30h-30z"  horiz-adv-x="1024" />

    
    <glyph glyph-name="relation" unicode="&#59698;" d="M815.48 697.92a189.9 189.9 0 0 1-268.7 0l-120.21-120.2a30 30 0 0 1 0-42.43 30 30 0 0 1 42.43 0l119.2 119.2c50.72 50.72 133.3 52 184.32 1.54 51.22-50.64 51.4-133.51 0.54-184.38L652.85 351.44A30 30 0 1 1 695.27 309l120.21 120.2a189.9 189.9 0 0 1 0 268.7zM575.43 232.71a30 30 0 0 1-42.43 0L412.79 112.5c-50.86-50.86-133.74-50.68-184.38 0.54-50.43 51-49.18 133.6 1.55 184.32l119.19 119.2a30 30 0 0 1 0 42.42 30 30 0 0 1-42.42 0l-120.21-120.2a190 190 0 1 1 268.7-268.7l120.21 120.2a30 30 0 0 1 0 42.43zM427.145 341.573l127.279 127.28q21.213 21.213 42.426 0 21.214-21.214 0-42.427L469.571 299.147q-21.213-21.213-42.426 0t0 42.426z"  horiz-adv-x="1024" />

    
    <glyph glyph-name="sort" unicode="&#59699;" d="M888.78 371.22a30 30 0 0 0-42.43 0L586 631.57V76c0-23.2-13.43-42-30-42s-30 18.8-30 42V692a59.43 59.43 0 0 0 0.6 8.43 30 30 0 0 0 8.62 24.35 29.91 29.91 0 0 0 11.55 7.22 22.22 22.22 0 0 0 9.23 2 22.11 22.11 0 0 0 7.06-1.18 29.88 29.88 0 0 0 14.59-8l311.13-311.17a30 30 0 0 0 0-42.43z m-777.56 25.56a30 30 0 0 0 42.43 0L414 136.43V692c0 23.2 13.43 42 30 42s30-18.8 30-42v-616a59.43 59.43 0 0 0-0.6-8.43 30 30 0 0 0-8.62-24.35 29.91 29.91 0 0 0-11.55-7.22 22.22 22.22 0 0 0-9.23-2 22.11 22.11 0 0 0-7.06 1.18 29.88 29.88 0 0 0-14.59 8L111.22 354.35a30 30 0 0 0 0 42.43z"  horiz-adv-x="1024" />

    
    <glyph glyph-name="square-plus-fill" unicode="&#59700;" d="M852 754H172a30 30 0 0 1-30-30v-680a30 30 0 0 1 30-30h680a30 30 0 0 1 30 30V724a30 30 0 0 1-30 30zM657 354H542v-115a30 30 0 0 0-60 0V354H367a30 30 0 0 0 0 60h115V529a30 30 0 0 0 60 0v-115h115a30 30 0 0 0 0-60z"  horiz-adv-x="1024" />

    
    <glyph glyph-name="square-remove" unicode="&#59701;" d="M852 754H172c-16.6 0-30-13.4-30-30v-680c0-16.6 13.4-30 30-30h680c16.6 0 30 13.4 30 30V724c0 16.6-13.4 30-30 30z m-20-660c0-16.6-13.4-30-30-30H222c-16.6 0-30 13.4-30 30V674c0 16.6 13.4 30 30 30h580c16.6 0 30-13.4 30-30v-580zM657 414H367c-16.6 0-30-13.4-30-30s13.4-30 30-30h290c16.6 0 30 13.4 30 30s-13.4 30-30 30z"  horiz-adv-x="1024" />

    
    <glyph glyph-name="square-remove-fill" unicode="&#59702;" d="M852 754H172a30 30 0 0 1-30-30v-680a30 30 0 0 1 30-30h680a30 30 0 0 1 30 30V724a30 30 0 0 1-30 30zM657 354H367a30 30 0 0 0 0 60h290a30 30 0 0 0 0-60z"  horiz-adv-x="1024" />

    
    <glyph glyph-name="square-plus" unicode="&#59703;" d="M657 414H542V529c0 16.6-13.4 30-30 30s-30-13.4-30-30v-115H367c-16.6 0-30-13.4-30-30s13.4-30 30-30h115v-115c0-16.6 13.4-30 30-30s30 13.4 30 30V354h115c16.6 0 30 13.4 30 30s-13.4 30-30 30z m195 340H172c-16.6 0-30-13.4-30-30v-680c0-16.6 13.4-30 30-30h680c16.6 0 30 13.4 30 30V724c0 16.6-13.4 30-30 30z m-20-660c0-16.6-13.4-30-30-30H222c-16.6 0-30 13.4-30 30V674c0 16.6 13.4 30 30 30h580c16.6 0 30-13.4 30-30v-580z"  horiz-adv-x="1024" />

    
    <glyph glyph-name="switch" unicode="&#59704;" d="M727 724H297c-85.25 0-155-69.75-155-155s69.75-155 155-155h430c85.25 0 155 69.75 155 155s-69.75 155-155 155zM392 569c0-52.25-42.75-95-95-95s-95 42.75-95 95 42.75 95 95 95 95-42.75 95-95z m335-215H297c-85.25 0-155-69.75-155-155s69.75-155 155-155h430c85.25 0 155 69.75 155 155s-69.75 155-155 155z m95-156c0-52.25-42.75-95-95-95s-95 42.75-95 95 42.75 95 95 95 95-42.75 95-95z"  horiz-adv-x="1024" />

    
    <glyph glyph-name="star-fill" unicode="&#59705;" d="M383.76 522.91l89.37 198.24c11.34 25.13 46.57 26.36 59.63 2.08l103-191.52L851.89 508c27.41-3 39.47-36.14 20.41-56.06L722 294.78l44.21-212.9c5.61-27-22.17-48.71-47-36.73l-195.89 94.4-188.85-107.84c-23.94-13.67-53.17 6-49.46 33.37l29.26 215.47L153.35 426.8c-20.4 18.55-10.68 52.44 16.45 57.35z"  horiz-adv-x="1024" />

    
    <glyph glyph-name="user-fill" unicode="&#59706;" d="M303 544a210 210 0 1 1 420 0 210 210 0 1 1-420 0z m549.9-388.1c-33.1 77.5-91.1 141.7-164.8 182.6-101.2-86.2-250-86-350.9 0.5-31.1-17-59.7-38.3-84.8-63.2-34.1-33.6-61.5-73.5-80.5-117.5-19.8-45.5-30-94.7-29.9-144.3h740c0 48.8-9.9 97.1-29.1 141.9z"  horiz-adv-x="1024" />

    
    <glyph glyph-name="table" unicode="&#59707;" d="M852 704H172c-16.6 0-30-13.4-30-30v-580c0-16.6 13.4-30 30-30h680c16.6 0 30 13.4 30 30V674c0 16.6-13.4 30-30 30zM351 114H222c-16.6 0-30 13.4-30 30v68.5h159V114z m0 158.5H192v82h159v-82z m0 142H192v76h159v-76z m0 136H192V624c0 16.6 13.4 30 30 30h129v-103.5zM602 114H411v98.5h191V114z m0 158.5H411v82h191v-82z m0 142H411v76h191v-76z m0 136H411V654h191v-103.5zM832 144c0-16.6-13.4-30-30-30H662v98.5h170V144z m0 128.5H662v82h170v-82z m0 142H662v76h170v-76z m0 136H662V654h140c16.6 0 30-13.4 30-30v-73.5z"  horiz-adv-x="1024" />

    
    <glyph glyph-name="tab" unicode="&#59708;" d="M852 704H172a30 30 0 0 1-30-30v-580a30 30 0 0 1 30-30h680a30 30 0 0 1 30 30V674a30 30 0 0 1-30 30z m-20-560a30 30 0 0 0-30-30H222a30 30 0 0 0-30 30V624a30 30 0 0 0 30 30h290v-146a30 30 0 0 1 30-30h290z m0 394H572V654h230a30 30 0 0 0 30-30z"  horiz-adv-x="1024" />

    
    <glyph glyph-name="success-fill" unicode="&#59709;" d="M512 754c-204.35 0-370-165.65-370-370s165.65-370 370-370 370 165.65 370 370-165.65 370-370 370z m228.24-235.65L429.12 207.22a35.19 35.19 0 0 0-46.37 0.07l-99 99a30 30 0 0 0 0 42.43 30 30 0 0 0 42.42 0l79.83-79.8 291.82 291.85a30 30 0 0 0 42.42 0 30 30 0 0 0 0-42.42z"  horiz-adv-x="1024" />

    
    <glyph glyph-name="success" unicode="&#59710;" d="M512 754c-204.35 0-370-165.65-370-370s165.65-370 370-370 370 165.65 370 370-165.65 370-370 370z m321-370c0-176.73-143.27-320-320-320S193 207.27 193 384s143.27 320 320 320 320-143.27 320-320z m-92.76 176.77a30 30 0 0 1-42.42 0L406 268.92l-79.79 79.79a30 30 0 0 1-42.42 0 30 30 0 0 1 0-42.43l99-99a35.19 35.19 0 0 1 46.37-0.07l311.08 311.14a30 30 0 0 1 0 42.42z"  horiz-adv-x="1024" />

    
    <glyph glyph-name="tooltip" unicode="&#59711;" d="M852 701.77H172a30 30 0 0 1-30-30v-400a30 30 0 0 1 30-30h93.27l-14.74-83.62-16.21-91.92 71.5 60 137.71 115.54H852a30 30 0 0 1 30 30v400a30 30 0 0 1-30 30z m-520-170a60 60 0 1 0-60-60 60 60 0 0 0 60 60z m180-120a60 60 0 1 0 60 60 60 60 0 0 0-60-60z m180 0a60 60 0 1 0 60 60 60 60 0 0 0-60-60z"  horiz-adv-x="1024" />

    
    <glyph glyph-name="undo" unicode="&#59712;" d="M808.81 476A248.35 248.35 0 0 1 632 549.17H244.47l118.45 118.45a30 30 0 0 1 0 42.42 30 30 0 0 1-42.43 0L151.74 541.29c-0.32-0.3-0.64-0.6-1-0.91-0.35-0.35-0.69-0.71-1-1.07-0.15-0.18-0.3-0.36-0.46-0.53s-0.33-0.39-0.49-0.58-0.37-0.47-0.55-0.7l-0.35-0.45-0.56-0.78-0.28-0.41-0.53-0.82c-0.08-0.14-0.17-0.28-0.26-0.42l-0.47-0.82c-0.08-0.15-0.17-0.3-0.25-0.46s-0.28-0.52-0.41-0.78-0.18-0.36-0.26-0.54-0.23-0.49-0.33-0.73-0.19-0.42-0.28-0.64-0.17-0.43-0.26-0.65-0.19-0.49-0.28-0.74-0.13-0.38-0.19-0.58-0.19-0.55-0.27-0.83l-0.15-0.52c-0.08-0.3-0.17-0.6-0.24-0.9s-0.08-0.33-0.11-0.49-0.15-0.63-0.21-0.94l-0.09-0.5c0-0.31-0.11-0.62-0.16-0.94s0-0.38-0.07-0.57-0.08-0.58-0.1-0.88 0-0.51-0.06-0.77 0-0.45-0.05-0.69v-1.48c0-1 0.05-2 0.15-3 0.05-0.49 0.11-1 0.19-1.49a29.76 29.76 0 0 1 8.44-16.69c0.29-0.29 0.59-0.57 0.9-0.85l168.8-168.81a30 30 0 0 1 42.43 0 30 30 0 0 1 0 42.43l-118.5 118.41h385.93c104.45 0 191.64-85.45 191.64-189.91 0-104.81-85.2-190.09-190-190.09H262a30 30 0 0 1-30-30 30 30 0 0 1 30-30h370A250 250 0 0 1 808.81 476z"  horiz-adv-x="1024" />

    
    <glyph glyph-name="upload" unicode="&#59713;" d="M852 74H172c-16.6 0-30-13.4-30-30s13.4-30 30-30h680c16.6 0 30 13.4 30 30s-13.4 30-30 30zM193.2 362.8L477 646.6V172c0-16.6 13.4-30 30-30s30 13.4 30 30V656.6l293.8-293.8c11.7-11.7 30.7-11.7 42.4 0s11.7 30.7 0 42.4L554.4 724l-21.2 21.2c-11.7 11.7-30.7 11.7-42.4 0L469.6 724 150.8 405.2c-11.7-11.7-11.7-30.7 0-42.4s30.7-11.7 42.4 0z"  horiz-adv-x="1024" />

    
    <glyph glyph-name="up" unicode="&#59714;" d="M512 511.6l318.8-318.8c11.7-11.7 30.7-11.7 42.4 0s11.7 30.7 0 42.4L554.4 554l-21.2 21.2c-11.7 11.7-30.7 11.7-42.4 0L469.6 554 150.8 235.2c-11.7-11.7-11.7-30.7 0-42.4s30.7-11.7 42.4 0L512 511.6z"  horiz-adv-x="1024" />

    
    <glyph glyph-name="star" unicode="&#59715;" d="M851.89 508l-216.15 23.71-103 191.52c-13.06 24.28-48.29 23.05-59.63-2.08l-89.35-198.24-214-38.76c-27.13-4.91-36.85-38.8-16.45-57.35l160.96-146.25L285 65.08c-3.71-27.33 25.52-47 49.46-33.37l188.83 107.84 195.89-94.4c24.84-12 52.62 9.73 47 36.73L722 294.78l150.3 157.13c19.06 19.92 7 53.09-20.41 56.09zM658.1 308l40.3-194-178.54 86-172.1-98.29L374.42 298 227.76 431.32l195 35.33 81.45 180.68 93.89-174.56 197-21.63z"  horiz-adv-x="1024" />

    
    <glyph glyph-name="user" unicode="&#59716;" d="M852.91 156.15a378.09 378.09 0 0 1-196.59 198.18q-15.71 6.81-31.83 12.07A209.84 209.84 0 0 1 722 543.75c0 116-94 210-210 210s-210-94-210-210a209.86 209.86 0 0 1 97.69-177.47q-14.94-4.89-29.59-11.12a378.09 378.09 0 0 1-198.18-196.59A361.06 361.06 0 0 1 142 14.25h60c0 168 142 310 310 310s310-142 310-310h60a360.84 360.84 0 0 1-29.09 141.9zM362 543.25a150 150 0 1 0 150-150 150 150 0 0 0-150 150z"  horiz-adv-x="1024" />

    
    <glyph glyph-name="square" unicode="&#59717;" d="M467 724H202c-16.6 0-30-13.4-30-30v-265c0-16.6 13.4-30 30-30h265c16.6 0 30 13.4 30 30V694c0 16.6-13.4 30-30 30z m-30-241.8c0-12.8-10.4-23.2-23.2-23.2H255.2c-12.8 0-23.2 10.4-23.2 23.2V640.8c0 12.8 10.4 23.2 23.2 23.2h158.6c12.8 0 23.2-10.4 23.2-23.2v-158.6zM467 369H202c-16.6 0-30-13.4-30-30v-265c0-16.6 13.4-30 30-30h265c16.6 0 30 13.4 30 30V339c0 16.6-13.4 30-30 30z m-30-241.8c0-12.8-10.4-23.2-23.2-23.2H255.2c-12.8 0-23.2 10.4-23.2 23.2V285.8c0 12.8 10.4 23.2 23.2 23.2h158.6c12.8 0 23.2-10.4 23.2-23.2v-158.6zM822 724H557c-16.6 0-30-13.4-30-30v-265c0-16.6 13.4-30 30-30h265c16.6 0 30 13.4 30 30V694c0 16.6-13.4 30-30 30z m-30-241.8c0-12.8-10.4-23.2-23.2-23.2H610.2c-12.8 0-23.2 10.4-23.2 23.2V640.8c0 12.8 10.4 23.2 23.2 23.2h158.6c12.8 0 23.2-10.4 23.2-23.2v-158.6zM822 369H557c-16.6 0-30-13.4-30-30v-265c0-16.6 13.4-30 30-30h265c16.6 0 30 13.4 30 30V339c0 16.6-13.4 30-30 30z m-30-241.8c0-12.8-10.4-23.2-23.2-23.2H610.2c-12.8 0-23.2 10.4-23.2 23.2V285.8c0 12.8 10.4 23.2 23.2 23.2h158.6c12.8 0 23.2-10.4 23.2-23.2v-158.6z"  horiz-adv-x="1024" />

    
    <glyph glyph-name="video" unicode="&#59718;" d="M882 544.37v1.5l-0.06 0.8c0 0.25 0 0.49-0.08 0.73s0 0.46-0.08 0.68-0.08 0.57-0.13 0.85l-0.09 0.53c-0.07 0.33-0.13 0.66-0.2 1 0 0.12-0.06 0.23-0.08 0.35-0.09 0.39-0.19 0.78-0.3 1.16v0.17c-0.13 0.44-0.26 0.89-0.41 1.32a30 30 0 0 1-4.14 8.08c-0.26 0.36-0.53 0.7-0.8 1.05l-0.16 0.2c-0.23 0.28-0.46 0.56-0.7 0.83l-0.3 0.35-0.59 0.63-0.44 0.46c-0.17 0.18-0.35 0.34-0.52 0.51l-0.54 0.52-0.53 0.46c-0.19 0.16-0.37 0.33-0.56 0.48l-0.66 0.53-0.63 0.44c-0.33 0.25-0.67 0.49-1 0.73l-0.12 0.09a30 30 0 0 1-13.3 5h-0.12c-0.37 0-0.74 0.08-1.11 0.11h-4.22l-0.87-0.07-0.64-0.06-0.79-0.1-0.73-0.11-0.67-0.12-0.84-0.17-0.53-0.12-1-0.24-0.39-0.11-1.09-0.34-0.25-0.08c-0.41-0.14-0.81-0.28-1.2-0.44l-0.15-0.06c-0.43-0.16-0.85-0.34-1.27-0.53h-0.09c-0.44-0.19-0.87-0.4-1.29-0.62h-0.07c-0.43-0.21-0.85-0.44-1.26-0.68h-0.07l-95-54.85V604a30 30 0 0 1-30 30H172a30 30 0 0 1-30-30v-440a30 30 0 0 1 30-30h540a30 30 0 0 1 30 30v88.87L837 198h0.06q0.62-0.36 1.26-0.69h0.07c0.42-0.22 0.86-0.43 1.29-0.62h0.09c0.42-0.19 0.84-0.37 1.27-0.54l0.15-0.05c0.39-0.16 0.79-0.3 1.2-0.44l0.25-0.08 1.09-0.34 0.39-0.11 1-0.24 0.53-0.12 0.84-0.17 0.67-0.12 0.73-0.11 0.79-0.1 0.65-0.06 0.86-0.07h4.22c0.37 0 0.74 0.06 1.11 0.11h0.12a30 30 0 0 1 13.3 5l0.12 0.09c0.35 0.24 0.69 0.48 1 0.73l0.46 0.36 0.66 0.53c0.19 0.15 0.38 0.32 0.56 0.49l0.53 0.45 0.54 0.52c0.17 0.17 0.35 0.33 0.52 0.51l0.44 0.46 0.59 0.63 0.3 0.35c0.24 0.27 0.47 0.55 0.7 0.83l0.16 0.2c0.27 0.35 0.54 0.69 0.8 1v0.05a30 30 0 0 1 4.14 8.08c0.15 0.43 0.28 0.88 0.41 1.32v0.17c0.11 0.38 0.21 0.77 0.3 1.16 0 0.12 0 0.23 0.08 0.35 0.07 0.33 0.13 0.66 0.2 1l0.09 0.53c0 0.28 0.09 0.56 0.13 0.85s0.06 0.45 0.08 0.68 0.05 0.48 0.08 0.73l0.06 0.8V544c0.11 0.12 0.11 0.24 0.11 0.37zM677.71 478v-284H206.29V574h471.42zM822 276l-80 46.19V445.85L822 492zM250.21 477.53a60 60 0 1 1 120 0 60 60 0 1 1-120 0z"  horiz-adv-x="1024" />

    
    <glyph glyph-name="sound" unicode="&#59719;" d="M533.1 720.7c1.1 9.1-2.1 18.2-8.6 24.7-11.7 11.7-30.7 11.7-42.4 0L299.6 563H172.1c-8.5 0-16.5-3.6-22.2-9.8-0.3-0.3-0.6-0.7-0.9-1.1-0.6-0.7-1.2-1.5-1.7-2.3-3.3-5-5.1-10.8-5.1-16.8v-298c0-16.6 13.4-30 30-30h127.6l182.4-182.4c11.7-11.7 30.7-11.7 42.4 0 6.5 6.5 9.6 15.6 8.6 24.7V720.7z m-60-604.3L333.3 256.2c-5.6 5.6-13.3 8.8-21.2 8.8h-110V503h110c8 0 15.6 3.2 21.2 8.8l139.8 139.8v-535.2zM638.3 537c-1.4-1-2.8-2.2-4-3.4-10.3-10.2-11.9-26.3-3.7-38.4 18.9-27.4 29.4-63 29.4-101.2s-10.5-73.8-29.4-101.3c-8.2-12-6.6-28.1 3.7-38.4 11.6-11.6 30.4-11.6 42-0.1 1.3 1.2 2.4 2.6 3.4 4.1C705.6 295.9 720 343.6 720 394s-14.4 98.2-40.3 135.7c-9.4 13.5-27.9 16.7-41.4 7.3z m149 126.8c-10.6 12.7-29.5 14.5-42.3 3.9-0.7-0.6-1.4-1.2-2-1.9-10.9-10.9-11.8-28.3-2-40.2 107.7-129.8 107.7-353.3 0-483.2-9.8-11.9-9-29.4 2-40.3 11.7-11.7 30.7-11.7 42.4 0 0.6 0.6 1.3 1.3 1.8 2 60.5 73 94.6 173.1 94.6 279.8s-34 206.9-94.5 279.9z"  horiz-adv-x="1024" />

    
    <glyph glyph-name="weibo" unicode="&#59720;" d="M432.34 126.53C554.1 132.13 652.62 209 652.62 291S554.1 423.52 432.34 417.84s-220-71.45-220-153.51c-0.02-81.89 98.33-143.48 220-137.8zM691.4 392.77c29-5.85 120.17-48.47 70-156.18C711.29 129 545.83 76.73 423.24 86.42 306.83 95.7 157 134.72 141.53 277c0 0-8.18 64.43 53.74 147.83 0 0 89 125.52 192.7 161.28s115.91-24.65 115.91-60.33C498.36 495.56 488 477.76 527 490c0 0 102 47.8 144 5.43 33.84-34.18 5.6-81.23 5.6-81.23s-14.03-15.75 14.8-21.43zM453.24 264.33c7.6 6 10.52 16.55 6.35 23.48s-13.54 8.78-22.57 2c-7.85-5.77-9.44-16.71-5.18-23.57 4.1-6.92 13.62-7.76 21.4-1.91z m-72.12-62.09c22.73 2.59 41.28 20.39 41.28 39.61s-17 34.6-43.29 32c-22.89-2.43-39.19-22.48-39.19-41.7s18.3-32.58 41.2-29.91zM412 364.69c122.54 14.38 144.36-103.79 107.09-152.34s-111-72.28-182.6-33.09c-34.09 18.64-32.84 55.32-32.84 55.32S289.53 350.24 412 364.69z m337.69 76.38a20.19 20.19 0 0 0-20.22 20.23s19.81 90.66-70 70.61a20.31 20.31 0 0 0 0 40.61s125 23.32 110.14-112.31a8.9 8.9 0 0 0-0.25-2.17 20 20 0 0 0-19.72-16.97zM735.1 677.9c77.38-18.22 183.6-93.68 135.8-254.38h-0.17c-3.26-23-14.54-24.82-28.08-24.82-16 0-29.08 10.2-29.08 26.49 0 14 5.77 28.42 5.77 28.42 1.67 5.93 15.29 42.7-8.94 97.77-44.55 75.38-134 76.46-144.66 72.2s-26.4-6.35-26.4-6.35a29.6 29.6 0 0 0-7.94 58 1.58 1.58 0 0 0 0.67 0.59c0.92 0.17 1.75 1.09 2.75 1.17 12.54 2.33 57 11.1 100.28 0.91z"  horiz-adv-x="1024" />

    
    <glyph glyph-name="warning-fill" unicode="&#59721;" d="M512 754c-204.4 0-370-165.6-370-370 0-204.3 165.6-370 370-370 204.3 0 370 165.7 370 370 0 204.4-165.7 370-370 370z m-29.7-145.5c0 16.6 13.4 30 30 30s30-13.4 30-30v-290c0-16.6-13.4-30-30-30s-30 13.4-30 30v290z m29.5-479c-27.6 0-50 22.4-50 50s22.3 50 50 50c27.6 0 50-22.4 50-50s-22.4-50-50-50z"  horiz-adv-x="1024" />

    
    <glyph glyph-name="sort-up" unicode="&#59722;" d="M689 371.22a30 30 0 0 0-42.42 0L386.22 631.57V76c0-23.2-13.43-42-30-42s-30 18.8-30 42V692a59.43 59.43 0 0 0 0.6 8.43 30 30 0 0 0 8.62 24.35A29.88 29.88 0 0 0 347 732a22.27 22.27 0 0 0 9.24 2 22.15 22.15 0 0 0 7.06-1.18 29.88 29.88 0 0 0 14.59-8L689 413.65a30 30 0 0 0 0-42.43z"  horiz-adv-x="1024" />

    
    <glyph glyph-name="wechat" unicode="&#59723;" d="M679.51 523.21a358.29 358.29 0 0 1-60.88 5.19c-152.47 0-276.52-95.47-276.52-212.93a170 170 0 0 1 19.76-79.08 296.44 296.44 0 0 0-51.07 13.42l-82.45-47.69c-2.39-1.4-15.41-0.58-18.45 2.22a15.93 15.93 0 0 0-3.22 18.54L238.89 288c-61.28 45.05-96.21 110-96.21 180 0 130.4 122.32 236.41 272.66 236.41 121.33 0 226.27-67.63 261-168.37a118.76 118.76 0 0 0 3.17-12.83z m-340 14.32a30 30 0 1 1-30 30 30 30 0 0 1 30.04-30z m135.34 0a30 30 0 1 1-30 30 30 30 0 0 1 30.04-30z m321.42-474a17.08 17.08 0 0 0-7.66 1.81L704.3 108a309.83 309.83 0 0 0-78.17-10c-140.7 0-255.19 92.59-255.19 206.51S485.35 511 626.13 511s255.19-92.59 255.19-206.51c0-61.37-34.27-119.85-92.34-158.9L812 87.13a17.29 17.29 0 0 0-4.28-19 16.61 16.61 0 0 0-11.41-4.56zM534 344.12a30 30 0 1 1-30 30 30 30 0 0 1 30-30z m169.12 0a30 30 0 1 1-30 30 30 30 0 0 1 30.03-30z"  horiz-adv-x="1024" />

    
    <glyph glyph-name="time" unicode="&#59724;" d="M512 754c-204.35 0-370-165.65-370-370s165.65-370 370-370 370 165.65 370 370-165.65 370-370 370z m321-370c0-176.73-143.27-320-320-320S193 207.27 193 384s143.27 320 320 320 320-143.27 320-320z m-110 60H573V594a30 30 0 0 1-30 30 30 30 0 0 1-30-30v-180a29.85 29.85 0 0 1 3.62-14.3A30.18 30.18 0 0 1 519 396q0.87-1.16 1.83-2.22t2-2q1.06-1 2.22-1.83a30.18 30.18 0 0 1 3.65-2.34A29.85 29.85 0 0 1 543 384h180a30 30 0 0 1 30 30 30 30 0 0 1-30 30z"  horiz-adv-x="1024" />

    
    <glyph glyph-name="warning" unicode="&#59725;" d="M511.8 229.5c27.6 0 50-22.4 50-50s-22.4-50-50-50-50 22.4-50 50 22.3 50 50 50z m0.5 409c16.6 0 30-13.4 30-30v-290c0-16.6-13.4-30-30-30s-30 13.4-30 30v290c0 16.6 13.4 30 30 30zM512 754c-204.4 0-370-165.6-370-370 0-204.3 165.6-370 370-370 204.3 0 370 165.7 370 370 0 204.4-165.7 370-370 370z m321-370c0-176.7-143.3-320-320-320S193 207.3 193 384s143.3 320 320 320 320-143.3 320-320z"  horiz-adv-x="1024" />

    
    <glyph glyph-name="video-fill" unicode="&#59726;" d="M882 544.37v1.5l-0.06 0.8c0 0.25 0 0.49-0.08 0.73s0 0.46-0.08 0.68-0.08 0.57-0.13 0.85l-0.09 0.53c-0.07 0.33-0.13 0.66-0.2 1 0 0.12-0.06 0.23-0.08 0.35-0.09 0.39-0.19 0.78-0.3 1.16v0.17c-0.13 0.44-0.26 0.89-0.41 1.32a30 30 0 0 1-4.14 8.08c-0.26 0.36-0.53 0.7-0.8 1.05l-0.16 0.2c-0.23 0.28-0.46 0.56-0.7 0.83l-0.3 0.35-0.59 0.63-0.44 0.46c-0.17 0.18-0.35 0.34-0.52 0.51l-0.54 0.52-0.53 0.46c-0.19 0.16-0.37 0.33-0.56 0.48l-0.66 0.53-0.63 0.44c-0.33 0.25-0.67 0.49-1 0.73l-0.12 0.09a30 30 0 0 1-13.3 5h-0.12c-0.37 0-0.74 0.08-1.11 0.11h-4.22l-0.87-0.07-0.64-0.06-0.79-0.1-0.73-0.11-0.67-0.12-0.84-0.17-0.53-0.12-1-0.24-0.39-0.11-1.09-0.34-0.25-0.08c-0.41-0.14-0.81-0.28-1.2-0.44l-0.15-0.06c-0.43-0.16-0.85-0.34-1.27-0.53h-0.09c-0.44-0.19-0.87-0.4-1.29-0.62h-0.07c-0.43-0.21-0.85-0.44-1.26-0.68h-0.07l-95-54.85V604a30 30 0 0 1-30 30H172a30 30 0 0 1-30-30v-440a30 30 0 0 1 30-30h540a30 30 0 0 1 30 30v88.87L837 198h0.06q0.62-0.36 1.26-0.69h0.07c0.42-0.22 0.86-0.43 1.29-0.62h0.09c0.42-0.19 0.84-0.37 1.27-0.54l0.15-0.05c0.39-0.16 0.79-0.3 1.2-0.44l0.25-0.08 1.09-0.34 0.39-0.11 1-0.24 0.53-0.12 0.84-0.17 0.67-0.12 0.73-0.11 0.79-0.1 0.65-0.06 0.86-0.07h4.22c0.37 0 0.74 0.06 1.11 0.11h0.12a30 30 0 0 1 13.3 5l0.12 0.09c0.35 0.24 0.69 0.48 1 0.73l0.46 0.36 0.66 0.53c0.19 0.15 0.38 0.32 0.56 0.49l0.53 0.45 0.54 0.52c0.17 0.17 0.35 0.33 0.52 0.51l0.44 0.46 0.59 0.63 0.3 0.35c0.24 0.27 0.47 0.55 0.7 0.83l0.16 0.2c0.27 0.35 0.54 0.69 0.8 1v0.05a30 30 0 0 1 4.14 8.08c0.15 0.43 0.28 0.88 0.41 1.32v0.17c0.11 0.38 0.21 0.77 0.3 1.16 0 0.12 0 0.23 0.08 0.35 0.07 0.33 0.13 0.66 0.2 1l0.09 0.53c0 0.28 0.09 0.56 0.13 0.85s0.06 0.45 0.08 0.68 0.05 0.48 0.08 0.73l0.06 0.8V544c0.11 0.12 0.11 0.24 0.11 0.37zM310.21 417.53a60 60 0 1 0 60 60 60 60 0 0 0-60-60z"  horiz-adv-x="1024" />

    
    <glyph glyph-name="github" unicode="&#59727;" d="M511.957 874.667C241.024 874.667 21.333 655.019 21.333 384c0-216.832 140.544-400.725 335.574-465.664 24.49-4.395 32.256 10.07 32.256 23.083 0 11.69 0.256 44.245 0 85.205-136.448-29.61-164.736 64.64-164.736 64.64-22.315 56.704-54.4 71.765-54.4 71.765-44.587 30.464 3.285 29.824 3.285 29.824 49.195-3.413 75.179-50.517 75.179-50.517 43.776-75.008 114.816-53.333 142.762-40.79 4.523 31.66 17.152 53.377 31.19 65.537-108.971 12.458-223.488 54.485-223.488 242.602 0 53.547 19.114 97.323 50.517 131.67-5.035 12.33-21.93 62.293 4.779 129.834 0 0 41.258 13.184 134.912-50.346a469.803 469.803 0 0 0 122.88 16.554c41.642-0.213 83.626-5.632 122.88-16.554 93.653 63.488 134.784 50.346 134.784 50.346 26.752-67.541 9.898-117.504 4.864-129.834 31.402-34.347 50.474-78.123 50.474-131.67 0-188.586-114.73-230.016-224.042-242.09 17.578-15.232 33.578-44.672 33.578-90.454v-135.85c0-13.142 7.936-27.606 32.854-22.87C862.25-16.597 1002.667 167.253 1002.667 384c0 271.019-219.648 490.667-490.71 490.667z"  horiz-adv-x="1024" />

    


  </font>
</defs>
</svg>
